<?xml version="1.0" encoding="utf-8"?>
<!-- Generator: Adobe Illustrator 24.2.1, SVG Export Plug-In . SVG Version: 6.00 Build 0)  -->
<svg version="1.1" xmlns="http://www.w3.org/2000/svg" xmlns:xlink="http://www.w3.org/1999/xlink" x="0px" y="0px"
	 viewBox="0 0 750 500" style="enable-background:new 0 0 750 500;" xml:space="preserve">
<style type="text/css">
	.st0{fill-rule:evenodd;clip-rule:evenodd;fill:#E0E0E0;}
	.st1{fill:#E0E0E0;}
	.st2{fill:#F5F5F5;}
	.st3{display:none;}
	.st4{display:inline;fill:#EBEBEB;}
	.st5{fill:#263238;}
	.st6{fill-rule:evenodd;clip-rule:evenodd;fill:#E8505B;}
	.st7{opacity:0.8;}
	.st8{fill-rule:evenodd;clip-rule:evenodd;fill:#FFFFFF;}
	.st9{opacity:0.4;}
	.st10{fill-rule:evenodd;clip-rule:evenodd;fill:#263238;}
	.st11{fill:#FAFAFA;}
	.st12{fill:#FFFFFF;}
	.st13{fill:#E8505B;}
	.st14{opacity:0.3;}
	.st15{fill:#455A64;}
	.st16{opacity:0.5;}
</style>
<g id="Background_Complete">
	<g>
		<g>
			<g>
				<g>
					<g>
						<g>
							<g>
								<g>
									<path class="st0" d="M286.6,366.2c3.4,0.4,6.6,1.3,9.7,2.6l7.1-6l12.3,9.3l-3.9,8.5c2,2.6,3.8,5.5,5.1,8.7l9.3,0.8
										l2.1,15.3l-8.7,3.3c-0.4,3.4-1.3,6.6-2.6,9.7l6,7.1l-9.3,12.3l-8.5-3.9c-2.6,2-5.5,3.8-8.7,5.1l-0.8,9.3l-15.3,2.1
										l-3.3-8.7c-3.4-0.4-6.6-1.3-9.7-2.6l-7.1,6l-12.3-9.3l3.9-8.5c-2-2.6-3.8-5.5-5.1-8.7l-9.3-0.8l-2.1-15.3l8.7-3.3
										c0.4-3.4,1.3-6.6,2.6-9.7l-6-7.1l9.3-12.3l8.5,3.9c2.6-2,5.5-3.8,8.7-5.1l0.8-9.3l15.3-2.1L286.6,366.2L286.6,366.2z
										 M282.1,387.3c-10.5,0.4-18,10.2-15.6,20.4c1.8,7.6,8.9,12.9,16.6,12.7c10.5-0.4,18-10.2,15.5-20.4
										C296.9,392.4,289.8,387,282.1,387.3z"/>
								</g>
							</g>
						</g>
					</g>
				</g>
			</g>
		</g>
	</g>
	<g>
		<g>
			<path class="st1" d="M124.2,142.2V97.8c24.4,0,44.4,20.1,44.4,44.4c0,24.4-20.1,44.4-44.4,44.4c-24,0-43.9-19.4-44.4-43.4
				L124.2,142.2z"/>
		</g>
		<g>
			<path class="st2" d="M113.3,130.3l-44.4,1c0-11.6,4.5-23.7,12.6-32c8.1-8.3,19.6-13.1,31.1-13.4L113.3,130.3z"/>
		</g>
	</g>
	<g>
		<g>
			<g>
				<g>
					<g>
						<g>
							<g>
								<g>
									<path class="st0" d="M613.1,37.1c3.4,0.4,6.6,1.3,9.7,2.6l7.1-6l12.3,9.3l-3.9,8.5c2,2.6,3.8,5.5,5.1,8.7l9.3,0.8l2.1,15.3
										l-8.7,3.3c-0.4,3.4-1.3,6.6-2.6,9.7l6,7.1l-9.3,12.3l-8.5-3.9c-2.6,2-5.5,3.8-8.7,5.1l-0.8,9.3l-15.3,2.1l-3.3-8.7
										c-3.4-0.4-6.6-1.3-9.7-2.6l-7.1,6l-12.3-9.3l3.9-8.5c-2-2.6-3.8-5.5-5.1-8.7l-9.3-0.8l-2.1-15.3l8.7-3.3
										c0.4-3.4,1.3-6.6,2.6-9.7l-6-7.1l9.3-12.3l8.5,3.9c2.6-2,5.5-3.8,8.7-5.1l0.8-9.3l15.3-2.1L613.1,37.1L613.1,37.1z
										 M608.5,58.2c-10.5,0.4-18,10.2-15.6,20.4c1.8,7.6,8.9,12.9,16.6,12.7c10.5-0.4,18-10.2,15.5-20.4
										C623.3,63.3,616.3,57.9,608.5,58.2z"/>
								</g>
							</g>
						</g>
					</g>
				</g>
			</g>
		</g>
	</g>
</g>
<g id="Background_Simple" class="st3">
	<path class="st4" d="M678.4,92.9c-25.5-32.2-66-53.4-107-51.3c-41,2.1-80.8,29.7-93.2,68.9c-4.8,15.1-5.6,31.2-8.8,46.7
		c-3.2,15.5-9.5,31.4-22.3,40.8c-11.8,8.7-27.3,10.6-41.9,9.9c-14.6-0.7-29.1-3.6-43.8-3.3c-35.6,0.8-69.9,22.5-85.9,54.3
		c-16,31.8-13,72.2,7.5,101.3l3.5,5.4c38,59.6,107.3,75.2,150.7,74.2c44-1.1,93.1-8.8,133.8-25.5c40.7-16.7,74-48.2,100.3-83.3
		c26.4-35.1,41.3-78.6,42.5-122.6C715.1,167.3,703.8,125.1,678.4,92.9z"/>
	<path class="st4" d="M239.5,100.9c-0.4-14.7-7.7-29-16.6-40.7c-17.8-23.6-50-26.6-75.4-25.7l1.5,0.1C110.3,32.8,86,65.8,80,92.2
		c-6,26.4,5.5,54.6,24.5,73.8c14.7,14.8,34.5,25.3,55.4,26c22.6,0.7,44.8-10.6,59.1-28C233.4,146.6,240.2,123.5,239.5,100.9z"/>
</g>
<g id="Floor">
	<g>
		<g>
			<path class="st5" d="M710.8,463.9c0,0.1-150.3,0.3-335.7,0.3c-185.5,0-335.8-0.1-335.8-0.3s150.3-0.3,335.8-0.3
				C560.4,463.6,710.8,463.8,710.8,463.9z"/>
		</g>
	</g>
</g>
<g id="Nuts">
	<g>
		<g>
			<g>
				<g>
					<g>
						<g>
							<path class="st6" d="M149.5,249.5c2.8,1.5,5.4,3.3,7.7,5.4l8.2-2.9l7.7,12.2l-6.1,6.2c0.9,3,1.5,6.1,1.6,9.3l7.9,3.7
								l-3.2,14.1l-8.7,0c-1.5,2.8-3.3,5.4-5.4,7.7l2.9,8.2l-12.2,7.7l-6.2-6.1c-3,0.9-6.1,1.5-9.3,1.6l-3.7,7.9l-14.1-3.2l0-8.7
								c-2.8-1.5-5.4-3.3-7.7-5.4l-8.2,2.9l-7.7-12.2l6.1-6.2c-0.9-3-1.5-6.1-1.6-9.3l-7.9-3.7l3.2-14.1l8.7,0
								c1.5-2.8,3.3-5.4,5.4-7.7l-2.9-8.2l12.2-7.7l6.2,6.1c3-0.9,6.1-1.5,9.3-1.6l3.7-7.9l14.1,3.2L149.5,249.5L149.5,249.5z
								 M137.1,266.1c-8.3-1.9-16.6,3.4-18.5,11.7c-1.9,8.3,3.4,16.6,11.7,18.5c8.3,1.9,16.6-3.4,18.5-11.7
								C150.7,276.2,145.5,267.9,137.1,266.1z"/>
						</g>
					</g>
				</g>
			</g>
			<g class="st7">
				<g>
					<g>
						<g>
							<path class="st8" d="M149.5,249.5c2.8,1.5,5.4,3.3,7.7,5.4l8.2-2.9l7.7,12.2l-6.1,6.2c0.9,3,1.5,6.1,1.6,9.3l7.9,3.7
								l-3.2,14.1l-8.7,0c-1.5,2.8-3.3,5.4-5.4,7.7l2.9,8.2l-12.2,7.7l-6.2-6.1c-3,0.9-6.1,1.5-9.3,1.6l-3.7,7.9l-14.1-3.2l0-8.7
								c-2.8-1.5-5.4-3.3-7.7-5.4l-8.2,2.9l-7.7-12.2l6.1-6.2c-0.9-3-1.5-6.1-1.6-9.3l-7.9-3.7l3.2-14.1l8.7,0
								c1.5-2.8,3.3-5.4,5.4-7.7l-2.9-8.2l12.2-7.7l6.2,6.1c3-0.9,6.1-1.5,9.3-1.6l3.7-7.9l14.1,3.2L149.5,249.5L149.5,249.5z
								 M137.1,266.1c-8.3-1.9-16.6,3.4-18.5,11.7c-1.9,8.3,3.4,16.6,11.7,18.5c8.3,1.9,16.6-3.4,18.5-11.7
								C150.7,276.2,145.5,267.9,137.1,266.1z"/>
						</g>
					</g>
				</g>
			</g>
		</g>
		<g>
			<g>
				<g>
					<g>
						<g>
							<g>
								<path class="st5" d="M162,375.9c0,0,1.3,0.1,3.3,1c2,0.9,4.8,3,6.6,6.7c0.9,1.8,1.4,4,1.3,6.4c-0.1,2.4-0.7,5-2.2,7.2
									c-0.7,1.1-1.6,2.2-2.7,3.1c-1.1,0.9-2.3,1.7-3.6,2.3c-2.7,1.2-5.9,1.5-8.9,0.9c-3-0.7-5.8-2.4-7.7-4.6
									c-1-1.1-1.7-2.3-2.3-3.6c-0.6-1.3-0.9-2.6-1.1-4c-0.4-2.7,0.2-5.3,1.1-7.5c0.9-2.2,2.4-4,4-5.2c3.2-2.6,6.6-3.2,8.8-3.2
									C160.9,375.5,162,375.9,162,375.9c0,0.1-1.2-0.2-3.4-0.2c-2.2,0.1-5.5,0.8-8.4,3.3c-1.5,1.3-2.8,3-3.7,5.1
									c-0.9,2.1-1.3,4.6-1,7.1c0.1,1.3,0.5,2.5,1.1,3.8c0.5,1.2,1.3,2.4,2.2,3.4c1.8,2.1,4.4,3.7,7.3,4.3c2.9,0.6,5.9,0.3,8.4-0.8
									c1.3-0.5,2.4-1.3,3.4-2.2c1-0.9,1.9-1.9,2.6-2.9c1.4-2.1,2-4.6,2.2-6.8c0.1-2.3-0.4-4.4-1.2-6.2c-1.6-3.6-4.3-5.6-6.2-6.6
									C163.2,376.2,162,376,162,375.9z"/>
							</g>
						</g>
					</g>
				</g>
			</g>
			<g>
				<g>
					<g>
						<g>
							<g>
								<path class="st5" d="M173.2,360.9c0,0,0-0.2,0-0.5c0-0.4,0-0.9,0-1.5c0-1.4,0-3.3-0.1-5.9l0.1,0.1
									c-3.3-0.7-7.5-1.6-12.7-2.8l0.2-0.1c-1,2.2-2.1,4.6-3.3,7.1l-0.1,0.1l-0.1,0c-2.6,0.1-5.5,0.6-8.3,1.5l-0.2,0l-0.1-0.1
									c-1.7-1.7-3.6-3.6-5.6-5.5l0.4,0c-3.5,2.2-7.1,4.5-11,7l0.1-0.4c0.8,2.3,1.7,4.8,2.7,7.4l0.1,0.2l-0.1,0.1
									c-1.8,1.9-3.5,4.3-4.8,6.9l-0.1,0.2l-0.2,0c-2.4,0-5.1,0-7.9,0l0.3-0.3c-0.9,4-1.9,8.3-2.8,12.7l-0.2-0.4
									c2.2,1.1,4.7,2.2,7.1,3.4l0.2,0.1l0,0.2c0.1,2.6,0.6,5.5,1.4,8.3l0.1,0.2l-0.2,0.2c-1.7,1.7-3.6,3.7-5.6,5.6l0.1-0.5
									c2.2,3.5,4.6,7.2,7,11l-0.5-0.2c2.3-0.8,4.9-1.7,7.4-2.6l0.2-0.1l0.2,0.2c2,1.8,4.3,3.5,6.9,4.8l0,0l0,0
									c0.1,0.2-0.2-0.4,0.2,0.4v0v0l0,0v0.1l0,0.1l0,0.2l0,0.5l0,1l0,2c0,1.3,0,2.6,0,3.9l-0.3-0.4c4.3,1,8.5,1.9,12.7,2.9
									l-0.4,0.2c1.1-2.4,2.3-4.8,3.4-7.1l0.1-0.2l0.2,0c2.8-0.1,5.6-0.6,8.3-1.4l0.2-0.1l0.2,0.2c1.9,1.9,3.7,3.7,5.6,5.6
									l-0.5-0.1c3.8-2.4,7.4-4.7,11-7l-0.2,0.4c-0.9-2.5-1.8-5-2.6-7.4l-0.1-0.2l0.1-0.2c2-2.1,3.6-4.4,4.9-6.9l0.1-0.2l0.2,0
									c2.7,0,5.3,0,7.9,0l-0.3,0.3c1-4.5,2-8.7,2.9-12.7l0.2,0.3c-2.5-1.2-4.8-2.3-7.1-3.4l-0.2-0.1l0-0.2c-0.1-3-0.6-5.8-1.4-8.3
									l0-0.2l0.1-0.1c2-2,3.9-3.8,5.6-5.6l0,0.3c-2.7-4.3-5-7.9-6.9-11l0.2,0.1c-3,1-5.4,1.9-7.4,2.6l-0.1,0l-0.1-0.1
									c-2.1-2-3.9-3.1-5.1-3.9c-0.6-0.4-1-0.6-1.4-0.8C173.4,361,173.2,360.9,173.2,360.9c0,0,0.2,0.1,0.5,0.2
									c0.3,0.2,0.8,0.4,1.4,0.8c1.2,0.7,3,1.9,5.2,3.8l-0.1,0c2-0.7,4.4-1.6,7.4-2.7l0.1,0l0.1,0.1c2,3.1,4.3,6.7,7,11l0.1,0.2
									l-0.1,0.1c-1.7,1.7-3.5,3.6-5.5,5.6l0.1-0.3c0.8,2.6,1.4,5.4,1.5,8.4l-0.2-0.2c2.3,1.1,4.6,2.2,7.1,3.4l0.2,0.1l-0.1,0.2
									c-0.9,4-1.8,8.2-2.8,12.7l-0.1,0.3l-0.3,0c-2.6,0-5.2,0-7.9,0l0.3-0.2c-1.3,2.5-2.9,4.9-4.9,7l0.1-0.4
									c0.9,2.4,1.8,4.9,2.7,7.4l0.1,0.3l-0.2,0.2c-3.6,2.3-7.2,4.6-11,7l-0.3,0.2l-0.2-0.2c-1.8-1.8-3.7-3.7-5.6-5.6l0.4,0.1
									c-2.7,0.9-5.6,1.4-8.5,1.5l0.3-0.2c-1.1,2.3-2.2,4.7-3.4,7.1l-0.1,0.3l-0.3-0.1c-4.2-0.9-8.4-1.9-12.7-2.8l-0.3-0.1l0-0.3
									c0-1.3,0-2.6,0-3.9l0-2l0-1l0-0.5l0-0.2l0-0.1l0-0.1v0v0v0c0.4,0.7,0.1,0.2,0.2,0.4l0,0l0,0c-2.6-1.4-5-3.1-7-5l0.4,0.1
									c-2.5,0.9-5.1,1.8-7.4,2.6l-0.3,0.1l-0.2-0.3c-2.4-3.8-4.8-7.5-7-11l-0.2-0.3l0.2-0.2c1.9-1.9,3.8-3.8,5.6-5.6l-0.1,0.4
									c-0.9-2.8-1.4-5.8-1.5-8.5l0.2,0.3c-2.5-1.2-4.9-2.3-7.1-3.4l-0.3-0.1l0.1-0.3c1-4.4,2-8.7,2.9-12.7l0.1-0.3l0.3,0
									c2.7,0,5.4,0,7.9,0l-0.3,0.2c1.4-2.7,3.1-5.1,5-7l-0.1,0.3c-0.9-2.6-1.8-5.1-2.6-7.4l-0.1-0.2l0.2-0.1c3.9-2.4,7.6-4.8,11-7
									l0.2-0.1l0.2,0.2c2,2,3.8,3.8,5.6,5.6l-0.3-0.1c2.9-0.9,5.8-1.3,8.4-1.4l-0.2,0.1c1.2-2.6,2.4-4.9,3.4-7.1l0.1-0.1l0.2,0
									c5.2,1.2,9.4,2.2,12.7,2.9l0.1,0l0,0.1c0,2.5,0,4.5-0.1,5.8c0,0.6,0,1.1,0,1.5C173.3,360.8,173.3,360.9,173.2,360.9z"/>
							</g>
						</g>
					</g>
				</g>
			</g>
		</g>
		<g>
			<g>
				<g>
					<g>
						<g>
							<path class="st6" d="M98.7,332.3c1.6,0.9,3.1,1.9,4.5,3.1l4.8-1.7l4.5,7.1l-3.6,3.6c0.5,1.7,0.9,3.5,0.9,5.4l4.6,2.2
								l-1.8,8.2l-5.1,0c-0.9,1.6-1.9,3.1-3.2,4.5l1.7,4.8l-7.1,4.5l-3.6-3.6c-1.7,0.5-3.5,0.9-5.4,0.9l-2.2,4.6l-8.2-1.8l0-5.1
								c-1.6-0.9-3.1-1.9-4.5-3.1l-4.8,1.7l-4.5-7.1l3.6-3.6c-0.5-1.7-0.9-3.5-0.9-5.4l-4.6-2.2l1.8-8.2l5.1,0
								c0.9-1.6,1.9-3.1,3.1-4.5l-1.7-4.8l7.1-4.5l3.6,3.6c1.7-0.5,3.5-0.9,5.4-0.9l2.2-4.6l8.2,1.8L98.7,332.3L98.7,332.3z
								 M91.5,342c-4.8-1.1-9.7,2-10.8,6.8c-1.1,4.8,2,9.7,6.8,10.8c4.8,1.1,9.7-2,10.8-6.8C99.4,347.9,96.3,343.1,91.5,342z"/>
						</g>
					</g>
				</g>
			</g>
			<g class="st9">
				<g>
					<g>
						<g>
							<path class="st8" d="M98.7,332.3c1.6,0.9,3.1,1.9,4.5,3.1l4.8-1.7l4.5,7.1l-3.6,3.6c0.5,1.7,0.9,3.5,0.9,5.4l4.6,2.2
								l-1.8,8.2l-5.1,0c-0.9,1.6-1.9,3.1-3.2,4.5l1.7,4.8l-7.1,4.5l-3.6-3.6c-1.7,0.5-3.5,0.9-5.4,0.9l-2.2,4.6l-8.2-1.8l0-5.1
								c-1.6-0.9-3.1-1.9-4.5-3.1l-4.8,1.7l-4.5-7.1l3.6-3.6c-0.5-1.7-0.9-3.5-0.9-5.4l-4.6-2.2l1.8-8.2l5.1,0
								c0.9-1.6,1.9-3.1,3.1-4.5l-1.7-4.8l7.1-4.5l3.6,3.6c1.7-0.5,3.5-0.9,5.4-0.9l2.2-4.6l8.2,1.8L98.7,332.3L98.7,332.3z
								 M91.5,342c-4.8-1.1-9.7,2-10.8,6.8c-1.1,4.8,2,9.7,6.8,10.8c4.8,1.1,9.7-2,10.8-6.8C99.4,347.9,96.3,343.1,91.5,342z"/>
						</g>
					</g>
				</g>
			</g>
		</g>
	</g>
	<g>
		<g>
			<g>
				<g>
					<g>
						<g>
							<g>
								<g>
									<path class="st10" d="M624.8,190.7c2.3,0.3,4.6,0.9,6.7,1.8l4.9-4.1l8.4,6.4l-2.7,5.8c1.4,1.8,2.6,3.8,3.5,6l6.4,0.6
										l1.4,10.5l-6,2.2c-0.3,2.3-0.9,4.6-1.8,6.7l4.1,4.9l-6.4,8.4l-5.8-2.7c-1.8,1.4-3.8,2.6-6,3.5L631,247l-10.5,1.4l-2.2-6
										c-2.3-0.3-4.6-0.9-6.7-1.8l-4.9,4.1l-8.4-6.4l2.7-5.8c-1.4-1.8-2.6-3.8-3.5-6l-6.4-0.6l-1.4-10.5l6-2.2
										c0.3-2.3,0.9-4.6,1.8-6.7l-4.1-4.9l6.4-8.4l5.8,2.7c1.8-1.4,3.8-2.6,6-3.5l0.6-6.4l10.5-1.4L624.8,190.7L624.8,190.7z
										 M621.6,205.1c-7.2,0.3-12.3,7-10.7,14c1.2,5.2,6.1,8.9,11.4,8.7c7.2-0.3,12.3-7,10.7-14
										C631.8,208.6,627,204.9,621.6,205.1z"/>
								</g>
							</g>
						</g>
					</g>
				</g>
			</g>
		</g>
	</g>
	<g>
		<g>
			<g>
				<g>
					<g>
						<g>
							<g>
								<g>
									<g>
										<g>
											<path class="st5" d="M665.9,127.9c0,0,1.2-0.3,3.4-0.2c2.2,0.2,5.5,1.1,8.3,3.9c1.4,1.4,2.7,3.2,3.4,5.5
												c0.7,2.2,1,4.8,0.4,7.4c-0.3,1.3-0.7,2.6-1.4,3.8c-0.7,1.2-1.5,2.4-2.6,3.4c-2,2-4.9,3.4-7.9,3.8c-3,0.4-6.1-0.2-8.6-1.6
												c-1.3-0.7-2.4-1.6-3.4-2.6c-1-1-1.8-2.1-2.4-3.3c-1.3-2.3-1.7-4.9-1.6-7.2c0.1-2.3,0.9-4.5,1.9-6.2c2-3.5,5-5.2,7-6
												C664.6,127.9,665.9,127.9,665.9,127.9c0,0.1-1.2,0.2-3.2,1c-2,0.8-4.7,2.6-6.6,6c-0.9,1.7-1.6,3.7-1.7,5.9
												c-0.1,2.2,0.3,4.7,1.5,6.9c0.6,1.1,1.3,2.2,2.3,3.1c0.9,0.9,2,1.8,3.2,2.4c2.4,1.3,5.3,1.9,8.2,1.5
												c2.9-0.4,5.5-1.7,7.5-3.6c1-0.9,1.8-2,2.4-3.2c0.6-1.1,1.1-2.4,1.4-3.6c0.6-2.4,0.3-4.9-0.3-7c-0.7-2.1-1.9-3.9-3.2-5.3
												c-2.7-2.7-5.9-3.7-8-4C667.1,127.8,665.9,128,665.9,127.9z"/>
										</g>
									</g>
								</g>
							</g>
						</g>
					</g>
				</g>
			</g>
			<g>
				<g>
					<g>
						<g>
							<g>
								<g>
									<g>
										<g>
											<path class="st5" d="M671.1,110.3c0,0-0.1-0.1-0.2-0.4c-0.1-0.3-0.3-0.8-0.5-1.4c-0.5-1.3-1.2-3.1-2.1-5.4l0.1,0.1
												c-3.2,0.5-7.5,1.1-12.7,1.8l0.2-0.2c-0.2,2.3-0.4,4.9-0.6,7.7l0,0.1l-0.1,0.1c-2.4,1-4.8,2.4-7.1,4.2l-0.1,0.1l-0.1-0.1
												c-2.2-1-4.6-2.1-7-3.2l0.3-0.1c-2.4,3.2-5,6.6-7.7,10.2l0-0.4c1.5,1.8,3.2,3.8,5,5.9l0.1,0.2l-0.1,0.2
												c-1,2.4-1.7,5.1-2.1,8l0,0.2l-0.2,0.1c-2.2,0.8-4.7,1.8-7.2,2.7l0.2-0.4c0.5,4,1.1,8.3,1.7,12.7l-0.3-0.3
												c2.4,0.2,5,0.4,7.7,0.7l0.2,0l0.1,0.2c1,2.4,2.4,4.9,4.2,7.1l0.1,0.2l-0.1,0.2c-1,2.2-2.1,4.6-3.2,7l-0.1-0.5
												c3.2,2.4,6.7,5.1,10.2,7.7l-0.5,0c1.9-1.6,3.9-3.3,5.9-5l0.2-0.2l0.2,0.1c2.4,1,5.1,1.8,7.9,2.1l0,0l0,0
												c0.1,0.1-0.3-0.3,0.3,0.3l0,0l0,0l0,0l0,0.1l0,0.1l0.1,0.2l0.2,0.5l0.3,0.9l0.7,1.8c0.5,1.2,0.9,2.4,1.3,3.6l-0.4-0.3
												c4.3-0.6,8.5-1.2,12.7-1.7l-0.3,0.4c0.2-2.6,0.5-5.2,0.7-7.7l0-0.2l0.2-0.1c2.6-1.1,5-2.5,7.1-4.1l0.2-0.1l0.2,0.1
												c2.4,1.1,4.7,2.2,7,3.2l-0.5,0.1c2.6-3.5,5.2-6.9,7.7-10.2l0,0.5c-1.7-2-3.3-4-5-5.9l-0.1-0.2l0.1-0.2
												c1.1-2.6,1.8-5.3,2.1-8l0-0.2l0.2-0.1c2.5-0.9,4.9-1.8,7.2-2.7l-0.2,0.4c-0.6-4.5-1.2-8.7-1.7-12.7l0.3,0.3
												c-2.7-0.2-5.2-0.5-7.7-0.7l-0.2,0l-0.1-0.2c-1.1-2.7-2.6-5.1-4.1-7.1l-0.1-0.1l0.1-0.1c1.2-2.6,2.2-4.8,3.2-7l0.1,0.3
												c-3.9-3-7.3-5.6-10.1-7.8l0.2,0c-2.4,2-4.3,3.6-6,4.9l-0.1,0l-0.1,0c-2.6-1.1-4.6-1.6-6-1.9c-0.7-0.1-1.2-0.2-1.5-0.3
												C671.2,110.4,671.1,110.3,671.1,110.3c0,0,0.2,0,0.5,0c0.3,0,0.9,0.1,1.5,0.2c1.4,0.2,3.4,0.7,6.1,1.7l-0.1,0
												c1.6-1.4,3.5-3,5.9-5l0.1-0.1l0.1,0.1c2.9,2.2,6.3,4.7,10.2,7.7l0.1,0.1l-0.1,0.2c-1,2.2-2,4.5-3.2,7l0-0.3
												c1.6,2.1,3.1,4.5,4.3,7.2l-0.2-0.2c2.4,0.2,5,0.4,7.7,0.7l0.2,0l0,0.2c0.6,4,1.1,8.2,1.7,12.7l0,0.3l-0.2,0.1
												c-2.3,0.9-4.7,1.8-7.2,2.7l0.2-0.3c-0.3,2.7-1,5.5-2.1,8.1l-0.1-0.4c1.6,1.9,3.3,3.9,5,5.9l0.2,0.2l-0.2,0.2
												c-2.5,3.3-5.1,6.7-7.7,10.2l-0.2,0.2l-0.3-0.1c-2.3-1.1-4.7-2.1-7-3.2l0.4,0c-2.2,1.7-4.6,3.2-7.3,4.3l0.2-0.3
												c-0.2,2.5-0.4,5.1-0.7,7.7l0,0.3l-0.3,0c-4.2,0.6-8.4,1.1-12.7,1.7l-0.3,0l-0.1-0.3c-0.4-1.2-0.9-2.4-1.3-3.6l-0.7-1.8
												l-0.3-0.9l-0.2-0.5l-0.1-0.2l0-0.1l0-0.1l0,0l0,0l0,0c0.6,0.5,0.2,0.1,0.3,0.3l0,0l0,0c-2.9-0.4-5.7-1.1-8.1-2.2l0.4-0.1
												c-2,1.7-4.1,3.4-5.9,5l-0.2,0.2L649,176c-3.5-2.7-6.9-5.3-10.2-7.7l-0.2-0.2l0.1-0.3c1.1-2.4,2.2-4.8,3.2-7l0,0.4
												c-1.8-2.3-3.2-4.8-4.2-7.3l0.3,0.2c-2.7-0.2-5.3-0.5-7.7-0.7l-0.3,0l0-0.3c-0.6-4.4-1.2-8.7-1.7-12.7l0-0.3l0.3-0.1
												c2.5-0.9,5-1.9,7.2-2.7l-0.2,0.3c0.4-2.9,1.2-5.7,2.2-8.1l0.1,0.3c-1.7-2.1-3.4-4.1-5-5.9l-0.2-0.2l0.2-0.2
												c2.7-3.6,5.3-7,7.8-10.2l0.1-0.2l0.2,0.1c2.5,1.1,4.8,2.2,7,3.2l-0.3,0c2.4-1.8,4.8-3.2,7.3-4.2l-0.1,0.2
												c0.3-2.8,0.5-5.4,0.7-7.7l0-0.2l0.2,0c5.2-0.7,9.4-1.2,12.7-1.6l0.1,0l0,0.1c0.8,2.3,1.5,4.1,1.9,5.4
												c0.2,0.6,0.4,1.1,0.5,1.4C671,110.1,671.1,110.3,671.1,110.3z"/>
										</g>
									</g>
								</g>
							</g>
						</g>
					</g>
				</g>
			</g>
		</g>
	</g>
</g>
<g id="Screen">
	<g>
		<g>
			<g>
				<g>
					<rect x="157" y="71.7" class="st11" width="460" height="318"/>
				</g>
				<g>
					<g>
						<path class="st5" d="M617,389.7c0-1.7-0.1-124.6-0.2-318l0.2,0.2c-127.6,0-287.2,0-460,0.1h0l0.3-0.3c0,113.6,0,221.5,0,318
							l-0.2-0.2C428.5,389.6,614.9,389.7,617,389.7c-2.1,0-188.5,0.1-460,0.2l-0.2,0v-0.2c0-96.5,0-204.4,0-318v-0.3h0.3h0
							c172.8,0,332.4,0,460,0.1h0.2l0,0.2C617.1,265.2,617,388,617,389.7z"/>
					</g>
				</g>
			</g>
			<g>
				<rect x="157" y="71.7" class="st5" width="460" height="18.5"/>
			</g>
			<g>
				<path class="st12" d="M170.1,80.6c0,1.6-1.3,2.8-2.8,2.8c-1.6,0-2.8-1.3-2.8-2.8c0-1.6,1.3-2.8,2.8-2.8
					C168.9,77.8,170.1,79,170.1,80.6z"/>
			</g>
			<g>
				<path class="st12" d="M180.3,80.6c0,1.6-1.3,2.8-2.8,2.8c-1.6,0-2.8-1.3-2.8-2.8c0-1.6,1.3-2.8,2.8-2.8
					C179.1,77.8,180.3,79,180.3,80.6z"/>
			</g>
			<g>
				<path class="st12" d="M190.6,80.6c0,1.6-1.3,2.8-2.8,2.8c-1.6,0-2.8-1.3-2.8-2.8c0-1.6,1.3-2.8,2.8-2.8
					C189.3,77.8,190.6,79,190.6,80.6z"/>
			</g>
		</g>
		<g>
			<g>
				<g>
					<path class="st1" d="M600.6,369.7c0-1.2-0.1-38-0.2-103.3l0.2,0.2c-94.9,0-249.9,0.1-424.7,0.1h0l0.3-0.3c0,35.4,0,70,0,103.3
						l-0.3-0.3C418,369.6,598,369.7,600.6,369.7c-2.5,0-182.5,0.1-424.7,0.3l-0.3,0v-0.3c0-33.3,0-67.9,0-103.3v-0.3h0.3h0
						c174.8,0,329.8,0.1,424.7,0.1h0.2l0,0.2C600.6,331.8,600.6,368.6,600.6,369.7z"/>
				</g>
			</g>
			<g>
				<g>
					<g>
						<path class="st1" d="M382.1,257.8c0,0,0-0.9,0-2.6c0-1.7,0-4.3,0-7.6c0-6.7,0-16.5-0.1-29.1c0-25.2-0.1-61.3-0.1-105.2
							l0.2,0.2c-57.2,0-128.3,0-205.3,0h0l0.3-0.3c0,51.7,0,100.8,0,144.6l-0.2-0.2c60.6,0,111.9,0.1,148.1,0.1
							c18.1,0,32.4,0,42.2,0.1c4.9,0,8.7,0,11.2,0c1.3,0,2.2,0,2.9,0C381.8,257.8,382.1,257.8,382.1,257.8s-0.3,0-1,0
							c-0.6,0-1.6,0-2.9,0c-2.5,0-6.3,0-11.2,0c-9.8,0-24.1,0-42.1,0.1c-36.2,0-87.6,0.1-148.2,0.1l-0.2,0l0-0.2
							c0-43.8,0-92.9,0-144.6v-0.3h0.3h0c77,0,148.2,0,205.3,0h0.2l0,0.2c0,44-0.1,80.1-0.1,105.3c0,12.6,0,22.4-0.1,29.1
							c0,3.3,0,5.9,0,7.6C382.2,256.9,382.1,257.8,382.1,257.8z"/>
					</g>
				</g>
				<g>
					<path class="st13" d="M199,230.4l14.8-21.4c3-4.4,9-5.4,13.3-2.3l2.1,1.5c5.2,3.7,12.4,1.4,14.5-4.6l7.2-21
						c2.9-8.5,15-8.5,17.9,0l3.5,10.2c2.8,8.2,14.1,8.7,17.6,0.8l3-6.8c3-6.8,12.3-7.6,16.5-1.5v0c4.4,6.4,14.3,5.1,16.8-2.3
						l3.4-9.8c3.1-9,16.1-8.3,18.2,1l12.9,56.4C360.5,230.4,199.5,230,199,230.4z"/>
				</g>
				<g class="st14">
					<path d="M199,230.4l14.8-21.4c3-4.4,9-5.4,13.3-2.3l2.1,1.5c5.2,3.7,12.4,1.4,14.5-4.6l7.2-21c2.9-8.5,15-8.5,17.9,0l3.5,10.2
						c2.8,8.2,14.1,8.7,17.6,0.8l3-6.8c3-6.8,12.3-7.6,16.5-1.5v0c4.4,6.4,14.3,5.1,16.8-2.3l3.4-9.8c3.1-9,16.1-8.3,18.2,1
						l12.9,56.4C360.5,230.4,199.5,230,199,230.4z"/>
				</g>
				<g>
					<g>
						<g>
							<g>
								<path class="st13" d="M198.6,231l12-35.2c2.8-8.2,14.4-8.4,17.4-0.2l5.8,15.6c2.5,6.7,11.4,8.2,15.9,2.6l4.7-5.8
									c3.1-3.9,8.7-4.6,12.7-1.7l10.9,7.9c1.6,1.2,3.5,1.8,5.5,1.8h13.8c2,0,3.9,0.6,5.5,1.8l10.3,7.5c4.2,3.1,10.2,2.1,13.1-2.2
									l9.7-14.1c0.1-0.2,0.3-0.4,0.4-0.5c3.9-4.9,11.6-3.9,14.4,1.7l10.3,20.5C360.8,230.6,198.6,230.3,198.6,231z"/>
							</g>
						</g>
					</g>
				</g>
				<g>
					<path class="st13" d="M360.8,230.6l-12.6-10.2c-17.2-12.7-25.4,11.4-38.9-6.6l-4.7-5.8c-3.1-3.9-8.7-4.6-12.7-1.7l-5.4,3.9
						c-5.1,3.8-11.3,5.8-17.7,5.8h-7.1c-2,0-3.9,0.6-5.5,1.8l-10.3,7.5c-4.2,3.1-7.2,3.5-13.9-2.2c0,0-7.3-6-7.5-6.2
						c-3.6-4.4-11.1-4.4-14.3,0c-0.8,1-1.6,2-2.5,3l-9.7,10.7C198.1,230.6,360.8,230,360.8,230.6z"/>
				</g>
				<g class="st14">
					<path class="st12" d="M360.8,230.6l-12.6-10.2c-17.2-12.7-25.4,11.4-38.9-6.6l-4.7-5.8c-3.1-3.9-8.7-4.6-12.7-1.7l-5.4,3.9
						c-5.1,3.8-11.3,5.8-17.7,5.8h-7.1c-2,0-3.9,0.6-5.5,1.8l-10.3,7.5c-4.2,3.1-7.2,3.5-13.9-2.2c0,0-7.3-6-7.5-6.2
						c-3.6-4.4-11.1-4.4-14.3,0c-0.8,1-1.6,2-2.5,3l-9.7,10.7C198.1,230.6,360.8,230,360.8,230.6z"/>
				</g>
				<g>
					<g>
						<path class="st5" d="M243.2,149.5c0,0.1-5.7,0.3-12.8,0.3c-7.1,0-12.8-0.1-12.8-0.3c0-0.1,5.7-0.3,12.8-0.3
							C237.4,149.2,243.2,149.3,243.2,149.5z"/>
					</g>
				</g>
				<g>
					<rect x="210.3" y="147.3" class="st13" width="4.4" height="4.4"/>
				</g>
				<g>
					<g>
						<path class="st5" d="M291.6,149.5c0,0.1-5.7,0.3-12.8,0.3c-7.1,0-12.8-0.1-12.8-0.3c0-0.1,5.7-0.3,12.8-0.3
							C285.9,149.2,291.6,149.3,291.6,149.5z"/>
					</g>
				</g>
				<g>
					<rect x="258.7" y="147.3" class="st13" width="4.4" height="4.4"/>
				</g>
				<g>
					<g>
						<path class="st5" d="M340,149.5c0,0.1-5.7,0.3-12.8,0.3c-7.1,0-12.8-0.1-12.8-0.3c0-0.1,5.7-0.3,12.8-0.3
							C334.3,149.2,340,149.3,340,149.5z"/>
					</g>
				</g>
				<g>
					<rect x="307.2" y="147.3" class="st13" width="4.4" height="4.4"/>
				</g>
			</g>
			<g>
				<g>
					<g>
						<g>
							<path class="st13" d="M340.7,352.1l10.6-15.1c1.2-1.8,3.7-2.1,5.4-0.8l5.6,4.2c1.8,1.4,4.4,0.8,5.6-1.1l16-27.8
								c1.3-2.3,4.6-2.6,6.3-0.5l10,12.7c1.6,2,4.8,1.9,6.2-0.3l7.3-11.5c1.5-2.4,5.1-2.3,6.5,0.1l6,10.5c1.4,2.5,4.9,2.5,6.5,0.1
								l20.7-32.4c1.5-2.3,4.8-2.3,6.3-0.1l34.1,51.1c1.4,2,4.3,2.3,6,0.4l20.7-22.8c1.5-1.6,4-1.7,5.5-0.1l16.5,16.6
								c1.8,1.8,4.7,1.4,6-0.8l29.5-51.1c1.9-3.4,7.1-2,7.1,1.9v66.8H340.7z"/>
						</g>
						<g>
							<g>
								<path class="st5" d="M584.2,360.4c0,0,0-0.1,0-0.3c0-0.2,0-0.5,0-0.9c0-0.8,0-2.1,0-3.7l0.1,0.1
									c-14.1,0.1-63.2,0.2-121.4,0.2c-58.3,0-107.3-0.1-121.4-0.2l0.1-0.1c0,1.7,0,2.9,0,3.7c0,0.4,0,0.7,0,0.9c0,0.2,0,0.3,0,0.3
									s0-0.1,0-0.3c0-0.2,0-0.5,0-0.9c0-0.8,0-2.1,0-3.7l0-0.1l0.1,0c14.1-0.1,63.2-0.2,121.4-0.2c58.3,0,107.3,0.1,121.4,0.2
									l0.1,0l0,0.1c0,1.7,0,2.9,0,3.7c0,0.4,0,0.7,0,0.9C584.2,360.3,584.2,360.4,584.2,360.4z"/>
							</g>
						</g>
						<g>
							<g>
								<path class="st5" d="M368.4,360c-0.1,0-0.3-0.5-0.3-1c0-0.6,0.1-1,0.3-1c0.1,0,0.3,0.5,0.3,1
									C368.6,359.6,368.5,360,368.4,360z"/>
							</g>
						</g>
						<g>
							<g>
								<path class="st5" d="M395.3,360c-0.1,0-0.3-0.5-0.3-1c0-0.6,0.1-1,0.3-1s0.3,0.5,0.3,1C395.6,359.6,395.5,360,395.3,360z"/>
							</g>
						</g>
						<g>
							<g>
								<path class="st5" d="M422.3,360c-0.1,0-0.3-0.5-0.3-1c0-0.6,0.1-1,0.3-1s0.3,0.5,0.3,1C422.6,359.6,422.5,360,422.3,360z"/>
							</g>
						</g>
						<g>
							<g>
								<path class="st5" d="M449.3,360c-0.1,0-0.3-0.5-0.3-1c0-0.6,0.1-1,0.3-1c0.1,0,0.3,0.5,0.3,1
									C449.6,359.6,449.5,360,449.3,360z"/>
							</g>
						</g>
						<g>
							<g>
								<path class="st5" d="M476.3,360c-0.1,0-0.3-0.5-0.3-1c0-0.6,0.1-1,0.3-1s0.3,0.5,0.3,1C476.6,359.6,476.4,360,476.3,360z"/>
							</g>
						</g>
						<g>
							<g>
								<path class="st5" d="M503.3,360c-0.1,0-0.3-0.5-0.3-1c0-0.6,0.1-1,0.3-1c0.1,0,0.3,0.5,0.3,1
									C503.5,359.6,503.4,360,503.3,360z"/>
							</g>
						</g>
						<g>
							<g>
								<path class="st5" d="M530.3,360c-0.1,0-0.3-0.5-0.3-1c0-0.6,0.1-1,0.3-1c0.1,0,0.3,0.5,0.3,1
									C530.5,359.6,530.4,360,530.3,360z"/>
							</g>
						</g>
						<g>
							<g>
								<path class="st5" d="M557.2,360c-0.1,0-0.3-0.5-0.3-1c0-0.6,0.1-1,0.3-1s0.3,0.5,0.3,1C557.5,359.6,557.4,360,557.2,360z"/>
							</g>
						</g>
					</g>
				</g>
			</g>
			<g>
				<g>
					<g>
						<path class="st1" d="M601.9,224.6c0,0,0-0.6,0-1.8c0-1.2,0-2.9,0-5.1c0-4.5,0-11.1,0-19.6c0-17-0.1-41.5-0.1-71.7l0.2,0.2
							c-53.5,0-125.9,0-205.3,0.1h0l0.3-0.3c0,34.6,0,67.8,0,98.2l-0.2-0.2c59.8,0,111.1,0.1,147.5,0.1c18.2,0,32.6,0.1,42.6,0.1
							c5,0,8.8,0,11.4,0c1.3,0,2.3,0,2.9,0C601.6,224.6,601.9,224.6,601.9,224.6s-0.3,0-1,0c-0.7,0-1.6,0-2.9,0c-2.6,0-6.4,0-11.3,0
							c-9.9,0-24.3,0-42.5,0.1c-36.4,0-87.8,0.1-147.7,0.1l-0.2,0v-0.2c0-30.4,0-63.6,0-98.2v-0.3h0.3h0c79.5,0,151.8,0.1,205.3,0.1
							l0.2,0l0,0.2c0,30.3-0.1,54.9-0.1,71.9c0,8.5,0,15,0,19.5c0,2.2,0,3.9,0,5.1C601.9,224.1,601.9,224.6,601.9,224.6z"/>
					</g>
				</g>
				<g>
					<g>
						<g>
							<g>
								<path class="st1" d="M555.4,169.3H414c-1.3,0-2.4-1.1-2.4-2.4c0-1.3,1.1-2.4,2.4-2.4h141.5c1.3,0,2.4,1.1,2.4,2.4
									C557.8,168.2,556.7,169.3,555.4,169.3z"/>
							</g>
							<g>
								<path class="st1" d="M555.4,150.6H414c-1.3,0-2.4-1.1-2.4-2.4c0-1.3,1.1-2.4,2.4-2.4h141.5c1.3,0,2.4,1.1,2.4,2.4
									C557.8,149.6,556.7,150.6,555.4,150.6z"/>
							</g>
							<g>
								<path class="st15" d="M477.9,169.3H414c-1.3,0-2.4-1.1-2.4-2.4c0-1.3,1.1-2.4,2.4-2.4h63.9c1.3,0,2.4,1.1,2.4,2.4
									C480.3,168.2,479.2,169.3,477.9,169.3z"/>
							</g>
						</g>
						<g>
							<path class="st5" d="M573.4,167.9h-1v1.4h-0.8v-1.4h-3.1v-0.6l2.8-3.6h0.8l-2.7,3.5h2.1v-1.2h0.7v1.2h1V167.9z"/>
							<path class="st5" d="M577.7,167.6c0,1-0.7,1.7-2.1,1.7c-0.8,0-1.5-0.3-2-0.7l0.4-0.6c0.4,0.3,1,0.6,1.7,0.6
								c0.8,0,1.3-0.4,1.3-1c0-0.6-0.4-1-1.7-1H574l0.3-2.9h3.1v0.7h-2.4l-0.1,1.5h0.6C577,166,577.7,166.7,577.7,167.6z"/>
							<path class="st5" d="M578.2,165.2c0-0.9,0.5-1.5,1.3-1.5c0.8,0,1.3,0.6,1.3,1.5c0,0.9-0.5,1.5-1.3,1.5
								C578.7,166.7,578.2,166.1,578.2,165.2z M580.2,165.2c0-0.7-0.3-1.1-0.8-1.1c-0.5,0-0.8,0.4-0.8,1.1c0,0.7,0.3,1.1,0.8,1.1
								C579.9,166.3,580.2,165.9,580.2,165.2z M582.8,163.8h0.6l-3.8,5.5H579L582.8,163.8z M581.7,167.8c0-0.9,0.5-1.5,1.3-1.5
								c0.8,0,1.3,0.6,1.3,1.5c0,0.9-0.5,1.5-1.3,1.5C582.2,169.3,581.7,168.7,581.7,167.8z M583.7,167.8c0-0.7-0.3-1.1-0.8-1.1
								c-0.5,0-0.8,0.4-0.8,1.1s0.3,1.1,0.8,1.1C583.4,168.9,583.7,168.5,583.7,167.8z"/>
						</g>
					</g>
				</g>
				<g>
					<g>
						<g>
							<g>
								<path class="st1" d="M555.4,186.6H414c-1.3,0-2.4-1.1-2.4-2.4c0-1.3,1.1-2.4,2.4-2.4h141.5c1.3,0,2.4,1.1,2.4,2.4
									C557.8,185.5,556.7,186.6,555.4,186.6z"/>
							</g>
							<g>
								<path class="st15" d="M498.7,186.6h-84.6c-1.8,0-2.5-1.1-2.5-2.4c0-1.3,0.7-2.4,1.7-2.4h84.6c1.7,0,2.7,1.1,2.7,2.4
									C500.6,186.1,498.8,186.6,498.7,186.6z"/>
							</g>
						</g>
						<g>
							<path class="st5" d="M572.6,181.1v0.5l-2.2,5h-0.8l2.2-4.8h-2.5v1h-0.8v-1.7H572.6z"/>
							<path class="st5" d="M573.1,183.8c0-1.8,1-2.8,2.2-2.8c1.3,0,2.2,1,2.2,2.8c0,1.8-1,2.8-2.2,2.8
								C574.1,186.6,573.1,185.6,573.1,183.8z M576.8,183.8c0-1.4-0.6-2.1-1.5-2.1c-0.9,0-1.5,0.7-1.5,2.1c0,1.4,0.6,2.1,1.5,2.1
								C576.2,185.9,576.8,185.2,576.8,183.8z"/>
							<path class="st5" d="M578.3,182.5c0-0.9,0.5-1.5,1.3-1.5c0.8,0,1.3,0.6,1.3,1.5c0,0.9-0.5,1.5-1.3,1.5
								C578.8,184,578.3,183.4,578.3,182.5z M580.3,182.5c0-0.7-0.3-1.1-0.8-1.1c-0.5,0-0.8,0.4-0.8,1.1c0,0.7,0.3,1.1,0.8,1.1
								C580,183.6,580.3,183.2,580.3,182.5z M582.9,181.1h0.6l-3.8,5.5h-0.6L582.9,181.1z M581.8,185.1c0-0.9,0.5-1.5,1.3-1.5
								c0.8,0,1.3,0.6,1.3,1.5c0,0.9-0.5,1.5-1.3,1.5C582.3,186.6,581.8,186,581.8,185.1z M583.8,185.1c0-0.7-0.3-1.1-0.8-1.1
								c-0.5,0-0.8,0.4-0.8,1.1c0,0.7,0.3,1.1,0.8,1.1C583.5,186.2,583.8,185.8,583.8,185.1z"/>
						</g>
					</g>
				</g>
				<g>
					<g>
						<g>
							<g>
								<path class="st1" d="M555.4,203.5H414c-1.3,0-2.4-1.1-2.4-2.4s1.1-2.4,2.4-2.4h141.5c1.3,0,2.4,1.1,2.4,2.4
									S556.7,203.5,555.4,203.5z"/>
							</g>
							<g>
								<path class="st15" d="M466.5,203.5H414c-1.3,0-2.4-1.1-2.4-2.4s1.1-2.4,2.4-2.4h52.5c1.3,0,2.4,1.1,2.4,2.4
									S467.8,203.5,466.5,203.5z"/>
							</g>
						</g>
						<g>
							<path class="st5" d="M572.4,201.8c0,1-0.7,1.7-2.1,1.7c-0.8,0-1.5-0.3-2-0.7l0.4-0.6c0.4,0.3,1,0.6,1.7,0.6
								c0.8,0,1.3-0.4,1.3-1c0-0.6-0.4-1-1.7-1h-1.3l0.3-2.9h3.1v0.7h-2.4l-0.1,1.5h0.6C571.8,200.1,572.4,200.8,572.4,201.8z"/>
							<path class="st5" d="M573.1,200.7c0-1.8,1-2.8,2.2-2.8c1.3,0,2.2,1,2.2,2.8c0,1.8-1,2.8-2.2,2.8
								C574.1,203.5,573.1,202.5,573.1,200.7z M576.8,200.7c0-1.4-0.6-2.1-1.5-2.1c-0.9,0-1.5,0.7-1.5,2.1c0,1.4,0.6,2.1,1.5,2.1
								C576.2,202.8,576.8,202.1,576.8,200.7z"/>
							<path class="st5" d="M578.3,199.4c0-0.9,0.5-1.5,1.3-1.5c0.8,0,1.3,0.6,1.3,1.5c0,0.9-0.5,1.5-1.3,1.5
								C578.8,200.9,578.3,200.3,578.3,199.4z M580.3,199.4c0-0.7-0.3-1.1-0.8-1.1c-0.5,0-0.8,0.4-0.8,1.1s0.3,1.1,0.8,1.1
								C580,200.5,580.3,200.1,580.3,199.4z M582.8,198h0.6l-3.8,5.5h-0.6L582.8,198z M581.7,202c0-0.9,0.5-1.5,1.3-1.5
								c0.8,0,1.3,0.6,1.3,1.5c0,0.9-0.5,1.5-1.3,1.5C582.3,203.5,581.7,202.9,581.7,202z M583.8,202c0-0.7-0.3-1.1-0.8-1.1
								c-0.5,0-0.8,0.4-0.8,1.1c0,0.7,0.3,1.1,0.8,1.1C583.5,203.1,583.8,202.7,583.8,202z"/>
						</g>
					</g>
				</g>
				<g>
					<g>
						<g>
							<g>
								<path class="st13" d="M507.6,150.6H414c-1.3,0-2.4-1.1-2.4-2.4s1.1-2.4,2.4-2.4h93.6c1.3,0,2.4,1.1,2.4,2.4
									S508.9,150.6,507.6,150.6z"/>
							</g>
						</g>
						<g>
							<path class="st5" d="M572.8,148.9c0,1.1-0.9,1.7-1.9,1.7c-1.5,0-2.3-1-2.3-2.7c0-1.9,1.1-2.9,2.6-2.9c0.5,0,1,0.1,1.4,0.3
								l-0.3,0.6c-0.3-0.2-0.7-0.3-1.1-0.3c-1.1,0-1.8,0.7-1.8,2.1c0,0.1,0,0.1,0,0.2c0.3-0.5,0.9-0.7,1.6-0.7
								C572.1,147.3,572.8,147.9,572.8,148.9z M572.1,149c0-0.6-0.5-1.1-1.3-1.1c-0.7,0-1.3,0.5-1.3,1.1c0,0.6,0.5,1.1,1.3,1.1
								C571.6,150,572.1,149.6,572.1,149z"/>
							<path class="st5" d="M573.4,147.9c0-1.8,1-2.8,2.2-2.8c1.3,0,2.2,1,2.2,2.8c0,1.8-1,2.8-2.2,2.8
								C574.4,150.7,573.4,149.7,573.4,147.9z M577.1,147.9c0-1.4-0.6-2.1-1.5-2.1c-0.9,0-1.5,0.7-1.5,2.1c0,1.4,0.6,2.1,1.5,2.1
								C576.5,150,577.1,149.3,577.1,147.9z"/>
							<path class="st5" d="M578.6,146.6c0-0.9,0.5-1.5,1.3-1.5c0.8,0,1.3,0.6,1.3,1.5c0,0.9-0.5,1.5-1.3,1.5
								C579.1,148.1,578.6,147.5,578.6,146.6z M580.6,146.6c0-0.7-0.3-1.1-0.8-1.1c-0.5,0-0.8,0.4-0.8,1.1c0,0.7,0.3,1.1,0.8,1.1
								C580.3,147.6,580.6,147.2,580.6,146.6z M583.2,145.1h0.6l-3.8,5.5h-0.6L583.2,145.1z M582.1,149.2c0-0.9,0.5-1.5,1.3-1.5
								c0.8,0,1.3,0.6,1.3,1.5c0,0.9-0.5,1.5-1.3,1.5C582.6,150.7,582.1,150.1,582.1,149.2z M584.1,149.2c0-0.7-0.3-1.1-0.8-1.1
								c-0.5,0-0.8,0.4-0.8,1.1c0,0.7,0.3,1.1,0.8,1.1C583.8,150.2,584.1,149.8,584.1,149.2z"/>
						</g>
					</g>
				</g>
			</g>
			<g>
				<g>
					<path class="st1" d="M552.1,234.7c0,0.1-34.6,0.3-77.3,0.3c-42.7,0-77.3-0.1-77.3-0.3s34.6-0.3,77.3-0.3
						C517.5,234.4,552.1,234.6,552.1,234.7z"/>
				</g>
			</g>
			<g>
				<g>
					<path class="st1" d="M552.1,243.9c0,0.1-34.6,0.3-77.3,0.3c-42.7,0-77.3-0.1-77.3-0.3c0-0.1,34.6-0.3,77.3-0.3
						C517.5,243.6,552.1,243.7,552.1,243.9z"/>
				</g>
			</g>
			<g>
				<g>
					<path class="st1" d="M552.1,252.2c0,0.1-34.6,0.3-77.3,0.3c-42.7,0-77.3-0.1-77.3-0.3s34.6-0.3,77.3-0.3
						C517.5,251.9,552.1,252,552.1,252.2z"/>
				</g>
			</g>
			<g>
				<g>
					<g>
						<g>
							<g>
								<path class="st1" d="M204.1,346.1L204.1,346.1c-1.5,0-2.8-1.2-2.8-2.8v-52.1c0-1.5,1.2-2.8,2.8-2.8l0,0
									c1.5,0,2.8,1.2,2.8,2.8v52.1C206.9,344.9,205.7,346.1,204.1,346.1z"/>
							</g>
							<g>
								<path class="st13" d="M204.1,346.3L204.1,346.3c-1.5,0-2.8-1.2-2.8-2.8v-33.6c0-1.5,1.2-2.8,2.8-2.8l0,0
									c1.5,0,2.8,1.2,2.8,2.8v33.6C206.9,345.1,205.7,346.3,204.1,346.3z"/>
							</g>
						</g>
						<g>
							<path class="st5" d="M202.4,348.5v4.6h-0.5v-4.2h-1.1v-0.4H202.4z"/>
							<path class="st5" d="M203.5,350.8c0-1.5,0.8-2.4,1.8-2.4c1.1,0,1.9,0.9,1.9,2.4c0,1.5-0.8,2.4-1.9,2.4
								C204.3,353.2,203.5,352.3,203.5,350.8z M206.7,350.8c0-1.2-0.6-1.9-1.4-1.9c-0.8,0-1.4,0.7-1.4,1.9c0,1.2,0.6,1.9,1.4,1.9
								C206.1,352.8,206.7,352.1,206.7,350.8z"/>
						</g>
					</g>
					<g>
						<g>
							<g>
								<path class="st1" d="M215.2,346.1L215.2,346.1c-1.5,0-2.8-1.2-2.8-2.8v-52.1c0-1.5,1.2-2.8,2.8-2.8l0,0
									c1.5,0,2.8,1.2,2.8,2.8v52.1C218,344.9,216.8,346.1,215.2,346.1z"/>
							</g>
							<g>
								<path class="st13" d="M215.2,346.3L215.2,346.3c-1.5,0-2.8-1.2-2.8-2.8v-44.2c0-1.5,1.2-2.8,2.8-2.8l0,0
									c1.5,0,2.8,1.2,2.8,2.8v44.2C218,345.1,216.8,346.3,215.2,346.3z"/>
							</g>
						</g>
						<g>
							<path class="st5" d="M214.6,352.7v0.4h-3.3v-0.3l1.9-1.9c0.5-0.5,0.6-0.8,0.6-1.1c0-0.5-0.4-0.9-1.1-0.9
								c-0.5,0-1,0.2-1.3,0.5l-0.3-0.3c0.4-0.4,0.9-0.7,1.6-0.7c0.9,0,1.5,0.5,1.5,1.3c0,0.4-0.1,0.8-0.8,1.5l-1.6,1.5H214.6z"/>
							<path class="st5" d="M215.1,350.8c0-1.5,0.8-2.4,1.8-2.4c1.1,0,1.9,0.9,1.9,2.4c0,1.5-0.8,2.4-1.9,2.4
								C215.9,353.2,215.1,352.3,215.1,350.8z M218.3,350.8c0-1.2-0.6-1.9-1.4-1.9c-0.8,0-1.4,0.7-1.4,1.9c0,1.2,0.6,1.9,1.4,1.9
								C217.8,352.8,218.3,352.1,218.3,350.8z"/>
						</g>
					</g>
					<g>
						<g>
							<g>
								<path class="st1" d="M226.3,346.1L226.3,346.1c-1.5,0-2.8-1.2-2.8-2.8v-52.1c0-1.5,1.2-2.8,2.8-2.8l0,0
									c1.5,0,2.8,1.2,2.8,2.8v52.1C229.1,344.9,227.9,346.1,226.3,346.1z"/>
							</g>
							<g>
								<path class="st13" d="M226.3,346.3L226.3,346.3c-1.5,0-2.8-1.2-2.8-2.8v-25.7c0-1.5,1.2-2.8,2.8-2.8l0,0
									c1.5,0,2.8,1.2,2.8,2.8v25.7C229.1,345.1,227.9,346.3,226.3,346.3z"/>
							</g>
						</g>
						<g>
							<path class="st5" d="M225.6,351.8c0,0.8-0.6,1.4-1.7,1.4c-0.7,0-1.3-0.2-1.7-0.6l0.2-0.4c0.3,0.3,0.8,0.5,1.4,0.5
								c0.8,0,1.2-0.4,1.2-0.9c0-0.6-0.4-0.9-1.3-0.9h-0.3v-0.4l1.3-1.6h-2.4v-0.4h3v0.3l-1.3,1.6
								C225.1,350.6,225.6,351.1,225.6,351.8z"/>
							<path class="st5" d="M226.3,350.8c0-1.5,0.8-2.4,1.8-2.4c1.1,0,1.9,0.9,1.9,2.4c0,1.5-0.8,2.4-1.9,2.4
								C227.1,353.2,226.3,352.3,226.3,350.8z M229.5,350.8c0-1.2-0.6-1.9-1.4-1.9c-0.8,0-1.4,0.7-1.4,1.9c0,1.2,0.6,1.9,1.4,1.9
								C228.9,352.8,229.5,352.1,229.5,350.8z"/>
						</g>
					</g>
					<g>
						<g>
							<g>
								<path class="st1" d="M237.5,346.1L237.5,346.1c-1.5,0-2.8-1.2-2.8-2.8v-52.1c0-1.5,1.2-2.8,2.8-2.8l0,0
									c1.5,0,2.8,1.2,2.8,2.8v52.1C240.2,344.9,239,346.1,237.5,346.1z"/>
							</g>
							<g>
								<path class="st13" d="M237.5,346.3L237.5,346.3c-1.5,0-2.8-1.2-2.8-2.8v-44.2c0-1.5,1.2-2.8,2.8-2.8l0,0
									c1.5,0,2.8,1.2,2.8,2.8v44.2C240.2,345.1,239,346.3,237.5,346.3z"/>
							</g>
						</g>
						<g>
							<path class="st5" d="M237.5,351.9h-0.9v1.2h-0.5v-1.2h-2.6v-0.3l2.5-3.1h0.5l-2.4,3h2v-1.1h0.5v1.1h0.9V351.9z"/>
							<path class="st5" d="M237.9,350.8c0-1.5,0.8-2.4,1.8-2.4c1.1,0,1.9,0.9,1.9,2.4c0,1.5-0.8,2.4-1.9,2.4
								C238.7,353.2,237.9,352.3,237.9,350.8z M241.1,350.8c0-1.2-0.6-1.9-1.4-1.9c-0.8,0-1.4,0.7-1.4,1.9c0,1.2,0.6,1.9,1.4,1.9
								C240.6,352.8,241.1,352.1,241.1,350.8z"/>
						</g>
					</g>
					<g>
						<g>
							<g>
								<path class="st1" d="M248.6,346.1L248.6,346.1c-1.5,0-2.8-1.2-2.8-2.8v-52.1c0-1.5,1.2-2.8,2.8-2.8l0,0
									c1.5,0,2.8,1.2,2.8,2.8v52.1C251.3,344.9,250.1,346.1,248.6,346.1z"/>
							</g>
							<g>
								<path class="st13" d="M248.6,346.3L248.6,346.3c-1.5,0-2.8-1.2-2.8-2.8v-35.7c0-1.5,1.2-2.8,2.8-2.8l0,0
									c1.5,0,2.8,1.2,2.8,2.8v35.7C251.3,345.1,250.1,346.3,248.6,346.3z"/>
							</g>
						</g>
						<g>
							<path class="st5" d="M248.3,351.8c0,0.8-0.5,1.4-1.7,1.4c-0.7,0-1.3-0.2-1.7-0.6l0.2-0.4c0.3,0.3,0.8,0.5,1.4,0.5
								c0.8,0,1.2-0.4,1.2-0.9c0-0.6-0.4-1-1.5-1h-1l0.2-2.3h2.5v0.4H246l-0.2,1.5h0.6C247.8,350.4,248.3,351,248.3,351.8z"/>
							<path class="st5" d="M248.9,350.8c0-1.5,0.8-2.4,1.8-2.4c1.1,0,1.9,0.9,1.9,2.4c0,1.5-0.8,2.4-1.9,2.4
								C249.7,353.2,248.9,352.3,248.9,350.8z M252.1,350.8c0-1.2-0.6-1.9-1.4-1.9c-0.8,0-1.4,0.7-1.4,1.9c0,1.2,0.6,1.9,1.4,1.9
								C251.6,352.8,252.1,352.1,252.1,350.8z"/>
						</g>
					</g>
					<g>
						<g>
							<g>
								<path class="st1" d="M259.7,346.1L259.7,346.1c-1.5,0-2.8-1.2-2.8-2.8v-52.1c0-1.5,1.2-2.8,2.8-2.8l0,0
									c1.5,0,2.8,1.2,2.8,2.8v52.1C262.5,344.9,261.2,346.1,259.7,346.1z"/>
							</g>
							<g>
								<path class="st13" d="M259.7,346.1L259.7,346.1c-1.5,0-2.8-1.2-2.8-2.5v-25.7c0-1.8,1.2-3,2.8-3l0,0c1.5,0,2.8,1.2,2.8,2.8
									v25.7C262.5,344.9,261.2,346.1,259.7,346.1z"/>
							</g>
						</g>
						<g>
							<path class="st5" d="M259.3,351.8c0,0.9-0.7,1.4-1.6,1.4c-1.2,0-1.9-0.9-1.9-2.3c0-1.6,0.9-2.4,2.1-2.4
								c0.4,0,0.8,0.1,1.1,0.3l-0.2,0.4c-0.2-0.2-0.6-0.2-0.9-0.2c-1,0-1.6,0.6-1.6,1.9c0,0.1,0,0.2,0,0.4c0.2-0.5,0.8-0.8,1.4-0.8
								C258.7,350.4,259.3,350.9,259.3,351.8z M258.8,351.8c0-0.6-0.5-1-1.2-1c-0.7,0-1.2,0.4-1.2,1c0,0.5,0.4,1,1.2,1
								C258.4,352.8,258.8,352.4,258.8,351.8z"/>
							<path class="st5" d="M259.9,350.8c0-1.5,0.8-2.4,1.8-2.4c1.1,0,1.9,0.9,1.9,2.4c0,1.5-0.8,2.4-1.9,2.4
								C260.6,353.2,259.9,352.3,259.9,350.8z M263.1,350.8c0-1.2-0.6-1.9-1.4-1.9c-0.8,0-1.4,0.7-1.4,1.9c0,1.2,0.6,1.9,1.4,1.9
								C262.5,352.8,263.1,352.1,263.1,350.8z"/>
						</g>
					</g>
					<g>
						<g>
							<g>
								<path class="st1" d="M270.8,346.1L270.8,346.1c-1.5,0-2.8-1.2-2.8-2.8v-52.1c0-1.5,1.2-2.8,2.8-2.8l0,0
									c1.5,0,2.8,1.2,2.8,2.8v52.1C273.6,344.9,272.3,346.1,270.8,346.1z"/>
							</g>
							<g>
								<path class="st13" d="M270.8,346.3L270.8,346.3c-1.5,0-2.8-1.2-2.8-2.8v-46.9c0-1.5,1.2-2.8,2.8-2.8l0,0
									c1.5,0,2.8,1.2,2.8,2.8v46.9C273.6,345.1,272.3,346.3,270.8,346.3z"/>
							</g>
						</g>
						<g>
							<path class="st5" d="M270.2,348.5v0.3l-1.9,4.3h-0.5l1.9-4.2h-2.4v0.9h-0.5v-1.3H270.2z"/>
							<path class="st5" d="M270.7,350.8c0-1.5,0.8-2.4,1.8-2.4c1.1,0,1.9,0.9,1.9,2.4c0,1.5-0.8,2.4-1.9,2.4
								C271.5,353.2,270.7,352.3,270.7,350.8z M273.9,350.8c0-1.2-0.6-1.9-1.4-1.9c-0.8,0-1.4,0.7-1.4,1.9c0,1.2,0.6,1.9,1.4,1.9
								C273.3,352.8,273.9,352.1,273.9,350.8z"/>
						</g>
					</g>
					<g>
						<g>
							<g>
								<path class="st1" d="M281.9,346.1L281.9,346.1c-1.5,0-2.8-1.2-2.8-2.8v-52.1c0-1.5,1.2-2.8,2.8-2.8l0,0
									c1.5,0,2.8,1.2,2.8,2.8v52.1C284.7,344.9,283.4,346.1,281.9,346.1z"/>
							</g>
							<g>
								<path class="st13" d="M281.9,346.3L281.9,346.3c-1.5,0-2.8-1.2-2.8-2.8v-20.4c0-1.5,1.2-2.8,2.8-2.8l0,0
									c1.5,0,2.8,1.2,2.8,2.8v20.4C284.7,345.1,283.4,346.3,281.9,346.3z"/>
							</g>
						</g>
						<g>
							<path class="st5" d="M281.3,351.9c0,0.8-0.7,1.3-1.8,1.3c-1.1,0-1.8-0.5-1.8-1.3c0-0.6,0.3-0.9,0.9-1.1
								c-0.5-0.2-0.7-0.5-0.7-1c0-0.8,0.6-1.2,1.6-1.2s1.6,0.5,1.6,1.2c0,0.5-0.3,0.8-0.7,1C281,350.9,281.3,351.3,281.3,351.9z
								 M280.9,351.9c0-0.6-0.5-0.9-1.3-0.9c-0.8,0-1.3,0.4-1.3,0.9c0,0.6,0.5,0.9,1.3,0.9C280.4,352.8,280.9,352.4,280.9,351.9z
								 M279.5,350.6c0.7,0,1.2-0.3,1.2-0.8c0-0.5-0.5-0.8-1.2-0.8c-0.7,0-1.1,0.3-1.1,0.8C278.4,350.2,278.8,350.6,279.5,350.6z"/>
							<path class="st5" d="M282,350.8c0-1.5,0.8-2.4,1.8-2.4c1.1,0,1.9,0.9,1.9,2.4c0,1.5-0.8,2.4-1.9,2.4
								C282.8,353.2,282,352.3,282,350.8z M285.2,350.8c0-1.2-0.6-1.9-1.4-1.9c-0.8,0-1.4,0.7-1.4,1.9c0,1.2,0.6,1.9,1.4,1.9
								C284.7,352.8,285.2,352.1,285.2,350.8z"/>
						</g>
					</g>
					<g>
						<g>
							<g>
								<path class="st1" d="M293,346.1L293,346.1c-1.5,0-2.8-1.2-2.8-2.8v-52.1c0-1.5,1.2-2.8,2.8-2.8l0,0c1.5,0,2.8,1.2,2.8,2.8
									v52.1C295.8,344.9,294.5,346.1,293,346.1z"/>
							</g>
							<g>
								<path class="st13" d="M293,346.1L293,346.1c-1.5,0-2.8-1.2-2.8-2.5v-7.1c0-1.8,1.2-3,2.8-3l0,0c1.5,0,2.8,1.2,2.8,2.8v7.1
									C295.8,344.9,294.5,346.1,293,346.1z"/>
							</g>
						</g>
						<g>
							<path class="st5" d="M292.2,350.8c0,1.6-0.9,2.4-2.1,2.4c-0.4,0-0.8-0.1-1.1-0.3l0.2-0.4c0.2,0.2,0.6,0.2,0.9,0.2
								c1,0,1.6-0.6,1.6-1.9c0-0.1,0-0.2,0-0.4c-0.2,0.5-0.8,0.8-1.4,0.8c-0.9,0-1.6-0.5-1.6-1.4c0-0.9,0.7-1.4,1.6-1.4
								C291.5,348.5,292.2,349.3,292.2,350.8z M291.5,349.9c0-0.5-0.4-1-1.2-1c-0.7,0-1.1,0.4-1.1,1c0,0.6,0.5,1,1.2,1
								C291,350.9,291.5,350.5,291.5,349.9z"/>
							<path class="st5" d="M292.9,350.8c0-1.5,0.8-2.4,1.8-2.4c1.1,0,1.9,0.9,1.9,2.4c0,1.5-0.8,2.4-1.9,2.4
								C293.6,353.2,292.9,352.3,292.9,350.8z M296.1,350.8c0-1.2-0.6-1.9-1.4-1.9c-0.8,0-1.4,0.7-1.4,1.9c0,1.2,0.6,1.9,1.4,1.9
								C295.5,352.8,296.1,352.1,296.1,350.8z"/>
						</g>
					</g>
					<g>
						<g>
							<g>
								<path class="st1" d="M304.1,346.1L304.1,346.1c-1.5,0-2.8-1.2-2.8-2.8v-52.1c0-1.5,1.2-2.8,2.8-2.8l0,0
									c1.5,0,2.8,1.2,2.8,2.8v52.1C306.9,344.9,305.7,346.1,304.1,346.1z"/>
							</g>
							<g>
								<path class="st13" d="M304.1,346.1L304.1,346.1c-1.5,0-2.8-1.2-2.8-2.5v-25.7c0-1.8,1.2-3,2.8-3l0,0c1.5,0,2.8,1.2,2.8,2.8
									v25.7C306.9,344.9,305.7,346.1,304.1,346.1z"/>
							</g>
						</g>
						<g>
							<path class="st5" d="M300.1,348.5v4.6h-0.5v-4.2h-1.1v-0.4H300.1z"/>
							<path class="st5" d="M301.2,350.8c0-1.5,0.8-2.4,1.8-2.4c1.1,0,1.9,0.9,1.9,2.4c0,1.5-0.8,2.4-1.9,2.4
								C302,353.2,301.2,352.3,301.2,350.8z M304.5,350.8c0-1.2-0.6-1.9-1.4-1.9c-0.8,0-1.4,0.7-1.4,1.9c0,1.2,0.6,1.9,1.4,1.9
								C303.9,352.8,304.5,352.1,304.5,350.8z"/>
							<path class="st5" d="M305.6,350.8c0-1.5,0.8-2.4,1.8-2.4c1.1,0,1.9,0.9,1.9,2.4c0,1.5-0.8,2.4-1.9,2.4
								C306.4,353.2,305.6,352.3,305.6,350.8z M308.8,350.8c0-1.2-0.6-1.9-1.4-1.9c-0.8,0-1.4,0.7-1.4,1.9c0,1.2,0.6,1.9,1.4,1.9
								C308.3,352.8,308.8,352.1,308.8,350.8z"/>
						</g>
					</g>
				</g>
			</g>
			<g>
				<g>
					<path class="st1" d="M327.1,357c-0.1,0-0.3-17.2-0.3-38.3c0-21.2,0.1-38.3,0.3-38.3s0.3,17.2,0.3,38.3
						C327.4,339.8,327.3,357,327.1,357z"/>
				</g>
			</g>
			<g>
				<g>
					<path class="st5" d="M391.8,285.3c0,0.1-10.6,0.3-23.6,0.3c-13.1,0-23.6-0.1-23.6-0.3s10.6-0.3,23.6-0.3
						C381.2,285.1,391.8,285.2,391.8,285.3z"/>
				</g>
			</g>
			<g class="st16">
				<path class="st12" d="M340.7,352.1l10.6-15.1c1.2-1.8,3.7-2.1,5.4-0.8l5.6,4.2c1.8,1.4,4.4,0.8,5.6-1.1l16-27.8
					c1.3-2.3,4.6-2.6,6.3-0.5l10,12.7c1.6,2,4.8,1.9,6.2-0.3l7.3-11.5c1.5-2.4,5.1-2.3,6.5,0.1l6,10.5c1.4,2.5,4.9,2.5,6.5,0.1
					l20.7-32.4c1.5-2.3,4.8-2.3,6.3-0.1l34.1,51.1c1.4,2,4.3,2.3,6,0.4l20.7-22.8c1.5-1.6,4-1.7,5.5-0.1l16.5,16.6
					c1.8,1.8,4.7,1.4,6-0.8l29.5-51.1c1.9-3.4,7.1-2,7.1,1.9v66.8H340.7z"/>
			</g>
		</g>
	</g>
</g>
<g id="Magnifying_Glass">
	<g>
		<g>
			<path class="st15" d="M151.4,358.5c-23.6,0-43.9-17.8-46.4-41.8c-2.7-25.6,15.9-48.7,41.5-51.5c12.4-1.3,24.6,2.3,34.3,10.1
				c9.7,7.8,15.8,19,17.1,31.4l0,0c2.7,25.6-15.9,48.7-41.5,51.5C154.7,358.5,153.1,358.5,151.4,358.5z M151.5,272
				c-1.4,0-2.9,0.1-4.3,0.2c-21.8,2.3-37.6,22-35.3,43.7c2.3,21.8,22,37.6,43.7,35.3c21.8-2.3,37.6-22,35.3-43.7
				c-1.1-10.6-6.3-20-14.6-26.7C169.3,275.1,160.6,272,151.5,272z"/>
		</g>
		<g>
			<path class="st15" d="M220.7,401.7c-1,0-2-0.4-2.7-1.2l-44.2-51.9c-1.3-1.5-1.1-3.7,0.4-4.9c1.5-1.3,3.7-1.1,4.9,0.4l44.2,51.9
				c1.3,1.5,1.1,3.7-0.4,4.9C222.3,401.5,221.5,401.7,220.7,401.7z"/>
		</g>
	</g>
</g>
<g id="Plant">
	<g>
		<g>
			<g>
				<g>
					<g>
						<g>
							<path class="st13" d="M644.2,398.8c7.2,2.5,16.6,0.3,22.7-4.2c6.2-4.5,10.6-10.9,14.5-17.5c1.7-2.8,3.3-5.7,3.8-8.9
								c0.5-3.2-0.3-6.8-2.7-8.9c-3.9-3.3-9.8-1.6-14.2,0.9C654.6,368,645.2,383,644.2,398.8"/>
						</g>
					</g>
				</g>
			</g>
			<g>
				<g>
					<g>
						<g>
							<path class="st13" d="M651.9,416.1c4.3,5.7,11.7,8.2,18.9,8.6c7.1,0.3,14.2-1.6,20.9-4.2c2.4-0.9,5.1-2.2,5.9-4.7
								c0.6-1.9,0-4-1.3-5.5c-1.2-1.5-3-2.5-4.8-3.3c-6.6-2.8-14.1-2.9-21-1.1C663.6,407.6,657.5,411.6,651.9,416.1"/>
						</g>
					</g>
				</g>
			</g>
			<g>
				<g>
					<g>
						<g>
							<path class="st13" d="M644.1,368c6,0.1,10.5-5.1,13.2-10.4c3.7-7.4,5-15.9,3.5-24.1c-0.5-3-1.7-6.3-4.4-7.8
								c-2.8-1.5-6.4-0.5-8.7,1.6c-2.3,2.1-3.6,5.1-4.5,8.1C640,345.8,640.7,357.7,644.1,368"/>
						</g>
					</g>
				</g>
			</g>
			<g>
				<g>
					<g>
						<g>
							<path class="st13" d="M624.5,400.9c10.2-17.3,11.8-38.4,5.9-57.6c-1-3.1-2.8-6.7-6.1-6.9c-3.6-0.2-5.8,3.8-6.8,7.2
								c-3.5,12.1-2.7,25.1-2,37.7C616,389.2,618.7,395.8,624.5,400.9"/>
						</g>
					</g>
				</g>
			</g>
			<g>
				<g>
					<g>
						<g>
							<path class="st13" d="M614,408.1c-3.7-11.8-13-21.8-24.6-26.1c-2.7-1-6.1-1.6-8.1,0.5c-2,2-1.4,5.4-0.1,7.9
								c2,4.1,5.4,7.4,8.7,10.5c3,2.9,6.1,5.7,9.9,7.4C603.5,409.9,610.5,410.3,614,408.1"/>
						</g>
					</g>
				</g>
			</g>
			<g>
				<g>
					<g>
						<g>
							<g>
								<path class="st5" d="M676.9,363.6c0,0-0.1,0.1-0.2,0.2c-0.1,0.1-0.3,0.3-0.5,0.4c-0.5,0.4-1.2,0.9-2.1,1.6
									c-0.5,0.3-1,0.7-1.5,1.1c-0.6,0.4-1.1,0.9-1.8,1.4c-1.3,1.1-2.7,2.2-4.2,3.6c-0.8,0.7-1.6,1.4-2.4,2.2
									c-0.8,0.8-1.6,1.6-2.5,2.5c-1.7,1.7-3.4,3.6-5.3,5.7c-3.5,4.2-7.1,8.9-10.5,14.3c-3.3,5.4-6,10.7-8.1,15.8
									c-1,2.5-2,4.9-2.7,7.2c-0.4,1.2-0.8,2.2-1.1,3.3c-0.3,1.1-0.6,2.1-0.9,3.1c-0.6,2-1,3.8-1.3,5.4c-0.2,0.8-0.4,1.5-0.5,2.2
									c-0.1,0.7-0.2,1.3-0.3,1.9c-0.2,1.1-0.4,2-0.5,2.6c-0.1,0.3-0.1,0.5-0.1,0.7c0,0.2-0.1,0.2-0.1,0.2c0,0,0-0.1,0-0.2
									c0-0.2,0.1-0.4,0.1-0.7c0.1-0.6,0.2-1.5,0.4-2.6c0.1-0.6,0.2-1.2,0.3-1.9c0.1-0.7,0.3-1.4,0.5-2.2c0.4-1.6,0.7-3.4,1.3-5.4
									c0.3-1,0.6-2,0.8-3.1c0.3-1.1,0.7-2.2,1.1-3.4c0.7-2.3,1.7-4.7,2.7-7.3c2.1-5,4.8-10.4,8.1-15.8c3.3-5.4,7-10.2,10.5-14.3
									c1.8-2,3.5-4,5.3-5.7c0.9-0.8,1.7-1.7,2.5-2.5c0.8-0.8,1.7-1.5,2.4-2.2c1.5-1.4,3-2.5,4.3-3.6c0.6-0.5,1.2-1,1.8-1.4
									c0.6-0.4,1.1-0.8,1.6-1.1c0.9-0.6,1.7-1.2,2.2-1.5c0.2-0.2,0.4-0.3,0.6-0.4C676.9,363.7,676.9,363.6,676.9,363.6z"/>
							</g>
						</g>
					</g>
				</g>
			</g>
			<g>
				<g>
					<g>
						<g>
							<g>
								<path class="st5" d="M690.4,411.6c0,0-0.2,0-0.7-0.1c-0.5-0.1-1.1-0.3-2-0.4c-1.7-0.3-4.2-0.7-7.4-0.9
									c-6.2-0.4-15,0.3-23.9,4c-8.8,3.7-15.6,9.4-19.7,14.1c-2.1,2.3-3.6,4.4-4.5,5.8c-0.5,0.7-0.8,1.3-1.1,1.7
									c-0.3,0.4-0.4,0.6-0.4,0.6c0,0,0.1-0.2,0.3-0.6c0.2-0.4,0.6-1,1-1.7c0.9-1.5,2.4-3.6,4.4-6c4.1-4.8,10.8-10.6,19.8-14.3
									c8.9-3.7,17.8-4.4,24.1-3.9c3.1,0.2,5.7,0.7,7.4,1.1c0.9,0.2,1.5,0.4,2,0.5C690.2,411.5,690.4,411.5,690.4,411.6z"/>
							</g>
						</g>
					</g>
				</g>
			</g>
			<g>
				<g>
					<g>
						<g>
							<g>
								<path class="st5" d="M652.9,332.6c0,0,0,0.1,0,0.3c0,0.2-0.1,0.5-0.2,0.8c-0.2,0.7-0.4,1.7-0.7,3c-0.6,2.6-1.5,6.3-2.6,10.9
									c-2.2,9.2-5.5,21.9-8.9,35.9c-1.7,7-3.2,13.7-4.5,19.9c-1.3,6.1-2.4,11.7-3.2,16.3c-0.4,2.3-0.8,4.4-1.1,6.3
									c-0.3,1.9-0.6,3.5-0.8,4.8c-0.2,1.3-0.4,2.3-0.5,3c-0.1,0.3-0.1,0.6-0.1,0.8c0,0.2-0.1,0.3-0.1,0.3c0,0,0-0.1,0-0.3
									c0-0.2,0.1-0.5,0.1-0.8c0.1-0.7,0.2-1.7,0.4-3c0.2-1.3,0.4-2.9,0.7-4.8c0.3-1.9,0.6-4,1-6.3c0.8-4.7,1.8-10.2,3.1-16.3
									c1.3-6.1,2.8-12.8,4.5-19.9c3.4-14,6.7-26.7,9-35.9c1.2-4.6,2.1-8.3,2.7-10.9c0.3-1.3,0.6-2.2,0.8-3
									c0.1-0.3,0.2-0.6,0.2-0.8C652.8,332.7,652.9,332.6,652.9,332.6z"/>
							</g>
						</g>
					</g>
				</g>
			</g>
			<g>
				<g>
					<g>
						<g>
							<g>
								<path class="st5" d="M629.6,433.4c0,0,0-0.1-0.1-0.2c0-0.2-0.1-0.4-0.1-0.6c-0.1-0.6-0.3-1.4-0.5-2.4
									c-0.4-2.1-1-5.1-1.7-8.9c-1.3-7.5-2.8-18-3.8-29.6c-0.5-5.8-0.7-11.4-0.8-16.4c-0.1-5,0-9.6,0.1-13.4c0-1.9,0.2-3.6,0.3-5.1
									c0.1-1.5,0.2-2.8,0.3-3.9c0.1-1,0.2-1.8,0.2-2.4c0-0.3,0.1-0.5,0.1-0.6c0-0.1,0-0.2,0-0.2c0,0,0,0.1,0,0.2
									c0,0.2,0,0.4,0,0.6c0,0.6-0.1,1.4-0.1,2.5c-0.1,1.1-0.1,2.4-0.2,3.9c-0.1,1.5-0.2,3.2-0.2,5.1c-0.1,3.8-0.1,8.4,0,13.4
									c0.1,5,0.4,10.6,0.9,16.4c0.9,11.6,2.4,22,3.7,29.6c0.6,3.8,1.1,6.8,1.5,8.9c0.2,1,0.3,1.8,0.4,2.4c0,0.3,0.1,0.5,0.1,0.6
									C629.6,433.3,629.6,433.4,629.6,433.4z"/>
							</g>
						</g>
					</g>
				</g>
			</g>
			<g>
				<g>
					<g>
						<g>
							<g>
								<path class="st5" d="M630.3,435.6c0,0-0.1-0.2-0.3-0.6c-0.2-0.4-0.4-1-0.7-1.7c-0.1-0.4-0.3-0.8-0.5-1.3
									c-0.2-0.5-0.4-0.9-0.7-1.5c-0.2-0.5-0.5-1.1-0.7-1.7c-0.3-0.6-0.6-1.2-0.9-1.8c-0.3-0.6-0.7-1.3-1-2
									c-0.4-0.7-0.8-1.4-1.2-2.1c-0.8-1.5-1.9-3-2.9-4.6c-2.2-3.1-4.7-6.5-7.6-9.8c-2.9-3.3-5.9-6.2-8.8-8.8
									c-1.5-1.2-2.8-2.5-4.1-3.5c-0.7-0.5-1.3-1-1.9-1.5c-0.6-0.5-1.2-0.9-1.8-1.3c-1.2-0.9-2.2-1.6-3.2-2.2
									c-0.9-0.7-1.8-1.2-2.5-1.6c-0.7-0.4-1.2-0.7-1.6-1c-0.4-0.2-0.5-0.4-0.5-0.4c0,0,0.2,0.1,0.6,0.3c0.4,0.2,1,0.5,1.6,0.9
									c0.7,0.4,1.6,0.9,2.5,1.6c1,0.6,2.1,1.3,3.2,2.2c0.6,0.4,1.2,0.9,1.9,1.3c0.6,0.5,1.3,1,1.9,1.5c1.4,1,2.7,2.2,4.2,3.5
									c2.9,2.6,5.9,5.5,8.8,8.8c2.9,3.3,5.5,6.7,7.7,9.8c1,1.6,2.1,3.1,2.9,4.6c0.4,0.7,0.8,1.5,1.2,2.1c0.4,0.7,0.7,1.4,1,2
									c0.3,0.7,0.6,1.3,0.9,1.9c0.3,0.6,0.5,1.2,0.7,1.7c0.2,0.5,0.4,1,0.6,1.5c0.2,0.5,0.3,0.9,0.4,1.3c0.2,0.7,0.4,1.3,0.6,1.8
									C630.3,435.3,630.3,435.6,630.3,435.6z"/>
							</g>
						</g>
					</g>
				</g>
			</g>
			<g>
				<g>
					<g>
						<g>
							<g>
								<path class="st5" d="M673.2,383.7c0,0.1-1.2,0.1-3.2,0.2c-2,0.1-4.7,0.4-7.7,0.9c-3,0.6-5.6,1.3-7.5,1.9
									c-1.9,0.6-3,1.1-3.1,1c0,0,0.3-0.2,0.8-0.4c0.5-0.2,1.2-0.6,2.2-0.9c1.9-0.7,4.5-1.5,7.5-2.1c3-0.6,5.8-0.8,7.7-0.8
									c1,0,1.8,0,2.4,0C672.9,383.6,673.2,383.7,673.2,383.7z"/>
							</g>
						</g>
					</g>
				</g>
			</g>
			<g>
				<g>
					<g>
						<g>
							<g>
								<path class="st5" d="M680.8,421.1c-0.1,0.1-1.3-3.2-4.2-6.3c-2.8-3.1-6.1-4.5-6-4.6c0,0,0.8,0.2,2.1,0.9
									c1.2,0.7,2.8,1.8,4.3,3.4c1.5,1.6,2.5,3.2,3.1,4.5C680.7,420.3,680.9,421.1,680.8,421.1z"/>
							</g>
						</g>
					</g>
				</g>
			</g>
			<g>
				<g>
					<g>
						<g>
							<g>
								<path class="st5" d="M654.7,346.7c0.1,0.1-1.8,2-3.8,4.5c-2.1,2.5-3.5,4.7-3.6,4.6c-0.1-0.1,1.2-2.4,3.2-4.9
									C652.6,348.3,654.6,346.6,654.7,346.7z"/>
							</g>
						</g>
					</g>
				</g>
			</g>
			<g>
				<g>
					<g>
						<g>
							<g>
								<path class="st5" d="M648.6,336.1c0.1,0,0.5,1.8,0.9,4c0.4,2.2,0.6,4.1,0.5,4.1c-0.1,0-0.5-1.8-0.9-4
									C648.6,337.9,648.4,336.1,648.6,336.1z"/>
							</g>
						</g>
					</g>
				</g>
			</g>
			<g>
				<g>
					<g>
						<g>
							<g>
								<path class="st5" d="M629.6,369.3c0.1,0.1-1.2,2.9-3,6.3c-1.8,3.4-3.3,6.1-3.4,6c-0.1-0.1,1.2-2.9,3-6.3
									C627.9,372,629.5,369.3,629.6,369.3z"/>
							</g>
						</g>
					</g>
				</g>
			</g>
			<g>
				<g>
					<g>
						<g>
							<g>
								<path class="st5" d="M618.3,358c0.1-0.1,1.2,2,2.5,4.5c1.3,2.6,2.2,4.7,2.1,4.7c-0.1,0.1-1.2-2-2.5-4.5
									C619.1,360.2,618.1,358.1,618.3,358z"/>
							</g>
						</g>
					</g>
				</g>
			</g>
			<g>
				<g>
					<g>
						<g>
							<g>
								<path class="st5" d="M601.6,396.6c0,0.1-2-0.3-4.6-0.4c-2.5-0.2-4.6-0.1-4.6-0.2c0-0.1,2.1-0.4,4.6-0.3
									C599.7,395.9,601.7,396.5,601.6,396.6z"/>
							</g>
						</g>
					</g>
				</g>
			</g>
		</g>
		<g>
			<g>
				<g>
					<g>
						<g>
							<path class="st5" d="M613,430.8l5.7,29.7c0.4,2,2.1,3.4,4.1,3.4h16.7c2,0,3.8-1.5,4.1-3.5l4.9-29.6H613z"/>
						</g>
					</g>
				</g>
			</g>
			<g>
				<g>
					<g>
						<g>
							<polygon class="st15" points="614.8,440.4 646.8,440.4 648.5,430.8 613,430.8 							"/>
						</g>
					</g>
				</g>
			</g>
			<g>
				<g>
					<g>
						<g>
							<polygon class="st11" points="614.8,440.4 615.5,444 646.3,444 646.8,440.4 							"/>
						</g>
					</g>
				</g>
			</g>
		</g>
	</g>
</g>
<g id="Character">
</g>
</svg>
