<?xml version="1.0" encoding="utf-8"?>
<!-- Generator: Adobe Illustrator 24.2.1, SVG Export Plug-In . SVG Version: 6.00 Build 0)  -->
<svg version="1.1" id="Layer_1" xmlns="http://www.w3.org/2000/svg" xmlns:xlink="http://www.w3.org/1999/xlink" x="0px" y="0px"
	 viewBox="0 0 720 720" style="enable-background:new 0 0 720 720;" xml:space="preserve">
<style type="text/css">
	.st0{fill:none;stroke:#101011;stroke-width:1.1786;stroke-linecap:round;stroke-linejoin:round;stroke-miterlimit:10;}
</style>
<g id="XMLID_21_">
	<g id="XMLID_87_">
		<path id="XMLID_128_" class="st0" d="M43.2,672.9c0,8.2-6.6,14.8-14.8,14.8s-14.8-6.6-14.8-14.8s6.6-14.8,14.8-14.8
			C36.6,658.1,43.2,664.8,43.2,672.9z"/>
		<circle id="XMLID_121_" class="st0" cx="123.2" cy="672.9" r="14.8"/>
		<circle id="XMLID_120_" class="st0" cx="217.9" cy="672.9" r="14.8"/>
		<circle id="XMLID_119_" class="st0" cx="312.6" cy="672.9" r="14.8"/>
		<circle id="XMLID_113_" class="st0" cx="407.4" cy="672.9" r="14.8"/>
		
			<ellipse id="XMLID_112_" transform="matrix(0.1602 -0.9871 0.9871 0.1602 -242.5386 1060.7301)" class="st0" cx="502.1" cy="672.9" rx="14.8" ry="14.8"/>
		<circle id="XMLID_105_" class="st0" cx="596.8" cy="672.9" r="14.8"/>
		<path id="XMLID_88_" class="st0" d="M706.4,672.9c0,8.2-6.6,14.8-14.8,14.8s-14.8-6.6-14.8-14.8s6.6-14.8,14.8-14.8
			C699.7,658.1,706.4,664.8,706.4,672.9z"/>
	</g>
	<g id="XMLID_22_">
		<path id="XMLID_86_" class="st0" d="M43.2,583.5c0,8.2-6.6,14.8-14.8,14.8s-14.8-6.6-14.8-14.8s6.6-14.8,14.8-14.8
			S43.2,575.3,43.2,583.5z"/>
		<circle id="XMLID_85_" class="st0" cx="123.2" cy="583.5" r="14.8"/>
		<circle id="XMLID_84_" class="st0" cx="217.9" cy="583.5" r="14.8"/>
		<circle id="XMLID_83_" class="st0" cx="312.6" cy="583.5" r="14.8"/>
		<circle id="XMLID_25_" class="st0" cx="407.4" cy="583.5" r="14.8"/>
		
			<ellipse id="XMLID_24_" transform="matrix(0.1602 -0.9871 0.9871 0.1602 -154.293 985.6503)" class="st0" cx="502.1" cy="583.5" rx="14.8" ry="14.8"/>
		<circle id="XMLID_23_" class="st0" cx="596.8" cy="583.5" r="14.8"/>
		<path id="XMLID_26_" class="st0" d="M706.4,583.5c0,8.2-6.6,14.8-14.8,14.8s-14.8-6.6-14.8-14.8s6.6-14.8,14.8-14.8
			C699.7,568.7,706.4,575.3,706.4,583.5z"/>
	</g>
	<g id="XMLID_27_">
		<path id="XMLID_34_" class="st0" d="M43.2,494.1c0,8.2-6.6,14.8-14.8,14.8s-14.8-6.6-14.8-14.8c0-8.2,6.6-14.8,14.8-14.8
			C36.6,479.3,43.2,485.9,43.2,494.1z"/>
		<circle id="XMLID_33_" class="st0" cx="123.2" cy="494.1" r="14.8"/>
		<circle id="XMLID_32_" class="st0" cx="217.9" cy="494.1" r="14.8"/>
		<circle id="XMLID_31_" class="st0" cx="312.6" cy="494.1" r="14.8"/>
		<circle id="XMLID_30_" class="st0" cx="407.4" cy="494.1" r="14.8"/>
		
			<ellipse id="XMLID_29_" transform="matrix(0.1602 -0.9871 0.9871 0.1602 -66.0474 910.5706)" class="st0" cx="502.1" cy="494.1" rx="14.8" ry="14.8"/>
		<circle id="XMLID_28_" class="st0" cx="596.8" cy="494.1" r="14.8"/>
		<path id="XMLID_35_" class="st0" d="M706.4,494.1c0,8.2-6.6,14.8-14.8,14.8s-14.8-6.6-14.8-14.8c0-8.2,6.6-14.8,14.8-14.8
			C699.7,479.3,706.4,485.9,706.4,494.1z"/>
	</g>
	<g id="XMLID_36_">
		<path id="XMLID_43_" class="st0" d="M43.2,404.7c0,8.2-6.6,14.8-14.8,14.8s-14.8-6.6-14.8-14.8c0-8.2,6.6-14.8,14.8-14.8
			C36.6,389.9,43.2,396.5,43.2,404.7z"/>
		<path id="XMLID_42_" class="st0" d="M138,404.7c0,8.2-6.6,14.8-14.8,14.8s-14.8-6.6-14.8-14.8c0-8.2,6.6-14.8,14.8-14.8
			C131.3,389.9,138,396.5,138,404.7z"/>
		<path id="XMLID_41_" class="st0" d="M232.7,404.7c0,8.2-6.6,14.8-14.8,14.8s-14.8-6.6-14.8-14.8c0-8.2,6.6-14.8,14.8-14.8
			C226.1,389.9,232.7,396.5,232.7,404.7z"/>
		<path id="XMLID_40_" class="st0" d="M327.4,404.7c0,8.2-6.6,14.8-14.8,14.8c-8.2,0-14.8-6.6-14.8-14.8c0-8.2,6.6-14.8,14.8-14.8
			C320.8,389.9,327.4,396.5,327.4,404.7z"/>
		<path id="XMLID_39_" class="st0" d="M422.2,404.7c0,8.2-6.6,14.8-14.8,14.8c-8.2,0-14.8-6.6-14.8-14.8c0-8.2,6.6-14.8,14.8-14.8
			C415.5,389.9,422.2,396.5,422.2,404.7z"/>
		<path id="XMLID_38_" class="st0" d="M516.9,404.7c0,8.2-6.6,14.8-14.8,14.8c-8.2,0-14.8-6.6-14.8-14.8c0-8.2,6.6-14.8,14.8-14.8
			C510.3,389.9,516.9,396.5,516.9,404.7z"/>
		<path id="XMLID_37_" class="st0" d="M611.6,404.7c0,8.2-6.6,14.8-14.8,14.8s-14.8-6.6-14.8-14.8c0-8.2,6.6-14.8,14.8-14.8
			C605,389.9,611.6,396.5,611.6,404.7z"/>
		<path id="XMLID_44_" class="st0" d="M706.4,404.7c0,8.2-6.6,14.8-14.8,14.8s-14.8-6.6-14.8-14.8c0-8.2,6.6-14.8,14.8-14.8
			C699.7,389.9,706.4,396.5,706.4,404.7z"/>
	</g>
	<g id="XMLID_45_">
		<path id="XMLID_52_" class="st0" d="M43.2,315.3c0,8.2-6.6,14.8-14.8,14.8s-14.8-6.6-14.8-14.8c0-8.2,6.6-14.8,14.8-14.8
			S43.2,307.1,43.2,315.3z"/>
		<path id="XMLID_51_" class="st0" d="M138,315.3c0,8.2-6.6,14.8-14.8,14.8s-14.8-6.6-14.8-14.8c0-8.2,6.6-14.8,14.8-14.8
			C131.3,300.5,138,307.1,138,315.3z"/>
		<path id="XMLID_50_" class="st0" d="M232.7,315.3c0,8.2-6.6,14.8-14.8,14.8s-14.8-6.6-14.8-14.8c0-8.2,6.6-14.8,14.8-14.8
			C226.1,300.5,232.7,307.1,232.7,315.3z"/>
		<path id="XMLID_49_" class="st0" d="M327.4,315.3c0,8.2-6.6,14.8-14.8,14.8c-8.2,0-14.8-6.6-14.8-14.8c0-8.2,6.6-14.8,14.8-14.8
			S327.4,307.1,327.4,315.3z"/>
		<path id="XMLID_48_" class="st0" d="M422.2,315.3c0,8.2-6.6,14.8-14.8,14.8c-8.2,0-14.8-6.6-14.8-14.8c0-8.2,6.6-14.8,14.8-14.8
			C415.5,300.5,422.2,307.1,422.2,315.3z"/>
		<path id="XMLID_47_" class="st0" d="M516.9,315.3c0,8.2-6.6,14.8-14.8,14.8c-8.2,0-14.8-6.6-14.8-14.8c0-8.2,6.6-14.8,14.8-14.8
			C510.3,300.5,516.9,307.1,516.9,315.3z"/>
		<path id="XMLID_46_" class="st0" d="M611.6,315.3c0,8.2-6.6,14.8-14.8,14.8s-14.8-6.6-14.8-14.8c0-8.2,6.6-14.8,14.8-14.8
			S611.6,307.1,611.6,315.3z"/>
		<path id="XMLID_53_" class="st0" d="M706.4,315.3c0,8.2-6.6,14.8-14.8,14.8s-14.8-6.6-14.8-14.8c0-8.2,6.6-14.8,14.8-14.8
			C699.7,300.5,706.4,307.1,706.4,315.3z"/>
	</g>
	<g id="XMLID_54_">
		<path id="XMLID_61_" class="st0" d="M43.2,225.9c0,8.2-6.6,14.8-14.8,14.8s-14.8-6.6-14.8-14.8s6.6-14.8,14.8-14.8
			C36.6,211.1,43.2,217.7,43.2,225.9z"/>
		<path id="XMLID_60_" class="st0" d="M138,225.9c0,8.2-6.6,14.8-14.8,14.8s-14.8-6.6-14.8-14.8s6.6-14.8,14.8-14.8
			C131.3,211.1,138,217.7,138,225.9z"/>
		<path id="XMLID_59_" class="st0" d="M232.7,225.9c0,8.2-6.6,14.8-14.8,14.8s-14.8-6.6-14.8-14.8s6.6-14.8,14.8-14.8
			C226.1,211.1,232.7,217.7,232.7,225.9z"/>
		<path id="XMLID_58_" class="st0" d="M327.4,225.9c0,8.2-6.6,14.8-14.8,14.8c-8.2,0-14.8-6.6-14.8-14.8s6.6-14.8,14.8-14.8
			C320.8,211.1,327.4,217.7,327.4,225.9z"/>
		<path id="XMLID_57_" class="st0" d="M422.2,225.9c0,8.2-6.6,14.8-14.8,14.8c-8.2,0-14.8-6.6-14.8-14.8s6.6-14.8,14.8-14.8
			C415.5,211.1,422.2,217.7,422.2,225.9z"/>
		<path id="XMLID_56_" class="st0" d="M516.9,225.9c0,8.2-6.6,14.8-14.8,14.8c-8.2,0-14.8-6.6-14.8-14.8s6.6-14.8,14.8-14.8
			C510.3,211.1,516.9,217.7,516.9,225.9z"/>
		<path id="XMLID_55_" class="st0" d="M611.6,225.9c0,8.2-6.6,14.8-14.8,14.8s-14.8-6.6-14.8-14.8s6.6-14.8,14.8-14.8
			C605,211.1,611.6,217.7,611.6,225.9z"/>
		<path id="XMLID_62_" class="st0" d="M706.4,225.9c0,8.2-6.6,14.8-14.8,14.8s-14.8-6.6-14.8-14.8s6.6-14.8,14.8-14.8
			C699.7,211.1,706.4,217.7,706.4,225.9z"/>
	</g>
	<g id="XMLID_63_">
		<path id="XMLID_70_" class="st0" d="M43.2,136.5c0,8.2-6.6,14.8-14.8,14.8s-14.8-6.6-14.8-14.8s6.6-14.8,14.8-14.8
			S43.2,128.3,43.2,136.5z"/>
		<circle id="XMLID_69_" class="st0" cx="123.2" cy="136.5" r="14.8"/>
		<circle id="XMLID_68_" class="st0" cx="217.9" cy="136.5" r="14.8"/>
		<circle id="XMLID_67_" class="st0" cx="312.6" cy="136.5" r="14.8"/>
		<circle id="XMLID_66_" class="st0" cx="407.4" cy="136.5" r="14.8"/>
		
			<ellipse id="XMLID_65_" transform="matrix(0.3827 -0.9239 0.9239 0.3827 183.845 548.1436)" class="st0" cx="502.1" cy="136.5" rx="14.8" ry="14.8"/>
		<circle id="XMLID_64_" class="st0" cx="596.8" cy="136.5" r="14.8"/>
		<path id="XMLID_71_" class="st0" d="M706.4,136.5c0,8.2-6.6,14.8-14.8,14.8s-14.8-6.6-14.8-14.8s6.6-14.8,14.8-14.8
			C699.7,121.7,706.4,128.3,706.4,136.5z"/>
	</g>
	<g id="XMLID_72_">
		<path id="XMLID_79_" class="st0" d="M43.2,47.1c0,8.2-6.6,14.8-14.8,14.8s-14.8-6.6-14.8-14.8s6.6-14.8,14.8-14.8
			S43.2,38.9,43.2,47.1z"/>
		<circle id="XMLID_78_" class="st0" cx="123.2" cy="47.1" r="14.8"/>
		<circle id="XMLID_77_" class="st0" cx="217.9" cy="47.1" r="14.8"/>
		<circle id="XMLID_76_" class="st0" cx="312.6" cy="47.1" r="14.8"/>
		<circle id="XMLID_75_" class="st0" cx="407.4" cy="47.1" r="14.8"/>
		
			<ellipse id="XMLID_74_" transform="matrix(0.2898 -0.9571 0.9571 0.2898 311.5204 514.0071)" class="st0" cx="502.1" cy="47.1" rx="14.8" ry="14.8"/>
		<circle id="XMLID_73_" class="st0" cx="596.8" cy="47.1" r="14.8"/>
		<path id="XMLID_80_" class="st0" d="M706.4,47.1c0,8.2-6.6,14.8-14.8,14.8s-14.8-6.6-14.8-14.8s6.6-14.8,14.8-14.8
			C699.7,32.3,706.4,38.9,706.4,47.1z"/>
	</g>
</g>
</svg>
