<?xml version="1.0" encoding="utf-8"?>
<!-- Generator: Adobe Illustrator 24.2.1, SVG Export Plug-In . SVG Version: 6.00 Build 0)  -->
<svg version="1.1" id="Layer_1" xmlns="http://www.w3.org/2000/svg" xmlns:xlink="http://www.w3.org/1999/xlink" x="0px" y="0px"
	 viewBox="0 0 720 720" style="enable-background:new 0 0 720 720;" xml:space="preserve">
<style type="text/css">
	.st0{fill:none;stroke:#101011;stroke-width:1.1959;stroke-linecap:round;stroke-linejoin:round;stroke-miterlimit:10;}
	.st1{fill:none;stroke:#D90A2C;stroke-width:1.1959;stroke-linecap:round;stroke-linejoin:round;stroke-miterlimit:10;}
	.st2{fill:none;stroke:#101011;stroke-width:1.3796;stroke-linecap:round;stroke-linejoin:round;stroke-miterlimit:10;}
	.st3{fill:none;stroke:#101011;stroke-width:1.3461;stroke-linecap:round;stroke-linejoin:round;stroke-miterlimit:10;}
	.st4{fill:none;stroke:#D90A2C;stroke-linecap:round;stroke-linejoin:round;stroke-miterlimit:10;}
	.st5{fill:#101011;}
	.st6{fill:#D90A2C;}
	.st7{fill:none;stroke:#101011;stroke-width:0.5;stroke-linecap:round;stroke-linejoin:round;stroke-miterlimit:10;}
	.st8{fill:none;stroke:#D90A2C;stroke-width:0.5;stroke-linecap:round;stroke-linejoin:round;stroke-miterlimit:10;}
	.st9{fill:none;stroke:#101011;stroke-width:1.3475;stroke-miterlimit:10;}
	.st10{fill:none;stroke:#D90A2C;stroke-width:0.6416;stroke-linecap:round;stroke-linejoin:round;stroke-miterlimit:10;}
	.st11{fill:none;stroke:#101011;stroke-linecap:round;stroke-linejoin:round;stroke-miterlimit:10;}
	.st12{fill:none;stroke:#101011;stroke-width:2;stroke-linecap:round;stroke-linejoin:round;stroke-miterlimit:10;}
	.st13{fill:none;stroke:#D90A2C;stroke-width:2;stroke-linecap:round;stroke-linejoin:round;stroke-miterlimit:10;}
	.st14{fill:none;stroke:#D90A2C;stroke-width:0.889;stroke-miterlimit:10;}
	.st15{fill:#FFFFFF;}
	.st16{clip-path:url(#SVGID_2_);}
	.st17{fill:none;stroke:#D90A2C;stroke-width:0.6458;stroke-miterlimit:10;}
	.st18{fill:none;stroke:#D90A2C;stroke-miterlimit:10;}
	.st19{fill:none;stroke:#D90A2C;stroke-width:0.5451;stroke-linecap:round;stroke-linejoin:round;stroke-miterlimit:9.9999;}
	.st20{fill:none;stroke:#D90A2C;stroke-width:0.7985;stroke-linecap:round;stroke-linejoin:round;stroke-miterlimit:9.9999;}
	.st21{fill:none;stroke:#101011;stroke-miterlimit:10;}
</style>
<g id="XMLID_809_">
	<polyline id="XMLID_813_" class="st0" points="1.5,606 24.9,624 48.3,606 71.6,624 95,606 118.3,624 141.7,606 	"/>
	<polyline id="XMLID_812_" class="st0" points="1.5,621.6 24.9,639.6 48.3,621.6 71.6,639.6 95,621.6 118.3,639.6 141.7,621.6 	"/>
	<polyline id="XMLID_811_" class="st1" points="1.5,637.3 24.9,655.2 48.3,637.3 71.6,655.2 95,637.3 118.3,655.2 141.7,637.3 	"/>
	<polyline id="XMLID_810_" class="st1" points="1.5,652.9 24.9,670.8 48.3,652.9 71.6,670.8 95,652.9 118.3,670.8 141.7,652.9 	"/>
</g>
<g id="XMLID_358_">
	<path id="XMLID_359_" class="st2" d="M329.5,599.9c6.6,5.5,14.5,5.5,21.1,0l0,0c6.6-5.5,14.5-5.5,21.1,0l0,0
		c6.6,5.5,14.5,5.5,21.1,0l0,0c6.6-5.5,14.5-5.5,21.1,0l0,0c6.6,5.5,14.5,5.5,21,0"/>
</g>
<g id="XMLID_822_">
	<path id="XMLID_823_" class="st3" d="M71.6,326.5c0.8,8.3,6.2,13.8,14.5,14.5l0,0c8.3,0.8,13.8,6.2,14.5,14.5l0,0
		c0.8,8.3,6.2,13.8,14.5,14.5l0,0c8.3,0.8,13.8,6.2,14.5,14.5l0,0c0.8,8.3,6.2,13.8,14.5,14.5"/>
</g>
<g id="XMLID_824_">
	<path id="XMLID_825_" class="st4" d="M305.8,110.8c0.6,6.2,4.6,10.2,10.8,10.8l0,0c6.2,0.6,10.2,4.6,10.8,10.8l0,0
		c0.6,6.2,4.6,10.2,10.8,10.8l0,0c6.2,0.6,10.2,4.6,10.8,10.8l0,0c0.6,6.2,4.6,10.2,10.8,10.8"/>
</g>
<g id="XMLID_364_">
	<path id="XMLID_365_" class="st4" d="M574.1,32.3c7.5,6.2,16.6,6.2,24.1,0l0,0c7.5-6.2,16.6-6.2,24.1,0l0,0
		c7.5,6.2,16.6,6.2,24.1,0l0,0c7.5-6.2,16.6-6.2,24.1,0l0,0c7.5,6.2,16.6,6.2,24.1,0"/>
</g>
<g id="XMLID_559_">
	<g id="XMLID_623_">
		<path id="XMLID_631_" class="st5" d="M526.1,586.1c-0.9,0.9-2.3,0.9-3.2,0s-0.9-2.3,0-3.2s2.3-0.9,3.2,0S527,585.2,526.1,586.1z"
			/>
		<path id="XMLID_630_" class="st5" d="M536.4,596.4c-0.9,0.9-2.3,0.9-3.2,0s-0.9-2.3,0-3.2s2.3-0.9,3.2,0
			C537.3,594.1,537.3,595.5,536.4,596.4z"/>
		<path id="XMLID_629_" class="st5" d="M546.7,606.7c-0.9,0.9-2.3,0.9-3.2,0s-0.9-2.3,0-3.2s2.3-0.9,3.2,0
			C547.6,604.4,547.6,605.8,546.7,606.7z"/>
		<path id="XMLID_628_" class="st5" d="M557,617c-0.9,0.9-2.3,0.9-3.2,0s-0.9-2.3,0-3.2s2.3-0.9,3.2,0
			C557.9,614.6,557.9,616.1,557,617z"/>
		<path id="XMLID_627_" class="st5" d="M567.3,627.2c-0.9,0.9-2.3,0.9-3.2,0s-0.9-2.3,0-3.2s2.3-0.9,3.2,0
			C568.1,624.9,568.1,626.4,567.3,627.2z"/>
		<path id="XMLID_626_" class="st5" d="M577.5,637.5c-0.9,0.9-2.3,0.9-3.2,0s-0.9-2.3,0-3.2s2.3-0.9,3.2,0S578.4,636.6,577.5,637.5z
			"/>
		<path id="XMLID_625_" class="st5" d="M587.8,647.8c-0.9,0.9-2.3,0.9-3.2,0s-0.9-2.3,0-3.2s2.3-0.9,3.2,0S588.7,646.9,587.8,647.8z
			"/>
		<path id="XMLID_624_" class="st5" d="M598.1,658.1c-0.9,0.9-2.3,0.9-3.2,0s-0.9-2.3,0-3.2s2.3-0.9,3.2,0S599,657.2,598.1,658.1z"
			/>
	</g>
	<g id="XMLID_614_">
		<path id="XMLID_622_" class="st5" d="M535.8,576.4c-0.9,0.9-2.3,0.9-3.2,0s-0.9-2.3,0-3.2s2.3-0.9,3.2,0
			C536.7,574.1,536.7,575.5,535.8,576.4z"/>
		<path id="XMLID_621_" class="st5" d="M546.1,586.7c-0.9,0.9-2.3,0.9-3.2,0s-0.9-2.3,0-3.2s2.3-0.9,3.2,0S547,585.8,546.1,586.7z"
			/>
		<path id="XMLID_620_" class="st5" d="M556.4,597c-0.9,0.9-2.3,0.9-3.2,0s-0.9-2.3,0-3.2s2.3-0.9,3.2,0
			C557.3,594.7,557.3,596.1,556.4,597z"/>
		<path id="XMLID_619_" class="st5" d="M566.7,607.3c-0.9,0.9-2.3,0.9-3.2,0s-0.9-2.3,0-3.2s2.3-0.9,3.2,0
			C567.6,604.9,567.6,606.4,566.7,607.3z"/>
		<path id="XMLID_618_" class="st5" d="M577,617.5c-0.9,0.9-2.3,0.9-3.2,0s-0.9-2.3,0-3.2s2.3-0.9,3.2,0
			C577.8,615.2,577.8,616.7,577,617.5z"/>
		<path id="XMLID_617_" class="st5" d="M587.2,627.8c-0.9,0.9-2.3,0.9-3.2,0s-0.9-2.3,0-3.2s2.3-0.9,3.2,0
			C588.1,625.5,588.1,626.9,587.2,627.8z"/>
		<path id="XMLID_616_" class="st5" d="M597.5,638.1c-0.9,0.9-2.3,0.9-3.2,0s-0.9-2.3,0-3.2s2.3-0.9,3.2,0S598.4,637.2,597.5,638.1z
			"/>
		<path id="XMLID_615_" class="st5" d="M607.8,648.4c-0.9,0.9-2.3,0.9-3.2,0s-0.9-2.3,0-3.2s2.3-0.9,3.2,0
			C608.7,646.1,608.7,647.5,607.8,648.4z"/>
	</g>
	<g id="XMLID_605_">
		<path id="XMLID_613_" class="st5" d="M545.5,566.7c-0.9,0.9-2.3,0.9-3.2,0s-0.9-2.3,0-3.2s2.3-0.9,3.2,0S546.4,565.8,545.5,566.7z
			"/>
		<circle id="XMLID_612_" class="st5" cx="554.2" cy="575.4" r="2.3"/>
		<circle id="XMLID_611_" class="st5" cx="564.5" cy="585.7" r="2.3"/>
		<circle id="XMLID_610_" class="st5" cx="574.8" cy="596" r="2.3"/>
		<circle id="XMLID_609_" class="st5" cx="585.1" cy="606.2" r="2.3"/>
		<circle id="XMLID_608_" class="st5" cx="595.3" cy="616.5" r="2.3"/>
		<circle id="XMLID_607_" class="st5" cx="605.6" cy="626.8" r="2.3"/>
		<circle id="XMLID_606_" class="st5" cx="615.9" cy="637.1" r="2.3"/>
	</g>
	<g id="XMLID_596_">
		<path id="XMLID_604_" class="st5" d="M555.2,557c-0.9,0.9-2.3,0.9-3.2,0s-0.9-2.3,0-3.2s2.3-0.9,3.2,0
			C556.1,554.7,556.1,556.1,555.2,557z"/>
		<path id="XMLID_603_" class="st5" d="M565.5,567.3c-0.9,0.9-2.3,0.9-3.2,0s-0.9-2.3,0-3.2s2.3-0.9,3.2,0S566.4,566.4,565.5,567.3z
			"/>
		<path id="XMLID_602_" class="st5" d="M575.8,577.6c-0.9,0.9-2.3,0.9-3.2,0s-0.9-2.3,0-3.2s2.3-0.9,3.2,0S576.7,576.7,575.8,577.6z
			"/>
		<path id="XMLID_601_" class="st5" d="M586.1,587.9c-0.9,0.9-2.3,0.9-3.2,0s-0.9-2.3,0-3.2s2.3-0.9,3.2,0
			C587,585.5,587,587,586.1,587.9z"/>
		<path id="XMLID_600_" class="st5" d="M596.4,598.1c-0.9,0.9-2.3,0.9-3.2,0s-0.9-2.3,0-3.2s2.3-0.9,3.2,0
			C597.2,595.8,597.2,597.3,596.4,598.1z"/>
		<path id="XMLID_599_" class="st5" d="M606.6,608.4c-0.9,0.9-2.3,0.9-3.2,0s-0.9-2.3,0-3.2s2.3-0.9,3.2,0
			C607.5,606.1,607.5,607.5,606.6,608.4z"/>
		<path id="XMLID_598_" class="st5" d="M616.9,618.7c-0.9,0.9-2.3,0.9-3.2,0s-0.9-2.3,0-3.2s2.3-0.9,3.2,0
			C617.8,616.4,617.8,617.8,616.9,618.7z"/>
		<path id="XMLID_597_" class="st5" d="M627.2,629c-0.9,0.9-2.3,0.9-3.2,0s-0.9-2.3,0-3.2s2.3-0.9,3.2,0
			C628.1,626.7,628.1,628.1,627.2,629z"/>
	</g>
	<g id="XMLID_587_">
		<path id="XMLID_595_" class="st5" d="M564.9,547.3c-0.9,0.9-2.3,0.9-3.2,0s-0.9-2.3,0-3.2s2.3-0.9,3.2,0
			C565.8,545,565.8,546.4,564.9,547.3z"/>
		<path id="XMLID_594_" class="st5" d="M575.2,557.6c-0.9,0.9-2.3,0.9-3.2,0s-0.9-2.3,0-3.2s2.3-0.9,3.2,0
			C576.1,555.3,576.1,556.7,575.2,557.6z"/>
		<path id="XMLID_593_" class="st5" d="M585.5,567.9c-0.9,0.9-2.3,0.9-3.2,0s-0.9-2.3,0-3.2s2.3-0.9,3.2,0
			C586.4,565.6,586.4,567,585.5,567.9z"/>
		<path id="XMLID_592_" class="st5" d="M595.8,578.2c-0.9,0.9-2.3,0.9-3.2,0s-0.9-2.3,0-3.2s2.3-0.9,3.2,0
			C596.7,575.8,596.7,577.3,595.8,578.2z"/>
		<path id="XMLID_591_" class="st5" d="M606.1,588.4c-0.9,0.9-2.3,0.9-3.2,0s-0.9-2.3,0-3.2s2.3-0.9,3.2,0
			C607,586.1,607,587.5,606.1,588.4z"/>
		<path id="XMLID_590_" class="st5" d="M616.3,598.7c-0.9,0.9-2.3,0.9-3.2,0s-0.9-2.3,0-3.2s2.3-0.9,3.2,0S617.2,597.8,616.3,598.7z
			"/>
		<path id="XMLID_589_" class="st5" d="M626.6,609c-0.9,0.9-2.3,0.9-3.2,0s-0.9-2.3,0-3.2s2.3-0.9,3.2,0S627.5,608.1,626.6,609z"/>
		<path id="XMLID_588_" class="st5" d="M636.9,619.3c-0.9,0.9-2.3,0.9-3.2,0s-0.9-2.3,0-3.2s2.3-0.9,3.2,0
			C637.8,617,637.8,618.4,636.9,619.3z"/>
	</g>
	<g id="XMLID_578_">
		<circle id="XMLID_586_" class="st5" cx="573" cy="536" r="2.3"/>
		<circle id="XMLID_585_" class="st5" cx="583.3" cy="546.3" r="2.3"/>
		<circle id="XMLID_584_" class="st5" cx="593.6" cy="556.6" r="2.3"/>
		<circle id="XMLID_583_" class="st5" cx="603.9" cy="566.8" r="2.3"/>
		<circle id="XMLID_582_" class="st5" cx="614.2" cy="577.1" r="2.3"/>
		<circle id="XMLID_581_" class="st5" cx="624.4" cy="587.4" r="2.3"/>
		<circle id="XMLID_580_" class="st5" cx="634.7" cy="597.7" r="2.3"/>
		<circle id="XMLID_579_" class="st5" cx="645" cy="608" r="2.3"/>
	</g>
	<g id="XMLID_569_">
		<path id="XMLID_577_" class="st5" d="M584.3,527.9c-0.9,0.9-2.3,0.9-3.2,0s-0.9-2.3,0-3.2s2.3-0.9,3.2,0
			C585.2,525.6,585.2,527,584.3,527.9z"/>
		<path id="XMLID_576_" class="st5" d="M594.6,538.2c-0.9,0.9-2.3,0.9-3.2,0s-0.9-2.3,0-3.2s2.3-0.9,3.2,0S595.5,537.3,594.6,538.2z
			"/>
		<path id="XMLID_575_" class="st5" d="M604.9,548.5c-0.9,0.9-2.3,0.9-3.2,0s-0.9-2.3,0-3.2s2.3-0.9,3.2,0
			C605.8,546.1,605.8,547.6,604.9,548.5z"/>
		<path id="XMLID_574_" class="st5" d="M615.2,558.8c-0.9,0.9-2.3,0.9-3.2,0s-0.9-2.3,0-3.2s2.3-0.9,3.2,0
			C616.1,556.4,616.1,557.9,615.2,558.8z"/>
		<path id="XMLID_573_" class="st5" d="M625.5,569c-0.9,0.9-2.3,0.9-3.2,0s-0.9-2.3,0-3.2s2.3-0.9,3.2,0S626.4,568.1,625.5,569z"/>
		<path id="XMLID_572_" class="st5" d="M635.7,579.3c-0.9,0.9-2.3,0.9-3.2,0s-0.9-2.3,0-3.2s2.3-0.9,3.2,0
			C636.6,577,636.6,578.4,635.7,579.3z"/>
		<path id="XMLID_571_" class="st5" d="M646,589.6c-0.9,0.9-2.3,0.9-3.2,0s-0.9-2.3,0-3.2s2.3-0.9,3.2,0S646.9,588.7,646,589.6z"/>
		<path id="XMLID_570_" class="st5" d="M656.3,599.9c-0.9,0.9-2.3,0.9-3.2,0s-0.9-2.3,0-3.2s2.3-0.9,3.2,0
			C657.2,597.5,657.2,599,656.3,599.9z"/>
	</g>
	<g id="XMLID_560_">
		<path id="XMLID_568_" class="st5" d="M594.1,518.2c-0.9,0.9-2.3,0.9-3.2,0s-0.9-2.3,0-3.2s2.3-0.9,3.2,0
			C594.9,515.9,594.9,517.3,594.1,518.2z"/>
		<path id="XMLID_567_" class="st5" d="M604.3,528.5c-0.9,0.9-2.3,0.9-3.2,0s-0.9-2.3,0-3.2s2.3-0.9,3.2,0S605.2,527.6,604.3,528.5z
			"/>
		<path id="XMLID_566_" class="st5" d="M614.6,538.8c-0.9,0.9-2.3,0.9-3.2,0s-0.9-2.3,0-3.2s2.3-0.9,3.2,0
			C615.5,536.4,615.5,537.9,614.6,538.8z"/>
		<path id="XMLID_565_" class="st5" d="M624.9,549c-0.9,0.9-2.3,0.9-3.2,0s-0.9-2.3,0-3.2s2.3-0.9,3.2,0
			C625.8,546.7,625.8,548.2,624.9,549z"/>
		<path id="XMLID_564_" class="st5" d="M635.2,559.3c-0.9,0.9-2.3,0.9-3.2,0s-0.9-2.3,0-3.2s2.3-0.9,3.2,0
			C636.1,557,636.1,558.4,635.2,559.3z"/>
		<path id="XMLID_563_" class="st5" d="M645.5,569.6c-0.9,0.9-2.3,0.9-3.2,0s-0.9-2.3,0-3.2s2.3-0.9,3.2,0
			C646.3,567.3,646.3,568.7,645.5,569.6z"/>
		<path id="XMLID_562_" class="st5" d="M655.7,579.9c-0.9,0.9-2.3,0.9-3.2,0s-0.9-2.3,0-3.2s2.3-0.9,3.2,0
			C656.6,577.6,656.6,579,655.7,579.9z"/>
		<path id="XMLID_561_" class="st5" d="M666,590.2c-0.9,0.9-2.3,0.9-3.2,0s-0.9-2.3,0-3.2s2.3-0.9,3.2,0
			C666.9,587.8,666.9,589.3,666,590.2z"/>
	</g>
</g>
<g id="XMLID_240_">
	<g id="XMLID_347_">
		<path id="XMLID_351_" class="st6" d="M197.8,534c0,1.4-1.2,2.6-2.6,2.6s-2.6-1.2-2.6-2.6c0-1.4,1.2-2.6,2.6-2.6
			S197.8,532.6,197.8,534z"/>
		<path id="XMLID_350_" class="st6" d="M214.5,534c0,1.4-1.2,2.6-2.6,2.6s-2.6-1.2-2.6-2.6c0-1.4,1.2-2.6,2.6-2.6
			S214.5,532.6,214.5,534z"/>
		<path id="XMLID_349_" class="st6" d="M231.2,534c0,1.4-1.2,2.6-2.6,2.6c-1.4,0-2.6-1.2-2.6-2.6c0-1.4,1.2-2.6,2.6-2.6
			S231.2,532.6,231.2,534z"/>
		<path id="XMLID_348_" class="st6" d="M247.9,534c0,1.4-1.2,2.6-2.6,2.6c-1.4,0-2.6-1.2-2.6-2.6c0-1.4,1.2-2.6,2.6-2.6
			S247.9,532.6,247.9,534z"/>
	</g>
	<g id="XMLID_340_">
		<path id="XMLID_346_" class="st6" d="M181.1,518.3c0,1.4-1.2,2.6-2.6,2.6c-1.4,0-2.6-1.2-2.6-2.6c0-1.4,1.2-2.6,2.6-2.6
			C179.9,515.6,181.1,516.8,181.1,518.3z"/>
		<path id="XMLID_345_" class="st6" d="M197.8,518.3c0,1.4-1.2,2.6-2.6,2.6s-2.6-1.2-2.6-2.6c0-1.4,1.2-2.6,2.6-2.6
			S197.8,516.8,197.8,518.3z"/>
		<path id="XMLID_344_" class="st6" d="M214.5,518.3c0,1.4-1.2,2.6-2.6,2.6s-2.6-1.2-2.6-2.6c0-1.4,1.2-2.6,2.6-2.6
			S214.5,516.8,214.5,518.3z"/>
		<path id="XMLID_343_" class="st6" d="M231.2,518.3c0,1.4-1.2,2.6-2.6,2.6c-1.4,0-2.6-1.2-2.6-2.6c0-1.4,1.2-2.6,2.6-2.6
			C230,515.6,231.2,516.8,231.2,518.3z"/>
		<path id="XMLID_342_" class="st6" d="M247.9,518.3c0,1.4-1.2,2.6-2.6,2.6c-1.4,0-2.6-1.2-2.6-2.6c0-1.4,1.2-2.6,2.6-2.6
			C246.7,515.6,247.9,516.8,247.9,518.3z"/>
		<path id="XMLID_341_" class="st6" d="M264.6,518.3c0,1.4-1.2,2.6-2.6,2.6s-2.6-1.2-2.6-2.6c0-1.4,1.2-2.6,2.6-2.6
			S264.6,516.8,264.6,518.3z"/>
	</g>
	<g id="XMLID_333_">
		<path id="XMLID_339_" class="st6" d="M181.1,502.5c0,1.4-1.2,2.6-2.6,2.6c-1.4,0-2.6-1.2-2.6-2.6s1.2-2.6,2.6-2.6
			C179.9,499.9,181.1,501.1,181.1,502.5z"/>
		<path id="XMLID_338_" class="st6" d="M197.8,502.5c0,1.4-1.2,2.6-2.6,2.6s-2.6-1.2-2.6-2.6s1.2-2.6,2.6-2.6
			S197.8,501.1,197.8,502.5z"/>
		<path id="XMLID_337_" class="st6" d="M214.5,502.5c0,1.4-1.2,2.6-2.6,2.6s-2.6-1.2-2.6-2.6s1.2-2.6,2.6-2.6
			S214.5,501.1,214.5,502.5z"/>
		<path id="XMLID_336_" class="st6" d="M231.2,502.5c0,1.4-1.2,2.6-2.6,2.6c-1.4,0-2.6-1.2-2.6-2.6s1.2-2.6,2.6-2.6
			S231.2,501.1,231.2,502.5z"/>
		<path id="XMLID_335_" class="st6" d="M247.9,502.5c0,1.4-1.2,2.6-2.6,2.6c-1.4,0-2.6-1.2-2.6-2.6s1.2-2.6,2.6-2.6
			S247.9,501.1,247.9,502.5z"/>
		<path id="XMLID_334_" class="st6" d="M264.6,502.5c0,1.4-1.2,2.6-2.6,2.6s-2.6-1.2-2.6-2.6s1.2-2.6,2.6-2.6
			S264.6,501.1,264.6,502.5z"/>
	</g>
	<g id="XMLID_324_">
		<path id="XMLID_332_" class="st6" d="M164.4,486.7c0,1.4-1.2,2.6-2.6,2.6c-1.4,0-2.6-1.2-2.6-2.6s1.2-2.6,2.6-2.6
			S164.4,485.3,164.4,486.7z"/>
		<path id="XMLID_331_" class="st6" d="M181.1,486.7c0,1.4-1.2,2.6-2.6,2.6c-1.4,0-2.6-1.2-2.6-2.6s1.2-2.6,2.6-2.6
			C179.9,484.1,181.1,485.3,181.1,486.7z"/>
		<path id="XMLID_330_" class="st6" d="M197.8,486.7c0,1.4-1.2,2.6-2.6,2.6s-2.6-1.2-2.6-2.6s1.2-2.6,2.6-2.6
			S197.8,485.3,197.8,486.7z"/>
		<path id="XMLID_329_" class="st6" d="M214.5,486.7c0,1.4-1.2,2.6-2.6,2.6s-2.6-1.2-2.6-2.6s1.2-2.6,2.6-2.6
			S214.5,485.3,214.5,486.7z"/>
		<path id="XMLID_328_" class="st6" d="M231.2,486.7c0,1.4-1.2,2.6-2.6,2.6c-1.4,0-2.6-1.2-2.6-2.6s1.2-2.6,2.6-2.6
			S231.2,485.3,231.2,486.7z"/>
		<path id="XMLID_327_" class="st6" d="M247.9,486.7c0,1.4-1.2,2.6-2.6,2.6c-1.4,0-2.6-1.2-2.6-2.6s1.2-2.6,2.6-2.6
			S247.9,485.3,247.9,486.7z"/>
		<path id="XMLID_326_" class="st6" d="M264.6,486.7c0,1.4-1.2,2.6-2.6,2.6s-2.6-1.2-2.6-2.6s1.2-2.6,2.6-2.6
			S264.6,485.3,264.6,486.7z"/>
		<path id="XMLID_325_" class="st6" d="M281.2,486.7c0,1.4-1.2,2.6-2.6,2.6s-2.6-1.2-2.6-2.6s1.2-2.6,2.6-2.6
			S281.2,485.3,281.2,486.7z"/>
	</g>
	<g id="XMLID_315_">
		<path id="XMLID_323_" class="st6" d="M164.4,471c0,1.4-1.2,2.6-2.6,2.6c-1.4,0-2.6-1.2-2.6-2.6s1.2-2.6,2.6-2.6
			S164.4,469.6,164.4,471z"/>
		<path id="XMLID_322_" class="st6" d="M181.1,471c0,1.4-1.2,2.6-2.6,2.6c-1.4,0-2.6-1.2-2.6-2.6s1.2-2.6,2.6-2.6
			C179.9,468.4,181.1,469.6,181.1,471z"/>
		<path id="XMLID_321_" class="st6" d="M197.8,471c0,1.4-1.2,2.6-2.6,2.6s-2.6-1.2-2.6-2.6s1.2-2.6,2.6-2.6S197.8,469.6,197.8,471z"
			/>
		<path id="XMLID_320_" class="st6" d="M214.5,471c0,1.4-1.2,2.6-2.6,2.6s-2.6-1.2-2.6-2.6s1.2-2.6,2.6-2.6S214.5,469.6,214.5,471z"
			/>
		<path id="XMLID_319_" class="st6" d="M231.2,471c0,1.4-1.2,2.6-2.6,2.6c-1.4,0-2.6-1.2-2.6-2.6s1.2-2.6,2.6-2.6
			S231.2,469.6,231.2,471z"/>
		<path id="XMLID_318_" class="st6" d="M247.9,471c0,1.4-1.2,2.6-2.6,2.6c-1.4,0-2.6-1.2-2.6-2.6s1.2-2.6,2.6-2.6
			S247.9,469.6,247.9,471z"/>
		<path id="XMLID_317_" class="st6" d="M264.6,471c0,1.4-1.2,2.6-2.6,2.6s-2.6-1.2-2.6-2.6s1.2-2.6,2.6-2.6S264.6,469.6,264.6,471z"
			/>
		<path id="XMLID_316_" class="st6" d="M281.2,471c0,1.4-1.2,2.6-2.6,2.6s-2.6-1.2-2.6-2.6s1.2-2.6,2.6-2.6S281.2,469.6,281.2,471z"
			/>
	</g>
	<g id="XMLID_308_">
		<path id="XMLID_314_" class="st6" d="M181.1,455.2c0,1.4-1.2,2.6-2.6,2.6c-1.4,0-2.6-1.2-2.6-2.6s1.2-2.6,2.6-2.6
			C179.9,452.6,181.1,453.8,181.1,455.2z"/>
		<path id="XMLID_313_" class="st6" d="M197.8,455.2c0,1.4-1.2,2.6-2.6,2.6s-2.6-1.2-2.6-2.6s1.2-2.6,2.6-2.6
			S197.8,453.8,197.8,455.2z"/>
		<path id="XMLID_312_" class="st6" d="M214.5,455.2c0,1.4-1.2,2.6-2.6,2.6s-2.6-1.2-2.6-2.6s1.2-2.6,2.6-2.6
			S214.5,453.8,214.5,455.2z"/>
		<path id="XMLID_311_" class="st6" d="M231.2,455.2c0,1.4-1.2,2.6-2.6,2.6c-1.4,0-2.6-1.2-2.6-2.6s1.2-2.6,2.6-2.6
			S231.2,453.8,231.2,455.2z"/>
		<path id="XMLID_310_" class="st6" d="M247.9,455.2c0,1.4-1.2,2.6-2.6,2.6c-1.4,0-2.6-1.2-2.6-2.6s1.2-2.6,2.6-2.6
			S247.9,453.8,247.9,455.2z"/>
		<path id="XMLID_309_" class="st6" d="M264.6,455.2c0,1.4-1.2,2.6-2.6,2.6s-2.6-1.2-2.6-2.6s1.2-2.6,2.6-2.6
			S264.6,453.8,264.6,455.2z"/>
	</g>
	<g id="XMLID_264_">
		<path id="XMLID_303_" class="st6" d="M181.1,439.5c0,1.4-1.2,2.6-2.6,2.6c-1.4,0-2.6-1.2-2.6-2.6s1.2-2.6,2.6-2.6
			C179.9,436.9,181.1,438,181.1,439.5z"/>
		<path id="XMLID_302_" class="st6" d="M197.8,439.5c0,1.4-1.2,2.6-2.6,2.6s-2.6-1.2-2.6-2.6s1.2-2.6,2.6-2.6S197.8,438,197.8,439.5
			z"/>
		<path id="XMLID_300_" class="st6" d="M214.5,439.5c0,1.4-1.2,2.6-2.6,2.6s-2.6-1.2-2.6-2.6s1.2-2.6,2.6-2.6S214.5,438,214.5,439.5
			z"/>
		<path id="XMLID_293_" class="st6" d="M231.2,439.5c0,1.4-1.2,2.6-2.6,2.6c-1.4,0-2.6-1.2-2.6-2.6s1.2-2.6,2.6-2.6
			S231.2,438,231.2,439.5z"/>
		<path id="XMLID_291_" class="st6" d="M247.9,439.5c0,1.4-1.2,2.6-2.6,2.6c-1.4,0-2.6-1.2-2.6-2.6s1.2-2.6,2.6-2.6
			S247.9,438,247.9,439.5z"/>
		<path id="XMLID_284_" class="st6" d="M264.6,439.5c0,1.4-1.2,2.6-2.6,2.6s-2.6-1.2-2.6-2.6s1.2-2.6,2.6-2.6S264.6,438,264.6,439.5
			z"/>
	</g>
	<g id="XMLID_245_">
		<path id="XMLID_257_" class="st6" d="M197.8,423.7c0,1.4-1.2,2.6-2.6,2.6s-2.6-1.2-2.6-2.6s1.2-2.6,2.6-2.6
			S197.8,422.3,197.8,423.7z"/>
		<path id="XMLID_255_" class="st6" d="M214.5,423.7c0,1.4-1.2,2.6-2.6,2.6s-2.6-1.2-2.6-2.6s1.2-2.6,2.6-2.6
			S214.5,422.3,214.5,423.7z"/>
		<path id="XMLID_248_" class="st6" d="M231.2,423.7c0,1.4-1.2,2.6-2.6,2.6c-1.4,0-2.6-1.2-2.6-2.6s1.2-2.6,2.6-2.6
			S231.2,422.3,231.2,423.7z"/>
		<path id="XMLID_246_" class="st6" d="M247.9,423.7c0,1.4-1.2,2.6-2.6,2.6c-1.4,0-2.6-1.2-2.6-2.6s1.2-2.6,2.6-2.6
			S247.9,422.3,247.9,423.7z"/>
	</g>
</g>
<g id="XMLID_366_">
	<g id="XMLID_402_">
		<circle id="XMLID_410_" class="st7" cx="451.3" cy="435" r="2"/>
		<path id="XMLID_409_" class="st7" d="M451.3,449.9c-1.1,0-2-0.9-2-2s0.9-2,2-2s2,0.9,2,2S452.4,449.9,451.3,449.9z"/>
		<circle id="XMLID_408_" class="st8" cx="451.3" cy="460.7" r="2"/>
		<path id="XMLID_407_" class="st7" d="M451.3,475.6c-1.1,0-2-0.9-2-2s0.9-2,2-2s2,0.9,2,2S452.4,475.6,451.3,475.6z"/>
		<circle id="XMLID_406_" class="st7" cx="451.3" cy="486.5" r="2"/>
		<path id="XMLID_405_" class="st7" d="M451.3,501.4c-1.1,0-2-0.9-2-2s0.9-2,2-2s2,0.9,2,2S452.4,501.4,451.3,501.4z"/>
		<circle id="XMLID_404_" class="st7" cx="451.3" cy="512.2" r="2"/>
		<path id="XMLID_403_" class="st7" d="M451.3,527.1c-1.1,0-2-0.9-2-2s0.9-2,2-2s2,0.9,2,2C453.3,526.2,452.4,527.1,451.3,527.1z"/>
	</g>
	<g id="XMLID_394_">
		<circle id="XMLID_401_" class="st7" cx="463.4" cy="435" r="2"/>
		<path id="XMLID_400_" class="st7" d="M463.4,449.9c-1.1,0-2-0.9-2-2s0.9-2,2-2s2,0.9,2,2S464.5,449.9,463.4,449.9z"/>
		<circle id="XMLID_399_" class="st8" cx="463.4" cy="460.7" r="2"/>
		<path id="XMLID_398_" class="st7" d="M463.4,475.6c-1.1,0-2-0.9-2-2s0.9-2,2-2s2,0.9,2,2S464.5,475.6,463.4,475.6z"/>
		<circle id="XMLID_397_" class="st7" cx="463.4" cy="486.5" r="2"/>
		<path id="XMLID_396_" class="st7" d="M463.4,501.4c-1.1,0-2-0.9-2-2s0.9-2,2-2s2,0.9,2,2S464.5,501.4,463.4,501.4z"/>
		<circle id="XMLID_395_" class="st7" cx="463.4" cy="512.2" r="2"/>
	</g>
	<g id="XMLID_387_">
		<path id="XMLID_393_" class="st8" d="M475.6,437c-1.1,0-2-0.9-2-2s0.9-2,2-2s2,0.9,2,2S476.7,437,475.6,437z"/>
		<path id="XMLID_392_" class="st8" d="M475.6,449.9c-1.1,0-2-0.9-2-2s0.9-2,2-2s2,0.9,2,2S476.7,449.9,475.6,449.9z"/>
		<path id="XMLID_391_" class="st8" d="M475.6,462.7c-1.1,0-2-0.9-2-2s0.9-2,2-2s2,0.9,2,2S476.7,462.7,475.6,462.7z"/>
		<path id="XMLID_390_" class="st8" d="M475.6,475.6c-1.1,0-2-0.9-2-2s0.9-2,2-2s2,0.9,2,2S476.7,475.6,475.6,475.6z"/>
		<path id="XMLID_389_" class="st8" d="M475.6,488.5c-1.1,0-2-0.9-2-2s0.9-2,2-2s2,0.9,2,2S476.7,488.5,475.6,488.5z"/>
		<path id="XMLID_388_" class="st8" d="M475.6,501.4c-1.1,0-2-0.9-2-2s0.9-2,2-2s2,0.9,2,2S476.7,501.4,475.6,501.4z"/>
	</g>
	<g id="XMLID_381_">
		<circle id="XMLID_386_" class="st7" cx="487.7" cy="435" r="2"/>
		<path id="XMLID_385_" class="st7" d="M487.7,449.9c-1.1,0-2-0.9-2-2s0.9-2,2-2s2,0.9,2,2S488.8,449.9,487.7,449.9z"/>
		<circle id="XMLID_384_" class="st8" cx="487.7" cy="460.7" r="2"/>
		<path id="XMLID_383_" class="st7" d="M487.7,475.6c-1.1,0-2-0.9-2-2s0.9-2,2-2s2,0.9,2,2S488.8,475.6,487.7,475.6z"/>
		<circle id="XMLID_382_" class="st7" cx="487.7" cy="486.5" r="2"/>
	</g>
	<g id="XMLID_376_">
		<circle id="XMLID_380_" class="st7" cx="499.9" cy="435" r="2"/>
		<path id="XMLID_379_" class="st7" d="M499.9,449.9c-1.1,0-2-0.9-2-2s0.9-2,2-2s2,0.9,2,2S501,449.9,499.9,449.9z"/>
		<circle id="XMLID_378_" class="st8" cx="499.9" cy="460.7" r="2"/>
		<path id="XMLID_377_" class="st7" d="M499.9,475.6c-1.1,0-2-0.9-2-2s0.9-2,2-2s2,0.9,2,2S501,475.6,499.9,475.6z"/>
	</g>
	<g id="XMLID_372_">
		<circle id="XMLID_375_" class="st7" cx="512" cy="435" r="2"/>
		<path id="XMLID_374_" class="st7" d="M512,449.9c-1.1,0-2-0.9-2-2s0.9-2,2-2c1.1,0,2,0.9,2,2C514.1,449,513.2,449.9,512,449.9z"/>
		<circle id="XMLID_373_" class="st8" cx="512" cy="460.7" r="2"/>
	</g>
	<g id="XMLID_369_">
		<circle id="XMLID_371_" class="st7" cx="524.2" cy="435" r="2"/>
		<path id="XMLID_370_" class="st7" d="M524.2,449.9c-1.1,0-2-0.9-2-2s0.9-2,2-2s2,0.9,2,2S525.3,449.9,524.2,449.9z"/>
	</g>
	<g id="XMLID_367_">
		<path id="XMLID_368_" class="st7" d="M536.4,437c-1.1,0-2-0.9-2-2s0.9-2,2-2s2,0.9,2,2S537.5,437,536.4,437z"/>
	</g>
</g>
<g id="XMLID_205_">
	<polygon id="XMLID_217_" class="st6" points="405.1,365.5 391,373.7 391,368.5 396.1,365.5 391,362.5 391,357.4 	"/>
	<polygon id="XMLID_218_" class="st6" points="426.2,365.5 412,373.7 412,368.5 417.2,365.5 412,362.5 412,357.4 	"/>
	<polygon id="XMLID_219_" class="st6" points="447.3,365.5 433.1,373.7 433.1,368.5 438.3,365.5 433.1,362.5 433.1,357.4 	"/>
	<polygon id="XMLID_220_" class="st6" points="468.3,365.5 454.2,373.7 454.2,368.5 459.3,365.5 454.2,362.5 454.2,357.4 	"/>
</g>
<g id="XMLID_833_">
	<g id="XMLID_89_">
		<line id="XMLID_92_" class="st9" x1="468.5" y1="103.3" x2="555.9" y2="190.7"/>
		<g id="XMLID_93_">
			<line id="XMLID_94_" class="st9" x1="543.6" y1="203" x2="456.2" y2="115.6"/>
			<path id="XMLID_110_" class="st9" d="M468.5,115.6c-3.4,3.4-8.9,3.4-12.3,0s-3.4-8.9,0-12.3s8.9-3.4,12.3,0
				S471.9,112.2,468.5,115.6z"/>
			<path id="XMLID_111_" class="st9" d="M555.9,190.7c3.4,3.4,3.4,8.9,0,12.3c-3.4,3.4-8.9,3.4-12.3,0"/>
		</g>
	</g>
	<g id="XMLID_166_">
		<line id="XMLID_10_" class="st10" x1="445.2" y1="199.9" x2="456.2" y2="210.9"/>
		<line id="XMLID_9_" class="st10" x1="456.5" y1="193.3" x2="498.4" y2="235.3"/>
		<line id="XMLID_8_" class="st10" x1="467.8" y1="186.8" x2="539.4" y2="258.4"/>
		<line id="XMLID_7_" class="st10" x1="479.2" y1="180.3" x2="539.4" y2="240.5"/>
		<line id="XMLID_6_" class="st10" x1="490.5" y1="173.7" x2="539.4" y2="222.7"/>
		<line id="XMLID_5_" class="st10" x1="501.8" y1="167.2" x2="539.4" y2="204.8"/>
		<line id="XMLID_4_" class="st10" x1="513.1" y1="160.6" x2="539.4" y2="186.9"/>
		<line id="XMLID_3_" class="st10" x1="524.5" y1="154.1" x2="539.4" y2="169.1"/>
		<line id="XMLID_167_" class="st10" x1="535.8" y1="147.6" x2="539.4" y2="151.2"/>
	</g>
</g>
<line id="XMLID_820_" class="st11" x1="254.6" y1="256.2" x2="269.6" y2="271.2"/>
<g id="XMLID_226_">
	<rect id="XMLID_221_" x="310.1" y="206.8" class="st6" width="6.6" height="30.6"/>
	<rect id="XMLID_225_" x="298.1" y="218.8" class="st6" width="30.6" height="6.6"/>
</g>
<g id="XMLID_814_">
	
		<rect id="XMLID_816_" x="63.3" y="397.9" transform="matrix(0.7071 -0.7071 0.7071 0.7071 -261.0313 171.1236)" class="st5" width="25.4" height="5.5"/>
	
		<rect id="XMLID_815_" x="73.2" y="388" transform="matrix(0.7071 -0.7071 0.7071 0.7071 -261.0948 171.0636)" class="st5" width="5.5" height="25.4"/>
</g>
<circle id="XMLID_239_" class="st12" cx="323.1" cy="319" r="9.7"/>
<path id="XMLID_355_" class="st13" d="M112.9,215.8c0,2.8-2.3,5-5,5s-5-2.3-5-5s2.3-5,5-5S112.9,213.1,112.9,215.8z"/>
<g id="XMLID_818_">
	<g id="XMLID_484_">
		<g id="XMLID_548_">
			<path id="XMLID_556_" class="st5" d="M151.7,36.6c0,0.7-0.6,1.3-1.3,1.3s-1.3-0.6-1.3-1.3s0.6-1.3,1.3-1.3S151.7,35.9,151.7,36.6
				z"/>
			<path id="XMLID_555_" class="st5" d="M160.2,36.6c0,0.7-0.6,1.3-1.3,1.3s-1.3-0.6-1.3-1.3s0.6-1.3,1.3-1.3S160.2,35.9,160.2,36.6
				z"/>
			<path id="XMLID_554_" class="st5" d="M168.7,36.6c0,0.7-0.6,1.3-1.3,1.3s-1.3-0.6-1.3-1.3s0.6-1.3,1.3-1.3S168.7,35.9,168.7,36.6
				z"/>
			<path id="XMLID_553_" class="st5" d="M177.2,36.6c0,0.7-0.6,1.3-1.3,1.3s-1.3-0.6-1.3-1.3s0.6-1.3,1.3-1.3
				C176.6,35.3,177.2,35.9,177.2,36.6z"/>
			<path id="XMLID_552_" class="st5" d="M185.6,36.6c0,0.7-0.6,1.3-1.3,1.3s-1.3-0.6-1.3-1.3s0.6-1.3,1.3-1.3
				C185.1,35.3,185.6,35.9,185.6,36.6z"/>
			<path id="XMLID_551_" class="st5" d="M194.1,36.6c0,0.7-0.6,1.3-1.3,1.3s-1.3-0.6-1.3-1.3s0.6-1.3,1.3-1.3S194.1,35.9,194.1,36.6
				z"/>
			<path id="XMLID_550_" class="st5" d="M202.6,36.6c0,0.7-0.6,1.3-1.3,1.3s-1.3-0.6-1.3-1.3s0.6-1.3,1.3-1.3S202.6,35.9,202.6,36.6
				z"/>
			<path id="XMLID_549_" class="st5" d="M211.1,36.6c0,0.7-0.6,1.3-1.3,1.3s-1.3-0.6-1.3-1.3s0.6-1.3,1.3-1.3S211.1,35.9,211.1,36.6
				z"/>
		</g>
		<g id="XMLID_539_">
			<path id="XMLID_547_" class="st5" d="M151.7,28.6c0,0.7-0.6,1.3-1.3,1.3s-1.3-0.6-1.3-1.3c0-0.7,0.6-1.3,1.3-1.3
				S151.7,27.9,151.7,28.6z"/>
			<path id="XMLID_546_" class="st5" d="M160.2,28.6c0,0.7-0.6,1.3-1.3,1.3s-1.3-0.6-1.3-1.3c0-0.7,0.6-1.3,1.3-1.3
				S160.2,27.9,160.2,28.6z"/>
			<path id="XMLID_545_" class="st5" d="M168.7,28.6c0,0.7-0.6,1.3-1.3,1.3s-1.3-0.6-1.3-1.3c0-0.7,0.6-1.3,1.3-1.3
				S168.7,27.9,168.7,28.6z"/>
			<path id="XMLID_544_" class="st5" d="M177.2,28.6c0,0.7-0.6,1.3-1.3,1.3s-1.3-0.6-1.3-1.3c0-0.7,0.6-1.3,1.3-1.3
				C176.6,27.3,177.2,27.9,177.2,28.6z"/>
			<path id="XMLID_543_" class="st5" d="M185.6,28.6c0,0.7-0.6,1.3-1.3,1.3s-1.3-0.6-1.3-1.3c0-0.7,0.6-1.3,1.3-1.3
				C185.1,27.3,185.6,27.9,185.6,28.6z"/>
			<path id="XMLID_542_" class="st5" d="M194.1,28.6c0,0.7-0.6,1.3-1.3,1.3s-1.3-0.6-1.3-1.3c0-0.7,0.6-1.3,1.3-1.3
				C193.5,27.3,194.1,27.9,194.1,28.6z"/>
			<path id="XMLID_541_" class="st5" d="M202.6,28.6c0,0.7-0.6,1.3-1.3,1.3s-1.3-0.6-1.3-1.3c0-0.7,0.6-1.3,1.3-1.3
				S202.6,27.9,202.6,28.6z"/>
			<path id="XMLID_540_" class="st5" d="M211.1,28.6c0,0.7-0.6,1.3-1.3,1.3s-1.3-0.6-1.3-1.3c0-0.7,0.6-1.3,1.3-1.3
				C210.5,27.3,211.1,27.9,211.1,28.6z"/>
		</g>
		<g id="XMLID_530_">
			<path id="XMLID_538_" class="st5" d="M151.7,20.6c0,0.7-0.6,1.3-1.3,1.3s-1.3-0.6-1.3-1.3s0.6-1.3,1.3-1.3S151.7,19.9,151.7,20.6
				z"/>
			<path id="XMLID_537_" class="st5" d="M160.2,20.6c0,0.7-0.6,1.3-1.3,1.3s-1.3-0.6-1.3-1.3s0.6-1.3,1.3-1.3S160.2,19.9,160.2,20.6
				z"/>
			<path id="XMLID_536_" class="st5" d="M168.7,20.6c0,0.7-0.6,1.3-1.3,1.3s-1.3-0.6-1.3-1.3s0.6-1.3,1.3-1.3S168.7,19.9,168.7,20.6
				z"/>
			<path id="XMLID_535_" class="st5" d="M177.2,20.6c0,0.7-0.6,1.3-1.3,1.3s-1.3-0.6-1.3-1.3s0.6-1.3,1.3-1.3
				C176.6,19.3,177.2,19.9,177.2,20.6z"/>
			<path id="XMLID_534_" class="st5" d="M185.6,20.6c0,0.7-0.6,1.3-1.3,1.3s-1.3-0.6-1.3-1.3s0.6-1.3,1.3-1.3
				C185.1,19.3,185.6,19.9,185.6,20.6z"/>
			<path id="XMLID_533_" class="st5" d="M194.1,20.6c0,0.7-0.6,1.3-1.3,1.3s-1.3-0.6-1.3-1.3s0.6-1.3,1.3-1.3
				C193.5,19.3,194.1,19.9,194.1,20.6z"/>
			<path id="XMLID_532_" class="st5" d="M202.6,20.6c0,0.7-0.6,1.3-1.3,1.3s-1.3-0.6-1.3-1.3s0.6-1.3,1.3-1.3S202.6,19.9,202.6,20.6
				z"/>
			<path id="XMLID_531_" class="st5" d="M211.1,20.6c0,0.7-0.6,1.3-1.3,1.3s-1.3-0.6-1.3-1.3s0.6-1.3,1.3-1.3
				C210.5,19.3,211.1,19.9,211.1,20.6z"/>
		</g>
		<g id="XMLID_521_">
			<path id="XMLID_529_" class="st5" d="M151.7,12.6c0,0.7-0.6,1.3-1.3,1.3s-1.3-0.6-1.3-1.3s0.6-1.3,1.3-1.3S151.7,11.9,151.7,12.6
				z"/>
			<path id="XMLID_528_" class="st5" d="M160.2,12.6c0,0.7-0.6,1.3-1.3,1.3s-1.3-0.6-1.3-1.3s0.6-1.3,1.3-1.3S160.2,11.9,160.2,12.6
				z"/>
			<path id="XMLID_527_" class="st5" d="M168.7,12.6c0,0.7-0.6,1.3-1.3,1.3s-1.3-0.6-1.3-1.3s0.6-1.3,1.3-1.3S168.7,11.9,168.7,12.6
				z"/>
			<path id="XMLID_526_" class="st5" d="M177.2,12.6c0,0.7-0.6,1.3-1.3,1.3s-1.3-0.6-1.3-1.3s0.6-1.3,1.3-1.3
				C176.6,11.3,177.2,11.9,177.2,12.6z"/>
			<path id="XMLID_525_" class="st5" d="M185.6,12.6c0,0.7-0.6,1.3-1.3,1.3s-1.3-0.6-1.3-1.3s0.6-1.3,1.3-1.3
				C185.1,11.3,185.6,11.9,185.6,12.6z"/>
			<path id="XMLID_524_" class="st5" d="M194.1,12.6c0,0.7-0.6,1.3-1.3,1.3s-1.3-0.6-1.3-1.3s0.6-1.3,1.3-1.3S194.1,11.9,194.1,12.6
				z"/>
			<path id="XMLID_523_" class="st5" d="M202.6,12.6c0,0.7-0.6,1.3-1.3,1.3s-1.3-0.6-1.3-1.3s0.6-1.3,1.3-1.3S202.6,11.9,202.6,12.6
				z"/>
			<path id="XMLID_522_" class="st5" d="M211.1,12.6c0,0.7-0.6,1.3-1.3,1.3s-1.3-0.6-1.3-1.3s0.6-1.3,1.3-1.3S211.1,11.9,211.1,12.6
				z"/>
		</g>
		<g id="XMLID_512_">
			<path id="XMLID_520_" class="st5" d="M151.7,4.6c0,0.7-0.6,1.3-1.3,1.3s-1.3-0.6-1.3-1.3s0.6-1.3,1.3-1.3S151.7,3.9,151.7,4.6z"
				/>
			<path id="XMLID_519_" class="st5" d="M160.2,4.6c0,0.7-0.6,1.3-1.3,1.3s-1.3-0.6-1.3-1.3s0.6-1.3,1.3-1.3S160.2,3.9,160.2,4.6z"
				/>
			<path id="XMLID_518_" class="st5" d="M168.7,4.6c0,0.7-0.6,1.3-1.3,1.3S166,5.3,166,4.6s0.6-1.3,1.3-1.3S168.7,3.9,168.7,4.6z"/>
			<path id="XMLID_517_" class="st5" d="M177.2,4.6c0,0.7-0.6,1.3-1.3,1.3s-1.3-0.6-1.3-1.3s0.6-1.3,1.3-1.3
				C176.6,3.3,177.2,3.9,177.2,4.6z"/>
			<path id="XMLID_516_" class="st5" d="M185.6,4.6c0,0.7-0.6,1.3-1.3,1.3S183,5.3,183,4.6s0.6-1.3,1.3-1.3
				C185.1,3.3,185.6,3.9,185.6,4.6z"/>
			<path id="XMLID_515_" class="st5" d="M194.1,4.6c0,0.7-0.6,1.3-1.3,1.3s-1.3-0.6-1.3-1.3s0.6-1.3,1.3-1.3
				C193.5,3.3,194.1,3.9,194.1,4.6z"/>
			<path id="XMLID_514_" class="st5" d="M202.6,4.6c0,0.7-0.6,1.3-1.3,1.3S200,5.3,200,4.6s0.6-1.3,1.3-1.3S202.6,3.9,202.6,4.6z"/>
			<path id="XMLID_513_" class="st5" d="M211.1,4.6c0,0.7-0.6,1.3-1.3,1.3s-1.3-0.6-1.3-1.3s0.6-1.3,1.3-1.3
				C210.5,3.3,211.1,3.9,211.1,4.6z"/>
		</g>
		<g id="XMLID_503_">
			<path id="XMLID_511_" class="st5" d="M151.7-3.4c0,0.7-0.6,1.3-1.3,1.3s-1.3-0.6-1.3-1.3s0.6-1.3,1.3-1.3S151.7-4.1,151.7-3.4z"
				/>
			<path id="XMLID_510_" class="st5" d="M160.2-3.4c0,0.7-0.6,1.3-1.3,1.3s-1.3-0.6-1.3-1.3s0.6-1.3,1.3-1.3S160.2-4.1,160.2-3.4z"
				/>
			<path id="XMLID_509_" class="st5" d="M168.7-3.4c0,0.7-0.6,1.3-1.3,1.3S166-2.7,166-3.4s0.6-1.3,1.3-1.3S168.7-4.1,168.7-3.4z"/>
			<path id="XMLID_508_" class="st5" d="M177.2-3.4c0,0.7-0.6,1.3-1.3,1.3s-1.3-0.6-1.3-1.3s0.6-1.3,1.3-1.3
				C176.6-4.7,177.2-4.1,177.2-3.4z"/>
			<path id="XMLID_507_" class="st5" d="M185.6-3.4c0,0.7-0.6,1.3-1.3,1.3S183-2.7,183-3.4s0.6-1.3,1.3-1.3
				C185.1-4.7,185.6-4.1,185.6-3.4z"/>
			<path id="XMLID_506_" class="st5" d="M194.1-3.4c0,0.7-0.6,1.3-1.3,1.3s-1.3-0.6-1.3-1.3s0.6-1.3,1.3-1.3S194.1-4.1,194.1-3.4z"
				/>
			<path id="XMLID_505_" class="st5" d="M202.6-3.4c0,0.7-0.6,1.3-1.3,1.3S200-2.7,200-3.4s0.6-1.3,1.3-1.3S202.6-4.1,202.6-3.4z"/>
			<path id="XMLID_504_" class="st5" d="M211.1-3.4c0,0.7-0.6,1.3-1.3,1.3s-1.3-0.6-1.3-1.3s0.6-1.3,1.3-1.3S211.1-4.1,211.1-3.4z"
				/>
		</g>
		<g id="XMLID_494_">
			<path id="XMLID_502_" class="st5" d="M151.7-11.4c0,0.7-0.6,1.3-1.3,1.3s-1.3-0.6-1.3-1.3s0.6-1.3,1.3-1.3S151.7-12.1,151.7-11.4
				z"/>
			<path id="XMLID_501_" class="st5" d="M160.2-11.4c0,0.7-0.6,1.3-1.3,1.3s-1.3-0.6-1.3-1.3s0.6-1.3,1.3-1.3S160.2-12.1,160.2-11.4
				z"/>
			<path id="XMLID_500_" class="st5" d="M168.7-11.4c0,0.7-0.6,1.3-1.3,1.3s-1.3-0.6-1.3-1.3s0.6-1.3,1.3-1.3S168.7-12.1,168.7-11.4
				z"/>
			<path id="XMLID_499_" class="st5" d="M177.2-11.4c0,0.7-0.6,1.3-1.3,1.3s-1.3-0.6-1.3-1.3s0.6-1.3,1.3-1.3
				C176.6-12.7,177.2-12.1,177.2-11.4z"/>
			<path id="XMLID_498_" class="st5" d="M185.6-11.4c0,0.7-0.6,1.3-1.3,1.3s-1.3-0.6-1.3-1.3s0.6-1.3,1.3-1.3
				C185.1-12.7,185.6-12.1,185.6-11.4z"/>
			<path id="XMLID_497_" class="st5" d="M194.1-11.4c0,0.7-0.6,1.3-1.3,1.3s-1.3-0.6-1.3-1.3s0.6-1.3,1.3-1.3S194.1-12.1,194.1-11.4
				z"/>
			<path id="XMLID_496_" class="st5" d="M202.6-11.4c0,0.7-0.6,1.3-1.3,1.3s-1.3-0.6-1.3-1.3s0.6-1.3,1.3-1.3S202.6-12.1,202.6-11.4
				z"/>
			<path id="XMLID_495_" class="st5" d="M211.1-11.4c0,0.7-0.6,1.3-1.3,1.3s-1.3-0.6-1.3-1.3s0.6-1.3,1.3-1.3S211.1-12.1,211.1-11.4
				z"/>
		</g>
		<g id="XMLID_485_">
			<path id="XMLID_493_" class="st5" d="M151.7-19.4c0,0.7-0.6,1.3-1.3,1.3s-1.3-0.6-1.3-1.3c0-0.7,0.6-1.3,1.3-1.3
				S151.7-20.1,151.7-19.4z"/>
			<path id="XMLID_492_" class="st5" d="M160.2-19.4c0,0.7-0.6,1.3-1.3,1.3s-1.3-0.6-1.3-1.3c0-0.7,0.6-1.3,1.3-1.3
				S160.2-20.1,160.2-19.4z"/>
			<path id="XMLID_491_" class="st5" d="M168.7-19.4c0,0.7-0.6,1.3-1.3,1.3s-1.3-0.6-1.3-1.3c0-0.7,0.6-1.3,1.3-1.3
				S168.7-20.1,168.7-19.4z"/>
			<path id="XMLID_490_" class="st5" d="M177.2-19.4c0,0.7-0.6,1.3-1.3,1.3s-1.3-0.6-1.3-1.3c0-0.7,0.6-1.3,1.3-1.3
				C176.6-20.7,177.2-20.1,177.2-19.4z"/>
			<path id="XMLID_489_" class="st5" d="M185.6-19.4c0,0.7-0.6,1.3-1.3,1.3s-1.3-0.6-1.3-1.3c0-0.7,0.6-1.3,1.3-1.3
				C185.1-20.7,185.6-20.1,185.6-19.4z"/>
			<path id="XMLID_488_" class="st5" d="M194.1-19.4c0,0.7-0.6,1.3-1.3,1.3s-1.3-0.6-1.3-1.3c0-0.7,0.6-1.3,1.3-1.3
				C193.5-20.7,194.1-20.1,194.1-19.4z"/>
			<path id="XMLID_487_" class="st5" d="M202.6-19.4c0,0.7-0.6,1.3-1.3,1.3s-1.3-0.6-1.3-1.3c0-0.7,0.6-1.3,1.3-1.3
				S202.6-20.1,202.6-19.4z"/>
			<path id="XMLID_486_" class="st5" d="M211.1-19.4c0,0.7-0.6,1.3-1.3,1.3s-1.3-0.6-1.3-1.3c0-0.7,0.6-1.3,1.3-1.3
				C210.5-20.7,211.1-20.1,211.1-19.4z"/>
		</g>
	</g>
	<path id="XMLID_356_" class="st14" d="M236,66.1h-55.6c-0.9,0-1.6-0.7-1.6-1.6V8.9c0-0.9,0.7-1.6,1.6-1.6H236
		c0.9,0,1.6,0.7,1.6,1.6v55.6C237.7,65.4,236.9,66.1,236,66.1z"/>
</g>
<g id="XMLID_722_">
	<g id="XMLID_733_">
		<g id="XMLID_797_">
			<path id="XMLID_805_" class="st5" d="M172.4,336.9c0.7,0,1.3,0.6,1.3,1.3s-0.6,1.3-1.3,1.3s-1.3-0.6-1.3-1.3
				S171.7,336.9,172.4,336.9z"/>
			<path id="XMLID_804_" class="st5" d="M172.4,328.4c0.7,0,1.3,0.6,1.3,1.3c0,0.7-0.6,1.3-1.3,1.3s-1.3-0.6-1.3-1.3
				C171.1,329,171.7,328.4,172.4,328.4z"/>
			<path id="XMLID_803_" class="st5" d="M172.4,319.9c0.7,0,1.3,0.6,1.3,1.3s-0.6,1.3-1.3,1.3s-1.3-0.6-1.3-1.3
				S171.7,319.9,172.4,319.9z"/>
			<path id="XMLID_802_" class="st5" d="M172.4,311.4c0.7,0,1.3,0.6,1.3,1.3c0,0.7-0.6,1.3-1.3,1.3s-1.3-0.6-1.3-1.3
				C171.1,312,171.7,311.4,172.4,311.4z"/>
			<path id="XMLID_801_" class="st5" d="M172.4,303c0.7,0,1.3,0.6,1.3,1.3s-0.6,1.3-1.3,1.3s-1.3-0.6-1.3-1.3S171.7,303,172.4,303z"
				/>
			<path id="XMLID_800_" class="st5" d="M172.4,294.5c0.7,0,1.3,0.6,1.3,1.3c0,0.7-0.6,1.3-1.3,1.3s-1.3-0.6-1.3-1.3
				C171.1,295.1,171.7,294.5,172.4,294.5z"/>
			<path id="XMLID_799_" class="st5" d="M172.4,286c0.7,0,1.3,0.6,1.3,1.3c0,0.7-0.6,1.3-1.3,1.3s-1.3-0.6-1.3-1.3
				C171.1,286.6,171.7,286,172.4,286z"/>
			<path id="XMLID_798_" class="st5" d="M172.4,277.5c0.7,0,1.3,0.6,1.3,1.3c0,0.7-0.6,1.3-1.3,1.3s-1.3-0.6-1.3-1.3
				C171.1,278.1,171.7,277.5,172.4,277.5z"/>
		</g>
		<g id="XMLID_788_">
			<path id="XMLID_796_" class="st5" d="M164.4,336.9c0.7,0,1.3,0.6,1.3,1.3s-0.6,1.3-1.3,1.3s-1.3-0.6-1.3-1.3
				S163.7,336.9,164.4,336.9z"/>
			<path id="XMLID_795_" class="st5" d="M164.4,328.4c0.7,0,1.3,0.6,1.3,1.3c0,0.7-0.6,1.3-1.3,1.3s-1.3-0.6-1.3-1.3
				C163.1,329,163.7,328.4,164.4,328.4z"/>
			<path id="XMLID_794_" class="st5" d="M164.4,319.9c0.7,0,1.3,0.6,1.3,1.3s-0.6,1.3-1.3,1.3s-1.3-0.6-1.3-1.3
				S163.7,319.9,164.4,319.9z"/>
			<path id="XMLID_793_" class="st5" d="M164.4,311.4c0.7,0,1.3,0.6,1.3,1.3c0,0.7-0.6,1.3-1.3,1.3s-1.3-0.6-1.3-1.3
				C163.1,312,163.7,311.4,164.4,311.4z"/>
			<path id="XMLID_792_" class="st5" d="M164.4,303c0.7,0,1.3,0.6,1.3,1.3s-0.6,1.3-1.3,1.3s-1.3-0.6-1.3-1.3S163.7,303,164.4,303z"
				/>
			<path id="XMLID_791_" class="st5" d="M164.4,294.5c0.7,0,1.3,0.6,1.3,1.3c0,0.7-0.6,1.3-1.3,1.3s-1.3-0.6-1.3-1.3
				C163.1,295.1,163.7,294.5,164.4,294.5z"/>
			<path id="XMLID_790_" class="st5" d="M164.4,286c0.7,0,1.3,0.6,1.3,1.3c0,0.7-0.6,1.3-1.3,1.3s-1.3-0.6-1.3-1.3
				C163.1,286.6,163.7,286,164.4,286z"/>
			<path id="XMLID_789_" class="st5" d="M164.4,277.5c0.7,0,1.3,0.6,1.3,1.3c0,0.7-0.6,1.3-1.3,1.3s-1.3-0.6-1.3-1.3
				C163.1,278.1,163.7,277.5,164.4,277.5z"/>
		</g>
		<g id="XMLID_779_">
			<path id="XMLID_787_" class="st5" d="M156.4,336.9c0.7,0,1.3,0.6,1.3,1.3s-0.6,1.3-1.3,1.3s-1.3-0.6-1.3-1.3
				S155.7,336.9,156.4,336.9z"/>
			<path id="XMLID_786_" class="st5" d="M156.4,328.4c0.7,0,1.3,0.6,1.3,1.3c0,0.7-0.6,1.3-1.3,1.3s-1.3-0.6-1.3-1.3
				C155.1,329,155.7,328.4,156.4,328.4z"/>
			<path id="XMLID_785_" class="st5" d="M156.4,319.9c0.7,0,1.3,0.6,1.3,1.3s-0.6,1.3-1.3,1.3s-1.3-0.6-1.3-1.3
				S155.7,319.9,156.4,319.9z"/>
			<path id="XMLID_784_" class="st5" d="M156.4,311.4c0.7,0,1.3,0.6,1.3,1.3c0,0.7-0.6,1.3-1.3,1.3s-1.3-0.6-1.3-1.3
				C155.1,312,155.7,311.4,156.4,311.4z"/>
			<path id="XMLID_783_" class="st5" d="M156.4,303c0.7,0,1.3,0.6,1.3,1.3s-0.6,1.3-1.3,1.3s-1.3-0.6-1.3-1.3S155.7,303,156.4,303z"
				/>
			<path id="XMLID_782_" class="st5" d="M156.4,294.5c0.7,0,1.3,0.6,1.3,1.3c0,0.7-0.6,1.3-1.3,1.3s-1.3-0.6-1.3-1.3
				C155.1,295.1,155.7,294.5,156.4,294.5z"/>
			<path id="XMLID_781_" class="st5" d="M156.4,286c0.7,0,1.3,0.6,1.3,1.3c0,0.7-0.6,1.3-1.3,1.3s-1.3-0.6-1.3-1.3
				C155.1,286.6,155.7,286,156.4,286z"/>
			<path id="XMLID_780_" class="st5" d="M156.4,277.5c0.7,0,1.3,0.6,1.3,1.3c0,0.7-0.6,1.3-1.3,1.3s-1.3-0.6-1.3-1.3
				C155.1,278.1,155.7,277.5,156.4,277.5z"/>
		</g>
		<g id="XMLID_770_">
			<path id="XMLID_778_" class="st5" d="M148.4,336.9c0.7,0,1.3,0.6,1.3,1.3s-0.6,1.3-1.3,1.3s-1.3-0.6-1.3-1.3
				S147.7,336.9,148.4,336.9z"/>
			<path id="XMLID_777_" class="st5" d="M148.4,328.4c0.7,0,1.3,0.6,1.3,1.3c0,0.7-0.6,1.3-1.3,1.3s-1.3-0.6-1.3-1.3
				C147.1,329,147.7,328.4,148.4,328.4z"/>
			<path id="XMLID_776_" class="st5" d="M148.4,319.9c0.7,0,1.3,0.6,1.3,1.3s-0.6,1.3-1.3,1.3s-1.3-0.6-1.3-1.3
				S147.7,319.9,148.4,319.9z"/>
			<path id="XMLID_775_" class="st5" d="M148.4,311.4c0.7,0,1.3,0.6,1.3,1.3c0,0.7-0.6,1.3-1.3,1.3s-1.3-0.6-1.3-1.3
				C147.1,312,147.7,311.4,148.4,311.4z"/>
			<path id="XMLID_774_" class="st5" d="M148.4,303c0.7,0,1.3,0.6,1.3,1.3s-0.6,1.3-1.3,1.3s-1.3-0.6-1.3-1.3S147.7,303,148.4,303z"
				/>
			<path id="XMLID_773_" class="st5" d="M148.4,294.5c0.7,0,1.3,0.6,1.3,1.3c0,0.7-0.6,1.3-1.3,1.3s-1.3-0.6-1.3-1.3
				C147.1,295.1,147.7,294.5,148.4,294.5z"/>
			<path id="XMLID_772_" class="st5" d="M148.4,286c0.7,0,1.3,0.6,1.3,1.3c0,0.7-0.6,1.3-1.3,1.3s-1.3-0.6-1.3-1.3
				C147.1,286.6,147.7,286,148.4,286z"/>
			<path id="XMLID_771_" class="st5" d="M148.4,277.5c0.7,0,1.3,0.6,1.3,1.3c0,0.7-0.6,1.3-1.3,1.3s-1.3-0.6-1.3-1.3
				C147.1,278.1,147.7,277.5,148.4,277.5z"/>
		</g>
		<g id="XMLID_761_">
			<path id="XMLID_769_" class="st5" d="M140.4,336.9c0.7,0,1.3,0.6,1.3,1.3s-0.6,1.3-1.3,1.3s-1.3-0.6-1.3-1.3
				S139.7,336.9,140.4,336.9z"/>
			<path id="XMLID_768_" class="st5" d="M140.4,328.4c0.7,0,1.3,0.6,1.3,1.3c0,0.7-0.6,1.3-1.3,1.3s-1.3-0.6-1.3-1.3
				C139.1,329,139.7,328.4,140.4,328.4z"/>
			<path id="XMLID_767_" class="st5" d="M140.4,319.9c0.7,0,1.3,0.6,1.3,1.3s-0.6,1.3-1.3,1.3s-1.3-0.6-1.3-1.3
				S139.7,319.9,140.4,319.9z"/>
			<path id="XMLID_766_" class="st5" d="M140.4,311.4c0.7,0,1.3,0.6,1.3,1.3c0,0.7-0.6,1.3-1.3,1.3s-1.3-0.6-1.3-1.3
				C139.1,312,139.7,311.4,140.4,311.4z"/>
			<path id="XMLID_765_" class="st5" d="M140.4,303c0.7,0,1.3,0.6,1.3,1.3s-0.6,1.3-1.3,1.3s-1.3-0.6-1.3-1.3S139.7,303,140.4,303z"
				/>
			<path id="XMLID_764_" class="st5" d="M140.4,294.5c0.7,0,1.3,0.6,1.3,1.3c0,0.7-0.6,1.3-1.3,1.3s-1.3-0.6-1.3-1.3
				C139.1,295.1,139.7,294.5,140.4,294.5z"/>
			<path id="XMLID_763_" class="st5" d="M140.4,286c0.7,0,1.3,0.6,1.3,1.3c0,0.7-0.6,1.3-1.3,1.3s-1.3-0.6-1.3-1.3
				C139.1,286.6,139.7,286,140.4,286z"/>
			<path id="XMLID_762_" class="st5" d="M140.4,277.5c0.7,0,1.3,0.6,1.3,1.3c0,0.7-0.6,1.3-1.3,1.3s-1.3-0.6-1.3-1.3
				C139.1,278.1,139.7,277.5,140.4,277.5z"/>
		</g>
		<g id="XMLID_752_">
			<path id="XMLID_760_" class="st5" d="M132.4,336.9c0.7,0,1.3,0.6,1.3,1.3s-0.6,1.3-1.3,1.3s-1.3-0.6-1.3-1.3
				S131.7,336.9,132.4,336.9z"/>
			<path id="XMLID_759_" class="st5" d="M132.4,328.4c0.7,0,1.3,0.6,1.3,1.3c0,0.7-0.6,1.3-1.3,1.3s-1.3-0.6-1.3-1.3
				C131.1,329,131.7,328.4,132.4,328.4z"/>
			<path id="XMLID_758_" class="st5" d="M132.4,319.9c0.7,0,1.3,0.6,1.3,1.3s-0.6,1.3-1.3,1.3s-1.3-0.6-1.3-1.3
				S131.7,319.9,132.4,319.9z"/>
			<path id="XMLID_757_" class="st5" d="M132.4,311.4c0.7,0,1.3,0.6,1.3,1.3c0,0.7-0.6,1.3-1.3,1.3s-1.3-0.6-1.3-1.3
				C131.1,312,131.7,311.4,132.4,311.4z"/>
			<path id="XMLID_756_" class="st5" d="M132.4,303c0.7,0,1.3,0.6,1.3,1.3s-0.6,1.3-1.3,1.3s-1.3-0.6-1.3-1.3S131.7,303,132.4,303z"
				/>
			<path id="XMLID_755_" class="st5" d="M132.4,294.5c0.7,0,1.3,0.6,1.3,1.3c0,0.7-0.6,1.3-1.3,1.3s-1.3-0.6-1.3-1.3
				C131.1,295.1,131.7,294.5,132.4,294.5z"/>
			<path id="XMLID_754_" class="st5" d="M132.4,286c0.7,0,1.3,0.6,1.3,1.3c0,0.7-0.6,1.3-1.3,1.3s-1.3-0.6-1.3-1.3
				C131.1,286.6,131.7,286,132.4,286z"/>
			<path id="XMLID_753_" class="st5" d="M132.4,277.5c0.7,0,1.3,0.6,1.3,1.3c0,0.7-0.6,1.3-1.3,1.3s-1.3-0.6-1.3-1.3
				C131.1,278.1,131.7,277.5,132.4,277.5z"/>
		</g>
		<g id="XMLID_743_">
			<path id="XMLID_751_" class="st5" d="M124.4,336.9c0.7,0,1.3,0.6,1.3,1.3s-0.6,1.3-1.3,1.3c-0.7,0-1.3-0.6-1.3-1.3
				S123.7,336.9,124.4,336.9z"/>
			<path id="XMLID_750_" class="st5" d="M124.4,328.4c0.7,0,1.3,0.6,1.3,1.3c0,0.7-0.6,1.3-1.3,1.3c-0.7,0-1.3-0.6-1.3-1.3
				S123.7,328.4,124.4,328.4z"/>
			<path id="XMLID_749_" class="st5" d="M124.4,319.9c0.7,0,1.3,0.6,1.3,1.3s-0.6,1.3-1.3,1.3c-0.7,0-1.3-0.6-1.3-1.3
				S123.7,319.9,124.4,319.9z"/>
			<path id="XMLID_748_" class="st5" d="M124.4,311.4c0.7,0,1.3,0.6,1.3,1.3c0,0.7-0.6,1.3-1.3,1.3c-0.7,0-1.3-0.6-1.3-1.3
				S123.7,311.4,124.4,311.4z"/>
			<path id="XMLID_747_" class="st5" d="M124.4,303c0.7,0,1.3,0.6,1.3,1.3s-0.6,1.3-1.3,1.3c-0.7,0-1.3-0.6-1.3-1.3
				S123.7,303,124.4,303z"/>
			<path id="XMLID_746_" class="st5" d="M124.4,294.5c0.7,0,1.3,0.6,1.3,1.3c0,0.7-0.6,1.3-1.3,1.3c-0.7,0-1.3-0.6-1.3-1.3
				S123.7,294.5,124.4,294.5z"/>
			<path id="XMLID_745_" class="st5" d="M124.4,286c0.7,0,1.3,0.6,1.3,1.3c0,0.7-0.6,1.3-1.3,1.3c-0.7,0-1.3-0.6-1.3-1.3
				S123.7,286,124.4,286z"/>
			<path id="XMLID_744_" class="st5" d="M124.4,277.5c0.7,0,1.3,0.6,1.3,1.3c0,0.7-0.6,1.3-1.3,1.3c-0.7,0-1.3-0.6-1.3-1.3
				S123.7,277.5,124.4,277.5z"/>
		</g>
		<g id="XMLID_734_">
			<path id="XMLID_742_" class="st5" d="M116.4,336.9c0.7,0,1.3,0.6,1.3,1.3s-0.6,1.3-1.3,1.3c-0.7,0-1.3-0.6-1.3-1.3
				S115.6,336.9,116.4,336.9z"/>
			<path id="XMLID_741_" class="st5" d="M116.4,328.4c0.7,0,1.3,0.6,1.3,1.3c0,0.7-0.6,1.3-1.3,1.3c-0.7,0-1.3-0.6-1.3-1.3
				S115.6,328.4,116.4,328.4z"/>
			<path id="XMLID_740_" class="st5" d="M116.4,319.9c0.7,0,1.3,0.6,1.3,1.3s-0.6,1.3-1.3,1.3c-0.7,0-1.3-0.6-1.3-1.3
				S115.6,319.9,116.4,319.9z"/>
			<path id="XMLID_739_" class="st5" d="M116.4,311.4c0.7,0,1.3,0.6,1.3,1.3c0,0.7-0.6,1.3-1.3,1.3c-0.7,0-1.3-0.6-1.3-1.3
				S115.6,311.4,116.4,311.4z"/>
			<path id="XMLID_738_" class="st5" d="M116.4,303c0.7,0,1.3,0.6,1.3,1.3s-0.6,1.3-1.3,1.3c-0.7,0-1.3-0.6-1.3-1.3
				S115.6,303,116.4,303z"/>
			<path id="XMLID_737_" class="st5" d="M116.4,294.5c0.7,0,1.3,0.6,1.3,1.3c0,0.7-0.6,1.3-1.3,1.3c-0.7,0-1.3-0.6-1.3-1.3
				S115.6,294.5,116.4,294.5z"/>
			<path id="XMLID_736_" class="st5" d="M116.4,286c0.7,0,1.3,0.6,1.3,1.3c0,0.7-0.6,1.3-1.3,1.3c-0.7,0-1.3-0.6-1.3-1.3
				S115.6,286,116.4,286z"/>
			<path id="XMLID_735_" class="st5" d="M116.4,277.5c0.7,0,1.3,0.6,1.3,1.3c0,0.7-0.6,1.3-1.3,1.3c-0.7,0-1.3-0.6-1.3-1.3
				S115.6,277.5,116.4,277.5z"/>
		</g>
	</g>
	<path id="XMLID_732_" class="st14" d="M201.9,252.6v55.6c0,0.9-0.7,1.6-1.6,1.6h-55.6c-0.9,0-1.6-0.7-1.6-1.6v-55.6
		c0-0.9,0.7-1.6,1.6-1.6h55.6C201.2,250.9,201.9,251.7,201.9,252.6z"/>
</g>
<g id="XMLID_678_">
	<rect id="XMLID_557_" x="151.7" y="123.8" class="st15" width="80.6" height="80.6"/>
	<g id="XMLID_677_">
		<g>
			<defs>
				<rect id="SVGID_1_" x="151.7" y="123.8" width="80.6" height="80.6"/>
			</defs>
			<clipPath id="SVGID_2_">
				<use xlink:href="#SVGID_1_"  style="overflow:visible;"/>
			</clipPath>
			<g id="XMLID_655_" class="st16">
				<path id="XMLID_676_" class="st17" d="M62.5,189.2c0,0,53.2-132.7,200.7-108"/>
				<path id="XMLID_675_" class="st17" d="M68.8,195.5c0,0,53.2-132.7,200.7-108"/>
				<path id="XMLID_674_" class="st17" d="M75.1,201.8c0,0,53.2-132.7,200.7-108"/>
				<path id="XMLID_673_" class="st17" d="M81.4,208.1c0,0,53.2-132.7,200.7-108"/>
				<path id="XMLID_672_" class="st17" d="M87.7,214.4c0,0,53.2-132.7,200.7-108"/>
				<path id="XMLID_671_" class="st17" d="M94,220.7c0,0,53.2-132.7,200.7-108"/>
				<path id="XMLID_670_" class="st17" d="M100.3,227.1c0,0,53.2-132.7,200.7-108"/>
				<path id="XMLID_669_" class="st17" d="M106.7,233.4c0,0,53.2-132.7,200.7-108"/>
				<path id="XMLID_668_" class="st17" d="M113,239.7c0,0,53.2-132.7,200.7-108"/>
				<path id="XMLID_667_" class="st17" d="M119.3,246c0,0,53.2-132.7,200.7-108"/>
				<path id="XMLID_666_" class="st17" d="M125.6,252.3c0,0,53.2-132.7,200.7-108"/>
				<path id="XMLID_665_" class="st17" d="M131.9,258.6c0,0,53.2-132.7,200.7-108"/>
				<path id="XMLID_664_" class="st17" d="M138.2,264.9c0,0,53.2-132.7,200.7-108"/>
				<path id="XMLID_663_" class="st17" d="M144.5,271.2c0,0,53.2-132.7,200.7-108"/>
				<path id="XMLID_662_" class="st17" d="M150.8,277.6c0,0,53.2-132.7,200.7-108"/>
				<path id="XMLID_661_" class="st17" d="M157.2,283.9c0,0,53.2-132.7,200.7-108"/>
				<path id="XMLID_660_" class="st17" d="M163.5,290.2c0,0,53.2-132.7,200.7-108"/>
				<path id="XMLID_659_" class="st17" d="M169.8,296.5c0,0,53.2-132.7,200.7-108"/>
				<path id="XMLID_658_" class="st17" d="M176.1,302.8c0,0,53.2-132.7,200.7-108"/>
				<path id="XMLID_657_" class="st17" d="M182.4,309.1c0,0,53.2-132.7,200.7-108"/>
				<path id="XMLID_656_" class="st17" d="M188.7,315.4c0,0,53.2-132.7,200.7-108"/>
			</g>
		</g>
		<g>
			<rect id="XMLID_654_" x="151.7" y="123.8" class="st18" width="80.6" height="80.6"/>
		</g>
	</g>
</g>
<g id="XMLID_712_">
	
		<rect id="XMLID_721_" x="370.8" y="-22" transform="matrix(0.7071 -0.7071 0.7071 0.7071 112.4537 284.0522)" class="st19" width="56.6" height="56.6"/>
	
		<rect id="XMLID_720_" x="380.3" y="-12.5" transform="matrix(0.7071 -0.7071 0.7071 0.7071 112.433 284.0022)" class="st19" width="37.5" height="37.5"/>
	
		<rect id="XMLID_719_" x="389.9" y="-2.9" transform="matrix(0.7071 -0.7071 0.7071 0.7071 112.433 284.0022)" class="st19" width="18.3" height="18.3"/>
</g>
<g id="XMLID_711_">
	
		<rect id="XMLID_715_" x="646.1" y="135.8" transform="matrix(0.7071 -0.7071 0.7071 0.7071 81.4797 524.9585)" class="st19" width="56.6" height="56.6"/>
	
		<rect id="XMLID_714_" x="655.7" y="145.3" transform="matrix(0.7071 -0.7071 0.7071 0.7071 81.5303 524.937)" class="st19" width="37.5" height="37.5"/>
	
		<rect id="XMLID_713_" x="665.3" y="154.9" transform="matrix(0.7071 -0.7071 0.7071 0.7071 81.5288 524.939)" class="st19" width="18.3" height="18.3"/>
</g>
<g id="XMLID_828_">
	
		<rect id="XMLID_831_" x="208.1" y="680.4" transform="matrix(0.7071 -0.7071 0.7071 0.7071 -437.3586 387.9219)" class="st20" width="83" height="83"/>
	
		<rect id="XMLID_830_" x="222.1" y="694.5" transform="matrix(0.7071 -0.7071 0.7071 0.7071 -437.4086 387.9426)" class="st20" width="54.9" height="54.9"/>
	
		<rect id="XMLID_829_" x="236.2" y="708.5" transform="matrix(0.7071 -0.7071 0.7071 0.7071 -437.3586 387.9218)" class="st20" width="26.8" height="26.8"/>
</g>
<g id="XMLID_718_">
	<path id="XMLID_717_" class="st18" d="M395.6,455.2l-28.7-28.7c-0.5-0.5-0.5-1.2,0-1.7l28.7-28.7c0.5-0.5,1.2-0.5,1.7,0l28.7,28.7
		c0.5,0.5,0.5,1.2,0,1.7l-28.7,28.7C396.8,455.6,396.1,455.6,395.6,455.2z"/>
	<path id="XMLID_679_" class="st5" d="M396.1,438.2L383.9,426c-0.2-0.2-0.2-0.5,0-0.7l12.2-12.2c0.2-0.2,0.5-0.2,0.7,0l12.2,12.2
		c0.2,0.2,0.2,0.5,0,0.7l-12.2,12.2C396.6,438.4,396.3,438.4,396.1,438.2z"/>
</g>
<g id="XMLID_727_">
	<path id="XMLID_729_" class="st21" d="M663.1,293l-8.6-8.6c-0.1-0.1-0.1-0.4,0-0.5l8.6-8.6c0.1-0.1,0.4-0.1,0.5,0l8.6,8.6
		c0.1,0.1,0.1,0.4,0,0.5l-8.6,8.6C663.5,293.2,663.3,293.2,663.1,293z"/>
</g>
<g id="XMLID_807_">
	<path id="XMLID_808_" class="st21" d="M38.2,66.5l-8.6-8.6c-0.1-0.1-0.1-0.4,0-0.5l8.6-8.6c0.1-0.1,0.4-0.1,0.5,0l8.6,8.6
		c0.1,0.1,0.1,0.4,0,0.5l-8.6,8.6C38.6,66.7,38.3,66.7,38.2,66.5z"/>
</g>
</svg>
