<?xml version="1.0" encoding="utf-8"?>
<!-- Generator: Adobe Illustrator 24.2.1, SVG Export Plug-In . SVG Version: 6.00 Build 0)  -->
<svg version="1.1" id="Layer_1" xmlns="http://www.w3.org/2000/svg" xmlns:xlink="http://www.w3.org/1999/xlink" x="0px" y="0px"
	 viewBox="0 0 720 720" style="enable-background:new 0 0 720 720;" xml:space="preserve">
<style type="text/css">
	.st0{fill:#D90A2C;}
</style>
<g id="XMLID_237_">
	<g id="XMLID_301_">
		<path id="XMLID_307_" class="st0" d="M233.3,671.5c0,8.1-6.6,14.7-14.7,14.7c-8.1,0-14.7-6.6-14.7-14.7c0-8.1,6.6-14.7,14.7-14.7
			S233.3,663.4,233.3,671.5z"/>
		<path id="XMLID_306_" class="st0" d="M327.6,671.5c0,8.1-6.6,14.7-14.7,14.7s-14.7-6.6-14.7-14.7c0-8.1,6.6-14.7,14.7-14.7
			S327.6,663.4,327.6,671.5z"/>
		<path id="XMLID_305_" class="st0" d="M421.9,671.5c0,8.1-6.6,14.7-14.7,14.7s-14.7-6.6-14.7-14.7c0-8.1,6.6-14.7,14.7-14.7
			S421.9,663.4,421.9,671.5z"/>
		<path id="XMLID_304_" class="st0" d="M516.2,671.5c0,8.1-6.6,14.7-14.7,14.7s-14.7-6.6-14.7-14.7c0-8.1,6.6-14.7,14.7-14.7
			S516.2,663.4,516.2,671.5z"/>
	</g>
	<g id="XMLID_292_">
		<path id="XMLID_299_" class="st0" d="M139,582.5c0,8.1-6.6,14.7-14.7,14.7s-14.7-6.6-14.7-14.7c0-8.1,6.6-14.7,14.7-14.7
			S139,574.4,139,582.5z"/>
		<path id="XMLID_298_" class="st0" d="M233.3,582.5c0,8.1-6.6,14.7-14.7,14.7c-8.1,0-14.7-6.6-14.7-14.7c0-8.1,6.6-14.7,14.7-14.7
			S233.3,574.4,233.3,582.5z"/>
		<path id="XMLID_297_" class="st0" d="M327.6,582.5c0,8.1-6.6,14.7-14.7,14.7s-14.7-6.6-14.7-14.7c0-8.1,6.6-14.7,14.7-14.7
			S327.6,574.4,327.6,582.5z"/>
		<path id="XMLID_296_" class="st0" d="M421.9,582.5c0,8.1-6.6,14.7-14.7,14.7s-14.7-6.6-14.7-14.7c0-8.1,6.6-14.7,14.7-14.7
			S421.9,574.4,421.9,582.5z"/>
		<path id="XMLID_295_" class="st0" d="M516.2,582.5c0,8.1-6.6,14.7-14.7,14.7s-14.7-6.6-14.7-14.7c0-8.1,6.6-14.7,14.7-14.7
			S516.2,574.4,516.2,582.5z"/>
		<path id="XMLID_294_" class="st0" d="M610.5,582.5c0,8.1-6.6,14.7-14.7,14.7c-8.1,0-14.7-6.6-14.7-14.7c0-8.1,6.6-14.7,14.7-14.7
			S610.5,574.4,610.5,582.5z"/>
	</g>
	<g id="XMLID_283_">
		<path id="XMLID_290_" class="st0" d="M139,493.5c0,8.1-6.6,14.7-14.7,14.7s-14.7-6.6-14.7-14.7s6.6-14.7,14.7-14.7
			S139,485.4,139,493.5z"/>
		<path id="XMLID_289_" class="st0" d="M233.3,493.5c0,8.1-6.6,14.7-14.7,14.7c-8.1,0-14.7-6.6-14.7-14.7s6.6-14.7,14.7-14.7
			S233.3,485.4,233.3,493.5z"/>
		<path id="XMLID_288_" class="st0" d="M327.6,493.5c0,8.1-6.6,14.7-14.7,14.7s-14.7-6.6-14.7-14.7s6.6-14.7,14.7-14.7
			S327.6,485.4,327.6,493.5z"/>
		<path id="XMLID_287_" class="st0" d="M421.9,493.5c0,8.1-6.6,14.7-14.7,14.7s-14.7-6.6-14.7-14.7s6.6-14.7,14.7-14.7
			S421.9,485.4,421.9,493.5z"/>
		<path id="XMLID_286_" class="st0" d="M516.2,493.5c0,8.1-6.6,14.7-14.7,14.7s-14.7-6.6-14.7-14.7s6.6-14.7,14.7-14.7
			S516.2,485.4,516.2,493.5z"/>
		<path id="XMLID_285_" class="st0" d="M610.5,493.5c0,8.1-6.6,14.7-14.7,14.7c-8.1,0-14.7-6.6-14.7-14.7s6.6-14.7,14.7-14.7
			S610.5,485.4,610.5,493.5z"/>
	</g>
	<g id="XMLID_274_">
		<path id="XMLID_282_" class="st0" d="M44.6,404.5c0,8.1-6.6,14.7-14.7,14.7s-14.7-6.6-14.7-14.7s6.6-14.7,14.7-14.7
			S44.6,396.4,44.6,404.5z"/>
		<path id="XMLID_281_" class="st0" d="M139,404.5c0,8.1-6.6,14.7-14.7,14.7s-14.7-6.6-14.7-14.7s6.6-14.7,14.7-14.7
			S139,396.4,139,404.5z"/>
		<path id="XMLID_280_" class="st0" d="M233.3,404.5c0,8.1-6.6,14.7-14.7,14.7c-8.1,0-14.7-6.6-14.7-14.7s6.6-14.7,14.7-14.7
			S233.3,396.4,233.3,404.5z"/>
		<path id="XMLID_279_" class="st0" d="M327.6,404.5c0,8.1-6.6,14.7-14.7,14.7s-14.7-6.6-14.7-14.7s6.6-14.7,14.7-14.7
			S327.6,396.4,327.6,404.5z"/>
		<path id="XMLID_278_" class="st0" d="M421.9,404.5c0,8.1-6.6,14.7-14.7,14.7s-14.7-6.6-14.7-14.7s6.6-14.7,14.7-14.7
			S421.9,396.4,421.9,404.5z"/>
		<path id="XMLID_277_" class="st0" d="M516.2,404.5c0,8.1-6.6,14.7-14.7,14.7s-14.7-6.6-14.7-14.7s6.6-14.7,14.7-14.7
			S516.2,396.4,516.2,404.5z"/>
		<path id="XMLID_276_" class="st0" d="M610.5,404.5c0,8.1-6.6,14.7-14.7,14.7c-8.1,0-14.7-6.6-14.7-14.7s6.6-14.7,14.7-14.7
			S610.5,396.4,610.5,404.5z"/>
		<circle id="XMLID_275_" class="st0" cx="690.1" cy="404.5" r="14.7"/>
	</g>
	<g id="XMLID_265_">
		<path id="XMLID_273_" class="st0" d="M44.6,315.5c0,8.1-6.6,14.7-14.7,14.7s-14.7-6.6-14.7-14.7s6.6-14.7,14.7-14.7
			S44.6,307.4,44.6,315.5z"/>
		<path id="XMLID_272_" class="st0" d="M139,315.5c0,8.1-6.6,14.7-14.7,14.7s-14.7-6.6-14.7-14.7s6.6-14.7,14.7-14.7
			S139,307.4,139,315.5z"/>
		<path id="XMLID_271_" class="st0" d="M233.3,315.5c0,8.1-6.6,14.7-14.7,14.7c-8.1,0-14.7-6.6-14.7-14.7s6.6-14.7,14.7-14.7
			S233.3,307.4,233.3,315.5z"/>
		<path id="XMLID_270_" class="st0" d="M327.6,315.5c0,8.1-6.6,14.7-14.7,14.7s-14.7-6.6-14.7-14.7s6.6-14.7,14.7-14.7
			S327.6,307.4,327.6,315.5z"/>
		<path id="XMLID_269_" class="st0" d="M421.9,315.5c0,8.1-6.6,14.7-14.7,14.7s-14.7-6.6-14.7-14.7s6.6-14.7,14.7-14.7
			S421.9,307.4,421.9,315.5z"/>
		<path id="XMLID_268_" class="st0" d="M516.2,315.5c0,8.1-6.6,14.7-14.7,14.7s-14.7-6.6-14.7-14.7s6.6-14.7,14.7-14.7
			S516.2,307.4,516.2,315.5z"/>
		<path id="XMLID_267_" class="st0" d="M610.5,315.5c0,8.1-6.6,14.7-14.7,14.7c-8.1,0-14.7-6.6-14.7-14.7s6.6-14.7,14.7-14.7
			S610.5,307.4,610.5,315.5z"/>
		<path id="XMLID_266_" class="st0" d="M704.8,315.5c0,8.1-6.6,14.7-14.7,14.7c-8.1,0-14.7-6.6-14.7-14.7s6.6-14.7,14.7-14.7
			S704.8,307.4,704.8,315.5z"/>
	</g>
	<g id="XMLID_256_">
		<path id="XMLID_263_" class="st0" d="M139,226.5c0,8.1-6.6,14.7-14.7,14.7s-14.7-6.6-14.7-14.7c0-8.1,6.6-14.7,14.7-14.7
			C132.4,211.7,139,218.3,139,226.5z"/>
		<path id="XMLID_262_" class="st0" d="M233.3,226.5c0,8.1-6.6,14.7-14.7,14.7c-8.1,0-14.7-6.6-14.7-14.7c0-8.1,6.6-14.7,14.7-14.7
			C226.7,211.7,233.3,218.3,233.3,226.5z"/>
		<path id="XMLID_261_" class="st0" d="M327.6,226.5c0,8.1-6.6,14.7-14.7,14.7s-14.7-6.6-14.7-14.7c0-8.1,6.6-14.7,14.7-14.7
			C321,211.7,327.6,218.3,327.6,226.5z"/>
		<path id="XMLID_260_" class="st0" d="M421.9,226.5c0,8.1-6.6,14.7-14.7,14.7s-14.7-6.6-14.7-14.7c0-8.1,6.6-14.7,14.7-14.7
			C415.3,211.7,421.9,218.3,421.9,226.5z"/>
		<path id="XMLID_259_" class="st0" d="M516.2,226.5c0,8.1-6.6,14.7-14.7,14.7s-14.7-6.6-14.7-14.7c0-8.1,6.6-14.7,14.7-14.7
			C509.6,211.7,516.2,218.3,516.2,226.5z"/>
		<path id="XMLID_258_" class="st0" d="M610.5,226.5c0,8.1-6.6,14.7-14.7,14.7c-8.1,0-14.7-6.6-14.7-14.7c0-8.1,6.6-14.7,14.7-14.7
			C603.9,211.7,610.5,218.3,610.5,226.5z"/>
	</g>
	<g id="XMLID_247_">
		<path id="XMLID_254_" class="st0" d="M139,137.5c0,8.1-6.6,14.7-14.7,14.7s-14.7-6.6-14.7-14.7c0-8.1,6.6-14.7,14.7-14.7
			C132.4,122.7,139,129.3,139,137.5z"/>
		<path id="XMLID_253_" class="st0" d="M233.3,137.5c0,8.1-6.6,14.7-14.7,14.7c-8.1,0-14.7-6.6-14.7-14.7c0-8.1,6.6-14.7,14.7-14.7
			C226.7,122.7,233.3,129.3,233.3,137.5z"/>
		<path id="XMLID_252_" class="st0" d="M327.6,137.5c0,8.1-6.6,14.7-14.7,14.7s-14.7-6.6-14.7-14.7c0-8.1,6.6-14.7,14.7-14.7
			C321,122.7,327.6,129.3,327.6,137.5z"/>
		<path id="XMLID_251_" class="st0" d="M421.9,137.5c0,8.1-6.6,14.7-14.7,14.7s-14.7-6.6-14.7-14.7c0-8.1,6.6-14.7,14.7-14.7
			C415.3,122.7,421.9,129.3,421.9,137.5z"/>
		<path id="XMLID_250_" class="st0" d="M516.2,137.5c0,8.1-6.6,14.7-14.7,14.7s-14.7-6.6-14.7-14.7c0-8.1,6.6-14.7,14.7-14.7
			C509.6,122.7,516.2,129.3,516.2,137.5z"/>
		<path id="XMLID_249_" class="st0" d="M610.5,137.5c0,8.1-6.6,14.7-14.7,14.7c-8.1,0-14.7-6.6-14.7-14.7c0-8.1,6.6-14.7,14.7-14.7
			C603.9,122.7,610.5,129.3,610.5,137.5z"/>
	</g>
	<g id="XMLID_238_">
		<path id="XMLID_244_" class="st0" d="M233.3,48.5c0,8.1-6.6,14.7-14.7,14.7c-8.1,0-14.7-6.6-14.7-14.7s6.6-14.7,14.7-14.7
			C226.7,33.7,233.3,40.3,233.3,48.5z"/>
		<path id="XMLID_243_" class="st0" d="M327.6,48.5c0,8.1-6.6,14.7-14.7,14.7s-14.7-6.6-14.7-14.7s6.6-14.7,14.7-14.7
			C321,33.7,327.6,40.3,327.6,48.5z"/>
		<path id="XMLID_242_" class="st0" d="M421.9,48.5c0,8.1-6.6,14.7-14.7,14.7s-14.7-6.6-14.7-14.7s6.6-14.7,14.7-14.7
			C415.3,33.7,421.9,40.3,421.9,48.5z"/>
		<path id="XMLID_241_" class="st0" d="M516.2,48.5c0,8.1-6.6,14.7-14.7,14.7s-14.7-6.6-14.7-14.7s6.6-14.7,14.7-14.7
			C509.6,33.7,516.2,40.3,516.2,48.5z"/>
	</g>
</g>
</svg>
