<?xml version="1.0" encoding="utf-8"?>
<!-- Generator: Adobe Illustrator 24.2.1, SVG Export Plug-In . SVG Version: 6.00 Build 0)  -->
<svg version="1.1" id="Layer_1" xmlns="http://www.w3.org/2000/svg" xmlns:xlink="http://www.w3.org/1999/xlink" x="0px" y="0px"
	 viewBox="0 0 720 720" style="enable-background:new 0 0 720 720;" xml:space="preserve">
<style type="text/css">
	.st0{fill:none;stroke:#101011;stroke-width:1.1959;stroke-linecap:round;stroke-linejoin:round;stroke-miterlimit:10;}
	.st1{fill:none;stroke:#D90A2C;stroke-width:1.1959;stroke-linecap:round;stroke-linejoin:round;stroke-miterlimit:10;}
	.st2{fill:none;stroke:#D90A2C;stroke-linecap:round;stroke-linejoin:round;stroke-miterlimit:10;}
	.st3{fill:none;stroke:#101011;stroke-miterlimit:10;}
	.st4{fill:none;stroke:#101011;stroke-linecap:round;stroke-linejoin:round;stroke-miterlimit:10;}
	.st5{clip-path:url(#XMLID_81_);}
	.st6{fill:none;stroke:#101011;stroke-width:0.7565;stroke-miterlimit:10;}
	.st7{fill:none;stroke:#101011;stroke-width:1.0345;stroke-linecap:round;stroke-linejoin:round;stroke-miterlimit:10;}
	.st8{fill:#D90A2C;}
	.st9{fill:#101011;}
	.st10{fill:none;stroke:#D90A2C;stroke-width:0.889;stroke-miterlimit:10;}
	.st11{fill:none;stroke:#D90A2C;stroke-width:0.5451;stroke-linecap:round;stroke-linejoin:round;stroke-miterlimit:10;}
	.st12{fill:none;stroke:#101011;stroke-width:0.5451;stroke-linecap:round;stroke-linejoin:round;stroke-miterlimit:10;}
	.st13{fill:none;stroke:#D90A2C;stroke-width:0.7985;stroke-linecap:round;stroke-linejoin:round;stroke-miterlimit:10;}
	.st14{fill:none;stroke:#D90A2C;stroke-width:0.7065;stroke-miterlimit:10;}
</style>
<g>
	<g id="XMLID_809_">
		<polyline id="XMLID_813_" class="st0" points="415.8,112.5 453.9,141.8 492.1,112.5 530.3,141.8 568.5,112.5 606.7,141.8 
			644.8,112.5 		"/>
		<polyline id="XMLID_812_" class="st0" points="415.8,138 453.9,167.4 492.1,138 530.3,167.4 568.5,138 606.7,167.4 644.8,138 		
			"/>
		<polyline id="XMLID_811_" class="st1" points="415.8,163.6 453.9,192.9 492.1,163.6 530.3,192.9 568.5,163.6 606.7,192.9 
			644.8,163.6 		"/>
		<polyline id="XMLID_810_" class="st1" points="415.8,189.1 453.9,218.4 492.1,189.1 530.3,218.4 568.5,189.1 606.7,218.4 
			644.8,189.1 		"/>
	</g>
	<g id="XMLID_360_">
		<path id="XMLID_361_" class="st2" d="M415.8,515.6c7.8,6.5,17.2,6.5,24.9,0l0,0c7.8-6.5,17.2-6.5,24.9,0l0,0
			c7.8,6.5,17.2,6.5,24.9,0l0,0c7.8-6.5,17.2-6.5,24.9,0l0,0c7.8,6.5,17.2,6.5,24.9,0"/>
	</g>
	<g id="XMLID_96_">
		<line id="XMLID_104_" class="st3" x1="267" y1="309.2" x2="372.9" y2="415.1"/>
		<g id="XMLID_97_">
			<line id="XMLID_103_" class="st3" x1="357.9" y1="430" x2="252" y2="324.1"/>
			<path id="XMLID_102_" class="st3" d="M267,324.1c-4.1,4.1-10.8,4.1-14.9,0c-4.1-4.1-4.1-10.8,0-14.9c4.1-4.1,10.8-4.1,14.9,0
				C271.1,313.3,271.1,320,267,324.1z"/>
			<path id="XMLID_101_" class="st3" d="M372.9,415.1c4.1,4.1,4.1,10.8,0,14.9c-4.1,4.1-10.8,4.1-14.9,0"/>
		</g>
	</g>
	<line id="XMLID_806_" class="st4" x1="314.8" y1="45.5" x2="350.9" y2="81.6"/>
	<g id="XMLID_190_">
		<defs>
			
				<rect id="XMLID_191_" x="537.1" y="362.7" transform="matrix(0.7071 0.7071 -0.7071 0.7071 467.7584 -295.8914)" width="107.9" height="107.9"/>
		</defs>
		<clipPath id="XMLID_81_">
			<use xlink:href="#XMLID_191_"  style="overflow:visible;"/>
		</clipPath>
		<g id="XMLID_192_" class="st5">
			<g id="XMLID_193_">
				<circle id="XMLID_204_" class="st6" cx="591.1" cy="416.7" r="70.4"/>
				<circle id="XMLID_203_" class="st6" cx="591.1" cy="416.7" r="56"/>
				<circle id="XMLID_202_" class="st6" cx="591.1" cy="416.7" r="41.7"/>
				<circle id="XMLID_198_" class="st6" cx="591.1" cy="416.7" r="27.4"/>
				<circle id="XMLID_194_" class="st6" cx="591.1" cy="416.7" r="13.1"/>
			</g>
		</g>
	</g>
	<path id="XMLID_353_" class="st7" d="M596.4,573.8c0,4.5-3.7,8.2-8.2,8.2s-8.2-3.7-8.2-8.2s3.7-8.2,8.2-8.2
		S596.4,569.3,596.4,573.8z"/>
	<path id="XMLID_354_" class="st7" d="M157.7,474.7c0,4.5-3.7,8.2-8.2,8.2s-8.2-3.7-8.2-8.2s3.7-8.2,8.2-8.2
		S157.7,470.2,157.7,474.7z"/>
	<circle id="XMLID_352_" class="st8" cx="447" cy="336.3" r="11.1"/>
	<circle id="XMLID_4_" class="st8" cx="613.5" cy="686.6" r="2.9"/>
	<g id="XMLID_818_">
		<g id="XMLID_484_">
			<g id="XMLID_548_">
				<path id="XMLID_556_" class="st9" d="M34.3,362.4c0,1.2-1,2.2-2.2,2.2c-1.2,0-2.2-1-2.2-2.2c0-1.2,1-2.2,2.2-2.2
					C33.4,360.3,34.3,361.2,34.3,362.4z"/>
				<path id="XMLID_555_" class="st9" d="M48.2,362.4c0,1.2-1,2.2-2.2,2.2c-1.2,0-2.2-1-2.2-2.2c0-1.2,1-2.2,2.2-2.2
					C47.2,360.3,48.2,361.2,48.2,362.4z"/>
				<path id="XMLID_554_" class="st9" d="M62.1,362.4c0,1.2-1,2.2-2.2,2.2c-1.2,0-2.2-1-2.2-2.2c0-1.2,1-2.2,2.2-2.2
					C61.1,360.3,62.1,361.2,62.1,362.4z"/>
				<path id="XMLID_553_" class="st9" d="M75.9,362.4c0,1.2-1,2.2-2.2,2.2c-1.2,0-2.2-1-2.2-2.2c0-1.2,1-2.2,2.2-2.2
					C74.9,360.3,75.9,361.2,75.9,362.4z"/>
				<path id="XMLID_552_" class="st9" d="M89.8,362.4c0,1.2-1,2.2-2.2,2.2c-1.2,0-2.2-1-2.2-2.2c0-1.2,1-2.2,2.2-2.2
					C88.8,360.3,89.8,361.2,89.8,362.4z"/>
				<path id="XMLID_551_" class="st9" d="M103.6,362.4c0,1.2-1,2.2-2.2,2.2s-2.2-1-2.2-2.2c0-1.2,1-2.2,2.2-2.2
					S103.6,361.2,103.6,362.4z"/>
				<path id="XMLID_550_" class="st9" d="M117.5,362.4c0,1.2-1,2.2-2.2,2.2c-1.2,0-2.2-1-2.2-2.2c0-1.2,1-2.2,2.2-2.2
					C116.5,360.3,117.5,361.2,117.5,362.4z"/>
				<path id="XMLID_549_" class="st9" d="M131.4,362.4c0,1.2-1,2.2-2.2,2.2s-2.2-1-2.2-2.2c0-1.2,1-2.2,2.2-2.2
					S131.4,361.2,131.4,362.4z"/>
			</g>
			<g id="XMLID_539_">
				<path id="XMLID_547_" class="st9" d="M34.3,349.4c0,1.2-1,2.2-2.2,2.2c-1.2,0-2.2-1-2.2-2.2s1-2.2,2.2-2.2
					C33.4,347.2,34.3,348.2,34.3,349.4z"/>
				<path id="XMLID_546_" class="st9" d="M48.2,349.4c0,1.2-1,2.2-2.2,2.2c-1.2,0-2.2-1-2.2-2.2s1-2.2,2.2-2.2
					C47.2,347.2,48.2,348.2,48.2,349.4z"/>
				<path id="XMLID_545_" class="st9" d="M62.1,349.4c0,1.2-1,2.2-2.2,2.2c-1.2,0-2.2-1-2.2-2.2s1-2.2,2.2-2.2
					C61.1,347.2,62.1,348.2,62.1,349.4z"/>
				<path id="XMLID_544_" class="st9" d="M75.9,349.4c0,1.2-1,2.2-2.2,2.2c-1.2,0-2.2-1-2.2-2.2s1-2.2,2.2-2.2
					C74.9,347.2,75.9,348.2,75.9,349.4z"/>
				<path id="XMLID_543_" class="st9" d="M89.8,349.4c0,1.2-1,2.2-2.2,2.2c-1.2,0-2.2-1-2.2-2.2s1-2.2,2.2-2.2
					C88.8,347.2,89.8,348.2,89.8,349.4z"/>
				<path id="XMLID_542_" class="st9" d="M103.6,349.4c0,1.2-1,2.2-2.2,2.2s-2.2-1-2.2-2.2s1-2.2,2.2-2.2S103.6,348.2,103.6,349.4z"
					/>
				<path id="XMLID_541_" class="st9" d="M117.5,349.4c0,1.2-1,2.2-2.2,2.2c-1.2,0-2.2-1-2.2-2.2s1-2.2,2.2-2.2
					C116.5,347.2,117.5,348.2,117.5,349.4z"/>
				<path id="XMLID_540_" class="st9" d="M131.4,349.4c0,1.2-1,2.2-2.2,2.2s-2.2-1-2.2-2.2s1-2.2,2.2-2.2S131.4,348.2,131.4,349.4z"
					/>
			</g>
			<g id="XMLID_530_">
				<path id="XMLID_538_" class="st9" d="M34.3,336.3c0,1.2-1,2.2-2.2,2.2c-1.2,0-2.2-1-2.2-2.2s1-2.2,2.2-2.2
					C33.4,334.1,34.3,335.1,34.3,336.3z"/>
				<path id="XMLID_537_" class="st9" d="M48.2,336.3c0,1.2-1,2.2-2.2,2.2c-1.2,0-2.2-1-2.2-2.2s1-2.2,2.2-2.2
					C47.2,334.1,48.2,335.1,48.2,336.3z"/>
				<path id="XMLID_536_" class="st9" d="M62.1,336.3c0,1.2-1,2.2-2.2,2.2c-1.2,0-2.2-1-2.2-2.2s1-2.2,2.2-2.2
					C61.1,334.1,62.1,335.1,62.1,336.3z"/>
				<path id="XMLID_535_" class="st9" d="M75.9,336.3c0,1.2-1,2.2-2.2,2.2c-1.2,0-2.2-1-2.2-2.2s1-2.2,2.2-2.2
					C74.9,334.1,75.9,335.1,75.9,336.3z"/>
				<path id="XMLID_534_" class="st9" d="M89.8,336.3c0,1.2-1,2.2-2.2,2.2c-1.2,0-2.2-1-2.2-2.2s1-2.2,2.2-2.2
					C88.8,334.1,89.8,335.1,89.8,336.3z"/>
				<path id="XMLID_533_" class="st9" d="M103.6,336.3c0,1.2-1,2.2-2.2,2.2s-2.2-1-2.2-2.2s1-2.2,2.2-2.2S103.6,335.1,103.6,336.3z"
					/>
				<path id="XMLID_532_" class="st9" d="M117.5,336.3c0,1.2-1,2.2-2.2,2.2c-1.2,0-2.2-1-2.2-2.2s1-2.2,2.2-2.2
					C116.5,334.1,117.5,335.1,117.5,336.3z"/>
				<path id="XMLID_531_" class="st9" d="M131.4,336.3c0,1.2-1,2.2-2.2,2.2s-2.2-1-2.2-2.2s1-2.2,2.2-2.2S131.4,335.1,131.4,336.3z"
					/>
			</g>
			<g id="XMLID_521_">
				<path id="XMLID_529_" class="st9" d="M34.3,323.2c0,1.2-1,2.2-2.2,2.2c-1.2,0-2.2-1-2.2-2.2s1-2.2,2.2-2.2
					C33.4,321,34.3,322,34.3,323.2z"/>
				<path id="XMLID_528_" class="st9" d="M48.2,323.2c0,1.2-1,2.2-2.2,2.2c-1.2,0-2.2-1-2.2-2.2s1-2.2,2.2-2.2
					C47.2,321,48.2,322,48.2,323.2z"/>
				<path id="XMLID_527_" class="st9" d="M62.1,323.2c0,1.2-1,2.2-2.2,2.2c-1.2,0-2.2-1-2.2-2.2s1-2.2,2.2-2.2
					C61.1,321,62.1,322,62.1,323.2z"/>
				<path id="XMLID_526_" class="st9" d="M75.9,323.2c0,1.2-1,2.2-2.2,2.2c-1.2,0-2.2-1-2.2-2.2s1-2.2,2.2-2.2
					C74.9,321,75.9,322,75.9,323.2z"/>
				<path id="XMLID_525_" class="st9" d="M89.8,323.2c0,1.2-1,2.2-2.2,2.2c-1.2,0-2.2-1-2.2-2.2s1-2.2,2.2-2.2
					C88.8,321,89.8,322,89.8,323.2z"/>
				<path id="XMLID_524_" class="st9" d="M103.6,323.2c0,1.2-1,2.2-2.2,2.2s-2.2-1-2.2-2.2s1-2.2,2.2-2.2S103.6,322,103.6,323.2z"/>
				<path id="XMLID_523_" class="st9" d="M117.5,323.2c0,1.2-1,2.2-2.2,2.2c-1.2,0-2.2-1-2.2-2.2s1-2.2,2.2-2.2
					C116.5,321,117.5,322,117.5,323.2z"/>
				<path id="XMLID_522_" class="st9" d="M131.4,323.2c0,1.2-1,2.2-2.2,2.2s-2.2-1-2.2-2.2s1-2.2,2.2-2.2S131.4,322,131.4,323.2z"/>
			</g>
			<g id="XMLID_512_">
				<path id="XMLID_520_" class="st9" d="M34.3,310.1c0,1.2-1,2.2-2.2,2.2c-1.2,0-2.2-1-2.2-2.2s1-2.2,2.2-2.2
					C33.4,307.9,34.3,308.9,34.3,310.1z"/>
				<path id="XMLID_519_" class="st9" d="M48.2,310.1c0,1.2-1,2.2-2.2,2.2c-1.2,0-2.2-1-2.2-2.2s1-2.2,2.2-2.2
					C47.2,307.9,48.2,308.9,48.2,310.1z"/>
				<path id="XMLID_518_" class="st9" d="M62.1,310.1c0,1.2-1,2.2-2.2,2.2c-1.2,0-2.2-1-2.2-2.2s1-2.2,2.2-2.2
					C61.1,307.9,62.1,308.9,62.1,310.1z"/>
				<path id="XMLID_517_" class="st9" d="M75.9,310.1c0,1.2-1,2.2-2.2,2.2c-1.2,0-2.2-1-2.2-2.2s1-2.2,2.2-2.2
					C74.9,307.9,75.9,308.9,75.9,310.1z"/>
				<path id="XMLID_516_" class="st9" d="M89.8,310.1c0,1.2-1,2.2-2.2,2.2c-1.2,0-2.2-1-2.2-2.2s1-2.2,2.2-2.2
					C88.8,307.9,89.8,308.9,89.8,310.1z"/>
				<path id="XMLID_515_" class="st9" d="M103.6,310.1c0,1.2-1,2.2-2.2,2.2s-2.2-1-2.2-2.2s1-2.2,2.2-2.2S103.6,308.9,103.6,310.1z"
					/>
				<path id="XMLID_514_" class="st9" d="M117.5,310.1c0,1.2-1,2.2-2.2,2.2c-1.2,0-2.2-1-2.2-2.2s1-2.2,2.2-2.2
					C116.5,307.9,117.5,308.9,117.5,310.1z"/>
				<path id="XMLID_513_" class="st9" d="M131.4,310.1c0,1.2-1,2.2-2.2,2.2s-2.2-1-2.2-2.2s1-2.2,2.2-2.2S131.4,308.9,131.4,310.1z"
					/>
			</g>
			<g id="XMLID_503_">
				<path id="XMLID_511_" class="st9" d="M34.3,297c0,1.2-1,2.2-2.2,2.2c-1.2,0-2.2-1-2.2-2.2s1-2.2,2.2-2.2
					C33.4,294.9,34.3,295.8,34.3,297z"/>
				<path id="XMLID_510_" class="st9" d="M48.2,297c0,1.2-1,2.2-2.2,2.2c-1.2,0-2.2-1-2.2-2.2s1-2.2,2.2-2.2
					C47.2,294.9,48.2,295.8,48.2,297z"/>
				<path id="XMLID_509_" class="st9" d="M62.1,297c0,1.2-1,2.2-2.2,2.2c-1.2,0-2.2-1-2.2-2.2s1-2.2,2.2-2.2
					C61.1,294.9,62.1,295.8,62.1,297z"/>
				<path id="XMLID_508_" class="st9" d="M75.9,297c0,1.2-1,2.2-2.2,2.2c-1.2,0-2.2-1-2.2-2.2s1-2.2,2.2-2.2
					C74.9,294.9,75.9,295.8,75.9,297z"/>
				<path id="XMLID_507_" class="st9" d="M89.8,297c0,1.2-1,2.2-2.2,2.2c-1.2,0-2.2-1-2.2-2.2s1-2.2,2.2-2.2
					C88.8,294.9,89.8,295.8,89.8,297z"/>
				<path id="XMLID_506_" class="st9" d="M103.6,297c0,1.2-1,2.2-2.2,2.2s-2.2-1-2.2-2.2s1-2.2,2.2-2.2S103.6,295.8,103.6,297z"/>
				<path id="XMLID_505_" class="st9" d="M117.5,297c0,1.2-1,2.2-2.2,2.2c-1.2,0-2.2-1-2.2-2.2s1-2.2,2.2-2.2
					C116.5,294.9,117.5,295.8,117.5,297z"/>
				<path id="XMLID_504_" class="st9" d="M131.4,297c0,1.2-1,2.2-2.2,2.2s-2.2-1-2.2-2.2s1-2.2,2.2-2.2S131.4,295.8,131.4,297z"/>
			</g>
			<g id="XMLID_494_">
				<path id="XMLID_502_" class="st9" d="M34.3,283.9c0,1.2-1,2.2-2.2,2.2c-1.2,0-2.2-1-2.2-2.2s1-2.2,2.2-2.2
					C33.4,281.8,34.3,282.7,34.3,283.9z"/>
				<path id="XMLID_501_" class="st9" d="M48.2,283.9c0,1.2-1,2.2-2.2,2.2c-1.2,0-2.2-1-2.2-2.2s1-2.2,2.2-2.2
					C47.2,281.8,48.2,282.7,48.2,283.9z"/>
				<path id="XMLID_500_" class="st9" d="M62.1,283.9c0,1.2-1,2.2-2.2,2.2c-1.2,0-2.2-1-2.2-2.2s1-2.2,2.2-2.2
					C61.1,281.8,62.1,282.7,62.1,283.9z"/>
				<path id="XMLID_499_" class="st9" d="M75.9,283.9c0,1.2-1,2.2-2.2,2.2c-1.2,0-2.2-1-2.2-2.2s1-2.2,2.2-2.2
					C74.9,281.8,75.9,282.7,75.9,283.9z"/>
				<path id="XMLID_498_" class="st9" d="M89.8,283.9c0,1.2-1,2.2-2.2,2.2c-1.2,0-2.2-1-2.2-2.2s1-2.2,2.2-2.2
					C88.8,281.8,89.8,282.7,89.8,283.9z"/>
				<path id="XMLID_497_" class="st9" d="M103.6,283.9c0,1.2-1,2.2-2.2,2.2s-2.2-1-2.2-2.2s1-2.2,2.2-2.2S103.6,282.7,103.6,283.9z"
					/>
				<path id="XMLID_496_" class="st9" d="M117.5,283.9c0,1.2-1,2.2-2.2,2.2c-1.2,0-2.2-1-2.2-2.2s1-2.2,2.2-2.2
					C116.5,281.8,117.5,282.7,117.5,283.9z"/>
				<path id="XMLID_495_" class="st9" d="M131.4,283.9c0,1.2-1,2.2-2.2,2.2s-2.2-1-2.2-2.2s1-2.2,2.2-2.2S131.4,282.7,131.4,283.9z"
					/>
			</g>
			<g id="XMLID_485_">
				<path id="XMLID_493_" class="st9" d="M34.3,270.9c0,1.2-1,2.2-2.2,2.2c-1.2,0-2.2-1-2.2-2.2s1-2.2,2.2-2.2
					C33.4,268.7,34.3,269.7,34.3,270.9z"/>
				<path id="XMLID_492_" class="st9" d="M48.2,270.9c0,1.2-1,2.2-2.2,2.2c-1.2,0-2.2-1-2.2-2.2s1-2.2,2.2-2.2
					C47.2,268.7,48.2,269.7,48.2,270.9z"/>
				<path id="XMLID_491_" class="st9" d="M62.1,270.9c0,1.2-1,2.2-2.2,2.2c-1.2,0-2.2-1-2.2-2.2s1-2.2,2.2-2.2
					C61.1,268.7,62.1,269.7,62.1,270.9z"/>
				<path id="XMLID_490_" class="st9" d="M75.9,270.9c0,1.2-1,2.2-2.2,2.2c-1.2,0-2.2-1-2.2-2.2s1-2.2,2.2-2.2
					C74.9,268.7,75.9,269.7,75.9,270.9z"/>
				<path id="XMLID_489_" class="st9" d="M89.8,270.9c0,1.2-1,2.2-2.2,2.2c-1.2,0-2.2-1-2.2-2.2s1-2.2,2.2-2.2
					C88.8,268.7,89.8,269.7,89.8,270.9z"/>
				<path id="XMLID_488_" class="st9" d="M103.6,270.9c0,1.2-1,2.2-2.2,2.2s-2.2-1-2.2-2.2s1-2.2,2.2-2.2S103.6,269.7,103.6,270.9z"
					/>
				<path id="XMLID_487_" class="st9" d="M117.5,270.9c0,1.2-1,2.2-2.2,2.2c-1.2,0-2.2-1-2.2-2.2s1-2.2,2.2-2.2
					C116.5,268.7,117.5,269.7,117.5,270.9z"/>
				<path id="XMLID_486_" class="st9" d="M131.4,270.9c0,1.2-1,2.2-2.2,2.2s-2.2-1-2.2-2.2s1-2.2,2.2-2.2S131.4,269.7,131.4,270.9z"
					/>
			</g>
		</g>
		<path id="XMLID_356_" class="st10" d="M173.1,410.6h-93c-0.9,0-1.6-0.7-1.6-1.6v-93c0-0.9,0.7-1.6,1.6-1.6h93
			c0.9,0,1.6,0.7,1.6,1.6v93C174.8,409.9,174.1,410.6,173.1,410.6z"/>
	</g>
	<g id="XMLID_5_">
		<g id="XMLID_7_">
			<g id="XMLID_71_">
				<path id="XMLID_79_" class="st9" d="M380.8,12.7c-0.1-0.9,0.6-1.7,1.7-1.8s2,0.5,2.1,1.4c0.1,0.9-0.6,1.7-1.7,1.8
					C381.9,14.1,380.9,13.5,380.8,12.7z"/>
				<path id="XMLID_78_" class="st9" d="M368.9,14.2c-0.1-0.9,0.6-1.7,1.7-1.8c1-0.1,2,0.5,2.1,1.4c0.1,0.9-0.6,1.7-1.7,1.8
					C369.9,15.7,369,15.1,368.9,14.2z"/>
				<path id="XMLID_77_" class="st9" d="M356.9,15.7c-0.1-0.9,0.6-1.7,1.7-1.8c1-0.1,2,0.5,2.1,1.4c0.1,0.9-0.6,1.7-1.7,1.8
					C357.9,17.2,357,16.6,356.9,15.7z"/>
				<path id="XMLID_76_" class="st9" d="M344.9,17.2c-0.1-0.9,0.6-1.7,1.7-1.8c1-0.1,2,0.5,2.1,1.4c0.1,0.9-0.6,1.7-1.7,1.8
					C346,18.7,345,18.1,344.9,17.2z"/>
				<path id="XMLID_75_" class="st9" d="M332.9,18.7c-0.1-0.9,0.6-1.7,1.7-1.8c1-0.1,2,0.5,2.1,1.4c0.1,0.9-0.6,1.7-1.7,1.8
					C334,20.2,333,19.6,332.9,18.7z"/>
				<path id="XMLID_74_" class="st9" d="M321,20.3c-0.1-0.9,0.6-1.7,1.7-1.8c1-0.1,2,0.5,2.1,1.4c0.1,0.9-0.6,1.7-1.7,1.8
					C322,21.7,321.1,21.1,321,20.3z"/>
				<path id="XMLID_73_" class="st9" d="M309,21.8c-0.1-0.9,0.6-1.7,1.7-1.8c1-0.1,2,0.5,2.1,1.4c0.1,0.9-0.6,1.7-1.7,1.8
					C310,23.3,309.1,22.7,309,21.8z"/>
				<path id="XMLID_72_" class="st9" d="M297,23.3c-0.1-0.9,0.6-1.7,1.7-1.8c1-0.1,2,0.5,2.1,1.4c0.1,0.9-0.6,1.7-1.7,1.8
					C298.1,24.8,297.1,24.2,297,23.3z"/>
			</g>
			<g id="XMLID_62_">
				<path id="XMLID_70_" class="st9" d="M382.1,22.3c-0.1-0.9,0.6-1.7,1.7-1.8c1-0.1,2,0.5,2.1,1.4c0.1,0.9-0.6,1.7-1.7,1.8
					C383.1,23.8,382.2,23.2,382.1,22.3z"/>
				<path id="XMLID_69_" class="st9" d="M370.1,23.8c-0.1-0.9,0.6-1.7,1.7-1.8c1-0.1,2,0.5,2.1,1.4c0.1,0.9-0.6,1.7-1.7,1.8
					C371.1,25.3,370.2,24.7,370.1,23.8z"/>
				<path id="XMLID_68_" class="st9" d="M358.1,25.3c-0.1-0.9,0.6-1.7,1.7-1.8c1-0.1,2,0.5,2.1,1.4c0.1,0.9-0.6,1.7-1.7,1.8
					C359.1,26.8,358.2,26.2,358.1,25.3z"/>
				<path id="XMLID_67_" class="st9" d="M346.1,26.8c-0.1-0.9,0.6-1.7,1.7-1.8c1-0.1,2,0.5,2.1,1.4s-0.6,1.7-1.7,1.8
					C347.2,28.3,346.2,27.7,346.1,26.8z"/>
				<path id="XMLID_66_" class="st9" d="M334.2,28.4c-0.1-0.9,0.6-1.7,1.7-1.8c1-0.1,2,0.5,2.1,1.4c0.1,0.9-0.6,1.7-1.7,1.8
					C335.2,29.9,334.3,29.2,334.2,28.4z"/>
				<path id="XMLID_65_" class="st9" d="M322.2,29.9c-0.1-0.9,0.6-1.7,1.7-1.8c1-0.1,2,0.5,2.1,1.4c0.1,0.9-0.6,1.7-1.7,1.8
					C323.2,31.4,322.3,30.8,322.2,29.9z"/>
				<path id="XMLID_64_" class="st9" d="M310.2,31.4c-0.1-0.9,0.6-1.7,1.7-1.8c1-0.1,2,0.5,2.1,1.4c0.1,0.9-0.6,1.7-1.7,1.8
					C311.3,32.9,310.3,32.3,310.2,31.4z"/>
				<path id="XMLID_63_" class="st9" d="M298.2,32.9c-0.1-0.9,0.6-1.7,1.7-1.8c1-0.1,2,0.5,2.1,1.4c0.1,0.9-0.6,1.7-1.7,1.8
					C299.3,34.4,298.4,33.8,298.2,32.9z"/>
			</g>
			<g id="XMLID_53_">
				<path id="XMLID_61_" class="st9" d="M383.3,31.9c-0.1-0.9,0.6-1.7,1.7-1.8c1-0.1,2,0.5,2.1,1.4c0.1,0.9-0.6,1.7-1.7,1.8
					C384.3,33.4,383.4,32.8,383.3,31.9z"/>
				<path id="XMLID_60_" class="st9" d="M371.3,33.4c-0.1-0.9,0.6-1.7,1.7-1.8c1-0.1,2,0.5,2.1,1.4c0.1,0.9-0.6,1.7-1.7,1.8
					S371.4,34.3,371.3,33.4z"/>
				<path id="XMLID_59_" class="st9" d="M359.3,35c-0.1-0.9,0.6-1.7,1.7-1.8c1-0.1,2,0.5,2.1,1.4c0.1,0.9-0.6,1.7-1.7,1.8
					C360.4,36.4,359.4,35.8,359.3,35z"/>
				<path id="XMLID_58_" class="st9" d="M347.4,36.5c-0.1-0.9,0.6-1.7,1.7-1.8s2,0.5,2.1,1.4c0.1,0.9-0.6,1.7-1.7,1.8
					C348.4,38,347.5,37.4,347.4,36.5z"/>
				<path id="XMLID_57_" class="st9" d="M335.4,38c-0.1-0.9,0.6-1.7,1.7-1.8c1-0.1,2,0.5,2.1,1.4c0.1,0.9-0.6,1.7-1.7,1.8
					C336.4,39.5,335.5,38.9,335.4,38z"/>
				<path id="XMLID_56_" class="st9" d="M323.4,39.5c-0.1-0.9,0.6-1.7,1.7-1.8c1-0.1,2,0.5,2.1,1.4c0.1,0.9-0.6,1.7-1.7,1.8
					C324.5,41,323.5,40.4,323.4,39.5z"/>
				<path id="XMLID_55_" class="st9" d="M311.4,41c-0.1-0.9,0.6-1.7,1.7-1.8c1-0.1,2,0.5,2.1,1.4c0.1,0.9-0.6,1.7-1.7,1.8
					C312.5,42.5,311.5,41.9,311.4,41z"/>
				<path id="XMLID_54_" class="st9" d="M299.5,42.6c-0.1-0.9,0.6-1.7,1.7-1.8c1-0.1,2,0.5,2.1,1.4c0.1,0.9-0.6,1.7-1.7,1.8
					C300.5,44,299.6,43.4,299.5,42.6z"/>
			</g>
			<g id="XMLID_44_">
				<path id="XMLID_52_" class="st9" d="M384.5,41.5c-0.1-0.9,0.6-1.7,1.7-1.8c1-0.1,2,0.5,2.1,1.4c0.1,0.9-0.6,1.7-1.7,1.8
					C385.5,43,384.6,42.4,384.5,41.5z"/>
				<path id="XMLID_51_" class="st9" d="M372.5,43.1c-0.1-0.9,0.6-1.7,1.7-1.8c1-0.1,2,0.5,2.1,1.4c0.1,0.9-0.6,1.7-1.7,1.8
					S372.6,43.9,372.5,43.1z"/>
				<path id="XMLID_50_" class="st9" d="M360.6,44.6c-0.1-0.9,0.6-1.7,1.7-1.8c1-0.1,2,0.5,2.1,1.4c0.1,0.9-0.6,1.7-1.7,1.8
					C361.6,46.1,360.7,45.5,360.6,44.6z"/>
				<path id="XMLID_49_" class="st9" d="M348.6,46.1c-0.1-0.9,0.6-1.7,1.7-1.8s2,0.5,2.1,1.4c0.1,0.9-0.6,1.7-1.7,1.8
					C349.6,47.6,348.7,47,348.6,46.1z"/>
				<path id="XMLID_48_" class="st9" d="M336.6,47.6c-0.1-0.9,0.6-1.7,1.7-1.8c1-0.1,2,0.5,2.1,1.4c0.1,0.9-0.6,1.7-1.7,1.8
					C337.6,49.1,336.7,48.5,336.6,47.6z"/>
				<path id="XMLID_47_" class="st9" d="M324.6,49.1c-0.1-0.9,0.6-1.7,1.7-1.8c1-0.1,2,0.5,2.1,1.4c0.1,0.9-0.6,1.7-1.7,1.8
					C325.7,50.6,324.7,50,324.6,49.1z"/>
				<path id="XMLID_46_" class="st9" d="M312.7,50.7c-0.1-0.9,0.6-1.7,1.7-1.8c1-0.1,2,0.5,2.1,1.4c0.1,0.9-0.6,1.7-1.7,1.8
					C313.7,52.2,312.8,51.5,312.7,50.7z"/>
				<path id="XMLID_45_" class="st9" d="M300.7,52.2c-0.1-0.9,0.6-1.7,1.7-1.8c1-0.1,2,0.5,2.1,1.4c0.1,0.9-0.6,1.7-1.7,1.8
					C301.7,53.7,300.8,53.1,300.7,52.2z"/>
			</g>
			<g id="XMLID_35_">
				<path id="XMLID_43_" class="st9" d="M385.7,51.2c-0.1-0.9,0.6-1.7,1.7-1.8c1-0.1,2,0.5,2.1,1.4c0.1,0.9-0.6,1.7-1.7,1.8
					C386.8,52.6,385.8,52,385.7,51.2z"/>
				<path id="XMLID_42_" class="st9" d="M373.8,52.7c-0.1-0.9,0.6-1.7,1.7-1.8c1-0.1,2,0.5,2.1,1.4c0.1,0.9-0.6,1.7-1.7,1.8
					C374.8,54.2,373.9,53.6,373.8,52.7z"/>
				<path id="XMLID_41_" class="st9" d="M361.8,54.2c-0.1-0.9,0.6-1.7,1.7-1.8c1-0.1,2,0.5,2.1,1.4c0.1,0.9-0.6,1.7-1.7,1.8
					C362.8,55.7,361.9,55.1,361.8,54.2z"/>
				<path id="XMLID_40_" class="st9" d="M349.8,55.7c-0.1-0.9,0.6-1.7,1.7-1.8s2,0.5,2.1,1.4c0.1,0.9-0.6,1.7-1.7,1.8
					C350.8,57.2,349.9,56.6,349.8,55.7z"/>
				<path id="XMLID_39_" class="st9" d="M337.8,57.2c-0.1-0.9,0.6-1.7,1.7-1.8c1-0.1,2,0.5,2.1,1.4c0.1,0.9-0.6,1.7-1.7,1.8
					C338.9,58.7,337.9,58.1,337.8,57.2z"/>
				<path id="XMLID_38_" class="st9" d="M325.9,58.8c-0.1-0.9,0.6-1.7,1.7-1.8c1-0.1,2,0.5,2.1,1.4c0.1,0.9-0.6,1.7-1.7,1.8
					C326.9,60.3,326,59.6,325.9,58.8z"/>
				<path id="XMLID_37_" class="st9" d="M313.9,60.3c-0.1-0.9,0.6-1.7,1.7-1.8c1-0.1,2,0.5,2.1,1.4c0.1,0.9-0.6,1.7-1.7,1.8
					C314.9,61.8,314,61.2,313.9,60.3z"/>
				<path id="XMLID_36_" class="st9" d="M301.9,61.8c-0.1-0.9,0.6-1.7,1.7-1.8c1-0.1,2,0.5,2.1,1.4c0.1,0.9-0.6,1.7-1.7,1.8
					C302.9,63.3,302,62.7,301.9,61.8z"/>
			</g>
			<g id="XMLID_26_">
				<path id="XMLID_34_" class="st9" d="M387,60.8c-0.1-0.9,0.6-1.7,1.7-1.8c1-0.1,2,0.5,2.1,1.4c0.1,0.9-0.6,1.7-1.7,1.8
					C388,62.3,387.1,61.7,387,60.8z"/>
				<path id="XMLID_33_" class="st9" d="M375,62.3c-0.1-0.9,0.6-1.7,1.7-1.8c1-0.1,2,0.5,2.1,1.4c0.1,0.9-0.6,1.7-1.7,1.8
					S375.1,63.2,375,62.3z"/>
				<path id="XMLID_32_" class="st9" d="M363,63.8c-0.1-0.9,0.6-1.7,1.7-1.8c1-0.1,2,0.5,2.1,1.4c0.1,0.9-0.6,1.7-1.7,1.8
					C364,65.3,363.1,64.7,363,63.8z"/>
				<path id="XMLID_31_" class="st9" d="M351,65.4c-0.1-0.9,0.6-1.7,1.7-1.8s2,0.5,2.1,1.4c0.1,0.9-0.6,1.7-1.7,1.8
					C352.1,66.8,351.1,66.2,351,65.4z"/>
				<path id="XMLID_30_" class="st9" d="M339.1,66.9c-0.1-0.9,0.6-1.7,1.7-1.8c1-0.1,2,0.5,2.1,1.4c0.1,0.9-0.6,1.7-1.7,1.8
					C340.1,68.4,339.2,67.8,339.1,66.9z"/>
				<path id="XMLID_29_" class="st9" d="M327.1,68.4c-0.1-0.9,0.6-1.7,1.7-1.8c1-0.1,2,0.5,2.1,1.4c0.1,0.9-0.6,1.7-1.7,1.8
					C328.1,69.9,327.2,69.3,327.1,68.4z"/>
				<path id="XMLID_28_" class="st9" d="M315.1,69.9c-0.1-0.9,0.6-1.7,1.7-1.8c1-0.1,2,0.5,2.1,1.4c0.1,0.9-0.6,1.7-1.7,1.8
					C316.1,71.4,315.2,70.8,315.1,69.9z"/>
				<path id="XMLID_27_" class="st9" d="M303.1,71.4c-0.1-0.9,0.6-1.7,1.7-1.8c1-0.1,2,0.5,2.1,1.4c0.1,0.9-0.6,1.7-1.7,1.8
					C304.2,72.9,303.2,72.3,303.1,71.4z"/>
			</g>
			<g id="XMLID_17_">
				<path id="XMLID_25_" class="st9" d="M388.2,70.4c-0.1-0.9,0.6-1.7,1.7-1.8c1-0.1,2,0.5,2.1,1.4c0.1,0.9-0.6,1.7-1.7,1.8
					C389.2,71.9,388.3,71.3,388.2,70.4z"/>
				<path id="XMLID_24_" class="st9" d="M376.2,71.9c-0.1-0.9,0.6-1.7,1.7-1.8c1-0.1,2,0.5,2.1,1.4c0.1,0.9-0.6,1.7-1.7,1.8
					C377.2,73.4,376.3,72.8,376.2,71.9z"/>
				<path id="XMLID_23_" class="st9" d="M364.2,73.5c-0.1-0.9,0.6-1.7,1.7-1.8c1-0.1,2,0.5,2.1,1.4c0.1,0.9-0.6,1.7-1.7,1.8
					C365.3,74.9,364.3,74.3,364.2,73.5z"/>
				<path id="XMLID_22_" class="st9" d="M352.3,75c-0.1-0.9,0.6-1.7,1.7-1.8c1-0.1,2,0.5,2.1,1.4c0.1,0.9-0.6,1.7-1.7,1.8
					C353.3,76.5,352.4,75.9,352.3,75z"/>
				<path id="XMLID_21_" class="st9" d="M340.3,76.5c-0.1-0.9,0.6-1.7,1.7-1.8c1-0.1,2,0.5,2.1,1.4c0.1,0.9-0.6,1.7-1.7,1.8
					C341.3,78,340.4,77.4,340.3,76.5z"/>
				<path id="XMLID_20_" class="st9" d="M328.3,78c-0.1-0.9,0.6-1.7,1.7-1.8c1-0.1,2,0.5,2.1,1.4c0.1,0.9-0.6,1.7-1.7,1.8
					C329.3,79.5,328.4,78.9,328.3,78z"/>
				<path id="XMLID_19_" class="st9" d="M316.3,79.5c-0.1-0.9,0.6-1.7,1.7-1.8c1-0.1,2,0.5,2.1,1.4c0.1,0.9-0.6,1.7-1.7,1.8
					C317.4,81,316.4,80.4,316.3,79.5z"/>
				<path id="XMLID_18_" class="st9" d="M304.4,81.1c-0.1-0.9,0.6-1.7,1.7-1.8c1-0.1,2,0.5,2.1,1.4c0.1,0.9-0.6,1.7-1.7,1.8
					C305.4,82.6,304.5,81.9,304.4,81.1z"/>
			</g>
			<g id="XMLID_8_">
				<path id="XMLID_16_" class="st9" d="M389.4,80c-0.1-0.9,0.6-1.7,1.7-1.8c1-0.1,2,0.5,2.1,1.4c0.1,0.9-0.6,1.7-1.7,1.8
					C390.4,81.5,389.5,80.9,389.4,80z"/>
				<path id="XMLID_15_" class="st9" d="M377.4,81.6c-0.1-0.9,0.6-1.7,1.7-1.8c1-0.1,2,0.5,2.1,1.4c0.1,0.9-0.6,1.7-1.7,1.8
					C378.5,83.1,377.5,82.4,377.4,81.6z"/>
				<path id="XMLID_14_" class="st9" d="M365.4,83.1c-0.1-0.9,0.6-1.7,1.7-1.8c1-0.1,2,0.5,2.1,1.4c0.1,0.9-0.6,1.7-1.7,1.8
					C366.5,84.6,365.6,84,365.4,83.1z"/>
				<path id="XMLID_13_" class="st9" d="M353.5,84.6c-0.1-0.9,0.6-1.7,1.7-1.8c1-0.1,2,0.5,2.1,1.4c0.1,0.9-0.6,1.7-1.7,1.8
					C354.5,86.1,353.6,85.5,353.5,84.6z"/>
				<path id="XMLID_12_" class="st9" d="M341.5,86.1c-0.1-0.9,0.6-1.7,1.7-1.8c1-0.1,2,0.5,2.1,1.4c0.1,0.9-0.6,1.7-1.7,1.8
					C342.5,87.6,341.6,87,341.5,86.1z"/>
				<path id="XMLID_11_" class="st9" d="M329.5,87.7c-0.1-0.9,0.6-1.7,1.7-1.8c1-0.1,2,0.5,2.1,1.4c0.1,0.9-0.6,1.7-1.7,1.8
					C330.6,89.1,329.6,88.5,329.5,87.7z"/>
				<path id="XMLID_10_" class="st9" d="M317.6,89.2c-0.1-0.9,0.6-1.7,1.7-1.8c1-0.1,2,0.5,2.1,1.4c0.1,0.9-0.6,1.7-1.7,1.8
					C318.6,90.7,317.7,90.1,317.6,89.2z"/>
				<path id="XMLID_9_" class="st9" d="M305.6,90.7c-0.1-0.9,0.6-1.7,1.7-1.8c1-0.1,2,0.5,2.1,1.4c0.1,0.9-0.6,1.7-1.7,1.8
					C306.6,92.2,305.7,91.6,305.6,90.7z"/>
			</g>
		</g>
		<path id="XMLID_6_" class="st10" d="M256.6-7.6l79.9-10.2c0.9-0.1,1.7,0.5,1.8,1.4l8.6,67.6c0.1,0.9-0.5,1.7-1.4,1.8l-79.9,10.2
			c-0.9,0.1-1.7-0.5-1.8-1.4l-8.6-67.6C255.1-6.7,255.7-7.5,256.6-7.6z"/>
	</g>
	<g id="XMLID_712_">
		
			<rect id="XMLID_721_" x="78.9" y="98" transform="matrix(0.7071 -0.7071 0.7071 0.7071 -65.3567 130.8075)" class="st11" width="92.6" height="92.6"/>
		
			<rect id="XMLID_720_" x="94.6" y="113.7" transform="matrix(0.7071 -0.7071 0.7071 0.7071 -65.3567 130.8074)" class="st11" width="61.2" height="61.2"/>
		
			<rect id="XMLID_719_" x="110.3" y="129.3" transform="matrix(0.7071 -0.7071 0.7071 0.7071 -65.3567 130.8074)" class="st12" width="29.9" height="29.9"/>
	</g>
	<g id="XMLID_828_">
		
			<rect id="XMLID_831_" x="156" y="510.9" transform="matrix(0.7071 -0.7071 0.7071 0.7071 -343.6087 327.7466)" class="st13" width="135.6" height="135.6"/>
		
			<rect id="XMLID_830_" x="179" y="533.8" transform="matrix(0.7071 -0.7071 0.7071 0.7071 -343.6087 327.7467)" class="st13" width="89.7" height="89.7"/>
		
			<rect id="XMLID_829_" x="201.9" y="556.7" transform="matrix(0.7071 -0.7071 0.7071 0.7071 -343.6087 327.7466)" class="st13" width="43.8" height="43.8"/>
	</g>
	<g id="XMLID_723_">
		<path id="XMLID_725_" class="st14" d="M325.7,262.2l-33.9-33.9c-0.3-0.3-0.3-0.9,0-1.2l33.9-33.9c0.3-0.3,0.9-0.3,1.2,0l33.9,33.9
			c0.3,0.3,0.3,0.9,0,1.2l-33.9,33.9C326.5,262.6,326,262.6,325.7,262.2z"/>
		<path id="XMLID_724_" class="st9" d="M326,242.4L311.6,228c-0.1-0.1-0.1-0.4,0-0.5l14.4-14.4c0.1-0.1,0.4-0.1,0.5,0l14.4,14.4
			c0.1,0.1,0.1,0.4,0,0.5l-14.4,14.4C326.4,242.6,326.2,242.6,326,242.4z"/>
	</g>
	<g id="XMLID_1_">
		<path id="XMLID_3_" class="st14" d="M441.4,661.6l-3.5-34.8c0-0.5,0.3-0.9,0.8-0.9l34.8-3.5c0.5,0,0.9,0.3,0.9,0.8l3.5,34.8
			c0,0.5-0.3,0.9-0.8,0.9l-34.8,3.5C441.9,662.4,441.5,662,441.4,661.6z"/>
		<path id="XMLID_2_" class="st9" d="M450.9,650.5l-1.5-14.8c0-0.2,0.1-0.4,0.3-0.4l14.8-1.5c0.2,0,0.4,0.1,0.4,0.3l1.5,14.8
			c0,0.2-0.1,0.4-0.3,0.4l-14.8,1.5C451.1,650.8,451,650.7,450.9,650.5z"/>
	</g>
</g>
</svg>
