<?xml version="1.0" encoding="utf-8"?>
<!-- Generator: Adobe Illustrator 24.2.1, SVG Export Plug-In . SVG Version: 6.00 Build 0)  -->
<svg version="1.1" id="Layer_1" xmlns="http://www.w3.org/2000/svg" xmlns:xlink="http://www.w3.org/1999/xlink" x="0px" y="0px"
	 viewBox="0 0 720 372" style="enable-background:new 0 0 720 372;" xml:space="preserve">
<g>
	<path d="M303,67.9c5,0,10-0.1,14.9,0.1c1.4,0.1,3,0.8,4,1.7c8.6,8.4,17,17,25.6,25.5c1,1,2.7,1.6,4,1.7c5.6,0.2,11.2,0.2,16.8,0
		c1.4,0,3-0.7,4-1.7c8.6-8.4,17.1-17,25.7-25.4c1-1,2.8-1.8,4.2-1.8c9.9-0.2,19.7,0,29.6-0.2c1.4,0,3-0.7,4-1.7
		c16.3-16.2,32.6-32.5,48.9-48.7c1.5-1.5,2.1-2.7,1.5-4.9c-1.1-4.3,1.4-9.1,5.4-11.2c4.3-2.3,9.4-1.4,12.7,2.1
		c3.2,3.4,3.8,8.3,1.5,12.6c-2.2,4-6.9,6.3-11.3,5.1c-2.3-0.6-3.6,0-5.2,1.6c-16.7,16.8-33.4,33.5-50.1,50.2
		c-1.7,1.7-3.4,2.4-5.7,2.3c-9.3-0.1-18.7,0-28-0.1c-2.2,0-3.7,0.6-5.3,2.2c-8.3,8.4-16.6,16.7-25,24.9c-1.1,1.1-3,1.8-4.5,1.8
		c-7.3,0.2-14.7,0.2-22,0c-1.5,0-3.4-0.8-4.5-1.8c-8.4-8.2-16.6-16.4-24.8-24.8c-1.7-1.7-3.4-2.4-5.7-2.3c-9.5,0.1-19,0.1-28.5,0
		c-1.5,0-3.4-0.8-4.4-1.9c-17.1-17-34.1-34-51.1-51.1c-1.3-1.3-2.5-1.6-4.3-1.1c-4.5,1.2-9.3-0.9-11.6-5c-2.4-4.3-1.8-9.3,1.6-12.8
		c3.3-3.4,8.5-4.1,12.8-1.8c4,2.2,6.3,7,5.2,11.5c-0.4,1.6-0.2,2.7,1,3.8c16.4,16.4,32.9,32.7,49.2,49.2c1.4,1.4,2.8,2,4.8,2
		C293.4,67.7,298.2,67.8,303,67.9C303,67.8,303,67.8,303,67.9z M223.3,5.1c-3,0-5.5,2.6-5.6,5.5c0,2.9,2.6,5.6,5.5,5.6
		c2.9,0,5.6-2.6,5.6-5.5C228.8,7.7,226.2,5.1,223.3,5.1z M496.8,16.2c2.9,0,5.5-2.6,5.5-5.6c0-2.9-2.6-5.5-5.5-5.5
		c-2.9,0-5.5,2.7-5.5,5.6C491.2,13.6,493.8,16.1,496.8,16.2z"/>
	<path d="M417,304.2c-4.7,0-9.4-0.1-14.1,0c-2.1,0.1-3.6-0.6-5-2c-8.3-8.4-16.6-16.7-25-25c-1.1-1.1-3.1-1.9-4.7-2
		c-5.3-0.2-10.7,0-16-0.1c-2.2,0-3.7,0.7-5.2,2.3c-8.3,8.4-16.6,16.7-25,25c-1,1-2.8,1.7-4.2,1.7c-9.7,0.1-19.4,0.1-29.1,0
		c-1.9,0-3.4,0.5-4.8,1.9c-16.3,16.4-32.6,32.7-49,49c-1.2,1.2-1.7,2.3-1.3,4c1.1,4.9-1.1,9.5-5.3,11.7c-4.2,2.2-9.3,1.4-12.5-1.9
		c-3.4-3.5-4.1-8.4-1.8-12.5c2.4-4.3,6.9-6.5,11.7-5.2c2.1,0.6,3.3-0.2,4.7-1.5c16.7-16.8,33.6-33.6,50.3-50.4
		c1.6-1.6,3.2-2.3,5.5-2.3c9.4,0.1,18.8,0,28.3,0.1c2.2,0,3.7-0.7,5.2-2.2c8.1-8.2,16.3-16.3,24.3-24.5c1.6-1.7,3.3-2.4,5.7-2.4
		c7.2,0.1,14.3-0.1,21.5,0.1c1.5,0,3.4,0.8,4.5,1.9c8.4,8.2,16.7,16.6,25,24.9c1.5,1.5,3.1,2.2,5.3,2.1c9.2-0.1,18.5,0.1,27.7-0.1
		c2.6,0,4.4,0.8,6.2,2.6c16.6,16.7,33.3,33.3,49.9,50c1.6,1.6,2.9,2.2,5.2,1.5c4.3-1.2,9.1,1.2,11.3,5.1c2.3,4.2,1.6,9.4-1.7,12.8
		c-3.3,3.3-8.4,4.1-12.5,1.9c-4.1-2.2-6.4-6.9-5.3-11.4c0.4-1.8,0.1-3-1.2-4.3c-16.4-16.3-32.7-32.7-49.1-48.9
		c-1.1-1.1-2.9-1.8-4.5-1.8C426.8,304,421.9,304.2,417,304.2z M228.8,361.3c0-3-2.6-5.5-5.6-5.5c-3,0-5.5,2.6-5.5,5.6
		c0,3,2.6,5.5,5.6,5.5C226.3,366.8,228.8,364.3,228.8,361.3z M496.7,355.8c-3,0-5.5,2.6-5.5,5.6c0,2.9,2.6,5.6,5.5,5.5
		c3,0,5.5-2.6,5.5-5.5C502.3,358.4,499.7,355.8,496.7,355.8z"/>
	<path d="M227.6,284c-3.9,0-7.8,0-11.6,0c-7.6,0-15.2,0.1-22.8,0c-2.3,0-3.9,0.6-5.5,2.3c-16.5,16.6-33,33.1-49.5,49.7
		c-1.7,1.7-3.4,2.3-5.8,2.3c-18.2-0.1-36.4-0.1-54.6-0.1c-1.8,0-2.7,0.8-3.6,2.3c-2.5,4-6.2,5.7-10.9,5.1c-4-0.6-7.5-3.8-8.5-7.9
		c-1.1-4.7,0.4-8.4,4.1-11.3c4.5-3.5,11.4-2.4,14.7,2.4c1.2,1.8,2.6,2.4,4.7,2.4c17.1-0.1,34.3-0.1,51.4,0c2.2,0,3.7-0.6,5.2-2.2
		c16.6-16.7,33.3-33.3,49.9-50c1.6-1.6,3.1-2.1,5.3-2.1c14,0.1,27.9,0,41.9,0.1c2.6,0,4.6-0.7,6.4-2.6c7.9-8,15.8-16,23.9-23.8
		c1.1-1.1,3-1.8,4.5-1.8c9.1-0.2,18.1-0.2,27.2,0c3.4,0.1,5.8-0.9,8.1-3.3c4.2-4.5,4.4-4.4,8.5,0.3c0.1,0.1,0.1,0.3,0.2,0.7
		c-2.9,2.9-5.8,6-8.9,8.9c-0.6,0.6-1.9,0.5-2.8,0.5c-9.7,0-19.4,0.1-29.1,0c-2,0-3.6,0.5-5.1,2c-16.4,16.5-32.9,33-49.4,49.4
		c-1.2,1.2-1.5,2.3-1.2,4.1c1.1,6.5-2.4,11.6-8.7,12.8c-5.1,1-10.5-2.5-11.8-7.7c-2.1-7.9,4.6-14.9,12.6-13.1c1.9,0.4,3,0,4.3-1.3
		c5.7-5.8,11.6-11.4,17.4-17.1C227.9,284.5,227.8,284.2,227.6,284z M65,340.3c3.1,0,5.6-2.4,5.6-5.4c0-3-2.2-5.3-5.2-5.4
		c-3.2-0.1-5.7,2.1-5.8,5.2C59.4,337.6,62,340.3,65,340.3z M198.5,313.6c0.1,3.1,2.5,5.5,5.6,5.4c2.9-0.1,5.2-2.6,5.2-5.5
		c0-3-2.6-5.6-5.5-5.5C200.9,308,198.5,310.5,198.5,313.6z"/>
	<path d="M458.4,110.4c0.8-0.7,1.8-1.2,2.5-2c14.4-14.3,28.7-28.7,43.1-43c1.5-1.5,2.1-2.7,1.7-5c-1-5,1.5-9.5,5.7-11.5
		c4.3-2,9.3-1.1,12.4,2.4c3,3.3,3.7,8.6,1.5,12.4c-2.5,4.3-7,6.2-12.1,5.1c-0.9-0.2-2.3-0.1-2.9,0.4c-6,5.8-11.8,11.7-17.7,17.6
		c-0.2,0.2-0.2,0.5-0.4,0.9c0.9,0.1,1.7,0.2,2.4,0.2c10.9,0,21.7,0.1,32.6-0.1c1.6,0,3.6-0.8,4.7-1.9c16.6-16.4,33.1-33,49.6-49.6
		c1.8-1.8,3.6-2.6,6.2-2.6c17.9,0.1,35.7,0,53.6,0.1c2.2,0,3.6-0.5,4.8-2.6c2.2-4,7.3-5.7,11.6-4.5c4.5,1.3,7.7,5.3,7.9,10
		c0.2,4.5-2.8,8.8-7.3,10.4c-4.3,1.5-9.3,0-11.8-3.8c-1.3-2-2.7-2.4-4.9-2.4c-17,0.1-34.1,0.1-51.1,0c-2.3,0-3.9,0.7-5.5,2.3
		c-16.5,16.6-33.2,33.2-49.7,49.8c-1.5,1.5-3.1,2.2-5.3,2.2c-14.2-0.1-28.5,0-42.7-0.1c-2.2,0-3.7,0.7-5.2,2.2c-8,8.1-16,16-24,24.1
		c-1.5,1.5-3,2.1-5,2.1c-9.4-0.1-18.8,0-28.3-0.1c-2.5,0-4.4,0.6-5.9,2.6c-1.3,1.6-2.7,3.2-4.3,5c-2.2-1.9-3.8-3.4-5.9-5.2
		c3.3-3.1,6.2-6.1,9.3-8.8c0.8-0.7,2.2-0.7,3.3-0.7c9-0.1,18-0.4,26.9,0.1C453.3,116.7,455.9,114,458.4,110.4
		C458.4,110.4,458.4,110.4,458.4,110.4z M521.5,58.6c0-3.1-2.3-5.6-5.4-5.6c-3,0-5.5,2.5-5.5,5.6c0,2.9,2.5,5.4,5.3,5.5
		C518.9,64.2,521.4,61.7,521.5,58.6z M654.8,42.5c3.2,0,5.6-2.1,5.6-5.3c0.1-2.9-2.5-5.5-5.6-5.5c-3,0-5.5,2.5-5.5,5.5
		C649.4,40.2,651.7,42.4,654.8,42.5z"/>
	<path d="M461.7,264.8c-2.7-2.8-5.2-5.7-8.1-8.4c-0.7-0.7-2.2-0.7-3.3-0.7c-9.4-0.1-18.8-0.1-28.3,0c-2.6,0-4.4-0.7-6.2-2.6
		c-2.2-2.4-4.8-4.4-7.4-6.8c2.3-2,3.9-3.4,6.2-5.5c1.6,2,2.9,4,4.6,5.5c1.3,1.1,3.3,2,5,2.1c9.4,0.2,18.8,0.1,28.3,0.1
		c2.3,0,4.1,0.6,5.8,2.3c7.9,8.1,16,16,24,24.1c1.4,1.4,2.8,2,4.8,2c14.4-0.1,28.8,0,43.2,0c2,0,3.4,0.6,4.8,2
		c14.2,14.3,28.4,28.5,42.6,42.7c2.6,2.6,5,5.3,7.7,7.7c1.1,1,2.8,1.8,4.2,1.8c17.6,0.1,35.1,0,52.7,0.1c1.8,0,3-0.6,4-2.1
		c2.8-4.1,7.5-5.6,12.2-4c4.3,1.4,7.3,5.8,7.2,10.2c-0.2,4.8-3.5,9-8,10.1c-4.6,1.2-9.3-0.6-11.6-4.9c-1-1.8-2.1-2.2-4.1-2.2
		c-14.5,0-29-0.1-43.4-0.1c-4.1,0-8.2,0.2-12.2,0c-1.2,0-2.7-0.6-3.5-1.5c-16.9-16.8-33.7-33.6-50.5-50.5c-1.4-1.4-2.7-2.1-4.7-2.1
		c-10.9,0.1-21.7,0-32.6,0c-0.8,0-1.6,0.1-2.7,0.1c0.5,0.7,0.8,1.2,1.2,1.6c5.5,5.5,11,11,16.5,16.6c1.1,1.1,2,1.3,3.6,0.9
		c5.4-1.6,11.1,1.6,12.8,6.9c1.7,5.3-1,11.3-6.1,13.2c-5.6,2.1-11.5-0.1-13.6-5.5c-0.8-2.1-0.4-4.8-0.7-7.1
		c-0.1-1.1-0.2-2.4-0.9-3.1c-13.6-13.7-27.3-27.3-40.9-40.9c-0.5-0.5-1.1-0.9-1.7-1.3l0,0C462,265.2,461.8,265,461.7,264.8
		L461.7,264.8z M654.9,329.5c-3.2,0-5.5,2.3-5.5,5.5c0,2.9,2.4,5.3,5.4,5.3c3,0.1,5.6-2.5,5.6-5.4
		C660.5,331.9,658,329.5,654.9,329.5z M521.5,313.5c0-3.1-2.5-5.6-5.5-5.5c-3,0-5.3,2.4-5.4,5.4c0,3.1,2.3,5.7,5.3,5.7
		C519,319.1,521.4,316.6,521.5,313.5z"/>
	<path d="M228.5,87.9c-6.6-6.6-12.7-12.7-18.9-18.7c-0.6-0.6-2-0.6-2.9-0.4c-6.1,1.3-11.9-2.2-13.1-8c-1.3-6.2,2.7-11.9,9-12.9
		c7-1.1,13,5.4,11.6,12.9c-0.3,1.8,0.1,2.9,1.2,4.1c16.6,16.6,33.2,33.2,49.9,49.7c1,0.9,2.7,1.6,4,1.6c9.7,0.1,19.4,0.1,29.1,0
		c2.2,0,3.8,0.7,5.2,2.2c2.4,2.5,5,4.7,7.7,7.3c-2.1,1.9-3.7,3.3-6.3,5.5c-1.4-1.8-2.8-3.6-4.2-5.4c-1.4-1.9-3.4-2.4-5.7-2.4
		c-9.2,0.1-18.5,0-27.7,0.1c-2.5,0-4.2-0.7-6-2.4c-7.7-7.9-15.6-15.6-23.4-23.5c-1.6-1.7-3.3-2.4-5.7-2.4c-14.1,0.1-28.3,0-42.4,0.1
		c-2,0-3.5-0.5-5-2c-15.5-15.5-31.1-30.9-46.4-46.6c-3.8-3.9-7.6-6-13.4-5.8c-15.4,0.5-30.8,0.2-46.2,0.1c-2.4,0-4.2,0.4-5.7,2.7
		c-2.4,3.7-7.4,4.9-11.7,3.5c-4.3-1.5-7.4-5.7-7.3-10.1c0.1-4.5,3.1-8.7,7.4-10.1c4.2-1.4,9.3,0,11.6,3.7c1.6,2.7,3.7,3.2,6.5,3.2
		c17.4-0.1,34.8,0,52.2-0.1c2.6,0,4.6,0.8,6.4,2.7c16.4,16.5,32.9,33,49.3,49.5c1.4,1.5,2.9,2.1,5,2.1c10.8-0.1,21.6,0,32.3,0
		C226,88,226.8,88,228.5,87.9z M198.5,58.5c0,3.1,2.4,5.5,5.4,5.6c3,0,5.5-2.5,5.5-5.5c0-3-2.5-5.6-5.4-5.6
		C200.9,53,198.5,55.4,198.5,58.5z M70.6,37.2c0-3.1-2.5-5.5-5.6-5.5c-3,0-5.6,2.6-5.5,5.5c0.1,3,2.7,5.4,5.7,5.3
		C68.2,42.5,70.6,40.1,70.6,37.2z"/>
	<path d="M207.6,152.7c-10.1,0-20.3,0.1-30.4-0.1c-1.4,0-3.2-0.7-4.2-1.7c-16.7-16.6-33.4-33.2-50-49.9c-1.7-1.7-3.5-2.5-5.9-2.5
		c-31,0.1-62,0.1-92.9,0c-2.2,0-3.8,0.5-5.2,2.5c-2.8,4-7.7,5.2-12.1,3.5c-4.3-1.7-7.1-6-6.9-10.4c0.3-4.7,3.6-8.7,8.1-9.8
		c4.6-1.1,9.3,0.7,11.6,4.9c1.1,2,2.5,2.2,4.5,2.2c31.9,0,63.8,0,95.6-0.1c2.5,0,4.4,0.7,6.2,2.5c16.6,16.7,33.2,33.4,49.9,49.9
		c1,1,2.8,1.7,4.2,1.7c14.2,0.1,28.4,0.1,42.7,0c2.7,0,3.1,1.1,3.1,3.4c0,2.2-0.1,3.8-3.1,3.7c-5.1-0.2-10.1-0.1-15.2-0.1
		C207.6,152.6,207.6,152.7,207.6,152.7z M10.6,100c3,0,5.6-2.4,5.7-5.3c0.1-3-2.6-5.7-5.7-5.7c-2.7,0-5.3,2.6-5.4,5.4
		C5,97.3,7.6,100,10.6,100z"/>
	<path d="M520.5,219.5c7.4,0,14.9-0.1,22.3,0.1c1.5,0,3.4,0.7,4.5,1.8c16.7,16.6,33.4,33.2,50,49.9c1.4,1.4,2.9,2.2,5,2.2
		c31.3-0.1,62.7-0.1,94,0c2.1,0,3.4-0.6,4.7-2.4c2.7-3.9,7.5-5.2,11.8-3.7c4.4,1.5,7.5,6,7.2,10.4c-0.2,4.5-3.5,8.6-7.7,9.8
		c-4.6,1.3-9.3-0.4-11.8-4.5c-1.2-2-2.6-2.6-4.8-2.6c-31.8,0.1-63.6,0-95.4,0.1c-2.7,0-4.5-0.8-6.4-2.7
		c-13.7-13.9-27.6-27.7-41.5-41.5c-2.8-2.8-5.4-5.6-8.3-8.2c-1.2-1-3-1.8-4.5-1.8c-14-0.1-28.1-0.1-42.1-0.1c-1.1,0-3-0.3-3.1-0.8
		c-0.3-1.8-0.4-3.8,0.1-5.6c0.1-0.5,2.3-0.8,3.5-0.8c6.2,0,12.5,0.1,18.7,0.2C518,219.5,519.2,219.5,520.5,219.5z M709.2,272
		c-3.1,0.1-5.5,2.5-5.4,5.6c0,2.8,2.8,5.5,5.7,5.4c2.8,0,5.5-2.8,5.4-5.7C714.8,274.2,712.3,271.9,709.2,272z"/>
	<path d="M225.4,219.5c0.3,0.4,0.3,0.4,0.4,0.5c0.6,6.4,0.6,6.4-5.8,6.4c-13.1,0-26.3,0-39.4,0c-2,0-3.5,0.5-5,2
		c-16.3,16.4-32.8,32.8-49.1,49.3c-2.1,2.2-4.3,3.1-7.4,3c-31.5-0.1-63,0-94.6-0.1c-2.3,0-3.8,0.4-5,2.6c-2.2,4-7.2,5.7-11.6,4.5
		c-4.5-1.2-7.7-5.2-7.9-9.9c-0.2-4.5,2.8-8.8,7.3-10.4c4.1-1.5,9-0.3,11.6,3.5c1.5,2.2,3.1,2.5,5.4,2.5c31-0.1,61.9-0.1,92.9,0
		c2.4,0,4-0.7,5.7-2.4c16.5-16.6,33-33,49.5-49.6c1.6-1.6,3.1-2.1,5.2-2.1c13.9,0.1,27.9,0.1,41.8,0.1
		C221.6,219.5,223.6,219.5,225.4,219.5z M16.2,277.6c0.1-3-2.4-5.5-5.4-5.6c-3-0.1-5.6,2.4-5.7,5.3c-0.1,2.9,2.4,5.6,5.4,5.7
		C13.4,283.1,16.1,280.5,16.2,277.6z"/>
	<path d="M518.5,145.6c6.9,0,13.8-0.1,20.7,0.1c2.3,0,3.9-0.7,5.5-2.3c13.9-13.9,27.8-27.8,41.7-41.7c2.6-2.6,5.4-5.2,7.9-7.9
		c1.6-1.7,3.3-2.4,5.7-2.4c25,0.1,50,0,75,0.1c6.9,0,13.8-0.1,20.7,0c2.3,0,3.8-0.6,5-2.7c2.5-4.2,7.5-5.7,12.1-4.2
		c4.4,1.4,7.5,5.7,7.3,10.4c-0.1,4.6-3.4,8.7-7.9,10c-4.3,1.2-8.8-0.3-11.5-4.2c-1-1.4-2-2-3.7-2c-31.7,0-63.4,0.1-95.1,0
		c-2.2,0-3.5,1.2-4.8,2.5c-16.3,16.3-32.7,32.7-49,49c-1.7,1.7-3.5,2.5-5.9,2.5c-14.9-0.1-29.9-0.1-44.8,0c-2.6,0-3.2-0.9-3.2-3.3
		c0.1-2.3,0.1-3.9,3.3-3.8C504.4,145.7,511.4,145.6,518.5,145.6z M709.4,100c3,0,5.5-2.6,5.4-5.6c0-2.8-2.9-5.6-5.7-5.5
		c-2.9,0.1-5.5,2.9-5.4,5.7C703.8,97.7,706.4,100,709.4,100z"/>
	<path d="M426.7,145.6c1.1,0,2.2,0,3.2,0c12.4,0,24.8,0,37.2,0c2,0,3.4-0.6,4.7-2c8.6-8.7,17.2-17.3,26-25.9
		c0.9-0.9,2.5-1.3,3.9-1.4c9.8-0.1,19.6,0,29.3-0.1c1.5,0,3.4-0.8,4.5-1.8c16.6-16.4,33.1-33,49.6-49.5c1.3-1.3,1.7-2.4,1.2-4.3
		c-1.2-4.5,1.2-9.2,5.3-11.5c4-2.2,9.2-1.5,12.6,1.8c3.3,3.3,4.1,8.6,1.8,12.8c-2.2,4-6.9,6.3-11.3,5.1c-2.3-0.6-3.6,0-5.2,1.6
		c-16.9,17-33.8,33.8-50.7,50.8c-1.7,1.7-3.4,2.4-5.7,2.3c-9.5-0.1-19-0.1-28.5,0c-1.4,0-3.2,0.8-4.2,1.8
		c-8.2,8-16.4,16.1-24.4,24.4c-2,2.1-4.1,2.9-6.9,2.8c-11.6-0.1-23.2-0.1-34.8-0.1C429.4,152.5,427.8,151.1,426.7,145.6z M596.6,53
		c-3,0.1-5.5,2.7-5.4,5.6c0.1,3,2.6,5.5,5.6,5.4c2.9,0,5.5-2.7,5.5-5.6C602.3,55.6,599.5,52.9,596.6,53z"/>
	<path d="M270.3,226.4c-5.7,0-11.4,0.1-17.1-0.1c-2.3-0.1-3.9,0.8-5.4,2.4c-7.9,8-15.9,15.9-23.7,23.9c-2.1,2.2-4.3,3.2-7.3,3.1
		c-9.2-0.2-18.5-0.2-27.7,0c-1.5,0-3.4,0.8-4.5,1.8c-16.7,16.5-33.2,33.1-49.8,49.7c-1.2,1.2-1.5,2.2-1.1,3.8c1.2,4.6-1,9.3-5,11.6
		c-4.2,2.3-9.4,1.6-12.8-1.7c-3.3-3.3-4.1-8.4-1.8-12.5c2.3-4.2,7.1-6.6,11.7-5.3c2.2,0.6,3.3-0.1,4.7-1.4
		c16.9-17,33.9-33.9,50.9-51c1.6-1.6,3.2-2.3,5.5-2.3c9.4,0.1,18.8,0,28.3,0.1c2,0,3.6-0.6,5-2c8.4-8.5,16.9-17,25.4-25.3
		c0.9-0.9,2.5-1.6,3.7-1.6c13-0.1,26.1-0.1,39.1,0c0.9,0,2.5,0.8,2.7,1.5c0.4,1.6,0.1,3.4-0.1,5c0,0.2-1.5,0.4-2.2,0.4
		C282.4,226.4,276.3,226.4,270.3,226.4z M123.4,307.9c-3,0-5.6,2.5-5.7,5.4c-0.1,2.9,2.6,5.6,5.5,5.7c3,0,5.6-2.5,5.6-5.4
		C128.8,310.6,126.3,308,123.4,307.9z"/>
	<path d="M293.9,145.6c-1.3,2.4-2.1,4.2-3.2,5.9c-0.4,0.6-1.5,1-2.3,1c-13.3,0.1-26.6,0.1-40,0c-1.2,0-2.5-0.9-3.4-1.8
		c-8.5-8.3-16.9-16.7-25.2-25.2c-1.4-1.4-2.8-2-4.8-2c-9.4,0.1-18.8,0-28.3,0.1c-2.3,0-4.1-0.6-5.7-2.3
		c-17-17.1-34.1-34.1-51.1-51.2c-1.3-1.3-2.3-1.8-4.2-1.3c-4.7,1.3-9.5-0.9-11.8-5.1c-2.3-4.2-1.6-9.4,1.8-12.8
		c3.3-3.3,8.4-4,12.6-1.7c4.2,2.2,6.4,7,5.2,11.7c-0.4,1.7,0,2.7,1.2,3.8c16.7,16.6,33.3,33.3,50,49.9c1,0.9,2.7,1.6,4,1.6
		c9.8,0.1,19.6,0,29.4,0.2c1.5,0,3.4,0.8,4.4,1.8c8.4,8.2,16.6,16.4,24.8,24.8c1.8,1.9,3.8,2.7,6.5,2.7c12.1-0.1,24.3-0.1,36.4-0.1
		C291.2,145.6,292.2,145.6,293.9,145.6z M128.8,58.5c0.1-3-2.4-5.5-5.5-5.6c-2.8-0.1-5.5,2.6-5.6,5.5c-0.1,2.8,2.7,5.6,5.5,5.6
		C126.2,64.1,128.7,61.6,128.8,58.5z"/>
	<path d="M451.7,219.5c6.2,0,12.3,0.1,18.5,0c2.2,0,3.7,0.7,5.2,2.2c8.1,8.3,16.4,16.4,24.5,24.7c1.5,1.5,3.1,2.2,5.3,2.2
		c9.4-0.1,18.8,0,28.3-0.1c2.1,0,3.7,0.6,5.3,2.1c17,17.1,34.1,34.1,51.1,51.2c1.4,1.4,2.6,2,4.7,1.4c4.5-1.3,9.2,1,11.5,5.1
		c2.3,4.1,1.6,9.3-1.6,12.6c-3.4,3.5-8.5,4.2-12.8,1.9c-4.1-2.2-6.4-7-5.2-11.5c0.5-1.9,0-3-1.3-4.3c-16.5-16.4-33-32.9-49.4-49.4
		c-1.4-1.4-2.8-2-4.8-2c-9.7,0.1-19.4,0-29.1,0.1c-2,0-3.4-0.6-4.8-2c-8.5-8.7-17.1-17.3-25.7-25.8c-0.9-0.9-2.5-1.4-3.8-1.5
		c-11.8-0.1-23.6-0.1-35.3,0c-2.2,0-3.7-0.1-3.5-3c0.2-3.5,0.4-3.9,3.6-4C438.8,219.5,445.3,219.5,451.7,219.5z M602.3,313.6
		c0.1-2.9-2.6-5.5-5.5-5.6c-3-0.1-5.6,2.5-5.6,5.4c0,3,2.5,5.6,5.4,5.6C599.5,319.1,602.2,316.4,602.3,313.6z"/>
	<path d="M215.3,200.8c-21.7,0-43.3,0-65,0c-2.2,0-3.7,0.6-5.2,2.2c-9.2,9.3-18.5,18.6-27.9,27.9c-1.1,1.1-1.4,2-1,3.6
		c1.3,5-0.7,9.7-4.9,12.1c-4.1,2.3-9.1,1.7-12.6-1.6c-3.4-3.2-4.3-8.4-2.2-12.5c2.2-4.4,6.8-6.6,11.9-5.5c1.8,0.4,2.9-0.2,4-1.4
		c10-10,20-20,30-30c1.4-1.4,2.8-2,4.8-2c44,0,88.1,0,132.1,0c3.5,0,5.6,2.8,4.5,6.2c-0.1,0.4-0.9,0.8-1.4,1
		c-0.8,0.2-1.6,0.1-2.4,0.1C258.4,200.8,236.8,200.8,215.3,200.8z M111.5,237.3c0.1-3.1-2.3-5.5-5.4-5.5c-3.1,0-5.4,2.2-5.4,5.4
		c0,3,2.1,5.3,5.2,5.4C109.1,242.7,111.4,240.5,111.5,237.3z"/>
	<path d="M213.5,178.4c-21.9,0-43.8,0-65.8,0c-2.4,0-4-0.7-5.7-2.4c-9.8-9.9-19.7-19.7-29.5-29.6c-1.3-1.3-2.5-1.7-4.3-1.3
		c-4.8,1-9.3-1.2-11.6-5.6c-2.1-3.9-1.1-9.3,2.2-12.5c3.4-3.2,8.3-3.9,12.3-1.7c4.2,2.3,6.5,7,5.2,11.7c-0.5,2-0.1,3.1,1.3,4.5
		c9.2,9.1,18.4,18.2,27.5,27.5c1.5,1.6,3.1,2.1,5.2,2.1c43.2,0,86.4,0,129.6,0c1.3,0,3.6,0.5,3.6,0.8c0,1.9-0.2,4-0.9,5.8
		c-0.2,0.6-2.1,0.7-3.2,0.7C257.5,178.4,235.5,178.4,213.5,178.4z M111.5,134.7c0-3.1-2.6-5.6-5.6-5.5c-3.1,0.1-5.4,2.6-5.3,5.8
		c0.1,3.1,2.3,5.3,5.4,5.2C109.2,140.2,111.5,137.9,111.5,134.7z"/>
	<path d="M506.6,178.4c-22,0-44,0-66,0c-3.3,0-5.6-3.3-4.3-6.3c0.2-0.4,0.9-0.8,1.5-0.9c0.9-0.1,1.8-0.1,2.7-0.1
		c43,0,86.1,0,129.1,0c2.3,0,3.9-0.6,5.5-2.2c9.2-9.3,18.4-18.5,27.7-27.7c1.2-1.2,1.4-2.2,1-3.8c-1.4-5.5,1.6-11,6.6-12.8
		c5.3-1.8,11,0.5,13.3,5.5c2.3,4.8,0.6,11-4.1,13.5c-2.2,1.1-5,1.6-7.5,1.4c-2.1-0.1-3.3,0.2-4.7,1.6c-9.8,9.9-19.7,19.7-29.5,29.6
		c-1.5,1.5-2.9,2.1-5,2.1C550.7,178.5,528.7,178.5,506.6,178.4C506.6,178.5,506.6,178.4,506.6,178.4z M619.3,134.8
		c0-3.2-2.3-5.6-5.3-5.7c-2.9,0-5.5,2.6-5.5,5.6c0,3.1,2.4,5.5,5.5,5.4C617.1,140.2,619.3,137.9,619.3,134.8z"/>
	<path d="M506.6,193.6c21.7,0,43.5,0,65.2-0.1c2.6,0,4.5,0.7,6.4,2.6c9.6,9.8,19.3,19.4,28.9,29.1c1.3,1.4,2.6,2.1,4.7,1.6
		c4.7-1.1,9.4,1.4,11.5,5.7c2,4.2,1.1,9.2-2.3,12.5c-3.3,3.1-8.3,3.8-12.3,1.6c-4.2-2.3-6.4-7.1-5.1-11.8c0.5-1.9,0.1-3-1.2-4.3
		c-9.3-9.3-18.6-18.5-27.9-27.9c-1.4-1.4-2.9-1.9-4.8-1.9c-43.1,0-86.2,0-129.4,0c-0.9,0-1.8,0-2.7,0c-0.4,0-1.2-0.3-1.2-0.4
		c0-1.9,0-3.7,0.4-5.5c0.1-0.6,1.5-1.2,2.3-1.2c2.3-0.2,4.5-0.1,6.8-0.1C466.2,193.6,486.4,193.6,506.6,193.6z M619.4,237.3
		c0-3.2-2.3-5.5-5.4-5.5c-3.1,0-5.3,2.3-5.4,5.3c-0.1,3,2.4,5.7,5.3,5.8C616.8,242.9,619.3,240.3,619.4,237.3z"/>
	<path d="M454.1,94.1c-0.4,0.2-0.9,0.4-1.1,0.8c-3.2,4.7-7.7,5.6-13.2,5.4c-7.9-0.4-15.9-0.1-23.9-0.1c-1.9,0-3.4,0.5-4.8,1.9
		c-4.3,4.5-8.9,8.8-13.2,13.3c-1.5,1.6-2.8,2.3-4.9,0.9c-1.1-0.8-2.4-1.2-4.1-1.9c1.8-1.8,3.3-3.4,4.8-4.9
		c4.9-4.9,9.8-9.9,14.8-14.8c1-0.9,2.6-1.6,4-1.6c8.9-0.1,17.7-0.3,26.6,0c4.5,0.2,7.6-1.4,10-4.9l0,0c2.9-2.9,5.8-5.8,8.7-8.7l0,0
		c2.5-2.4,5-4.7,7.3-7.2c0.6-0.7,0.8-2.1,0.6-3.1c-0.8-4.4,0.4-8.1,4-10.8c3.5-2.7,7.5-3.1,11.5-0.9c3.9,2.1,5.8,5.6,5.6,10.1
		c-0.3,6.3-6.6,11.1-12.8,9.6c-2-0.5-3.3-0.2-4.7,1.3C464.2,83.6,459.1,88.9,454.1,94.1L454.1,94.1z M476.2,61.1
		c-2.9,0-5.5,2.6-5.6,5.5c-0.1,2.9,2.6,5.6,5.5,5.6c3,0,5.5-2.5,5.6-5.5C481.7,63.8,479.1,61.2,476.2,61.1z"/>
	<path d="M273,281.7c-1.5,1.5-2.9,2.9-4.4,4.4l0,0c-1.5,1.5-2.9,2.9-4.4,4.4l0,0c-2.9,2.9-5.8,5.8-8.7,8.7l0,0
		c-1.5,0.9-1.9,2-1.4,3.8c1.3,4.5-1.1,9.4-5.2,11.7c-4.1,2.2-9.2,1.5-12.5-1.7c-3.4-3.4-4.2-8.6-1.9-12.7c2.4-4.3,7-6.4,11.7-5.3
		c1.2,0.3,2.6,1.3,3.4-0.7c0,0,0,0,0,0c5.7-5.5,11.7-10.6,16.8-16.5c4-4.6,8.3-6.4,14.3-6c7.8,0.5,15.8,0.2,23.6,0
		c1.4,0,3.2-0.8,4.2-1.7c4.4-4.1,8.8-8.4,12.9-12.9c1.9-2.1,3.6-2.7,6-1.1c0.9,0.6,1.9,1,3.3,1.7c-1.4,1.5-2.6,2.9-3.9,4.2
		c-5.1,5.1-10.2,10.3-15.5,15.3c-1,1-2.8,1.7-4.2,1.8c-9.6,0.2-19.2,0.2-28.8,0C276.1,279,274.2,279.6,273,281.7L273,281.7z
		 M249.4,305.3c0-2.9-2.7-5.5-5.6-5.5c-2.8,0-5.3,2.4-5.4,5.4c-0.1,2.9,2.5,5.7,5.4,5.7C246.7,310.9,249.4,308.2,249.4,305.3z"/>
	<path d="M389.2,257.6c2-0.9,3.8-1.9,5.7-2.5c0.7-0.2,1.8,0.6,2.5,1.2c4.6,4.5,9.2,9,13.6,13.6c1.4,1.4,2.8,2,4.8,2
		c9.6-0.1,19.2,0,28.8-0.1c2.1,0,3.6,0.6,5,2.1c6.5,6.7,13.2,13.2,19.7,19.8c1.3,1.3,2.4,1.7,4.3,1.2c5.9-1.6,11.8,2.4,12.9,8.5
		c1.1,6-3.4,11.8-9.7,12.4c-5.8,0.5-11.3-4.3-11.5-10.2c0-0.5-0.1-1,0.1-1.3c1.3-3-0.2-4.8-2.2-6.7c-5.7-5.5-11.1-11.2-16.8-16.6
		c-1.1-1-2.9-1.8-4.5-1.9c-9.8-0.2-19.6,0-29.4-0.1c-1.2,0-2.8-0.4-3.6-1.2c-6.4-6.2-12.7-12.6-19.1-19
		C389.7,258.6,389.6,258.3,389.2,257.6z M476.2,299.8c-2.9-0.1-5.6,2.5-5.6,5.4c-0.1,2.8,2.6,5.6,5.4,5.7c2.9,0,5.5-2.6,5.6-5.5
		C481.7,302.4,479.2,299.9,476.2,299.8z"/>
	<path d="M261.6,78.9c4.3,4.3,8.5,8.7,12.8,12.9c0.8,0.7,2.3,1,3.4,1.1c9.8,0.1,19.6,0,29.3,0.1c1.5,0,3.3,0.8,4.4,1.9
		c5.7,5.4,11.2,11.1,16.8,16.6c0.8,0.8,1.5,1.6,2.6,2.7c-2.2,1-3.9,2-5.9,2.6c-0.7,0.2-1.9-0.5-2.5-1.1c-4.3-4.2-8.6-8.3-12.7-12.7
		c-2.1-2.3-4.3-3.1-7.4-3c-9.1,0.2-18.1,0-27.2,0.1c-2.2,0-3.7-0.7-5.2-2.2c-6.6-6.7-13.2-13.4-20-19.9c-0.8-0.8-2.4-1.2-3.5-1
		c-6.3,1.2-12-2.1-13.3-8.1c-1.2-5.6,2.6-11.3,8.4-12.6c5.8-1.2,11.3,2.6,12.5,8.8c0.2,0.9,0.4,1.9,0.1,2.7
		c-1.2,2.9,0.1,4.7,2.2,6.5C258.4,75.7,260,77.3,261.6,78.9L261.6,78.9z M238.4,66.7c0,3,2.6,5.6,5.5,5.5c3-0.1,5.6-2.6,5.5-5.5
		c0-2.9-2.7-5.6-5.6-5.5C240.9,61.1,238.3,63.8,238.4,66.7z"/>
	<path d="M454,94.1C454,94.1,454.1,94.1,454,94.1C454.1,94.1,454,94.1,454,94.1z"/>
	<path d="M267.6,275.7L267.6,275.7L267.6,275.7z"/>
	<path d="M267.6,275.7C267.6,275.7,267.6,275.7,267.6,275.7C267.6,275.7,267.6,275.7,267.6,275.7z"/>
	<path d="M273,281.7C273,281.7,273,281.7,273,281.7C273,281.7,273,281.7,273,281.7z"/>
	<path d="M264.3,290.4C264.3,290.4,264.3,290.4,264.3,290.4C264.3,290.4,264.3,290.4,264.3,290.4z"/>
	<path d="M249.6,293.6L249.6,293.6L249.6,293.6z"/>
	<path d="M249.6,293.6c0,0.2,0,0.4,0,0.6c0,0,0,0,0,0C249.6,294,249.6,293.8,249.6,293.6C249.6,293.6,249.6,293.6,249.6,293.6z"/>
	<path d="M449.2,88.1C449.2,88.1,449.2,88.1,449.2,88.1C449.2,88.1,449.2,88.1,449.2,88.1z"/>
	<path d="M457.9,79.4C457.9,79.4,457.9,79.4,457.9,79.4C457.9,79.4,457.9,79.4,457.9,79.4z"/>
	<path d="M255.6,299.1C255.6,299.1,255.6,299.1,255.6,299.1C255.6,299.1,255.6,299.1,255.6,299.1z"/>
	<path d="M261.6,78.9C261.6,78.9,261.6,78.9,261.6,78.9C261.6,78.9,261.6,78.9,261.6,78.9z"/>
	<path d="M257.8,51.2L257.8,51.2L257.8,51.2z"/>
	<path d="M257.8,51.2C257.8,51.2,257.8,51.2,257.8,51.2C257.8,51.2,257.8,51.2,257.8,51.2z"/>
	<path d="M262.1,55.5L262.1,55.5L262.1,55.5z"/>
	<path d="M262.1,55.5C262.1,55.5,262.1,55.5,262.1,55.5C262.1,55.5,262.1,55.5,262.1,55.5z"/>
	<path d="M461.7,265.4c0-0.2,0-0.4,0-0.5c0,0,0,0,0,0C461.7,265,461.7,265.2,461.7,265.4C461.7,265.4,461.7,265.4,461.7,265.4z"/>
	<path d="M268.6,286C268.6,286,268.7,286,268.6,286C268.7,286,268.6,286,268.6,286z"/>
	<path d="M462.2,265.4c-0.2,0-0.4,0-0.5,0c0,0,0,0,0,0C461.8,265.4,462,265.4,462.2,265.4L462.2,265.4z"/>
	<path d="M458.4,110.4C458.4,110.4,458.4,110.4,458.4,110.4C458.4,110.4,458.4,110.4,458.4,110.4z"/>
</g>
</svg>
