<?xml version="1.0" encoding="utf-8"?>
<!-- Generator: Adobe Illustrator 24.2.1, SVG Export Plug-In . SVG Version: 6.00 Build 0)  -->
<svg version="1.1" id="Layer_1" xmlns="http://www.w3.org/2000/svg" xmlns:xlink="http://www.w3.org/1999/xlink" x="0px" y="0px"
	 viewBox="0 0 443 500" style="enable-background:new 0 0 443 500;" xml:space="preserve">
<style type="text/css">
	.st0{fill:#F5F5F5;}
	.st1{fill:#E0E0E0;}
	.st2{fill:#455A64;}
	.st3{opacity:0.3;fill:#FFFFFF;enable-background:new    ;}
	.st4{fill:#37474F;}
	.st5{opacity:0.1;fill:#FFFFFF;enable-background:new    ;}
	.st6{opacity:0.2;enable-background:new    ;}
	.st7{fill:#D90A2C;}
	.st8{opacity:0.3;enable-background:new    ;}
	.st9{opacity:0.2;}
	.st10{fill:#FFFFFF;}
	.st11{opacity:0.1;enable-background:new    ;}
	.st12{opacity:0.5;fill:#FFFFFF;enable-background:new    ;}
	.st13{opacity:0.4;enable-background:new    ;}
	.st14{opacity:0.3;}
	.st15{fill:#263238;}
	.st16{opacity:0.6;fill:#FFFFFF;enable-background:new    ;}
	.st17{opacity:0.3;fill:#D90A2C;enable-background:new    ;}
	.st18{opacity:0.4;fill:#FFFFFF;enable-background:new    ;}
	.st19{opacity:0.5;enable-background:new    ;}
	.st20{fill:none;}
	.st21{opacity:0.2;fill:#FFFFFF;enable-background:new    ;}
	.st22{opacity:0.5;}
</style>
<g id="freepik--Floor--inject-13">
	<path class="st0" d="M366.5,251.3c-80.3-52.7-210-52.7-289.8,0s-79.3,138,0.9,190.7s210,52.7,289.8,0S446.8,304,366.5,251.3z"/>
</g>
<g id="freepik--Shadows--inject-13">
	<path class="st1" d="M206.6,417l56.7,32.7c6.2,3.6,13.9,3.6,20.1,0l45.3-26.3c2.4-1.4,3.2-4.4,1.8-6.8c-0.4-0.8-1.1-1.4-1.8-1.8
		l-59.1-34.1L206.6,417z"/>
	<path class="st1" d="M59.1,354.9l119.5,68.9c5.1,2.9,11.3,2.9,16.4,0l190.8-110.2c2.5-1.5,3.4-4.7,2-7.2c-0.5-0.8-1.1-1.5-2-2
		l-123-71.1L59.1,350.8c-1.1,0.6-1.5,2.1-0.9,3.2C58.4,354.4,58.7,354.6,59.1,354.9z"/>
	<path class="st1" d="M140.4,386.1l9,5.2L108.3,415c-1.2,0.7-2.8,0.7-4,0l-4-2.3c-1-0.5-1.3-1.8-0.7-2.7c0.2-0.3,0.4-0.6,0.7-0.7
		L140.4,386.1z"/>
</g>
<g id="freepik--device-2--inject-13">
	<path class="st2" d="M58,337c-0.1-1.4,0.7-2.9,2.6-4l187.7-108.4c4-2,8.7-2,12.7,0l119.2,69.3c1.4,0.7,2.4,2,2.6,3.5c0,0,0,0,0,0.1
		v11.3c0.1,1.4-0.8,2.8-2.6,3.8L192.4,421c-4,2-8.7,2-12.7,0L60.6,351.8c-1.4-0.6-2.4-2-2.6-3.5l0,0L58,337L58,337z"/>
	<path class="st3" d="M380.2,301.3L192.4,409.7c-4,2-8.7,2-12.7,0L60.6,340.4c-1.3-0.6-2.3-1.9-2.6-3.4c-0.1-1.4,0.7-2.9,2.6-4
		l187.7-108.4c4-2,8.7-2,12.7,0l119.2,69.3c1.4,0.7,2.4,2,2.6,3.5c0,0,0,0,0,0.1v0.2C382.8,299,381.9,300.3,380.2,301.3z"/>
	<path class="st4" d="M252.8,258.3c-0.4,0.2-0.7,0.6-0.5,1.1c0.1,0.2,0.3,0.4,0.5,0.5l7.8,4.5c0.8,0.4,1.8,0.4,2.7,0l23.5-13.6
		c0.7-0.4,0.8-1.1,0-1.6l-7.8-4.5c-0.8-0.4-1.8-0.4-2.7,0L252.8,258.3z"/>
	<path class="st4" d="M255.8,242.6c-0.4,0.1-0.7,0.6-0.5,1c0.1,0.2,0.3,0.4,0.5,0.5l7.8,4.5c0.8,0.4,1.8,0.4,2.7,0l8.4-4.9
		c0.4-0.1,0.7-0.6,0.5-1c-0.1-0.2-0.3-0.4-0.5-0.5l-7.8-4.5c-0.8-0.4-1.8-0.4-2.7,0L255.8,242.6z"/>
	<path class="st4" d="M242.7,250.1c-0.7,0.4-0.8,1.1,0,1.6l7.8,4.5c0.8,0.4,1.8,0.4,2.7,0l8.4-4.9c0.4-0.1,0.7-0.6,0.5-1
		c-0.1-0.2-0.3-0.4-0.5-0.5l-7.8-4.5c-0.8-0.4-1.8-0.4-2.7,0L242.7,250.1z"/>
	<path class="st4" d="M190.4,280.4c-0.4,0.1-0.7,0.6-0.5,1c0.1,0.2,0.3,0.4,0.5,0.5l7.8,4.5c0.8,0.4,1.8,0.4,2.7,0l8.4-4.9
		c0.7-0.4,0.8-1.1,0-1.5l-7.8-4.5c-0.8-0.4-1.8-0.4-2.7,0L190.4,280.4z"/>
	<path class="st4" d="M177.3,287.9c-0.4,0.1-0.7,0.6-0.5,1c0.1,0.2,0.3,0.4,0.5,0.5l7.8,4.5c0.8,0.4,1.8,0.4,2.7,0l8.4-4.9
		c0.4-0.1,0.7-0.6,0.5-1c-0.1-0.2-0.3-0.4-0.5-0.5l-7.8-4.5c-0.8-0.4-1.8-0.4-2.7,0L177.3,287.9z"/>
	<path class="st4" d="M168.5,282.8c-0.4,0.1-0.7,0.6-0.5,1c0.1,0.2,0.3,0.4,0.5,0.5l4.5,2.6c0.8,0.4,1.8,0.4,2.7,0l8.4-4.9
		c0.4-0.1,0.7-0.6,0.5-1c-0.1-0.2-0.3-0.4-0.5-0.5l-4.5-2.6c-0.8-0.4-1.8-0.4-2.7,0L168.5,282.8z"/>
	<path class="st4" d="M181.6,275.3c-0.4,0.1-0.7,0.6-0.5,1c0.1,0.2,0.3,0.4,0.5,0.5l4.5,2.6c0.8,0.4,1.8,0.4,2.7,0l8.4-4.9
		c0.4-0.1,0.7-0.6,0.5-1c-0.1-0.2-0.3-0.4-0.5-0.5l-4.5-2.6c-0.8-0.4-1.8-0.4-2.7,0L181.6,275.3z"/>
	<path class="st4" d="M194.6,267.7c-0.4,0.1-0.7,0.6-0.5,1c0.1,0.2,0.3,0.4,0.5,0.5l4.5,2.6c0.8,0.4,1.8,0.4,2.7,0l8.4-4.9
		c0.4-0.1,0.7-0.6,0.5-1c-0.1-0.2-0.3-0.4-0.5-0.5l-4.5-2.6c-0.8-0.4-1.8-0.4-2.7,0L194.6,267.7z"/>
	<path class="st4" d="M219.4,291.6c-0.4,0.1-0.7,0.6-0.5,1c0.1,0.2,0.3,0.4,0.5,0.5l7.8,4.5c0.8,0.4,1.8,0.4,2.7,0l8.4-4.9
		c0.4-0.1,0.7-0.6,0.5-1c-0.1-0.2-0.3-0.4-0.5-0.5l-7.8-4.5c-0.8-0.4-1.8-0.4-2.7,0L219.4,291.6z"/>
	<path class="st4" d="M201.1,288.2c-0.4,0.1-0.7,0.6-0.5,1c0.1,0.2,0.3,0.4,0.5,0.5l7.8,4.5c0.8,0.4,1.8,0.4,2.7,0l8.4-4.9
		c0.4-0.1,0.7-0.6,0.5-1c-0.1-0.2-0.3-0.4-0.5-0.5l-7.8-4.5c-0.8-0.4-1.8-0.4-2.7,0L201.1,288.2z"/>
	<path class="st4" d="M76.8,335.7c-0.7,0.4-0.8,1.1,0,1.5l4.5,2.6c0.8,0.4,1.8,0.4,2.7,0l8.4-4.9c0.4-0.1,0.7-0.6,0.5-1
		c-0.1-0.2-0.3-0.4-0.5-0.5l-4.4-2.6c-0.8-0.4-1.8-0.4-2.7,0L76.8,335.7z"/>
	<path class="st4" d="M266.1,294c-0.7,0.4-0.8,1.1,0,1.5l7.8,4.5c0.8,0.4,1.8,0.4,2.7,0l8.4-4.9c0.7-0.4,0.8-1.1,0-1.5l-7.8-4.5
		c-0.8-0.4-1.8-0.4-2.7,0L266.1,294z"/>
	<path class="st4" d="M187.5,339.4c-0.4,0.1-0.7,0.6-0.5,1c0.1,0.2,0.3,0.4,0.5,0.5l7.8,4.5c0.8,0.4,1.8,0.4,2.7,0l8.4-4.9
		c0.7-0.4,0.8-1.1,0-1.5l-7.8-4.5c-0.8-0.4-1.8-0.4-2.7,0L187.5,339.4z"/>
	<path class="st4" d="M155.4,290.4c-0.7,0.4-0.8,1.1,0,1.5l4.5,2.6c0.8,0.4,1.8,0.4,2.7,0l8.4-4.9c0.7-0.4,0.8-1.1,0-1.5l-4.5-2.6
		c-0.8-0.4-1.8-0.4-2.7,0L155.4,290.4z"/>
	<path class="st4" d="M89.9,328.2c-0.4,0.1-0.7,0.6-0.5,1c0.1,0.2,0.3,0.4,0.5,0.5l4.5,2.6c0.8,0.4,1.8,0.4,2.7,0l8.4-4.9
		c0.4-0.1,0.7-0.6,0.5-1c-0.1-0.2-0.3-0.4-0.5-0.5l-4.5-2.6c-0.8-0.4-1.8-0.4-2.7,0L89.9,328.2z"/>
	<path class="st4" d="M227,273.3c-0.4,0.1-0.7,0.6-0.5,1c0.1,0.2,0.3,0.4,0.5,0.5l7.8,4.5c0.8,0.4,1.8,0.4,2.7,0l8.4-4.9
		c0.7-0.4,0.8-1.1,0-1.5l-7.8-4.5c-0.8-0.4-1.8-0.4-2.7,0L227,273.3z"/>
	<path class="st4" d="M214,280.7c-0.4,0.1-0.7,0.6-0.5,1c0.1,0.2,0.3,0.4,0.5,0.5l7.8,4.5c0.8,0.4,1.8,0.4,2.7,0l8.4-4.9
		c0.4-0.1,0.7-0.6,0.5-1c-0.1-0.2-0.3-0.4-0.5-0.5l-7.8-4.5c-0.8-0.4-1.8-0.4-2.7,0L214,280.7z"/>
	<path class="st4" d="M232.1,284.3c-0.4,0.1-0.7,0.6-0.5,1c0.1,0.2,0.3,0.4,0.5,0.5l7.8,4.5c0.8,0.4,1.8,0.4,2.7,0l8.4-4.9
		c0.7-0.4,0.8-1.1,0-1.5l-7.8-4.5c-0.8-0.4-1.8-0.4-2.7,0L232.1,284.3z"/>
	<path class="st4" d="M305.3,271.4c-0.4,0.1-0.7,0.6-0.5,1c0.1,0.2,0.3,0.4,0.5,0.5l7.8,4.5c0.8,0.4,1.8,0.4,2.7,0l8.4-4.9
		c0.7-0.4,0.8-1.1,0-1.5l-7.8-4.5c-0.8-0.4-1.8-0.4-2.7,0L305.3,271.4z"/>
	<path class="st4" d="M292.2,278.9c-0.4,0.1-0.7,0.6-0.5,1c0.1,0.2,0.3,0.4,0.5,0.5l7.8,4.5c0.8,0.4,1.8,0.4,2.7,0l8.4-4.9
		c0.7-0.4,0.8-1.1,0-1.5l-7.8-4.5c-0.8-0.4-1.8-0.4-2.7,0L292.2,278.9z"/>
	<g>
		<path class="st4" d="M257.5,269.6c-0.4,0.1-0.7,0.6-0.5,1c0.1,0.2,0.3,0.4,0.5,0.5l7.8,4.5c0.8,0.4,1.8,0.4,2.7,0l8.4-4.9
			c0.7-0.4,0.7-1.1,0-1.5l-7.8-4.5c-0.8-0.4-1.8-0.4-2.7,0L257.5,269.6z"/>
		<path class="st4" d="M276.9,273.1c-0.4,0.1-0.7,0.6-0.5,1c0.1,0.2,0.3,0.4,0.5,0.5l7.8,4.5c0.8,0.4,1.8,0.4,2.7,0l24.2-14
			c0.7-0.4,0.8-1.1,0-1.5l-7.8-4.5c-0.8-0.4-1.8-0.4-2.7,0L276.9,273.1z"/>
		<path class="st4" d="M244.8,276.9c-0.4,0.1-0.7,0.6-0.5,1c0.1,0.2,0.3,0.4,0.5,0.5l7.8,4.5c0.8,0.4,1.8,0.4,2.7,0l8.4-4.9
			c0.4-0.1,0.7-0.6,0.5-1c-0.1-0.2-0.3-0.4-0.5-0.5l-7.8-4.5c-0.8-0.4-1.8-0.4-2.7,0L244.8,276.9z"/>
		<path class="st4" d="M263.9,280.6c-0.4,0.1-0.7,0.6-0.5,1c0.1,0.2,0.3,0.4,0.5,0.5l7.8,4.5c0.8,0.4,1.8,0.4,2.7,0l8.4-4.9
			c0.7-0.4,0.8-1.1,0-1.5l-7.8-4.5c-0.8-0.4-1.8-0.4-2.7,0L263.9,280.6z"/>
		<path class="st4" d="M251.2,287.9c-0.4,0.2-0.7,0.6-0.5,1.1c0.1,0.2,0.3,0.4,0.5,0.5l7.8,4.5c0.8,0.4,1.8,0.4,2.7,0l8.4-4.9
			c0.7-0.4,0.8-1.1,0-1.5l-7.8-4.5c-0.8-0.4-1.8-0.4-2.7,0L251.2,287.9z"/>
	</g>
	<path class="st4" d="M270.6,262c-0.4,0.2-0.7,0.6-0.5,1.1c0.1,0.2,0.3,0.4,0.5,0.5l7.8,4.5c0.8,0.4,1.8,0.4,2.7,0l17.8-10.3
		c0.4-0.1,0.7-0.6,0.5-1c-0.1-0.2-0.3-0.4-0.5-0.5l-7.8-4.5c-0.8-0.4-1.8-0.4-2.7,0L270.6,262z"/>
	<path class="st4" d="M239.9,265.8c-0.4,0.1-0.7,0.6-0.5,1c0.1,0.2,0.3,0.4,0.5,0.5l7.8,4.5c0.8,0.4,1.8,0.4,2.7,0l8.4-4.9
		c0.7-0.4,0.8-1.1,0-1.5l-7.8-4.5c-0.8-0.4-1.8-0.4-2.7,0L239.9,265.8z"/>
	<path class="st4" d="M174.4,346.9c-0.4,0.1-0.7,0.6-0.5,1c0.1,0.2,0.3,0.4,0.5,0.5l7.8,4.5c0.8,0.4,1.8,0.4,2.7,0l8.4-4.9
		c0.4-0.1,0.7-0.6,0.5-1c-0.1-0.2-0.3-0.4-0.5-0.5l-7.8-4.5c-0.8-0.4-1.8-0.4-2.7,0L174.4,346.9z"/>
	<path class="st4" d="M166.5,358.1c-0.7,0.4-0.8,1.1,0,1.5l2.1,1.2c0.8,0.4,1.8,0.4,2.7,0l9.2-5.3c0.4-0.1,0.7-0.6,0.5-1
		c-0.1-0.2-0.3-0.4-0.5-0.5l-2.1-1.2c-0.8-0.4-1.8-0.4-2.7,0L166.5,358.1z"/>
	<path class="st4" d="M149.7,346.5c-0.4,0.1-0.7,0.6-0.5,1c0.1,0.2,0.3,0.4,0.5,0.5l7.8,4.5c0.8,0.4,1.8,0.4,2.7,0l8.4-4.9
		c0.4-0.1,0.7-0.6,0.5-1c-0.1-0.2-0.3-0.4-0.5-0.5l-7.8-4.5c-0.8-0.4-1.8-0.4-2.7,0L149.7,346.5z"/>
	<path class="st4" d="M109.8,354.9c-0.4,0.1-0.7,0.6-0.5,1c0.1,0.2,0.3,0.4,0.5,0.5l7.8,4.6c0.8,0.4,1.8,0.4,2.7,0l16.5-9.5
		c0.4-0.1,0.7-0.6,0.5-1c-0.1-0.2-0.3-0.4-0.5-0.5l-7.8-4.6c-0.8-0.4-1.8-0.4-2.7,0L109.8,354.9z"/>
	<path class="st4" d="M122.5,362.2c-0.4,0.1-0.7,0.6-0.5,1c0.1,0.2,0.3,0.4,0.5,0.5l7.8,4.5c0.8,0.4,1.8,0.4,2.7,0l22.9-13.2
		c0.7-0.4,0.8-1.1,0-1.5l-7.8-4.5c-0.8-0.4-1.8-0.4-2.7,0L122.5,362.2z"/>
	<path class="st4" d="M130.6,342.9c-0.4,0.1-0.7,0.6-0.5,1c0.1,0.2,0.3,0.4,0.5,0.5l7.8,4.5c0.8,0.4,1.8,0.4,2.7,0l8.4-4.9
		c0.4-0.1,0.7-0.6,0.5-1c-0.1-0.2-0.3-0.4-0.5-0.5l-7.8-4.5c-0.8-0.4-1.8-0.4-2.7,0L130.6,342.9z"/>
	<path class="st4" d="M162.4,339.2c-0.4,0.1-0.7,0.6-0.5,1c0.1,0.2,0.3,0.4,0.5,0.5l7.8,4.5c0.8,0.4,1.8,0.4,2.7,0l8.4-4.9
		c0.4-0.1,0.7-0.6,0.5-1c-0.1-0.2-0.3-0.4-0.5-0.5l-7.8-4.5c-0.8-0.4-1.8-0.4-2.7,0L162.4,339.2z"/>
	<path class="st4" d="M143.3,335.5c-0.4,0.1-0.7,0.6-0.5,1c0.1,0.2,0.3,0.4,0.5,0.5l7.8,4.5c0.8,0.4,1.8,0.4,2.7,0l8.4-4.9
		c0.4-0.1,0.7-0.6,0.5-1c-0.1-0.2-0.3-0.4-0.5-0.5l-7.8-4.5c-0.8-0.4-1.8-0.4-2.7,0L143.3,335.5z"/>
	<path class="st4" d="M175.1,331.9c-0.4,0.2-0.7,0.6-0.5,1.1c0.1,0.2,0.3,0.4,0.5,0.5l7.8,4.5c0.8,0.4,1.8,0.4,2.7,0l8.4-4.9
		c0.7-0.4,0.8-1.1,0-1.5l-7.8-4.6c-0.8-0.4-1.8-0.4-2.7,0L175.1,331.9z"/>
	<path class="st4" d="M156,328.2c-0.4,0.1-0.7,0.6-0.5,1c0.1,0.2,0.3,0.4,0.5,0.5l7.8,4.5c0.8,0.4,1.8,0.4,2.7,0l8.4-4.9
		c0.8-0.4,0.8-1.1,0-1.5l-7.8-4.5c-0.8-0.4-1.8-0.4-2.7,0L156,328.2z"/>
	<path class="st4" d="M238.5,295.3c-0.4,0.1-0.7,0.6-0.5,1c0.1,0.2,0.3,0.4,0.5,0.5l7.8,4.5c0.8,0.4,1.8,0.4,2.7,0l8.4-4.9
		c0.4-0.1,0.7-0.6,0.5-1c-0.1-0.2-0.3-0.4-0.5-0.5l-7.8-4.5c-0.8-0.4-1.8-0.4-2.7,0L238.5,295.3z"/>
	<path class="st4" d="M203.5,272.8c-0.4,0.1-0.7,0.6-0.5,1c0.1,0.2,0.3,0.4,0.5,0.5l7.8,4.5c0.8,0.4,1.8,0.4,2.7,0l8.4-4.9
		c0.7-0.4,0.8-1.1,0-1.5l-7.8-4.5c-0.8-0.4-1.8-0.4-2.7,0L203.5,272.8z"/>
	<path class="st4" d="M279.1,286.5c-0.4,0.2-0.6,0.6-0.5,1.1c0.1,0.2,0.3,0.4,0.5,0.5l7.8,4.5c0.8,0.4,1.8,0.4,2.7,0l8.4-4.9
		c0.4-0.1,0.7-0.6,0.5-1c-0.1-0.2-0.3-0.4-0.5-0.5l-7.8-4.5c-0.8-0.4-1.8-0.4-2.7,0L279.1,286.5z"/>
	<path class="st4" d="M153.7,365.5c-0.4,0.1-0.7,0.6-0.5,1c0.1,0.2,0.3,0.4,0.5,0.5l2.1,1.2c0.8,0.4,1.8,0.4,2.7,0l9.2-5.3
		c0.4-0.1,0.7-0.6,0.5-1c-0.1-0.2-0.3-0.4-0.5-0.5l-2.1-1.2c-0.8-0.4-1.8-0.4-2.7,0L153.7,365.5z"/>
	<path class="st4" d="M140.9,372.9c-0.4,0.1-0.7,0.6-0.5,1c0.1,0.2,0.3,0.4,0.5,0.5l2.1,1.2c0.8,0.4,1.8,0.4,2.7,0l9.2-5.3
		c0.4-0.1,0.7-0.6,0.5-1c-0.1-0.2-0.3-0.4-0.5-0.5l-2.1-1.2c-0.8-0.4-1.8-0.4-2.7,0L140.9,372.9z"/>
	<path class="st4" d="M148,362.2c-0.7,0.4-0.8,1.1,0,1.5l2.1,1.2c0.8,0.4,1.8,0.4,2.7,0l9.2-5.3c0.7-0.4,0.8-1.1,0-1.5l-2.1-1.2
		c-0.8-0.4-1.8-0.4-2.7,0L148,362.2z"/>
	<path class="st4" d="M273.9,310.9l33.3,19.4c0.8,0.5,1.1,1.5,0.6,2.3c-0.1,0.3-0.4,0.5-0.6,0.6l-55.9,32.3c-1.3,0.8-2.9,0.8-4.2,0
		L213.8,346c-0.8-0.5-1.1-1.5-0.6-2.3c0.1-0.3,0.4-0.5,0.6-0.6l55.9-32.3C271,310.1,272.6,310.1,273.9,310.9z"/>
	<path class="st5" d="M192.4,409.7l187.7-108.4c1.7-1,2.6-2.3,2.6-3.6v11.1c0.1,1.4-0.8,2.8-2.6,3.8L192.4,421
		c-1.8,1-3.8,1.5-5.8,1.5v-11.3C188.6,411.1,190.6,410.6,192.4,409.7z"/>
	<path class="st6" d="M58,337c0.3,1.5,1.2,2.7,2.6,3.4l119.2,69.3c2.1,1.1,4.5,1.6,6.9,1.5v11.4c-2.4,0.1-4.7-0.4-6.9-1.5
		L60.6,351.8c-1.4-0.6-2.4-2-2.6-3.5l0,0L58,337L58,337z"/>
	<path class="st4" d="M267.7,366.5v1.5c0,2,1.4,2.8,3.2,1.8L300,353c1.9-1.2,3-3.2,3.1-5.4V346L267.7,366.5z"/>
	<path class="st4" d="M56.3,169.4L244.4,60.7c1.8-1,4-1,5.8,0l0,0l4,2.6l0,0c1.6,1,2.6,2.8,2.6,4.7v143.6c0,5.3-2.8,10.2-7.4,12.8
		L61.2,333.2c-1.8,1.1-4.1,1-5.9-0.1l0,0l-3.9-2.6l0,0c-1.5-1.1-2.5-2.8-2.4-4.7V182.1C49,176.9,51.8,172,56.3,169.4z"/>
	<path class="st7" d="M244.2,215.7c1.4-0.8,2.3-2.3,2.3-3.9V76L65.2,180.7c-1.4,0.8-2.3,2.3-2.3,3.9v135.8L244.2,215.7z"/>
	<path class="st8" d="M244.2,215.7c1.4-0.8,2.3-2.3,2.3-3.9V76L65.2,180.7c-1.4,0.8-2.3,2.3-2.3,3.9v135.8L244.2,215.7z"/>
	<path class="st5" d="M244.2,215.7c1.4-0.8,2.3-2.3,2.3-3.9V76L65.2,180.7c-1.4,0.8-2.3,2.3-2.3,3.9v135.8L244.2,215.7z"/>
	<path class="st3" d="M56.3,169.4L244.4,60.7c1.8-1,4-1,5.8,0l0,0l4,2.6l0,0c-1.8-1.2-4.1-1.3-6-0.2L60.1,171.8
		c-2.7,1.6-4.9,4-6.2,6.9l-3.9-2.2C51.3,173.5,53.5,171,56.3,169.4z"/>
	<path class="st5" d="M53.9,178.8c-0.8,1.9-1.2,3.9-1.2,5.9v143.7c0,2,1,3.8,2.7,4.8l0,0l-3.9-2.6l0,0c-1.5-1.1-2.5-2.8-2.4-4.7
		V182.1c0-1.9,0.4-3.8,1.1-5.6L53.9,178.8z"/>
	<path class="st4" d="M220.8,252.6c-0.7,0.4-0.8,1.1,0,1.6l4.5,2.6c0.8,0.4,1.8,0.4,2.7,0l8.4-4.9c0.7-0.4,0.8-1.1,0-1.6l-4.5-2.6
		c-0.8-0.4-1.8-0.4-2.7,0L220.8,252.6z"/>
	<path class="st4" d="M229.6,257.7c-0.7,0.4-0.8,1.1,0,1.5l7.8,4.5c0.8,0.4,1.8,0.4,2.7,0l8.4-4.9c0.4-0.1,0.7-0.6,0.5-1
		c-0.1-0.2-0.3-0.4-0.5-0.5l-7.8-4.5c-0.8-0.4-1.8-0.4-2.7,0L229.6,257.7z"/>
	<path class="st4" d="M207.7,260.1c-0.4,0.1-0.7,0.6-0.5,1c0.1,0.2,0.3,0.4,0.5,0.5l4.5,2.6c0.8,0.4,1.8,0.4,2.7,0l8.4-4.9
		c0.4-0.1,0.7-0.6,0.5-1c-0.1-0.2-0.3-0.4-0.5-0.5l-4.5-2.6c-0.8-0.4-1.8-0.4-2.7,0L207.7,260.1z"/>
	<path class="st4" d="M216.6,265.3c-0.4,0.1-0.7,0.6-0.5,1c0.1,0.2,0.3,0.4,0.5,0.5l7.8,4.5c0.8,0.4,1.8,0.4,2.7,0l8.4-4.9
		c0.7-0.4,0.8-1.1,0-1.5l-7.8-4.5c-0.8-0.4-1.8-0.4-2.7,0L216.6,265.3z"/>
	<path class="st4" d="M247,237.5c-0.4,0.1-0.7,0.6-0.5,1c0.1,0.2,0.3,0.4,0.5,0.5l4.5,2.6c0.8,0.4,1.8,0.4,2.7,0l8.4-4.9
		c0.4-0.1,0.7-0.6,0.5-1c-0.1-0.2-0.3-0.4-0.5-0.5l-4.5-2.6c-0.8-0.4-1.8-0.4-2.7,0L247,237.5z"/>
	<path class="st4" d="M233.9,245c-0.7,0.4-0.8,1.1,0,1.6l4.5,2.6c0.8,0.4,1.8,0.4,2.7,0l8.4-4.9c0.7-0.4,0.8-1.1,0-1.6l-4.5-2.6
		c-0.8-0.4-1.8-0.4-2.7,0L233.9,245z"/>
	<path class="st4" d="M164.2,295.5c-0.7,0.4-0.8,1.1,0,1.5l7.8,4.5c0.8,0.4,1.8,0.4,2.7,0l8.4-4.9c0.4-0.1,0.7-0.6,0.5-1
		c-0.1-0.2-0.3-0.4-0.5-0.5l-7.8-4.5c-0.8-0.4-1.8-0.4-2.7,0L164.2,295.5z"/>
	<path class="st4" d="M188.2,295.6c-0.4,0.1-0.7,0.6-0.5,1c0.1,0.2,0.3,0.4,0.5,0.5l7.8,4.5c0.8,0.4,1.8,0.4,2.7,0l8.4-4.9
		c0.4-0.1,0.7-0.6,0.5-1c-0.1-0.2-0.3-0.4-0.5-0.5l-7.8-4.5c-0.8-0.4-1.8-0.4-2.7,0L188.2,295.6z"/>
	<path class="st4" d="M142.3,297.9c-0.7,0.4-0.8,1.1,0,1.5l4.5,2.6c0.8,0.4,1.8,0.4,2.7,0l8.4-4.9c0.7-0.4,0.8-1.1,0-1.5l-4.5-2.6
		c-0.8-0.4-1.8-0.4-2.7,0L142.3,297.9z"/>
	<path class="st4" d="M206.8,298.9c-0.4,0.1-0.7,0.6-0.5,1c0.1,0.2,0.3,0.4,0.5,0.5l7.8,4.5c0.8,0.4,1.8,0.4,2.7,0l8.4-4.9
		c0.4-0.1,0.7-0.6,0.5-1c-0.1-0.2-0.3-0.4-0.5-0.5l-7.8-4.5c-0.8-0.4-1.8-0.4-2.7,0L206.8,298.9z"/>
	<path class="st4" d="M225.8,302.6c-0.4,0.1-0.7,0.6-0.5,1c0.1,0.2,0.3,0.4,0.5,0.5l7.8,4.5c0.8,0.4,1.8,0.4,2.7,0l8.4-4.9
		c0.7-0.4,0.8-1.1,0-1.5l-7.8-4.5c-0.8-0.4-1.8-0.4-2.7,0L225.8,302.6z"/>
	<path class="st4" d="M151.1,303c-0.7,0.4-0.8,1.1,0,1.5l7.8,4.5c0.8,0.4,1.8,0.4,2.7,0l8.4-4.9c0.4-0.1,0.7-0.6,0.5-1
		c-0.1-0.2-0.3-0.4-0.5-0.5l-7.8-4.5c-0.8-0.4-1.8-0.4-2.7,0L151.1,303z"/>
	<path class="st4" d="M175.3,303.1c-0.4,0.1-0.7,0.6-0.5,1c0.1,0.2,0.3,0.4,0.5,0.5l7.8,4.5c0.8,0.4,1.8,0.4,2.7,0l8.4-4.9
		c0.4-0.1,0.7-0.6,0.5-1c-0.1-0.2-0.3-0.4-0.5-0.5l-7.8-4.5c-0.8-0.4-1.8-0.4-2.7,0L175.3,303.1z"/>
	<path class="st4" d="M129.2,305.5c-0.7,0.4-0.7,1.1,0,1.5l4.5,2.6c0.8,0.4,1.8,0.4,2.7,0l8.4-4.9c0.4-0.1,0.7-0.6,0.5-1
		c-0.1-0.2-0.3-0.4-0.5-0.5l-4.5-2.6c-0.8-0.4-1.8-0.4-2.7,0L129.2,305.5z"/>
	<path class="st4" d="M194.1,306.2c-0.4,0.1-0.7,0.6-0.5,1c0.1,0.2,0.3,0.4,0.5,0.5l7.8,4.5c0.8,0.4,1.8,0.4,2.7,0l8.4-4.9
		c0.8-0.4,0.8-1.1,0-1.5l-7.8-4.5c-0.8-0.4-1.8-0.4-2.7,0L194.1,306.2z"/>
	<path class="st4" d="M213.1,309.9c-0.4,0.2-0.7,0.6-0.5,1.1c0.1,0.2,0.3,0.4,0.5,0.5l7.8,4.5c0.8,0.4,1.8,0.4,2.7,0l8.4-4.9
		c0.7-0.4,0.8-1.1,0-1.5l-7.8-4.5c-0.8-0.4-1.8-0.4-2.7,0L213.1,309.9z"/>
	<path class="st4" d="M138,310.6c-0.4,0.1-0.7,0.6-0.5,1c0.1,0.2,0.3,0.4,0.5,0.5l7.8,4.5c0.8,0.4,1.8,0.4,2.7,0l8.4-4.9
		c0.7-0.4,0.8-1.1,0-1.5l-7.8-4.5c-0.8-0.4-1.8-0.4-2.7,0L138,310.6z"/>
	<path class="st4" d="M162.4,310.5c-0.4,0.1-0.7,0.6-0.5,1c0.1,0.2,0.3,0.4,0.5,0.5l7.8,4.5c0.8,0.4,1.8,0.4,2.7,0l8.4-4.9
		c0.8-0.4,0.8-1.1,0-1.5l-7.8-4.5c-0.8-0.4-1.8-0.4-2.7,0L162.4,310.5z"/>
	<path class="st4" d="M181.4,313.6c-0.4,0.1-0.7,0.6-0.5,1c0.1,0.2,0.3,0.4,0.5,0.5l7.8,4.5c0.8,0.4,1.8,0.4,2.7,0l8.4-4.9
		c0.4-0.1,0.7-0.6,0.5-1c-0.1-0.2-0.3-0.4-0.5-0.5l-7.8-4.5c-0.8-0.4-1.8-0.4-2.7,0L181.4,313.6z"/>
	<path class="st4" d="M200.4,317.2c-0.4,0.1-0.7,0.6-0.5,1c0.1,0.2,0.3,0.4,0.5,0.5l7.8,4.5c0.8,0.4,1.8,0.4,2.7,0l8.4-4.9
		c0.4-0.1,0.7-0.6,0.5-1c-0.1-0.2-0.3-0.4-0.5-0.5l-7.8-4.5c-0.8-0.4-1.8-0.4-2.7,0L200.4,317.2z"/>
	<path class="st4" d="M149.4,318c-0.4,0.1-0.7,0.6-0.5,1c0.1,0.2,0.3,0.4,0.5,0.5l7.8,4.5c0.8,0.4,1.8,0.4,2.7,0l8.4-4.9
		c0.7-0.4,0.8-1.1,0-1.5l-7.8-4.5c-0.8-0.4-1.8-0.4-2.7,0L149.4,318z"/>
	<path class="st4" d="M124.9,318.2c-0.4,0.1-0.7,0.6-0.5,1c0.1,0.2,0.3,0.4,0.5,0.5l7.8,4.5c0.8,0.4,1.8,0.4,2.7,0l8.4-4.9
		c0.7-0.4,0.8-1.1,0-1.5l-7.8-4.5c-0.8-0.4-1.8-0.4-2.7,0L124.9,318.2z"/>
	<path class="st4" d="M168.7,320.9c-0.4,0.1-0.7,0.6-0.5,1c0.1,0.2,0.3,0.4,0.5,0.5l7.8,4.5c0.8,0.4,1.8,0.4,2.7,0l8.4-4.9
		c0.4-0.1,0.7-0.6,0.5-1c-0.1-0.2-0.3-0.4-0.5-0.5l-7.8-4.5c-0.8-0.4-1.8-0.4-2.7,0L168.7,320.9z"/>
	<path class="st4" d="M187.8,324.6c-0.4,0.1-0.7,0.6-0.5,1c0.1,0.2,0.3,0.4,0.5,0.5l7.8,4.5c0.8,0.4,1.8,0.4,2.7,0l8.4-4.9
		c0.7-0.4,0.8-1.1,0-1.5l-7.8-4.5c-0.8-0.4-1.8-0.4-2.7,0L187.8,324.6z"/>
	<path class="st4" d="M136.5,325.5c-0.4,0.2-0.7,0.6-0.5,1.1c0.1,0.2,0.3,0.4,0.5,0.5l7.8,4.5c0.8,0.4,1.8,0.4,2.7,0l8.4-4.9
		c0.4-0.1,0.7-0.6,0.5-1c-0.1-0.2-0.3-0.4-0.5-0.5l-7.8-4.5c-0.8-0.4-1.8-0.4-2.7,0L136.5,325.5z"/>
	<path class="st4" d="M111.8,325.7c-0.4,0.1-0.7,0.6-0.5,1c0.1,0.2,0.3,0.4,0.5,0.5l7.8,4.5c0.8,0.4,1.8,0.4,2.7,0l8.4-4.9
		c0.7-0.4,0.8-1.1,0-1.5l-7.8-4.5c-0.8-0.4-1.8-0.4-2.7,0L111.8,325.7z"/>
	<path class="st4" d="M200.6,331.8c-0.4,0.1-0.7,0.6-0.5,1c0.1,0.2,0.3,0.4,0.5,0.5l7.8,4.5c0.8,0.4,1.8,0.4,2.7,0l60.8-35.1
		c0.4-0.1,0.7-0.6,0.5-1c-0.1-0.2-0.3-0.4-0.5-0.5l-7.8-4.5c-0.8-0.4-1.8-0.4-2.7,0L200.6,331.8z"/>
	<path class="st4" d="M123.6,332.9c-0.4,0.2-0.7,0.6-0.5,1.1c0.1,0.2,0.3,0.4,0.5,0.5l7.8,4.5c0.8,0.4,1.8,0.4,2.7,0l8.4-4.9
		c0.7-0.4,0.8-1.1,0-1.5l-7.8-4.5c-0.8-0.4-1.8-0.4-2.7,0L123.6,332.9z"/>
	<path class="st4" d="M110.7,340.4c-0.4,0.2-0.7,0.6-0.5,1.1c0.1,0.2,0.3,0.4,0.5,0.5l7.8,4.5c0.8,0.4,1.8,0.4,2.7,0l8.4-4.9
		c0.4-0.1,0.7-0.6,0.5-1c-0.1-0.2-0.3-0.4-0.5-0.5l-7.8-4.5c-0.8-0.4-1.8-0.4-2.7,0L110.7,340.4z"/>
	<path class="st4" d="M85.7,340.8c-0.7,0.4-0.8,1.1,0,1.5l7.8,4.5c0.8,0.4,1.8,0.4,2.7,0l21.5-12.4c0.4-0.1,0.7-0.6,0.5-1
		c-0.1-0.2-0.3-0.4-0.5-0.5l-7.8-4.5c-0.8-0.4-1.8-0.4-2.7,0L85.7,340.8z"/>
	<path class="st4" d="M97.7,347.9c-0.4,0.2-0.7,0.6-0.5,1.1c0.1,0.2,0.3,0.4,0.5,0.5l7.8,4.5c0.8,0.4,1.8,0.4,2.7,0l8.4-4.9
		c0.4-0.1,0.7-0.6,0.5-1c-0.1-0.2-0.3-0.4-0.5-0.5l-7.8-4.5c-0.8-0.4-1.8-0.4-2.7,0L97.7,347.9z"/>
	<path class="st4" d="M116.1,313c-0.4,0.1-0.7,0.6-0.5,1c0.1,0.2,0.3,0.4,0.5,0.5l4.5,2.6c0.8,0.4,1.8,0.4,2.7,0l8.4-4.9
		c0.4-0.1,0.7-0.6,0.5-1c-0.1-0.2-0.3-0.4-0.5-0.5l-4.5-2.6c-0.8-0.4-1.8-0.4-2.7,0L116.1,313z"/>
	<path class="st4" d="M103,320.6c-0.4,0.1-0.7,0.6-0.5,1c0.1,0.2,0.3,0.4,0.5,0.5l4.5,2.6c0.8,0.4,1.8,0.4,2.7,0l8.4-4.9
		c0.4-0.1,0.7-0.6,0.5-1c-0.1-0.2-0.3-0.4-0.5-0.5l-4.5-2.6c-0.8-0.4-1.8-0.4-2.7,0L103,320.6z"/>
</g>
<g id="freepik--Screen--inject-13">
	<path class="st0" d="M287.3,76.8l0.4,137.4c-0.1,2.7-1.6,5.2-3.9,6.7L90.6,332.4v4.4l-4.7-3l0,0l-0.1-0.1l0,0
		c-0.7-0.6-1.1-1.5-1-2.4l-0.4-143.3l4.9,3.1L287.3,76.8z"/>
	<path class="st7" d="M88.2,175.4L283.3,62.7c0.9-0.7,2.1-0.7,3-0.1l0,0l4.6,2.9l-3.7,2.1v9.2L89.2,191.2l-4.9-3.1v-6
		C84.4,179.4,85.9,176.9,88.2,175.4z"/>
	<path class="st0" d="M89.2,191.2l0.4,143.3c0,2.5,1.8,3.5,3.9,2.2L288.6,224c2.3-1.5,3.7-4,3.9-6.7L292.1,74L89.2,191.2z"/>
	<path class="st0" d="M286.5,70c-1,0.7-1.7,1.8-1.7,3c0,1.1,0.8,1.5,1.7,1c1-0.7,1.7-1.8,1.7-3C288.2,69.9,287.4,69.5,286.5,70z"/>
	<path class="st0" d="M281.5,72.9c-1,0.7-1.7,1.8-1.7,3c0,1.1,0.8,1.5,1.7,1c1-0.6,1.6-1.7,1.7-2.9
		C283.3,72.8,282.5,72.3,281.5,72.9z"/>
	<path class="st0" d="M276.6,75.8c-1,0.7-1.7,1.8-1.7,3c0,1.1,0.8,1.5,1.7,1c1-0.6,1.6-1.7,1.7-2.9
		C278.3,75.6,277.5,75.2,276.6,75.8z"/>
	<path class="st7" d="M288.2,65.8c2.2-1.3,3.9-0.3,3.9,2.2v6l-203,117.2v-6c0.1-2.7,1.6-5.2,3.9-6.7L288.2,65.8z M281.6,76.8
		c1-0.6,1.6-1.7,1.7-2.9c0-1.1-0.8-1.5-1.7-1c-1,0.7-1.7,1.8-1.7,3C279.8,76.9,280.6,77.4,281.6,76.8 M276.6,79.7
		c1-0.6,1.6-1.7,1.7-2.9c0-1.1-0.8-1.5-1.7-1c-1,0.7-1.7,1.8-1.7,3C274.8,79.9,275.6,80.3,276.6,79.7 M286.5,74c1-0.7,1.7-1.8,1.7-3
		c0-1.1-0.8-1.5-1.7-1c-1,0.7-1.7,1.8-1.7,3C284.8,74.1,285.6,74.5,286.5,74"/>
	<g class="st9">
		<path class="st10" d="M288.2,65.8c2.2-1.3,3.9-0.3,3.9,2.2v6l-203,117.2v-6c0.1-2.7,1.6-5.2,3.9-6.7L288.2,65.8z M281.6,76.8
			c1-0.6,1.6-1.7,1.7-2.9c0-1.1-0.8-1.5-1.7-1c-1,0.7-1.7,1.8-1.7,3C279.8,76.9,280.6,77.4,281.6,76.8 M276.6,79.7
			c1-0.6,1.6-1.7,1.7-2.9c0-1.1-0.8-1.5-1.7-1c-1,0.7-1.7,1.8-1.7,3C274.8,79.9,275.6,80.3,276.6,79.7 M286.5,74
			c1-0.7,1.7-1.8,1.7-3c0-1.1-0.8-1.5-1.7-1c-1,0.7-1.7,1.8-1.7,3C284.8,74.1,285.6,74.5,286.5,74"/>
	</g>
	<path class="st11" d="M89.6,334.4c-0.1,0.9,0.3,1.8,1,2.4l0,0l-4.7-3l0,0l-0.1-0.1l0,0c-0.7-0.6-1.1-1.5-1-2.4l-0.4-143.3l4.9,3.1
		L89.6,334.4z"/>
	<path class="st12" d="M88.2,175.4L283.3,62.7c0.9-0.7,2.1-0.7,3-0.1l0,0l4.6,2.9c-0.9-0.4-1.9-0.3-2.7,0.3L93,178.5
		c-2.3,1.5-3.7,4-3.9,6.7v6l-4.9-3.1v-6C84.4,179.4,85.8,176.9,88.2,175.4z"/>
	<path class="st7" d="M243,138.6l7.2,14.7l-5.7,3.3l-1.1-2.7l-6.2,3.6l-1.1,3.9l-5.6,3.3l7.1-23L243,138.6z M238.7,152.2l3.2-1.9
		l-1.6-3.8L238.7,152.2"/>
	<path class="st7" d="M223.6,149.4c1.9-1.2,4-1.9,6.2-1.9l-1.7,5.5c-1.6,0-3.2,0.4-4.6,1.3c-1.6,0.9-2.1,1.8-2.1,2.4
		c0,2.3,9.1-4.9,9.1,2.1c0,3.5-2.5,7.8-7.6,10.8c-2.7,1.6-5.5,2.4-7.2,2.2l1.8-5.7c1.9,0.1,3.8-0.4,5.4-1.4c1.6-0.9,2.1-1.6,2.1-2.3
		c0-2.4-9.1,4.8-9.1-2.3C215.9,156.7,218.5,152.3,223.6,149.4z"/>
	<polygon class="st7" points="256.6,130.8 256.6,144.7 264.1,140.4 264.1,145.4 251.1,152.9 251.1,134 	"/>
	<polygon class="st7" points="278.9,117.9 278.9,122.7 271,127.2 271,129.5 278,125.4 278,130 271,134 271,136.5 279.3,131.8 
		279.3,136.6 265.6,144.5 265.6,125.6 	"/>
	<path class="st7" d="M229.4,195.5c1.9-0.3,3,0.7,3,2.9c0,3.3-2.4,6.5-6.9,9.1l-9.2,5.3l-0.1-18.7l8.7-5c4.5-2.6,6.6-1.7,6.6,1.1
		C231.5,192.2,230.7,194.1,229.4,195.5z M225.1,203.4c1-0.4,1.7-1.4,1.8-2.5c0-1-0.6-1.1-1.8-0.4l-3.3,1.9v2.9L225.1,203.4
		 M221.7,195.4v2.8l2.6-1.5c1-0.4,1.7-1.4,1.8-2.4c0-0.9-0.6-1.1-1.8-0.4L221.7,195.4"/>
	<polygon class="st7" points="247.6,176.1 247.6,180.8 239.7,185.4 239.8,187.6 246.6,183.6 246.7,188.1 239.8,192.1 239.8,194.6 
		247.9,189.9 247.9,194.6 234.4,202.4 234.3,183.7 	"/>
	<path class="st7" d="M256.8,170.3c1.8-1.2,4-1.9,6.2-1.9l-1.6,5.5c-1.6,0-3.2,0.4-4.5,1.2c-1.6,0.9-2.1,1.8-2.1,2.4
		c0,2.3,9-4.8,9,2.1c0,3.4-2.5,7.8-7.6,10.7c-2.7,1.6-5.5,2.4-7.1,2.2l1.8-5.6c1.9,0.1,3.8-0.4,5.4-1.4c1.5-0.9,2.1-1.6,2.1-2.2
		c0-2.4-9,4.7-9-2.3C249.2,177.5,251.8,173.2,256.8,170.3z"/>
	<polygon class="st7" points="278.9,158 278.9,162.9 274.1,165.6 274.2,179.5 268.7,182.6 268.6,168.8 263.9,171.6 263.8,166.7 	"/>
	<path class="st7" d="M221,215.3c2.3-1.3,3.8-0.8,3.8,1.4c-0.1,2.4-1.6,4.6-3.7,5.7l-1.2,0.7v2.3L217,227v-9.4L221,215.3z
		 M220.8,220.1c0.7-0.3,1.1-1,1.1-1.8c0-0.7-0.4-0.9-1.1-0.5l-1,0.6v2.2L220.8,220.1"/>
	<path class="st7" d="M231.8,215.6l1.7,1.9l-3,1.7l-1.4-1.6l-0.8,0.4v2.4l-2.8,1.6v-9.4l4-2.3c2.3-1.3,3.8-0.8,3.8,1.4
		C233.3,213.2,232.7,214.5,231.8,215.6z M229.4,215.1c0.7-0.3,1.1-1,1.1-1.8c0-0.7-0.4-0.9-1.1-0.4l-1,0.6v2.2L229.4,215.1"/>
	<path class="st7" d="M238.7,204.9c2.7-1.6,4.6-0.6,4.7,2.3c-0.2,3.2-1.9,6-4.6,7.6c-2.7,1.6-4.6,0.6-4.6-2.3
		C234.2,209.3,235.9,206.5,238.7,204.9z M238.7,212.2c1.2-0.7,1.9-2,1.8-3.4c0-1.5-0.8-1.9-1.8-1.3c-1.2,0.7-1.9,2-1.8,3.4
		C236.8,212.3,237.7,212.8,238.7,212.2"/>
	<path class="st7" d="M248.4,199.5c2.8-1.6,4.6-0.9,4.7,2.1c-0.1,3.1-1.9,5.9-4.6,7.4l-4.1,2.3v-9.4L248.4,199.5z M248.3,206.5
		c1.2-0.7,2-2,2-3.4c0-1.4-0.8-1.8-2-1.1l-1.2,0.7v4.5L248.3,206.5"/>
	<path class="st7" d="M262,191.6v5.2c0,2.8-1.5,5.4-4,6.8c-2.5,1.5-4,0.7-4-2.2v-5.2l2.8-1.6v5.1c0,1.4,0.5,1.7,1.3,1.3
		c0.9-0.6,1.4-1.6,1.3-2.7v-5.1L262,191.6z"/>
	<path class="st7" d="M267.5,188.2c1.6-0.9,2.9-1,3.7-0.2l-1.7,2.8c-0.5-0.5-1.3-0.5-1.8-0.1c-1.2,0.7-1.9,2.1-1.9,3.5
		c0,1.4,0.8,1.9,1.9,1.3c0.8-0.5,1.4-1.3,1.8-2.1l1.8,0.8c-0.8,1.7-2.1,3.1-3.7,4c-2.6,1.5-4.6,0.6-4.6-2.3
		C263.1,192.7,264.8,189.8,267.5,188.2z"/>
	<polygon class="st7" points="278.9,181.9 278.9,184.3 276.5,185.7 276.5,192.7 273.7,194.3 273.7,187.3 271.3,188.7 271.3,186.2 	
		"/>
	<g class="st9">
		<path class="st10" d="M243,138.6l7.2,14.7l-5.7,3.3l-1.1-2.7l-6.2,3.6l-1.1,3.9l-5.6,3.3l7.1-23L243,138.6z M238.7,152.2l3.2-1.9
			l-1.6-3.8L238.7,152.2"/>
		<path class="st10" d="M223.6,149.4c1.9-1.2,4-1.9,6.2-1.9l-1.7,5.5c-1.6,0-3.2,0.4-4.6,1.3c-1.6,0.9-2.1,1.8-2.1,2.4
			c0,2.3,9.1-4.9,9.1,2.1c0,3.5-2.5,7.8-7.6,10.8c-2.7,1.6-5.5,2.4-7.2,2.2l1.8-5.7c1.9,0.1,3.8-0.4,5.4-1.4
			c1.6-0.9,2.1-1.6,2.1-2.3c0-2.4-9.1,4.8-9.1-2.3C215.9,156.7,218.5,152.3,223.6,149.4z"/>
		<polygon class="st10" points="256.6,130.8 256.6,144.7 264.1,140.4 264.1,145.4 251.1,152.9 251.1,134 		"/>
		<polygon class="st10" points="278.9,117.9 278.9,122.7 271,127.2 271,129.5 278,125.4 278,130 271,134 271,136.5 279.3,131.8 
			279.3,136.6 265.6,144.5 265.6,125.6 		"/>
		<path class="st10" d="M229.4,195.5c1.9-0.3,3,0.7,3,2.9c0,3.3-2.4,6.5-6.9,9.1l-9.2,5.3l-0.1-18.7l8.7-5c4.5-2.6,6.6-1.7,6.6,1.1
			C231.5,192.2,230.7,194.1,229.4,195.5z M225.1,203.4c1-0.4,1.7-1.4,1.8-2.5c0-1-0.6-1.1-1.8-0.4l-3.3,1.9v2.9L225.1,203.4
			 M221.7,195.4v2.8l2.6-1.5c1-0.4,1.7-1.4,1.8-2.4c0-0.9-0.6-1.1-1.8-0.4L221.7,195.4"/>
		<polygon class="st10" points="247.6,176.1 247.6,180.8 239.7,185.4 239.8,187.6 246.6,183.6 246.7,188.1 239.8,192.1 239.8,194.6 
			247.9,189.9 247.9,194.6 234.4,202.4 234.3,183.7 		"/>
		<path class="st10" d="M256.8,170.3c1.8-1.2,4-1.9,6.2-1.9l-1.6,5.5c-1.6,0-3.2,0.4-4.5,1.2c-1.6,0.9-2.1,1.8-2.1,2.4
			c0,2.3,9-4.8,9,2.1c0,3.4-2.5,7.8-7.6,10.7c-2.7,1.6-5.5,2.4-7.1,2.2l1.8-5.6c1.9,0.1,3.8-0.4,5.4-1.4c1.5-0.9,2.1-1.6,2.1-2.2
			c0-2.4-9,4.7-9-2.3C249.2,177.5,251.8,173.2,256.8,170.3z"/>
		<polygon class="st10" points="278.9,158 278.9,162.9 274.1,165.6 274.2,179.5 268.7,182.6 268.6,168.8 263.9,171.6 263.8,166.7 		
			"/>
		<path class="st10" d="M221,215.3c2.3-1.3,3.8-0.8,3.8,1.4c-0.1,2.4-1.6,4.6-3.7,5.7l-1.2,0.7v2.3L217,227v-9.4L221,215.3z
			 M220.8,220.1c0.7-0.3,1.1-1,1.1-1.8c0-0.7-0.4-0.9-1.1-0.5l-1,0.6v2.2L220.8,220.1"/>
		<path class="st10" d="M231.8,215.6l1.7,1.9l-3,1.7l-1.4-1.6l-0.8,0.4v2.4l-2.8,1.6v-9.4l4-2.3c2.3-1.3,3.8-0.8,3.8,1.4
			C233.3,213.2,232.7,214.5,231.8,215.6z M229.4,215.1c0.7-0.3,1.1-1,1.1-1.8c0-0.7-0.4-0.9-1.1-0.4l-1,0.6v2.2L229.4,215.1"/>
		<path class="st10" d="M238.7,204.9c2.7-1.6,4.6-0.6,4.7,2.3c-0.2,3.2-1.9,6-4.6,7.6c-2.7,1.6-4.6,0.6-4.6-2.3
			C234.2,209.3,235.9,206.5,238.7,204.9z M238.7,212.2c1.2-0.7,1.9-2,1.8-3.4c0-1.5-0.8-1.9-1.8-1.3c-1.2,0.7-1.9,2-1.8,3.4
			C236.8,212.3,237.7,212.8,238.7,212.2"/>
		<path class="st10" d="M248.4,199.5c2.8-1.6,4.6-0.9,4.7,2.1c-0.1,3.1-1.9,5.9-4.6,7.4l-4.1,2.3v-9.4L248.4,199.5z M248.3,206.5
			c1.2-0.7,2-2,2-3.4c0-1.4-0.8-1.8-2-1.1l-1.2,0.7v4.5L248.3,206.5"/>
		<path class="st10" d="M262,191.6v5.2c0,2.8-1.5,5.4-4,6.8c-2.5,1.5-4,0.7-4-2.2v-5.2l2.8-1.6v5.1c0,1.4,0.5,1.7,1.3,1.3
			c0.9-0.6,1.4-1.6,1.3-2.7v-5.1L262,191.6z"/>
		<path class="st10" d="M267.5,188.2c1.6-0.9,2.9-1,3.7-0.2l-1.7,2.8c-0.5-0.5-1.3-0.5-1.8-0.1c-1.2,0.7-1.9,2.1-1.9,3.5
			c0,1.4,0.8,1.9,1.9,1.3c0.8-0.5,1.4-1.3,1.8-2.1l1.8,0.8c-0.8,1.7-2.1,3.1-3.7,4c-2.6,1.5-4.6,0.6-4.6-2.3
			C263.1,192.7,264.8,189.8,267.5,188.2z"/>
		<polygon class="st10" points="278.9,181.9 278.9,184.3 276.5,185.7 276.5,192.7 273.7,194.3 273.7,187.3 271.3,188.7 271.3,186.2 
					"/>
	</g>
</g>
<g id="freepik--Target--inject-13">
	<path class="st7" d="M123.5,37.4l1.1-1.8l-6.9-4.1l0,0c-5.8-3.4-13.8-2.9-22.6,2.2C77.6,43.8,63.4,68.3,63.5,88.5
		c0,9.7,3.4,16.6,8.8,20l0,0l0.4,0.3l0.2,0.1l6.7,4l1.1-1.9c4.4,0.1,9.3-1.3,14.6-4.3C112.8,96.5,127,71.9,127,51.8
		C126.9,45.9,125.7,41.1,123.5,37.4z"/>
	<path class="st8" d="M123.5,37.4l1.1-1.8l-6.9-4.1l0,0c-5.8-3.4-13.8-2.9-22.6,2.2C77.6,43.8,63.4,68.3,63.5,88.5
		c0,9.7,3.4,16.6,8.8,20l0,0l0.4,0.3l0.2,0.1l6.7,4l1.1-1.9c4.4,0.1,9.3-1.3,14.6-4.3C112.8,96.5,127,71.9,127,51.8
		C126.9,45.9,125.7,41.1,123.5,37.4z"/>
	
		<ellipse transform="matrix(0.5026 -0.8645 0.8645 0.5026 -13.9245 124.6975)" class="st7" cx="101.4" cy="74.4" rx="9.5" ry="5.5"/>
	<path class="st10" d="M101.9,44.8c14.1-8.1,25.5-1.6,25.6,14.6s-11.3,35.9-25.4,44s-25.5,1.6-25.6-14.6S87.8,53,101.9,44.8z
		 M102.1,96.3c10.6-6.1,19.3-21.1,19.2-33.3s-8.7-17.2-19.3-11S82.7,73,82.7,85.3S91.4,102.5,102.1,96.3"/>
	<path class="st7" d="M101.9,37.7c17.5-10.1,31.8-2,31.8,18.2s-14.1,44.7-31.7,54.8s-31.8,2-31.8-18.2S84.4,47.8,101.9,37.7z
		 M102.1,103.5c14.1-8.1,25.5-27.8,25.4-44S116,36.7,101.9,44.8s-25.5,27.8-25.4,44S88,111.6,102.1,103.5"/>
	<path class="st10" d="M102,59.2c7.2-4.2,13-0.8,13,7.5s-5.8,18.4-13,22.5s-13,0.8-13-7.4S94.8,63.3,102,59.2z M102,82
		c4-2.6,6.5-7,6.8-11.7c0-4.3-3.1-6-6.8-3.9c-4,2.6-6.5,7-6.8,11.7C95.2,82.4,98.3,84.1,102,82"/>
	<path class="st7" d="M101.9,52c10.6-6.1,19.3-1.2,19.3,11s-8.6,27.1-19.2,33.3s-19.3,1.2-19.3-11S91.3,58.2,101.9,52z M102,89.1
		c7.2-4.2,13-14.3,13-22.5s-5.9-11.6-13-7.4S89,73.4,89,81.7S94.9,93.3,102,89.1"/>
	<polygon class="st7" points="136.4,92.4 145.9,97.9 156.8,98.6 147.2,93.1 	"/>
	<polygon class="st7" points="136.4,92.4 136.4,93.7 145.9,99.2 145.9,97.9 	"/>
	<polygon class="st7" points="156.8,98.6 156.8,99.8 145.9,99.2 145.9,97.9 	"/>
	<g class="st9">
		<polygon points="136.4,92.4 145.9,97.9 156.8,98.6 147.2,93.1 		"/>
	</g>
	<polygon class="st13" points="136.4,92.4 136.4,93.7 145.9,99.2 145.9,97.9 	"/>
	<polygon class="st8" points="156.8,98.6 156.8,99.8 145.9,99.2 145.9,97.9 	"/>
	<path class="st2" d="M149.7,103.9l1.6-2.8l-48.3-28l0,0c-0.3-0.2-0.6-0.2-0.8,0c-0.7,0.4-1.1,1.2-1.1,2c0,0.3,0.1,0.6,0.3,0.7l0,0
		L149.7,103.9z"/>
	<path class="st2" d="M150.5,101.2c0.6-0.4,1.1-0.1,1.1,0.7c0,0.8-0.5,1.6-1.1,2c-0.6,0.4-1.1,0.1-1.1-0.7
		C149.4,102.4,149.8,101.6,150.5,101.2z"/>
	<g class="st14">
		<path class="st10" d="M150.5,101.2c0.6-0.4,1.1-0.1,1.1,0.7c0,0.8-0.5,1.6-1.1,2c-0.6,0.4-1.1,0.1-1.1-0.7
			C149.4,102.4,149.8,101.6,150.5,101.2z"/>
	</g>
	<polygon class="st7" points="134.4,93.6 135.5,99.8 145,105.4 143.9,99.1 	"/>
	<g class="st9">
		<polygon points="134.4,93.6 135.5,99.8 145,105.4 143.9,99.1 		"/>
	</g>
	<polygon class="st7" points="134.4,93.6 135.5,99.8 135.5,101.1 134.4,94.8 	"/>
	<polygon class="st7" points="145,105.4 145,106.6 135.5,101.1 135.5,99.8 	"/>
	<polygon class="st13" points="134.4,93.6 135.5,99.8 135.5,101.1 134.4,94.8 	"/>
	<polygon class="st8" points="145,105.4 145,106.6 135.5,101.1 135.5,99.8 	"/>
</g>
<g id="freepik--device-1--inject-13">
	<path class="st7" d="M186.4,191.5L186.4,191.5c-0.5-1.8-4.1-5.2-7.7-5.1c-0.3,0-0.7,0.1-1,0.2l-70,39.8c-2.1,1.2-3.4,3.4-3.4,5.8
		v151.5c0,3.9,4.4,7.5,8.6,5.8l0,0c0.1,0,0.2-0.1,0.3-0.1l70-39.9c2.1-1.2,3.4-3.4,3.4-5.8V192.2C186.5,192,186.5,191.7,186.4,191.5
		z"/>
	<path class="st3" d="M186.4,191.5L186.4,191.5c-0.5-1.8-4.1-5.2-7.7-5.1c-0.3,0-0.7,0.1-1,0.2l-70,39.8c-2.1,1.2-3.4,3.4-3.4,5.8
		v151.5c0,3.9,4.4,7.5,8.6,5.8l0,0c0.1,0,0.2-0.1,0.3-0.1l70-39.9c2.1-1.2,3.4-3.4,3.4-5.8V192.2C186.5,192,186.5,191.7,186.4,191.5
		z"/>
	<path class="st2" d="M114,248.3c0-1.2,0.6-2.3,1.7-2.9l65-37c0.8-0.5,1.8-0.2,2.3,0.6c0.1,0.3,0.2,0.5,0.2,0.8V332
		c0,1.2-0.6,2.3-1.7,2.9l-65,37c-0.8,0.5-1.8,0.2-2.3-0.6c-0.1-0.2-0.2-0.5-0.2-0.8L114,248.3z"/>
	<path class="st8" d="M104.2,232.3v151.5c0,3.9,4.4,7.5,8.6,5.8l0,0c-0.9,0.3-1.8-0.1-2.1-1c-0.1-0.2-0.1-0.4-0.1-0.6V236.4
		c0-1.3,0.4-2.6,1.1-3.7l-6.9-3.4C104.4,230.2,104.2,231.2,104.2,232.3z"/>
	<path class="st5" d="M178.6,186.4c-0.3,0-0.7,0.1-1,0.2l-70,39.8c-1.2,0.7-2.1,1.7-2.7,2.9l6.9,3.4c0.6-0.9,1.3-1.6,2.3-2.1
		l70-39.9c0.8-0.5,1.8-0.2,2.3,0.6c0,0,0,0.1,0.1,0.1l0,0C185.9,189.7,182.3,186.3,178.6,186.4z"/>
	<path class="st15" d="M157.2,215.8c0.5-0.3,0.9-0.1,0.9,0.5c0,0.6-0.4,1.2-0.9,1.6l-13.7,7.9c-0.5,0.3-0.9,0-0.9-0.5
		c0-0.6,0.4-1.2,0.9-1.5L157.2,215.8z"/>
	<path class="st15" d="M140,225.8c0.5-0.3,0.9-0.1,0.9,0.5c0,0.6-0.4,1.2-0.9,1.6c-0.5,0.3-0.9,0.1-0.9-0.5
		C139.1,226.7,139.5,226.1,140,225.8z"/>
	<path class="st15" d="M148.8,214.6c1-0.6,1.8-0.1,1.8,1c-0.1,1.2-0.7,2.4-1.8,3.1c-1,0.6-1.8,0.1-1.8-1
		C147,216.5,147.7,215.3,148.8,214.6z"/>
	<path class="st15" d="M148.8,357.3c2-1.2,3.6-0.2,3.6,2.1c-0.1,2.6-1.5,4.9-3.6,6.3c-2,1.1-3.7,0.2-3.7-2.1
		C145.3,361,146.6,358.6,148.8,357.3z"/>
</g>
<g id="freepik--Icons--inject-13">
	<path class="st7" d="M197.9,180.1L197.9,180.1l-2.1-1.1l0,0c-0.3-0.2-0.7-0.2-1-0.1l-36.9,21c-0.6,0.3-1,1-1,1.6v43.8
		c0,0.4,0.3,0.7,0.6,0.9l0,0l2.2,1.2l0,0c0.3,0.1,0.6,0.1,0.9,0l36.9-21c0.6-0.3,1-1,1-1.6v-43.8
		C198.4,180.5,198.2,180.2,197.9,180.1z"/>
	<path class="st16" d="M197.9,180.1L197.9,180.1l-2.1-1.1l0,0c-0.3-0.2-0.7-0.2-1-0.1l-36.9,21c-0.6,0.3-1,1-1,1.6v43.8
		c0,0.4,0.3,0.7,0.6,0.9l0,0l2.2,1.2l0,0c0.3,0.1,0.6,0.1,0.9,0l36.9-21c0.6-0.3,1-1,1-1.6v-43.8
		C198.4,180.5,198.2,180.2,197.9,180.1z"/>
	<path class="st17" d="M156.9,201.5v43.8c0,0.4,0.3,0.7,0.6,0.9l0,0l2.2,1.2c-0.3-0.2-0.5-0.5-0.5-0.8v-43.8c0-0.3,0-0.5,0.1-0.7
		l-2.3-1.3C156.9,200.9,156.9,201.2,156.9,201.5z"/>
	<path class="st18" d="M195.8,178.9L195.8,178.9c-0.3-0.2-0.7-0.2-1-0.1l-36.9,21c-0.3,0.2-0.6,0.5-0.8,0.8l2.3,1.3
		c0.2-0.4,0.4-0.7,0.8-0.9l36.9-21c0.3-0.1,0.6-0.1,0.9,0l0,0L195.8,178.9z"/>
	<path class="st10" d="M182.3,195.4c0.5-0.3,1.1-0.6,1.7-0.9s1.2-0.6,1.7-0.8v5.2c-0.2,0-0.4,0.1-0.5,0.2l-0.7,0.4
		c-0.5,0.3-0.9,0.7-1.2,1.1c-0.3,0.5-0.5,1-0.5,1.6v1.5l2.9-1.7v5.5l-2.9,1.7v19.2l-7.1,4.1l-0.1-19.2l-2.5,1.4v-5.5l2.5-1.4V206
		c0-1.1,0.1-2.3,0.3-3.4c0.2-1,0.6-1.9,1.1-2.7c0.5-0.9,1.2-1.7,2-2.3C180,196.7,181.1,196,182.3,195.4z"/>
	<path class="st7" d="M147,230L147,230l-2.1-1.1l0,0c-0.3-0.2-0.7-0.2-1-0.1l-36.9,21c-0.6,0.3-1,1-1,1.7v43.8
		c0,0.4,0.3,0.7,0.6,0.9l0,0l2.2,1.2l0,0c0.3,0.2,0.6,0.2,0.9,0l36.9-21c0.6-0.3,1-1,1-1.6v-43.7C147.5,230.5,147.3,230.2,147,230z"
		/>
	<path class="st16" d="M147,230L147,230l-2.1-1.1l0,0c-0.3-0.2-0.7-0.2-1-0.1l-36.9,21c-0.6,0.3-1,1-1,1.7v43.8
		c0,0.4,0.3,0.7,0.6,0.9l0,0l2.2,1.2l0,0c0.3,0.2,0.6,0.2,0.9,0l36.9-21c0.6-0.3,1-1,1-1.6v-43.7C147.5,230.5,147.3,230.2,147,230z"
		/>
	<path class="st17" d="M106,251.4v43.8c0,0.4,0.3,0.7,0.6,0.9l0,0l2.2,1.2c-0.3-0.2-0.5-0.5-0.5-0.8v-43.8c0-0.3,0.1-0.5,0.2-0.7
		l-2.3-1.3C106.1,250.9,106,251.2,106,251.4z"/>
	<path class="st18" d="M144.8,228.9L144.8,228.9c-0.3-0.2-0.7-0.2-1-0.1l-36.9,21c-0.3,0.2-0.6,0.5-0.8,0.8l2.3,1.3
		c0.2-0.4,0.4-0.7,0.8-0.9l36.9-21c0.3-0.1,0.6-0.1,0.9,0l0,0L144.8,228.9z"/>
	<polygon class="st10" points="120.7,256.7 139.9,258.4 120.8,282.1 	"/>
	<path class="st7" d="M210.1,238.9L210.1,238.9l-2.1-1.1l0,0c-0.3-0.2-0.7-0.2-1-0.1l-36.9,21c-0.6,0.3-1,1-1,1.6v43.8
		c0,0.4,0.2,0.7,0.6,0.9l0,0l2.2,1.2l0,0c0.3,0.2,0.6,0.2,0.9,0l36.9-21c0.6-0.3,1-1,1-1.6v-43.8C210.7,239.3,210.5,239,210.1,238.9
		z"/>
	<path class="st16" d="M210.1,238.9L210.1,238.9l-2.1-1.1l0,0c-0.3-0.2-0.7-0.2-1-0.1l-36.9,21c-0.6,0.3-1,1-1,1.6v43.8
		c0,0.4,0.2,0.7,0.6,0.9l0,0l2.2,1.2l0,0c0.3,0.2,0.6,0.2,0.9,0l36.9-21c0.6-0.3,1-1,1-1.6v-43.8C210.7,239.3,210.5,239,210.1,238.9
		z"/>
	<path class="st17" d="M169.1,260.3V304c0,0.4,0.2,0.7,0.6,0.9l0,0l2.2,1.2c-0.3-0.2-0.5-0.5-0.5-0.8v-43.8c0-0.3,0.1-0.5,0.2-0.7
		l-2.3-1.3C169.2,259.7,169.1,260,169.1,260.3z"/>
	<path class="st18" d="M208,237.7L208,237.7c-0.3-0.2-0.7-0.2-1-0.1l-36.9,21c-0.3,0.2-0.6,0.5-0.8,0.8l2.3,1.3
		c0.2-0.4,0.4-0.7,0.8-0.9l36.9-21c0.3-0.1,0.6-0.1,0.9,0l0,0L208,237.7z"/>
	<path class="st10" d="M199.2,259.2L199.2,259.2c0.9-0.5,1.7-0.1,1.6,1c-0.1,1.2-0.7,2.2-1.7,2.9l0,0c-0.4,0.4-1,0.3-1.4-0.1
		c-0.2-0.3-0.3-0.6-0.2-0.9C197.6,260.9,198.2,259.9,199.2,259.2z"/>
	<path class="st10" d="M204.9,257.1c0.1,0.4,0.1,0.7,0.2,1.1c0,5,0,10,0,14.9c-0.1,0.4-0.2,0.7-0.2,1.1c-0.7,3.5-2.5,6.6-5.1,9
		c-0.4,0.3-0.7,0.5-1.1,0.9l-12.9,7.5c-0.3,0.1-0.6,0.2-0.9,0.3c-2.7,0.7-4.4-0.3-5.2-2.9c0-0.3-0.1-0.7-0.2-1c0-5,0-10,0-15
		c0.1-0.1,0.1-0.2,0.1-0.3c0.1-1.1,0.4-2.2,0.8-3.3c1.1-3.3,3.4-6,6.3-7.9c1.6-0.9,3.1-1.8,4.7-2.8l6.6-3.8c0.6-0.3,1.1-0.6,1.8-0.8
		C202.4,253.5,204.1,254.5,204.9,257.1z M202.9,273.4c0-4.3,0-8.6,0-12.9c0-0.6-0.1-1.2-0.3-1.8c-0.7-1.9-2.5-2.3-4.7-1.1l-4.8,2.7
		l-6.5,3.8c-0.6,0.3-1.2,0.8-1.7,1.3c-2,1.9-3.2,4.5-3.3,7.2c0,4.3,0,8.7,0,13c0,1.9,0.7,3.1,2,3.5c1,0.2,2.1-0.1,2.9-0.7l1.9-1.1
		l3.7-2.1c1.9-1.1,3.7-2.1,5.6-3.2c0.6-0.4,1.2-0.8,1.7-1.3C201.6,278.7,202.8,276.1,202.9,273.4"/>
	<path class="st10" d="M192.3,265.4c3.6-2.1,6.6-0.4,6.6,3.8c-0.3,4.6-2.7,8.9-6.6,11.4c-3.6,2.1-6.6,0.4-6.6-3.8
		C186,272.2,188.4,267.9,192.3,265.4z M196.7,270.5c0-2.7-1.9-3.9-4.3-2.5l-0.1,0c-2.5,1.7-4.1,4.4-4.3,7.4c0,2.8,1.9,3.9,4.3,2.5
		l0,0C194.9,276.3,196.5,273.6,196.7,270.5"/>
	<path class="st7" d="M160.2,289.6L160.2,289.6l-2.1-1.1l0,0c-0.3-0.2-0.7-0.2-1-0.1l-36.9,21c-0.6,0.3-1,1-1,1.6v43.8
		c0,0.4,0.2,0.7,0.6,0.9l0,0l2.2,1.2l0,0c0.3,0.1,0.6,0.1,0.9,0l36.9-21c0.6-0.3,1-1,1-1.6v-43.7
		C160.7,290.1,160.5,289.8,160.2,289.6z"/>
	<path class="st16" d="M160.2,289.6L160.2,289.6l-2.1-1.1l0,0c-0.3-0.2-0.7-0.2-1-0.1l-36.9,21c-0.6,0.3-1,1-1,1.6v43.8
		c0,0.4,0.2,0.7,0.6,0.9l0,0l2.2,1.2l0,0c0.3,0.1,0.6,0.1,0.9,0l36.9-21c0.6-0.3,1-1,1-1.6v-43.7
		C160.7,290.1,160.5,289.8,160.2,289.6z"/>
	<path class="st17" d="M119.2,311v43.8c0,0.4,0.2,0.7,0.6,0.9l0,0l2.2,1.2c-0.3-0.2-0.5-0.5-0.5-0.8v-43.8c0-0.3,0-0.5,0.2-0.7
		l-2.3-1.3C119.3,310.5,119.2,310.8,119.2,311z"/>
	<path class="st18" d="M158.1,288.5L158.1,288.5c-0.3-0.2-0.7-0.2-1-0.1l-36.9,21c-0.3,0.2-0.6,0.5-0.8,0.8l2.3,1.3
		c0.2-0.4,0.4-0.7,0.8-0.9l36.9-21c0.3-0.1,0.6-0.1,0.9,0l0,0L158.1,288.5z"/>
	<path class="st10" d="M147.9,307.5c1.1-0.8,2.6-1,3.9-0.5c0.1,0.1,0.3,0.1,0.5,0l0.2-0.2c1.2-1,2.3-2.1,3.2-3.4
		c-0.5,1.8-1.2,3.5-2.3,5c0.3-0.3,0.7-0.5,1-0.8s0.7-0.6,1-0.9s0.7-0.7,1-1h0.1c-0.4,0.9-0.9,1.8-1.4,2.6c-0.4,0.7-0.8,1.3-1.3,2
		c-0.1,0.2-0.2,0.3-0.2,0.5c0,5.4-1.4,10.6-4,15.3c-2,4-4.8,7.6-8.2,10.5c-1.2,1.1-2.6,2-4,2.9c-2.5,1.6-5.5,2.4-8.6,2.1l-0.1,0
		c0.4-0.2,0.9-0.4,1.3-0.7c1.1-0.6,2.2-1.4,3.1-2.3c1.5-1.4,2.8-2.9,3.9-4.6c-2.6,1.3-4.4,0.8-5.3-1.5c0.4-0.2,0.8-0.3,1.1-0.5
		c0.5-0.3,0.9-0.6,1.4-1c-0.5,0.1-0.9,0.1-1.4,0.1c-0.4,0-0.9-0.1-1.3-0.3c-0.4-0.2-0.7-0.5-1-0.8c-0.3-0.4-0.5-0.8-0.6-1.3
		c-0.1-0.5-0.2-1.1-0.3-1.6c0.5-0.1,0.9-0.1,1.3-0.2c0.4-0.1,0.9-0.3,1.3-0.5c-1.4-0.4-2.2-1.5-2.4-3.3c-0.1-1.5,0.1-3,0.7-4.4
		c3.1,2.4,7,2.4,11.8,0c0-0.4-0.1-0.7-0.1-1c0-2.8,1-5.5,2.8-7.7C145.8,309.1,146.8,308.2,147.9,307.5z"/>
</g>
<g id="freepik--Megaphone--inject-13">
	<path class="st7" d="M233.1,407.6l3.4-2c1.3-0.8,2.1-2.2,2.1-3.7v-41.2l-7.7,4.6l-7.7-4.5v41c0,1.5,0.8,3,2.1,3.7l3.4,2
		C230.2,408.3,231.8,408.3,233.1,407.6z"/>
	<path class="st5" d="M238.7,360.7v41.2c0,1.5-0.8,3-2.1,3.7l-3.4,2c-0.7,0.4-1.4,0.6-2.1,0.6v-42.9L238.7,360.7z"/>
	<path class="st3" d="M231,365.3v42.9c-0.8,0-1.5-0.2-2.1-0.6l-3.4-2c-1.3-0.8-2.1-2.2-2.1-3.7v-41L231,365.3z"/>
	<path class="st7" d="M224.7,313.9l-0.2-0.1l0,0c-2.6-1.5-6.3-1.3-10.3,1c-8,4.6-14.5,15.9-14.5,25.1c0,4.5,1.6,7.7,4.1,9.3l20,11.4
		l19.5-35.5L224.7,313.9z M201.4,338.9c0-0.8,0-1.6,0.1-2.3C201.5,337.4,201.4,338.1,201.4,338.9c0,0.7,0.1,1.5,0.2,2.2
		C201.5,340.4,201.4,339.7,201.4,338.9L201.4,338.9z"/>
	<path class="st3" d="M224.7,313.9l-0.2-0.1l0,0c-2.6-1.5-6.3-1.3-10.3,1c-8,4.6-14.5,15.9-14.5,25.1c0,4.5,1.6,7.7,4.1,9.3l20,11.4
		l19.5-35.5L224.7,313.9z M201.4,338.9c0-0.8,0-1.6,0.1-2.3C201.5,337.4,201.4,338.1,201.4,338.9c0,0.7,0.1,1.5,0.2,2.2
		C201.5,340.4,201.4,339.7,201.4,338.9L201.4,338.9z"/>
	<path class="st7" d="M245.5,320.3l-0.2-0.1h-0.1c-3.3-1.9-7.9-1.6-13,1.3c-10.1,5.9-18.4,20.1-18.3,31.8c0,5.7,2,9.8,5.3,11.7
		c32.4,23.3,52,58.8,52,58.8l46.5-89C300.8,338.5,269,334.4,245.5,320.3z"/>
	<path class="st12" d="M245.5,320.3l-0.2-0.1h-0.1c-3.3-1.9-7.9-1.6-13,1.3c-10.1,5.9-18.4,20.1-18.3,31.8c0,5.7,2,9.8,5.3,11.7
		c32.4,23.3,52,58.8,52,58.8l46.5-89C300.8,338.5,269,334.4,245.5,320.3z"/>
	<path class="st2" d="M273.3,397.3c-0.2,1.9-0.4,3.9-0.4,5.8c0,1.8,0.1,3.6,0.4,5.4c-0.3-1.8-0.4-3.6-0.4-5.4
		C273,401.1,273.1,399.2,273.3,397.3z"/>
	<path class="st7" d="M332.6,349.5c-0.5-0.7-1.1-1.3-1.7-2l-0.1-0.1c-0.6-0.5-1.2-1.1-1.9-1.5c-0.3-0.2-0.7-0.5-1.1-0.7
		c-1.5-0.8-3.1-1.4-4.8-1.8c-1.3-0.3-2.7-0.4-4-0.3c-1,0-1.9,0.1-2.9,0.3c-1,0.2-2,0.4-3,0.7c-0.5,0.1-1,0.3-1.5,0.5
		c-1.1,0.4-2.1,0.8-3.2,1.3c-1.1,0.5-2.2,1.1-3.3,1.7c-2.8,1.7-5.5,3.6-8,5.8c-1,0.9-2,1.8-3,2.8s-2,2-2.9,3.1
		c-0.5,0.5-0.9,1.1-1.4,1.6c-2.3,2.8-4.4,5.7-6.3,8.8c-0.8,1.2-1.5,2.5-2.2,3.8s-1.4,2.6-2,3.9s-1.2,2.6-1.7,4
		c-1.3,3.2-2.4,6.6-3.2,10c-0.3,1.3-0.6,2.7-0.8,4c-0.1,0.7-0.2,1.3-0.3,2c-0.2,1.9-0.4,3.9-0.4,5.8c0,1.8,0.1,3.6,0.4,5.4
		c0.2,1.1,0.4,2.2,0.6,3.2c0.3,1,0.6,2,1,2.9c0.4,0.9,0.8,1.8,1.2,2.6c0.4,0.8,0.9,1.6,1.5,2.3c2.6,3.5,6.5,5.7,10.9,6.2
		c0.9,0.1,1.8,0.2,2.7,0.1c1,0,1.9-0.1,2.9-0.3c1-0.2,2-0.4,3-0.7c0.5-0.1,1-0.3,1.5-0.5c2.3-0.8,4.4-1.8,6.5-3
		c5.8-3.5,11-8,15.3-13.3c0.5-0.5,0.9-1.1,1.3-1.7c0.9-1.1,1.7-2.3,2.6-3.5s1.6-2.4,2.4-3.6c6.5-10.5,10.5-22.6,10.5-33.4
		c0-3.4-0.5-6.9-1.5-10.1C335.2,353.5,334.1,351.4,332.6,349.5z"/>
	<path class="st19" d="M332.6,349.5c-0.5-0.7-1.1-1.3-1.7-2l-0.1-0.1c-0.6-0.5-1.2-1.1-1.9-1.5c-0.3-0.2-0.7-0.5-1.1-0.7
		c-1.5-0.8-3.1-1.4-4.8-1.8c-1.3-0.3-2.7-0.4-4-0.3c-1,0-1.9,0.1-2.9,0.3c-1,0.2-2,0.4-3,0.7c-0.5,0.1-1,0.3-1.5,0.5
		c-1.1,0.4-2.1,0.8-3.2,1.3c-1.1,0.5-2.2,1.1-3.3,1.7c-2.8,1.7-5.5,3.6-8,5.8c-1,0.9-2,1.8-3,2.8s-2,2-2.9,3.1
		c-0.5,0.5-0.9,1.1-1.4,1.6c-2.3,2.8-4.4,5.7-6.3,8.8c-0.8,1.2-1.5,2.5-2.2,3.8s-1.4,2.6-2,3.9s-1.2,2.6-1.7,4
		c-1.3,3.2-2.4,6.6-3.2,10c-0.3,1.3-0.6,2.7-0.8,4c-0.1,0.7-0.2,1.3-0.3,2c-0.2,1.9-0.4,3.9-0.4,5.8c0,1.8,0.1,3.6,0.4,5.4
		c0.2,1.1,0.4,2.2,0.6,3.2c0.3,1,0.6,2,1,2.9c0.4,0.9,0.8,1.8,1.2,2.6c0.4,0.8,0.9,1.6,1.5,2.3c2.6,3.5,6.5,5.7,10.9,6.2
		c0.9,0.1,1.8,0.2,2.7,0.1c1,0,1.9-0.1,2.9-0.3c1-0.2,2-0.4,3-0.7c0.5-0.1,1-0.3,1.5-0.5c2.3-0.8,4.4-1.8,6.5-3
		c5.8-3.5,11-8,15.3-13.3c0.5-0.5,0.9-1.1,1.3-1.7c0.9-1.1,1.7-2.3,2.6-3.5s1.6-2.4,2.4-3.6c6.5-10.5,10.5-22.6,10.5-33.4
		c0-3.4-0.5-6.9-1.5-10.1C335.2,353.5,334.1,351.4,332.6,349.5z"/>
	<polygon class="st7" points="286.1,356 302.9,366 287.4,392.3 268.9,382.3 	"/>
	<polygon class="st8" points="286.1,356 302.9,366 287.4,392.3 268.9,382.3 	"/>
	<path class="st7" d="M304.1,367.2c-0.2-0.2-0.4-0.5-0.6-0.7l0,0c-0.2-0.2-0.4-0.4-0.6-0.5l-0.4-0.2c-0.5-0.3-1-0.5-1.6-0.6
		c-0.5-0.1-0.9-0.1-1.4-0.1c-0.3,0-0.7,0-1,0.1c-0.3,0.1-0.7,0.1-1,0.2l-0.5,0.2c-0.4,0.1-0.7,0.3-1.1,0.4c-0.4,0.2-0.7,0.4-1.1,0.6
		c-1,0.6-1.9,1.2-2.7,2c-0.4,0.3-0.7,0.6-1,1s-0.6,0.7-1,1l-0.5,0.5c-0.8,1-1.5,2-2.1,3c-0.3,0.4-0.5,0.8-0.7,1.3s-0.5,0.9-0.7,1.3
		s-0.4,0.9-0.6,1.3c-0.4,1.1-0.8,2.2-1.1,3.4c-0.1,0.5-0.2,0.9-0.3,1.3l-0.1,0.7c-0.1,0.7-0.1,1.3-0.1,2c0,0.6,0,1.2,0.1,1.8
		c0.1,0.4,0.1,0.7,0.2,1.1c0.1,0.3,0.2,0.7,0.3,1c0.1,0.3,0.3,0.6,0.4,0.9c0.2,0.3,0.3,0.5,0.5,0.8c0.9,1.2,2.2,1.9,3.7,2.1
		c0.3,0,0.6,0.1,0.9,0c0.3,0,0.7,0,1-0.1c0.3-0.1,0.7-0.1,1-0.2l0.5-0.2c0.8-0.3,1.5-0.6,2.2-1c2-1.2,3.7-2.7,5.2-4.5l0.5-0.6
		c0.3-0.4,0.6-0.8,0.9-1.2s0.5-0.8,0.8-1.2c2.2-3.4,3.4-7.3,3.5-11.3c0-1.2-0.2-2.3-0.5-3.4C305,368.6,304.6,367.8,304.1,367.2z"/>
	<path class="st7" d="M331.1,340.6l-0.4-0.2C330.9,340.4,331,340.5,331.1,340.6L331.1,340.6z"/>
	<path class="st7" d="M268.9,405.4c-0.1-23,16.1-51,36.1-62.5c10-5.8,19-6.3,25.6-2.6l-7.6-4.5l0,0c-6.6-3.8-15.7-3.2-25.7,2.6
		c-20,11.5-36.1,39.5-36.1,62.5c0,11.1,3.8,19,10,22.9l0,0l0.4,0.3l0.4,0.2l7.3,4.3l0,0C272.9,424.7,269,416.7,268.9,405.4z"/>
	<path class="st3" d="M268.9,405.4c-0.1-23,16.1-51,36.1-62.5c10-5.8,19-6.3,25.6-2.6l-7.6-4.5l0,0c-6.6-3.8-15.7-3.2-25.7,2.6
		c-20,11.5-36.1,39.5-36.1,62.5c0,11.1,3.8,19,10,22.9l0,0l0.4,0.3l0.4,0.2l7.3,4.3l0,0C272.9,424.7,269,416.7,268.9,405.4z"/>
	<path class="st7" d="M331.1,340.6c-0.1-0.1-0.3-0.2-0.4-0.2l-0.1-0.1c-6.6-3.7-15.6-3.1-25.6,2.6c-20,11.5-36.1,39.5-36.1,62.5
		c0,11.3,4,19.3,10.4,23.1c6.6,4,15.8,3.5,26-2.4c20-11.5,36.1-39.5,36.1-62.5C341.3,352.4,337.4,344.5,331.1,340.6z M326.8,399.4
		c-0.8,1.2-1.5,2.5-2.4,3.6s-1.7,2.4-2.6,3.5c-0.4,0.6-0.9,1.1-1.3,1.7c-4.3,5.3-9.5,9.8-15.3,13.3c-2.1,1.2-4.2,2.2-6.5,3
		c-0.5,0.2-1,0.3-1.5,0.5c-1,0.3-2,0.5-3,0.7c-1,0.1-1.9,0.2-2.9,0.3c-0.9,0-1.8,0-2.7-0.1c-4.3-0.5-8.3-2.7-10.9-6.2
		c-0.6-0.7-1.1-1.5-1.5-2.3c-0.5-0.8-0.9-1.7-1.2-2.6c-0.4-1-0.7-1.9-1-2.9c-0.3-1-0.5-2.1-0.6-3.2c-0.3-1.8-0.4-3.6-0.4-5.4
		c0-1.9,0.1-3.9,0.4-5.8c0.1-0.7,0.2-1.3,0.3-2c0.2-1.3,0.5-2.7,0.8-4c0.8-3.4,1.9-6.8,3.2-10c0.5-1.3,1.1-2.6,1.7-4s1.3-2.6,2-3.9
		s1.4-2.5,2.2-3.8c1.9-3.1,4-6,6.3-8.8c0.5-0.5,0.9-1.1,1.4-1.6c0.9-1.1,1.9-2.1,2.9-3.1s2-1.9,3-2.8c2.5-2.2,5.2-4.1,8-5.8
		c1.1-0.6,2.2-1.2,3.3-1.7c1-0.5,2.1-0.9,3.2-1.3c0.5-0.2,1-0.3,1.5-0.5c1-0.3,2-0.5,3-0.7c1-0.1,1.9-0.2,2.9-0.3
		c1.3,0,2.7,0.1,4,0.3c1.7,0.3,3.3,0.9,4.8,1.8c0.4,0.2,0.7,0.4,1.1,0.7c0.7,0.4,1.3,1,1.9,1.5l0.1,0.1c0.6,0.6,1.2,1.3,1.7,2
		c1.4,1.9,2.5,4,3.2,6.3c1,3.3,1.5,6.7,1.5,10.1l0,0C337.3,376.8,333.3,388.9,326.8,399.4z"/>
</g>
<g id="freepik--speech-bubbles--inject-13">
	<path class="st7" d="M304.9,270.9l-26.7,15.3c-0.8,0.5-1.5,1.2-2,2c-0.4,0.8-0.7,1.7-0.7,2.5v19.5c0.1,2.8,2.4,5.1,5.3,5
		c0.9,0,1.8-0.3,2.6-0.8l4.6-2.7l0.4,0.7l0.1,0.1l0,0h0l0,0c0.8,0.5,2.1,1.2,2.4,1.4l0,0c0.1,0,0.3,0,0.4-0.2l1.7-4.8l0,0l17.1-9.8
		c1.6-0.9,2.6-2.7,2.6-4.5v-19.5C312.7,271.4,307.2,269.6,304.9,270.9z"/>
	<path class="st20" d="M282.8,289.4"/>
	<path class="st21" d="M288.4,312.5L288.4,312.5L288.4,312.5l0.1,0.1l0,0c0.8,0.5,2.1,1.2,2.4,1.4l0,0c-0.1,0-0.1-0.1-0.2-0.1
		l-1.7-2.7l0.3-0.2l0,0l-1.5,0.8L288.4,312.5z"/>
	<path class="st18" d="M281.4,291.2c0.3-0.7,0.8-1.3,1.4-1.8l0,0c0.2-0.2,0.4-0.3,0.6-0.4l26.7-15.3c0.8-0.5,1.9-0.2,2.4,0.6
		c0.2,0.3,0.2,0.6,0.2,0.9c0-3.8-5.5-5.6-7.9-4.3l-26.7,15.3c-0.8,0.5-1.5,1.2-2,2L281.4,291.2z"/>
	<path class="st21" d="M280.8,313v-19.5c0-0.2,0-0.4,0-0.6c0.1-0.6,0.3-1.2,0.5-1.7l-5.2-2.9c-0.4,0.8-0.7,1.7-0.7,2.5v19.5
		c0.1,2.8,2.4,5.1,5.3,5c0.9,0,1.8-0.3,2.6-0.8c-0.8,0.5-1.9,0.1-2.4-0.7C280.9,313.5,280.8,313.3,280.8,313z"/>
	<path class="st7" d="M294.5,293.5c0.4-0.2,0.7,0,0.7,0.4v0.2v6v1c0,0.5-0.3,1-0.7,1.3l-3.6,2.1c-0.4,0.2-0.7,0-0.7-0.4v-7.3
		c0-0.5,0.3-1,0.7-1.3L294.5,293.5z M293.1,302.3c0.4-0.3,0.7-0.8,0.8-1.3c0-0.5-0.3-0.7-0.8-0.4c-0.5,0.3-0.7,0.8-0.8,1.3
		C292.4,302.3,292.7,302.5,293.1,302.3"/>
	<g class="st22">
		<path class="st10" d="M294.5,293.5c0.4-0.2,0.7,0,0.7,0.4v0.2v6v1c0,0.5-0.3,1-0.7,1.3l-3.6,2.1c-0.4,0.2-0.7,0-0.7-0.4v-7.3
			c0-0.5,0.3-1,0.7-1.3L294.5,293.5z M293.1,302.3c0.4-0.3,0.7-0.8,0.8-1.3c0-0.5-0.3-0.7-0.8-0.4c-0.5,0.3-0.7,0.8-0.8,1.3
			C292.4,302.3,292.7,302.5,293.1,302.3"/>
	</g>
	<path class="st10" d="M298.2,283.4c1.6-0.9,2.9-0.1,2.8,1.8l-0.1,3l4.2-2.5c1.5-0.8,1.8,1.1,0.8,2.5c1,0.3,0.7,2-0.2,3
		c0.8,0.4,0.1,2.3-0.9,3c0.7,0.3,0.1,2.3-1.1,3l-4.2,2.4l-2.6,1.5c-0.9,0.5-1.6,0.1-1.6-0.9v-6l1.7-4c0.8-1.9,1.3-4,1.3-6.1
		L298.2,283.4z"/>
	<path class="st7" d="M396.7,82.1l-26.7,15.3c-1.6,0.9-2.6,2.7-2.6,4.5v19.5c0.1,2.8,2.4,5.1,5.3,5c0.9,0,1.8-0.3,2.6-0.8l4.6-2.7
		l0.4,0.7c0,0,0,0,0.1,0.1l0,0h0l0,0c0.8,0.5,2.1,1.2,2.4,1.4l0,0c0.1,0,0.3,0,0.4-0.2l1.7-4.8l0,0l17.1-9.8
		c1.6-0.9,2.6-2.7,2.6-4.5V86.3C404.5,82.6,399,80.8,396.7,82.1z"/>
	<path class="st20" d="M374.6,100.6L374.6,100.6z"/>
	<path class="st21" d="M380.3,123.7C380.3,123.7,380.3,123.7,380.3,123.7L380.3,123.7l0.1,0.1l0,0c0.8,0.5,2.1,1.2,2.4,1.4l0,0
		c-0.1,0-0.1-0.1-0.2-0.1l-1.6-2.7l0.3-0.2l0,0l-1.5,0.8L380.3,123.7z"/>
	<path class="st18" d="M373.2,102.4c0.3-0.7,0.8-1.3,1.4-1.8l0,0c0.2-0.2,0.4-0.3,0.6-0.4L402,84.8c0.8-0.5,1.9-0.2,2.4,0.7
		c0.1,0.3,0.2,0.6,0.2,0.9c0-3.8-5.5-5.6-7.9-4.2l-26.8,15.3c-0.8,0.5-1.5,1.2-1.9,2L373.2,102.4z"/>
	<path class="st21" d="M372.6,124.2v-19.5c0-0.2,0-0.4,0-0.6c0.1-0.6,0.3-1.2,0.5-1.7l-5.2-3c-0.4,0.8-0.7,1.7-0.7,2.6v19.5
		c0.1,2.8,2.4,5.1,5.3,5c0.9,0,1.8-0.3,2.6-0.8c-0.8,0.5-1.9,0.2-2.3-0.7C372.7,124.7,372.6,124.4,372.6,124.2z"/>
	<path class="st7" d="M386.3,104.7c0.4-0.2,0.7,0,0.7,0.4v7.3c0,0.5-0.3,1-0.7,1.3l-3.6,2.1c-0.4,0.2-0.7,0-0.7-0.4v-7.3
		c0-0.5,0.3-1,0.7-1.3L386.3,104.7z M385,113.5c0.5-0.3,0.7-0.8,0.8-1.3c0-0.5-0.3-0.7-0.8-0.4c-0.5,0.3-0.7,0.8-0.8,1.3
		C384.2,113.5,384.6,113.7,385,113.5"/>
	<g class="st22">
		<path class="st10" d="M386.3,104.7c0.4-0.2,0.7,0,0.7,0.4v7.3c0,0.5-0.3,1-0.7,1.3l-3.6,2.1c-0.4,0.2-0.7,0-0.7-0.4v-7.3
			c0-0.5,0.3-1,0.7-1.3L386.3,104.7z M385,113.5c0.5-0.3,0.7-0.8,0.8-1.3c0-0.5-0.3-0.7-0.8-0.4c-0.5,0.3-0.7,0.8-0.8,1.3
			C384.2,113.5,384.6,113.7,385,113.5"/>
	</g>
	<path class="st10" d="M390,94.6c1.6-0.9,2.9-0.1,2.8,1.8l-0.1,3l4.2-2.4c1.5-0.8,1.8,1.1,0.8,2.4c1,0.3,0.7,2-0.2,3
		c0.8,0.4,0.1,2.3-0.9,3.1c0.7,0.3,0.1,2.3-1.1,3l-4.1,2.4l-2.6,1.5c-0.9,0.5-1.6,0.1-1.6-0.9v-6l1.7-4c0.8-2,1.3-4,1.3-6.2V94.6z"
		/>
	<path class="st7" d="M158.4,158.2l-26.7,15.3c-1.6,0.9-2.6,2.6-2.6,4.5v19.5c0.1,2.8,2.4,5.1,5.3,5c0.9,0,1.8-0.3,2.6-0.8l4.6-2.6
		l0.4,0.7c0,0,0,0,0.1,0.1l0,0h0.1l0,0c0.8,0.5,2.1,1.2,2.4,1.4l0,0c0.1,0,0.3,0,0.4-0.2l1.7-4.9l0,0l17.1-9.8
		c1.6-0.9,2.6-2.7,2.6-4.5v-19.5C166.3,158.7,160.7,156.8,158.4,158.2z"/>
	<path class="st20" d="M136.3,176.7L136.3,176.7z"/>
	<path class="st21" d="M142,199.8C142,199.8,142,199.8,142,199.8L142,199.8l0.1,0.1l0,0c0.8,0.5,2.1,1.2,2.4,1.4l0,0
		c-0.1,0-0.1-0.1-0.2-0.1l-1.7-2.7l0.3-0.2l0,0l-1.4,0.8L142,199.8z"/>
	<path class="st18" d="M134.9,178.4c0.3-0.7,0.8-1.3,1.4-1.8l0,0c0.2-0.2,0.4-0.3,0.6-0.4l26.7-15.3c0.8-0.5,1.9-0.2,2.4,0.7
		c0.1,0.3,0.2,0.6,0.2,0.9c0-3.8-5.5-5.6-7.9-4.2l-26.7,15.3c-0.8,0.5-1.5,1.2-2,2L134.9,178.4z"/>
	<path class="st21" d="M134.3,200.2v-19.4c0-0.2,0-0.4,0-0.6c0.1-0.6,0.3-1.2,0.5-1.7l-5.2-2.9c-0.4,0.8-0.7,1.6-0.7,2.5v19.5
		c0.1,2.8,2.4,5.1,5.3,5c0.9,0,1.8-0.3,2.6-0.8c-0.8,0.5-1.9,0.2-2.4-0.7C134.4,200.8,134.3,200.5,134.3,200.2z"/>
	<path class="st7" d="M148,180.8c0.4-0.2,0.7-0.1,0.7,0.4v0.2v6v1c0,0.5-0.3,1-0.7,1.3l-3.6,2.1c-0.4,0.2-0.7,0-0.7-0.4v-7.3
		c0-0.5,0.3-1,0.7-1.3L148,180.8z M146.6,189.6c0.4-0.3,0.7-0.8,0.8-1.3c0-0.5-0.3-0.7-0.8-0.4c-0.4,0.3-0.7,0.8-0.8,1.3
		C145.9,189.6,146.2,189.8,146.6,189.6"/>
	<g class="st22">
		<path class="st10" d="M148,180.8c0.4-0.2,0.7-0.1,0.7,0.4v0.2v6v1c0,0.5-0.3,1-0.7,1.3l-3.6,2.1c-0.4,0.2-0.7,0-0.7-0.4v-7.3
			c0-0.5,0.3-1,0.7-1.3L148,180.8z M146.6,189.6c0.4-0.3,0.7-0.8,0.8-1.3c0-0.5-0.3-0.7-0.8-0.4c-0.4,0.3-0.7,0.8-0.8,1.3
			C145.9,189.6,146.2,189.8,146.6,189.6"/>
	</g>
	<path class="st10" d="M151.7,170.6c1.6-0.9,2.9-0.1,2.8,1.8l-0.1,3l4.2-2.4c1.4-0.8,1.8,1.1,0.8,2.4c1,0.3,0.7,2-0.2,3
		c0.8,0.4,0.1,2.3-0.9,3.1c0.7,0.3,0.1,2.3-1.1,3l-4.2,2.4l-2.6,1.5c-0.9,0.5-1.6,0.1-1.6-0.9v-6l1.7-4c0.8-1.9,1.3-4,1.3-6.1
		L151.7,170.6z"/>
</g>
</svg>
