<?xml version="1.0" encoding="utf-8"?>
<!-- Generator: Adobe Illustrator 24.2.1, SVG Export Plug-In . SVG Version: 6.00 Build 0)  -->
<svg version="1.1" id="Layer_1" xmlns="http://www.w3.org/2000/svg" xmlns:xlink="http://www.w3.org/1999/xlink" x="0px" y="0px"
	 viewBox="0 0 177 176.9" style="enable-background:new 0 0 177 176.9;" xml:space="preserve">
<g>
	<path d="M88.4,0.2c48.8-0.1,88.5,39.4,88.6,87.9c0.1,48.5-40.2,88.8-88.8,88.6C39.7,176.6,0,136.7,0,88.2C0,39.5,39.5,0.3,88.4,0.2
		z M74.5,140.6c7.3,0,13.9,0,21,0c0-17.4,0-34.3,0-52c5.3,0,10.2,0,15.6,0c0.6-7.3,1.2-14,1.8-21.4c-6,0-11.1,0-16.4,0
		c0-1.9,0-3.2,0-4.6c0-7.8,0.4-8.2,8.1-8.2c2.6,0,5.2,0,7.8,0c0-6.5,0-12.1,0-18.1c-6.3,0-12.2-0.2-18.2,0
		c-11.3,0.4-18.8,7.9-19.5,19.3c-0.2,3.8,0,7.5,0,11.5c-3.9,0.2-7.1,0.4-10.1,0.6c0,7.2,0,13.8,0,20.6c3.5,0.2,6.7,0.4,10.1,0.7
		C74.5,106.4,74.5,123.3,74.5,140.6z"/>
</g>
</svg>
