<?xml version="1.0" encoding="utf-8"?>
<!-- Generator: Adobe Illustrator 24.2.1, SVG Export Plug-In . SVG Version: 6.00 Build 0)  -->
<svg version="1.1" id="Layer_1" xmlns="http://www.w3.org/2000/svg" xmlns:xlink="http://www.w3.org/1999/xlink" x="0px" y="0px"
	 viewBox="0 0 177 176.9" style="enable-background:new 0 0 177 176.9;" xml:space="preserve">
<g>
	<path d="M177.2,88.6c-0.4,14.3-0.3,28.6-1.3,42.9c-1.7,25-19.8,43.3-44.7,44.6c-22.1,1.1-44.3,0.9-66.4,0.8c-9.4,0-19-0.3-28.2-2.4
		c-20.8-4.7-34.9-21.3-35.9-42.9c-1-22.1-0.9-44.2-0.9-66.3c0-8.9,0.3-17.9,2-26.6C6.2,16.9,22.8,2.5,45,1C57.1,0.1,69.3,0.1,81.4,0
		C95.7,0,110,0,124.3,0.3c11.8,0.3,23,2.7,32.7,9.9c11.8,8.8,17.8,20.9,18.8,35.2C176.9,59.8,176.8,74.2,177.2,88.6z M161.1,88.7
		c-0.2,0-0.4,0-0.5,0c0-10.5,0.1-21.1,0-31.6c-0.1-8.5-0.7-17-5.1-24.6c-5.9-10.4-15.6-15.3-27-15.5c-26.6-0.5-53.3-0.6-79.9,0
		c-19.2,0.5-31.4,12.7-31.9,31.9c-0.7,26.4-0.7,52.8,0,79.2c0.5,19.2,12.7,31.4,31.9,31.9c26.5,0.7,53.1,0.6,79.6,0
		c18.9-0.5,30.8-12.8,31.8-31.8C160.6,115.1,160.7,101.9,161.1,88.7z"/>
	<path d="M134,88.5c0,25.1-20.7,45.8-45.8,45.7c-25.2-0.1-45.8-20.8-45.6-45.9c0.1-25.1,20.6-45.5,45.7-45.5
		C113.3,42.8,134,63.4,134,88.5z M58.7,88.5c0,15.9,13.1,29.2,29.3,29.5c15.9,0.3,29.7-13.4,29.7-29.5c0-16-13.1-29.2-29.3-29.5
		C72.5,58.7,58.8,72.4,58.7,88.5z"/>
	<path d="M135.7,30.5c6.1,0,10.8,4.8,10.7,11c-0.1,5.9-4.8,10.5-10.8,10.5c-6.1,0-10.7-4.8-10.6-10.9C125,35,129.7,30.5,135.7,30.5z
		"/>
</g>
</svg>
