<?xml version="1.0" encoding="utf-8"?>
<!-- Generator: Adobe Illustrator 24.2.1, SVG Export Plug-In . SVG Version: 6.00 Build 0)  -->
<svg version="1.1" id="Layer_1" xmlns="http://www.w3.org/2000/svg" xmlns:xlink="http://www.w3.org/1999/xlink" x="0px" y="0px"
	 viewBox="0 0 177 176.9" style="enable-background:new 0 0 177 176.9;" xml:space="preserve">
<g>
	<path d="M88.3,0c24.3,0,48.6,0,73,0C172.5,0,177,4.6,177,15.8c0,48.3,0,96.6,0,144.9c0,11.7-4.5,16.2-16.4,16.2
		c-48.1,0-96.3,0-144.4,0C4.6,176.9,0,172.4,0,161c0-48.5,0-96.9,0-145.4C0,4.6,4.5,0,15.3,0C39.7,0,64,0,88.3,0z M152.4,151.2
		c-0.6-20.8-0.3-41.1-2-61.2c-1.2-14.6-9-21.9-21.9-24.2c-13-2.3-24.4,0.5-33.4,12.8c0-4.6,0-7.8,0-11.1c-8.6,0-16.6,0-24.8,0
		c0,28.1,0,55.8,0,83.6c8.7,0,17,0,25.8,0c0-4.2,0-8,0-11.8c0.2-12.3-0.1-24.7,0.8-36.9c0.7-10.1,6.5-14.6,15.7-14.2
		c7.9,0.3,12.2,5.2,12.6,15.5c0.4,9.5,0.3,19,0.4,28.5c0,6.3,0,12.5,0,19.1C134.5,151.2,142.8,151.2,152.4,151.2z M53.2,151.2
		c0-28.1,0-55.9,0-83.7c-8.8,0-17.1,0-25.7,0c0,28,0,55.7,0,83.7C36.1,151.2,44.5,151.2,53.2,151.2z M40.5,55.5
		c8.5-0.1,15.1-6.8,14.9-15.3c-0.2-8.3-6.7-14.8-15-14.9c-8.3-0.1-15.3,6.9-15.3,15.2C25.2,48.8,32.1,55.5,40.5,55.5z"/>
</g>
</svg>
