<?xml version="1.0" encoding="utf-8"?>
<!-- Generator: Adobe Illustrator 24.2.1, SVG Export Plug-In . SVG Version: 6.00 Build 0)  -->
<svg version="1.1" id="Layer_1" xmlns="http://www.w3.org/2000/svg" xmlns:xlink="http://www.w3.org/1999/xlink" x="0px" y="0px"
	 viewBox="0 0 304.1 304.3" style="enable-background:new 0 0 304.1 304.3;" xml:space="preserve">
<style type="text/css">
	.st0{enable-background:new    ;}
	.st1{clip-path:url(#SVGID_2_);fill:#0A1624;}
	.st2{clip-path:url(#SVGID_2_);}
	.st3{clip-path:url(#SVGID_4_);fill:none;stroke:#1B1817;stroke-width:0.425;}
	.st4{clip-path:url(#SVGID_4_);fill-rule:evenodd;clip-rule:evenodd;fill:#A8ABA8;}
	.st5{clip-path:url(#SVGID_4_);fill-rule:evenodd;clip-rule:evenodd;fill:#0D1928;}
</style>
<g>
	<g class="st0">
		<g>
			<defs>
				<rect id="SVGID_1_" x="-2135.9" y="-200.9" width="1512" height="706.2"/>
			</defs>
			<clipPath id="SVGID_2_">
				<use xlink:href="#SVGID_1_"  style="overflow:visible;"/>
			</clipPath>
			<rect x="-2135.9" y="-200.9" class="st1" width="1512" height="706.2"/>
			<g class="st2">
				<defs>
					<rect id="SVGID_3_" x="-2135.9" y="-200.9" width="1512" height="706.2"/>
				</defs>
				<clipPath id="SVGID_4_">
					<use xlink:href="#SVGID_3_"  style="overflow:visible;"/>
				</clipPath>
				<rect x="-2135.9" y="-774.8" class="st3" width="1512" height="1944"/>
				<path class="st4" d="M-1400.5-54.5c-83.5,13.2-141.5,87.1-129.4,171.1c11,76.5,80.7,142.3,171.3,129.4
					c47.7-6.8,83.3-34.4,103.9-64.6c32.8-48,35.2-112.6,5.6-161.9C-1278.8-30-1335.9-64.7-1400.5-54.5 M-1322.3,208.4
					c8.3-13.8,15.2-28.1,20.5-46.6c22.7-78.6-9.8-57.1-55.4-49.3c-24.1,4.1-31.2-4.2-48.4-13.9c-28.5-16.1-27.9-32.5-15.3-36.3
					c15.2-4.5,36.9,26.6,46.3,11.4c3-4.7,4.6-20.4,7.1-27.8c10.8-32.9,31.3-40,26.3-71.1c24.1,5.6,49.2,27,59.2,39.6
					C-1228,81.5-1253.9,177.3-1322.3,208.4 M-1362.5,210.2c1.7,12.8-0.5,12.3-12,12.8c-22.6,0.9-39.9-3.3-59.6-12.3
					c-21.9-10-39.2-26.3-50.9-43.3c-30.9-44.8-28.5-100.8,0.7-144c1.9,13.9,3.7,21.4,10.7,32.3c12,18.7,24.9,29.7,43.7,41.3
					c9.3,5.8,17,10,26.7,15.8c40.1,24.2,16.8,27.4,9.1,49.2C-1404.5,191.3-1379.1,197.4-1362.5,210.2"/>
				<path class="st5" d="M-1322.3,208.4c68.4-31.1,94.2-126.9,40.4-194c-10.1-12.6-35.2-33.9-59.2-39.6c5,31.1-15.5,38.1-26.3,71.1
					c-2.4,7.4-4.1,23.1-7.1,27.8c-9.4,15.1-31.1-15.9-46.3-11.4c-12.6,3.7-13.2,20.1,15.3,36.3c17.1,9.7,24.3,18.1,48.4,13.9
					c45.6-7.8,78.1-29.3,55.4,49.3C-1307.1,180.3-1314,194.7-1322.3,208.4"/>
				<path class="st5" d="M-1362.5,210.2c-16.5-12.7-42-18.8-31.5-48.1c7.7-21.8,31-24.9-9.1-49.2c-9.7-5.8-17.4-10.1-26.7-15.8
					c-18.8-11.6-31.7-22.6-43.7-41.3c-7-10.9-8.9-18.4-10.7-32.3c-29.2,43.2-31.6,99.2-0.7,144c11.7,17,28.9,33.2,50.9,43.3
					c19.7,9,37,13.2,59.6,12.3C-1363,222.5-1360.8,222.9-1362.5,210.2"/>
				<path class="st4" d="M-764.8,346h7c0.1,2.8,0.9,5,2.5,6.7c1.5,1.7,3.5,2.5,5.9,2.5c2.7,0,4.8-0.8,6.4-2.5
					c1.6-1.6,2.4-3.9,2.4-6.7c0-2.4-0.6-4.3-1.8-5.6c-1.2-1.3-3.6-2.6-7.4-3.7c-0.2-0.1-0.5-0.1-1-0.3c-4.5-1.2-7.7-3.2-9.7-5.9
					c-0.9-1.2-1.6-2.5-2-3.9c-0.5-1.4-0.7-2.8-0.7-4.4c0-4.6,1.4-8.3,4.1-11.2c2.7-2.8,6.3-4.3,10.7-4.3c4.1,0,7.4,1.3,9.9,3.8
					c2.5,2.5,3.9,6,4.2,10.5h-7.3c-0.1-2.1-0.8-3.9-2.2-5.2c-1.3-1.3-2.9-2-4.9-2c-2.1,0-3.9,0.7-5.2,2.2c-1.3,1.5-2,3.4-2,5.7
					c0,0.8,0.1,1.6,0.4,2.3c0.3,0.7,0.6,1.4,1.1,2c1.1,1.3,3.3,2.3,6.8,3.3c1.6,0.4,2.8,0.8,3.7,1.1c3.5,1.3,6.2,3.3,8,5.8
					c1.8,2.5,2.7,5.6,2.7,9.1c0,5.2-1.5,9.4-4.4,12.5c-2.9,3.2-6.9,4.8-11.7,4.8c-4.6,0-8.3-1.5-11.2-4.5
					C-763.3,355-764.7,351-764.8,346 M-789.6,361.5h-7.8V315h-10.1v-7.3h27.9v7.3h-10.1V361.5z M-859.1,361.5h-7.8v-53.8h8
					l26.4,40.7l-0.4-40.7h7.7v53.8h-7.5l-27-41.9L-859.1,361.5z M-917.6,345.9l-6.1,15.7h-8.3l21-53.8h7.6l21,53.8h-8.5l-5.9-15.7
					H-917.6z M-899.6,338.3l-7.6-20.4l-7.7,20.4H-899.6z M-948.5,361.5h-7.8V315h-10.1v-7.3h27.9v7.3h-10.1V361.5z M-976.8,361.5
					h-25.4v-53.8h7.8v46.4h17.6V361.5z M-1058,307.7h7.8v34.2c0,4.9,0.7,8.3,2.2,10.1c1.5,1.9,3.9,2.8,7.4,2.8c3.3,0,5.7-1,7.1-2.9
					c1.4-1.9,2.1-5.3,2.1-10.1v-34.2h7.8v34.1c0,3.6-0.2,6.4-0.6,8.4c-0.4,1.9-1.1,3.6-2,5.1c-1.6,2.5-3.6,4.3-5.9,5.5
					c-2.3,1.2-5.1,1.8-8.2,1.8c-3.5,0-6.4-0.6-8.7-1.7c-2.4-1.1-4.4-3-6.1-5.5c-1-1.4-1.7-3-2.1-4.8c-0.4-1.8-0.6-4.7-0.6-8.7V307.7
					z M-1108.7,346h7c0.1,2.8,0.9,5,2.5,6.7c1.5,1.7,3.5,2.5,5.9,2.5c2.7,0,4.8-0.8,6.4-2.5c1.6-1.6,2.4-3.9,2.4-6.7
					c0-2.4-0.6-4.3-1.8-5.6c-1.2-1.3-3.6-2.6-7.4-3.7c-0.2-0.1-0.5-0.1-1-0.3c-4.5-1.2-7.7-3.2-9.7-5.9c-0.9-1.2-1.6-2.5-2-3.9
					c-0.5-1.4-0.7-2.8-0.7-4.4c0-4.6,1.4-8.3,4.1-11.2c2.7-2.8,6.3-4.3,10.7-4.3c4.1,0,7.4,1.3,9.9,3.8c2.5,2.5,3.9,6,4.2,10.5h-7.3
					c-0.1-2.1-0.8-3.9-2.2-5.2c-1.3-1.3-2.9-2-4.9-2c-2.1,0-3.9,0.7-5.2,2.2c-1.3,1.5-2,3.4-2,5.7c0,0.8,0.1,1.6,0.4,2.3
					c0.3,0.7,0.6,1.4,1.1,2c1.1,1.3,3.3,2.3,6.8,3.3c1.6,0.4,2.8,0.8,3.7,1.1c3.5,1.3,6.2,3.3,8,5.8c1.8,2.5,2.7,5.6,2.7,9.1
					c0,5.2-1.5,9.4-4.4,12.5c-3,3.2-6.9,4.8-11.7,4.8c-4.6,0-8.3-1.5-11.2-4.5C-1107.2,355-1108.6,351-1108.7,346 M-1161.6,361.5
					h-7.8v-53.8h8l26.4,40.7l-0.4-40.7h7.7v53.8h-7.5l-27-41.9L-1161.6,361.5z M-1243.8,334.3c0-3.8,0.7-7.3,2.1-10.7
					c1.4-3.4,3.5-6.4,6.3-9.1c2.6-2.6,5.5-4.5,8.7-5.8c3.2-1.3,6.6-2,10.3-2c3.8,0,7.2,0.7,10.5,2c3.2,1.3,6.1,3.3,8.8,5.9
					c2.7,2.7,4.8,5.7,6.2,9c1.4,3.3,2.1,6.9,2.1,10.8c0,3.8-0.6,7.3-1.8,10.5c-1.2,3.2-2.9,6.1-5.3,8.7c-2.8,3-5.9,5.3-9.3,6.8
					c-3.4,1.5-7.2,2.3-11.2,2.3c-4,0-7.8-0.8-11.2-2.3c-3.4-1.5-6.5-3.8-9.2-6.9c-2.3-2.5-4-5.4-5.2-8.7
					C-1243.2,341.5-1243.8,338-1243.8,334.3 M-1235.7,334.4c0,2.8,0.5,5.4,1.4,8c0.9,2.5,2.3,4.6,4,6.5c1.9,1.9,4,3.4,6.4,4.5
					c2.4,1.1,4.9,1.6,7.4,1.6c5.6,0,10.2-2,14-5.9c3.7-3.9,5.6-8.8,5.6-14.7c0-2.5-0.5-4.9-1.3-7.1c-0.9-2.3-2.2-4.3-3.9-6.2
					c-2-2.2-4.2-3.8-6.6-4.9c-2.3-1-4.9-1.6-7.7-1.6c-2.5,0-4.9,0.5-7.2,1.4s-4.3,2.4-6.1,4.2c-1.8,1.9-3.3,4.1-4.3,6.6
					C-1235.2,329.2-1235.7,331.8-1235.7,334.4 M-1261.7,348.1c-2.3,4.7-5.6,8.3-9.7,10.8s-8.9,3.7-14.3,3.7c-4,0-7.8-0.8-11.2-2.3
					c-3.4-1.5-6.5-3.8-9.2-6.9c-2.3-2.5-4-5.4-5.2-8.7c-1.2-3.2-1.8-6.7-1.8-10.4c0-3.7,0.7-7.3,2.1-10.7c1.4-3.4,3.5-6.4,6.3-9.2
					c2.6-2.6,5.5-4.5,8.7-5.8c3.2-1.3,6.6-2,10.3-2c5.5,0,10.4,1.3,14.5,3.9c4.2,2.6,7.3,6.3,9.4,11.1h-9.2
					c-1.7-2.4-3.8-4.2-6.4-5.4c-2.5-1.2-5.4-1.8-8.5-1.8c-2.5,0-4.9,0.5-7.2,1.4c-2.3,1-4.3,2.4-6.1,4.2c-1.8,1.9-3.3,4.1-4.3,6.6
					c-1,2.5-1.6,5.1-1.6,7.7c0,2.8,0.5,5.4,1.4,8c0.9,2.5,2.3,4.6,4,6.5c1.8,1.9,4,3.4,6.4,4.5c2.4,1.1,4.9,1.6,7.4,1.6
					c3.1,0,5.9-0.6,8.3-1.8c2.5-1.2,4.5-2.8,6.1-5.1H-1261.7z M-1354.3,361.5h-27.9v-53.8h27.9v7.2h-20.1v16h20.1v7h-20.1v16.1h20.1
					V361.5z M-1431,361.5h-15.1v-53.8h17.3c8.1,0,14.6,2.5,19.6,7.5c5,5,7.4,11.5,7.4,19.6c0,4.6-0.9,8.7-2.8,12.5
					c-1.9,3.8-4.5,6.9-8,9.4c-2.4,1.7-4.9,2.9-7.6,3.7C-1422.9,361.2-1426.5,361.5-1431,361.5 M-1438.6,354.3h9.4
					c6,0,10.7-1.7,14.2-5.2c3.5-3.5,5.2-8.2,5.2-14.2c0-6.2-1.9-11.1-5.5-14.6c-3.7-3.5-8.8-5.2-15.3-5.2h-8V354.3z M-1496.5,345.9
					l-6.1,15.7h-8.3l21-53.8h7.6l21,53.8h-8.5l-5.9-15.7H-1496.5z M-1478.4,338.3l-7.6-20.4l-7.7,20.4H-1478.4z M-1551.1,361.5h-7.8
					v-53.8h15.5c6.5,0,11.4,1.5,14.8,4.5c3.4,3,5.1,7.3,5.1,12.9c0,4.4-1.4,8-4.3,11c-2.8,2.9-6.5,4.5-11,4.7l15.3,20.6h-9.8
					l-17.8-25V361.5z M-1551.1,335.7h4c5.4,0,9.4-0.9,12-2.6c2.6-1.7,3.9-4.4,3.9-8c0-3.5-1.1-6-3.4-7.6c-2.3-1.6-5.8-2.4-10.7-2.4
					h-5.8V335.7z M-1586.6,361.5h-7.8V315h-10.1v-7.3h27.9v7.3h-10.1V361.5z M-1673.6,361.5h-7.8v-53.8h7.8v22.8h21.9v-22.8h7.8
					v53.8h-7.8v-23.3h-21.9V361.5z M-1732.6,346h7c0.1,2.8,0.9,5,2.5,6.7c1.5,1.7,3.5,2.5,5.9,2.5c2.7,0,4.8-0.8,6.4-2.5
					c1.6-1.6,2.4-3.9,2.4-6.7c0-2.4-0.6-4.3-1.8-5.6c-1.2-1.3-3.6-2.6-7.4-3.7c-0.2-0.1-0.5-0.1-1-0.3c-4.5-1.2-7.7-3.2-9.7-5.9
					c-0.9-1.2-1.6-2.5-2-3.9c-0.5-1.4-0.7-2.8-0.7-4.4c0-4.6,1.4-8.3,4.1-11.2c2.7-2.8,6.3-4.3,10.7-4.3c4.1,0,7.4,1.3,9.9,3.8
					c2.5,2.5,3.9,6,4.2,10.5h-7.3c-0.1-2.1-0.8-3.9-2.2-5.2c-1.3-1.3-2.9-2-4.9-2c-2.1,0-3.9,0.7-5.2,2.2c-1.3,1.5-2,3.4-2,5.7
					c0,0.8,0.1,1.6,0.4,2.3c0.3,0.7,0.6,1.4,1.1,2c1.1,1.3,3.3,2.3,6.8,3.3c1.6,0.4,2.8,0.8,3.7,1.1c3.5,1.3,6.2,3.3,8,5.8
					c1.8,2.5,2.7,5.6,2.7,9.1c0,5.2-1.5,9.4-4.4,12.5c-2.9,3.2-6.9,4.8-11.7,4.8c-4.6,0-8.3-1.5-11.2-4.5
					C-1731.1,355-1732.6,351-1732.6,346 M-1775.7,361.5h-7.8v-53.8h7.8V361.5z M-1775.4,334.8l20.3-27.1h9.4l-20.9,26.7l20.3,27.1
					h-9.8L-1775.4,334.8z M-1834.2,345.9l-6.1,15.7h-8.3l21-53.8h7.6l21,53.8h-8.5l-5.9-15.7H-1834.2z M-1816.1,338.3l-7.6-20.4
					l-7.7,20.4H-1816.1z M-1910.1,361.5h-7.5v-53.8h11.5l15.6,41.6l15.6-41.6h11.4v53.8h-7.3l0.5-46.7l-17.5,46.7h-5.5l-17.4-46.7
					L-1910.1,361.5z M-1968.3,345.9l-6.1,15.7h-8.3l21-53.8h7.6l21,53.8h-8.5l-5.9-15.7H-1968.3z M-1950.2,338.3l-7.6-20.4
					l-7.7,20.4H-1950.2z M-2026.8,346h7c0.1,2.8,0.9,5,2.5,6.7c1.5,1.7,3.5,2.5,5.9,2.5c2.7,0,4.8-0.8,6.4-2.5
					c1.6-1.6,2.4-3.9,2.4-6.7c0-2.4-0.6-4.3-1.8-5.6c-1.2-1.3-3.6-2.6-7.4-3.7c-0.2-0.1-0.5-0.1-1-0.3c-4.5-1.2-7.7-3.2-9.7-5.9
					c-0.9-1.2-1.6-2.5-2-3.9c-0.5-1.4-0.7-2.8-0.7-4.4c0-4.6,1.4-8.3,4.1-11.2c2.7-2.8,6.3-4.3,10.7-4.3c4.1,0,7.4,1.3,9.9,3.8
					c2.5,2.5,3.9,6,4.2,10.5h-7.3c-0.1-2.1-0.8-3.9-2.2-5.2c-1.3-1.3-2.9-2-4.9-2c-2.1,0-3.9,0.7-5.2,2.2c-1.3,1.5-2,3.4-2,5.7
					c0,0.8,0.1,1.6,0.4,2.3c0.3,0.7,0.6,1.4,1.1,2c1.1,1.3,3.3,2.3,6.8,3.3c1.6,0.4,2.8,0.8,3.7,1.1c3.5,1.3,6.2,3.3,8,5.8
					c1.8,2.5,2.7,5.6,2.7,9.1c0,5.2-1.5,9.4-4.4,12.5c-2.9,3.2-6.9,4.8-11.7,4.8c-4.6,0-8.3-1.5-11.2-4.5
					C-2025.3,355-2026.7,351-2026.8,346"/>
				<path class="st4" d="M-892.3,432.6h2.7c0.1,1.8,0.6,3.2,1.5,4.3c1,1.1,2.2,1.6,3.8,1.6c1.7,0,3-0.5,4-1.6c1-1.1,1.5-2.5,1.5-4.3
					c0-2.6-2-4.6-6.1-6c-0.3-0.1-0.6-0.2-0.7-0.2c-2.1-0.7-3.7-1.7-4.6-2.8c-0.9-1.1-1.4-2.6-1.4-4.4c0-2.3,0.7-4.2,2.2-5.7
					c1.4-1.5,3.3-2.2,5.6-2.2c2.2,0,3.9,0.7,5.2,2c1.3,1.3,2,3.2,2.1,5.7h-2.7c-0.1-1.6-0.6-2.8-1.4-3.7c-0.8-0.9-1.9-1.3-3.2-1.3
					c-1.4,0-2.6,0.5-3.5,1.4c-0.9,0.9-1.4,2.1-1.4,3.6c0,0.8,0.1,1.4,0.4,2c0.3,0.6,0.7,1.1,1.3,1.5c0.6,0.4,1.8,1,3.5,1.5
					c1,0.3,1.8,0.6,2.3,0.8c1.9,0.7,3.3,1.7,4.1,2.8c0.8,1.1,1.3,2.6,1.3,4.5c0,2.8-0.8,5.1-2.3,6.8c-1.5,1.7-3.6,2.6-6.1,2.6
					c-2.4,0-4.3-0.8-5.8-2.4C-891.5,437.4-892.2,435.3-892.3,432.6 M-916.2,424.9h12.3v2.9h-12.3v10.4h12.3v2.8h-15.1v-29.1h15.1
					v2.9h-12.3V424.9z M-934.5,419.4c-1.3-1.8-2.8-3.1-4.4-4c-1.6-0.9-3.5-1.3-5.5-1.3c-3.2,0-6,1.2-8.3,3.6
					c-2.3,2.4-3.5,5.3-3.5,8.6c0,3.5,1.1,6.5,3.4,8.9c2.3,2.4,5.1,3.6,8.3,3.6c2,0,3.8-0.4,5.5-1.3c1.6-0.8,3-2.1,4.2-3.8h3.4
					c-1.3,2.5-3.1,4.4-5.4,5.8c-2.2,1.4-4.8,2-7.5,2c-4.3,0-7.9-1.5-10.7-4.4c-2.9-2.9-4.3-6.6-4.3-10.9c0-2,0.4-4,1.2-5.8
					c0.8-1.8,1.9-3.5,3.4-4.9c1.4-1.4,2.9-2.4,4.7-3.1c1.7-0.7,3.6-1.1,5.6-1.1c2.9,0,5.5,0.7,7.8,2.1c2.3,1.4,4.1,3.4,5.5,6H-934.5
					z M-971,440.9h-2.9v-29.1h2.9V440.9z M-1008,411.8h2.9l9.2,24.8l9.3-24.8h2.9l-11,29.1h-2.3L-1008,411.8z M-1032.7,414.7v26.3
					h-2.8v-29.1h7.8c1.7,0,3.1,0.1,4.2,0.4c1.1,0.3,2,0.7,2.9,1.3c1.2,0.8,2.1,1.9,2.8,3.3c0.7,1.4,1,2.8,1,4.3c0,2.3-0.7,4.2-2,5.8
					c-1.3,1.6-3,2.5-5,2.7l7,11.4h-3.4l-8.6-14.1h2.8c1.8,0,3.3-0.5,4.5-1.6c1.2-1.1,1.7-2.5,1.7-4.2c0-1-0.2-2-0.5-2.8
					c-0.3-0.8-0.9-1.6-1.6-2.2c-0.6-0.5-1.3-0.9-2.1-1.1c-0.8-0.2-2.2-0.3-4.3-0.3H-1032.7z M-1060.7,424.9h12.3v2.9h-12.3v10.4
					h12.3v2.8h-15.1v-29.1h15.1v2.9h-12.3V424.9z M-1092,432.6h2.7c0.1,1.8,0.6,3.2,1.5,4.3c1,1.1,2.2,1.6,3.8,1.6
					c1.7,0,3-0.5,4-1.6c1-1.1,1.5-2.5,1.5-4.3c0-2.6-2-4.6-6.1-6c-0.3-0.1-0.6-0.2-0.7-0.2c-2.1-0.7-3.7-1.7-4.6-2.8
					c-0.9-1.1-1.4-2.6-1.4-4.4c0-2.3,0.7-4.2,2.2-5.7c1.4-1.5,3.3-2.2,5.6-2.2c2.2,0,3.9,0.7,5.2,2c1.3,1.3,2,3.2,2.1,5.7h-2.7
					c-0.1-1.6-0.6-2.8-1.4-3.7c-0.8-0.9-1.9-1.3-3.2-1.3c-1.4,0-2.6,0.5-3.5,1.4c-0.9,0.9-1.4,2.1-1.4,3.6c0,0.8,0.1,1.4,0.4,2
					c0.3,0.6,0.7,1.1,1.3,1.5c0.6,0.4,1.8,1,3.5,1.5c1,0.3,1.8,0.6,2.3,0.8c1.9,0.7,3.3,1.7,4.1,2.8c0.8,1.1,1.3,2.6,1.3,4.5
					c0,2.8-0.8,5.1-2.3,6.8c-1.5,1.7-3.6,2.6-6.1,2.6c-2.4,0-4.3-0.8-5.8-2.4C-1091.2,437.4-1092,435.3-1092,432.6 M-1121.7,450.6
					h-2.2v-41h2.2V450.6z M-1170.3,432.6h2.7c0.1,1.8,0.6,3.2,1.5,4.3c1,1.1,2.2,1.6,3.8,1.6c1.7,0,3-0.5,4-1.6
					c1-1.1,1.5-2.5,1.5-4.3c0-2.6-2-4.6-6.1-6c-0.3-0.1-0.6-0.2-0.7-0.2c-2.1-0.7-3.7-1.7-4.6-2.8c-0.9-1.1-1.4-2.6-1.4-4.4
					c0-2.3,0.7-4.2,2.2-5.7c1.4-1.5,3.3-2.2,5.6-2.2c2.2,0,3.9,0.7,5.2,2c1.3,1.3,2,3.2,2.1,5.7h-2.7c-0.1-1.6-0.6-2.8-1.4-3.7
					c-0.8-0.9-1.9-1.3-3.2-1.3c-1.4,0-2.6,0.5-3.5,1.4c-0.9,0.9-1.4,2.1-1.4,3.6c0,0.8,0.1,1.4,0.4,2c0.3,0.6,0.7,1.1,1.3,1.5
					c0.6,0.4,1.8,1,3.5,1.5c1,0.3,1.8,0.6,2.3,0.8c1.9,0.7,3.3,1.7,4.1,2.8c0.8,1.1,1.3,2.6,1.3,4.5c0,2.8-0.8,5.1-2.3,6.8
					c-1.5,1.7-3.6,2.6-6.1,2.6c-2.4,0-4.3-0.8-5.8-2.4C-1169.5,437.4-1170.3,435.3-1170.3,432.6 M-1184.6,437.5l-0.3-25.6h2.8v29.1
					h-3.4l-16-25.7l0.3,25.7h-2.8v-29.1h3.4L-1184.6,437.5z M-1245.5,426.2c0-2,0.4-4,1.2-5.8c0.8-1.8,1.9-3.5,3.4-4.9
					c1.4-1.4,3-2.4,4.7-3.2c1.7-0.7,3.6-1.1,5.6-1.1c2,0,3.9,0.4,5.7,1.1c1.7,0.7,3.3,1.8,4.8,3.2c1.5,1.5,2.6,3.1,3.3,4.9
					c0.7,1.8,1.1,3.7,1.1,5.8c0,2.1-0.3,4-1,5.7c-0.6,1.7-1.6,3.3-2.9,4.7c-1.5,1.6-3.2,2.8-5,3.7c-1.9,0.8-3.9,1.2-6.1,1.2
					c-4.2,0-7.7-1.5-10.5-4.4C-1244.1,434.2-1245.5,430.5-1245.5,426.2 M-1242.5,426.3c0,3.6,1.2,6.5,3.5,8.9
					c2.3,2.4,5.2,3.6,8.5,3.6c3.3,0,6.1-1.2,8.4-3.6c2.3-2.4,3.4-5.4,3.4-9c0-3.3-1.2-6.2-3.5-8.6c-2.3-2.4-5.2-3.6-8.5-3.6
					c-1.3,0-2.6,0.2-3.9,0.7c-1.3,0.5-2.4,1.1-3.5,2c-1.4,1.2-2.5,2.6-3.3,4.3C-1242.1,422.7-1242.5,424.5-1242.5,426.3
					 M-1257.3,440.9h-2.9v-29.1h2.9V440.9z M-1276.8,440.9h-2.9v-26.3h-5.8v-2.9h14.5v2.9h-5.8V440.9z M-1314.4,411.8h2.9v18.4
					c0,1.4,0.1,2.5,0.2,3.2c0.1,0.7,0.3,1.3,0.6,1.9c0.5,1.1,1.3,2,2.3,2.6c1,0.6,2.1,0.9,3.4,0.9c2.2,0,3.8-0.8,4.9-2.3
					c1.1-1.5,1.6-3.8,1.6-7v-17.8h2.8v18.5c0,3.8-0.8,6.6-2.3,8.4c-1.5,1.9-3.8,2.8-6.8,2.8c-3.3,0-5.7-0.9-7.2-2.7
					c-1.5-1.8-2.3-4.6-2.3-8.5V411.8z M-1324.9,440.9h-13.1v-29.1h2.9v26.3h10.2V440.9z M-1379.6,426.2c0-2,0.4-4,1.2-5.8
					c0.8-1.8,1.9-3.5,3.4-4.9c1.4-1.4,3-2.4,4.7-3.2c1.7-0.7,3.6-1.1,5.6-1.1c2,0,3.9,0.4,5.7,1.1c1.7,0.7,3.3,1.8,4.8,3.2
					c1.5,1.5,2.6,3.1,3.3,4.9c0.7,1.8,1.1,3.7,1.1,5.8c0,2.1-0.3,4-1,5.7c-0.6,1.7-1.6,3.3-2.9,4.7c-1.5,1.6-3.2,2.8-5,3.7
					c-1.9,0.8-3.9,1.2-6.1,1.2c-4.2,0-7.7-1.5-10.5-4.4C-1378.2,434.2-1379.6,430.5-1379.6,426.2 M-1376.6,426.3
					c0,3.6,1.2,6.5,3.5,8.9c2.3,2.4,5.2,3.6,8.5,3.6c3.3,0,6.1-1.2,8.4-3.6c2.3-2.4,3.4-5.4,3.4-9c0-3.3-1.2-6.2-3.5-8.6
					c-2.3-2.4-5.2-3.6-8.5-3.6c-1.3,0-2.6,0.2-3.9,0.7c-1.3,0.5-2.4,1.1-3.5,2c-1.4,1.2-2.5,2.6-3.3,4.3
					C-1376.2,422.7-1376.6,424.5-1376.6,426.3 M-1406.6,432.6h2.7c0.1,1.8,0.6,3.2,1.5,4.3c1,1.1,2.2,1.6,3.8,1.6c1.7,0,3-0.5,4-1.6
					c1-1.1,1.5-2.5,1.5-4.3c0-2.6-2-4.6-6.1-6c-0.3-0.1-0.6-0.2-0.7-0.2c-2.1-0.7-3.7-1.7-4.6-2.8c-0.9-1.1-1.4-2.6-1.4-4.4
					c0-2.3,0.7-4.2,2.2-5.7c1.4-1.5,3.3-2.2,5.6-2.2c2.2,0,3.9,0.7,5.2,2c1.3,1.3,2,3.2,2.1,5.7h-2.7c-0.1-1.6-0.6-2.8-1.4-3.7
					c-0.8-0.9-1.9-1.3-3.2-1.3c-1.4,0-2.6,0.5-3.5,1.4c-0.9,0.9-1.4,2.1-1.4,3.6c0,0.8,0.1,1.4,0.4,2c0.3,0.6,0.7,1.1,1.3,1.5
					c0.6,0.4,1.8,1,3.5,1.5c1,0.3,1.8,0.6,2.3,0.8c1.9,0.7,3.3,1.7,4.1,2.8c0.8,1.1,1.3,2.6,1.3,4.5c0,2.8-0.8,5.1-2.3,6.8
					c-1.5,1.7-3.6,2.6-6.1,2.6c-2.4,0-4.3-0.8-5.8-2.4C-1405.8,437.4-1406.5,435.3-1406.6,432.6 M-1436.2,450.6h-2.2v-41h2.2V450.6z
					 M-1473.1,440.9h-2.9v-26.3h-5.8v-2.9h14.5v2.9h-5.8V440.9z M-1507.5,414.7v26.3h-2.8v-29.1h7.8c1.7,0,3.1,0.1,4.2,0.4
					c1.1,0.3,2,0.7,2.9,1.3c1.2,0.8,2.1,1.9,2.8,3.3c0.7,1.4,1,2.8,1,4.3c0,2.3-0.7,4.2-2,5.8c-1.3,1.6-3,2.5-5,2.7l7,11.4h-3.4
					l-8.7-14.1h2.8c1.8,0,3.3-0.5,4.5-1.6c1.2-1.1,1.7-2.5,1.7-4.2c0-1-0.2-2-0.5-2.8c-0.3-0.8-0.9-1.6-1.6-2.2
					c-0.6-0.5-1.3-0.9-2.1-1.1c-0.8-0.2-2.2-0.3-4.3-0.3H-1507.5z M-1551.5,426.2c0-2,0.4-4,1.2-5.8c0.8-1.8,1.9-3.5,3.4-4.9
					c1.4-1.4,3-2.4,4.7-3.2c1.7-0.7,3.6-1.1,5.6-1.1c2,0,3.9,0.4,5.7,1.1c1.7,0.7,3.3,1.8,4.8,3.2c1.5,1.5,2.6,3.1,3.3,4.9
					c0.7,1.8,1.1,3.7,1.1,5.8c0,2.1-0.3,4-1,5.7c-0.6,1.7-1.6,3.3-2.9,4.7c-1.5,1.6-3.2,2.8-5,3.7c-1.9,0.8-3.9,1.2-6.1,1.2
					c-4.2,0-7.7-1.5-10.5-4.4C-1550.1,434.2-1551.5,430.5-1551.5,426.2 M-1548.5,426.3c0,3.5,1.2,6.5,3.5,8.9
					c2.3,2.4,5.2,3.6,8.5,3.6c3.3,0,6.1-1.2,8.4-3.6c2.3-2.4,3.4-5.4,3.4-9c0-3.3-1.2-6.2-3.5-8.6c-2.3-2.4-5.2-3.6-8.5-3.6
					c-1.3,0-2.6,0.2-3.9,0.7c-1.2,0.5-2.4,1.1-3.5,2c-1.4,1.2-2.5,2.6-3.3,4.3C-1548.1,422.7-1548.5,424.5-1548.5,426.3
					 M-1578.9,411.8h6.2c1.8,0,3.2,0.1,4.3,0.3c1.1,0.2,2,0.5,2.7,0.9c1.3,0.8,2.3,1.8,2.9,3c0.7,1.2,1,2.6,1,4.2
					c0,1.5-0.3,2.8-0.9,4.1c-0.6,1.3-1.5,2.2-2.6,3c-0.8,0.5-1.7,0.9-2.8,1.1c-1.1,0.2-2.4,0.4-4.1,0.4h-3.8v12.2h-2.9V411.8z
					 M-1576,414.7v11.1h4.2c2.4,0,4.1-0.4,5.2-1.3c1.1-0.9,1.7-2.3,1.7-4.1c0-1.9-0.6-3.4-1.7-4.3c-1.1-0.9-2.9-1.4-5.4-1.4H-1576z
					 M-1607.4,411.8h6.2c1.8,0,3.2,0.1,4.3,0.3c1.1,0.2,2,0.5,2.7,0.9c1.3,0.8,2.3,1.8,2.9,3c0.7,1.2,1,2.6,1,4.2
					c0,1.5-0.3,2.8-0.9,4.1c-0.6,1.3-1.5,2.2-2.6,3c-0.8,0.5-1.7,0.9-2.8,1.1c-1.1,0.2-2.4,0.4-4.1,0.4h-3.8v12.2h-2.9V411.8z
					 M-1604.6,414.7v11.1h4.2c2.4,0,4.1-0.4,5.2-1.3c1.1-0.9,1.7-2.3,1.7-4.1c0-1.9-0.6-3.4-1.7-4.3c-1.1-0.9-2.9-1.4-5.4-1.4
					H-1604.6z M-1638.5,411.8h2.9v18.4c0,1.4,0.1,2.5,0.2,3.2c0.1,0.7,0.3,1.3,0.6,1.9c0.5,1.1,1.3,2,2.3,2.6c1,0.6,2.1,0.9,3.4,0.9
					c2.2,0,3.8-0.8,4.9-2.3c1.1-1.5,1.6-3.8,1.6-7v-17.8h2.8v18.5c0,3.8-0.8,6.6-2.3,8.4c-1.5,1.9-3.8,2.8-6.8,2.8
					c-3.3,0-5.7-0.9-7.2-2.7c-1.5-1.8-2.3-4.6-2.3-8.5V411.8z M-1666.5,432.6h2.7c0.1,1.8,0.6,3.2,1.5,4.3c1,1.1,2.2,1.6,3.8,1.6
					c1.7,0,3-0.5,4-1.6c1-1.1,1.5-2.5,1.5-4.3c0-2.6-2-4.6-6.1-6c-0.3-0.1-0.6-0.2-0.7-0.2c-2.1-0.7-3.7-1.7-4.6-2.8
					c-0.9-1.1-1.4-2.6-1.4-4.4c0-2.3,0.7-4.2,2.2-5.7c1.4-1.5,3.3-2.2,5.6-2.2c2.2,0,3.9,0.7,5.2,2c1.3,1.3,2,3.2,2.1,5.7h-2.7
					c-0.1-1.6-0.6-2.8-1.4-3.7c-0.8-0.9-1.9-1.3-3.2-1.3c-1.4,0-2.6,0.5-3.5,1.4c-0.9,0.9-1.4,2.1-1.4,3.6c0,0.8,0.1,1.4,0.4,2
					c0.3,0.6,0.7,1.1,1.3,1.5c0.6,0.4,1.8,1,3.5,1.5c1,0.3,1.8,0.6,2.3,0.8c1.9,0.7,3.3,1.7,4.1,2.8c0.8,1.1,1.3,2.6,1.3,4.5
					c0,2.8-0.8,5.1-2.3,6.8c-1.5,1.7-3.6,2.6-6.1,2.6c-2.4,0-4.3-0.8-5.8-2.4C-1665.7,437.4-1666.5,435.3-1666.5,432.6
					 M-1696.2,450.6h-2.2v-41h2.2V450.6z M-1744.9,432.6h2.7c0.1,1.8,0.6,3.2,1.5,4.3c1,1.1,2.2,1.6,3.8,1.6c1.7,0,3-0.5,4-1.6
					c1-1.1,1.5-2.5,1.5-4.3c0-2.6-2-4.6-6.1-6c-0.3-0.1-0.6-0.2-0.7-0.2c-2.1-0.7-3.7-1.7-4.6-2.8c-0.9-1.1-1.4-2.6-1.4-4.4
					c0-2.3,0.7-4.2,2.2-5.7c1.4-1.5,3.3-2.2,5.6-2.2c2.2,0,3.9,0.7,5.2,2c1.3,1.3,2,3.2,2.1,5.7h-2.7c-0.1-1.6-0.6-2.8-1.4-3.7
					c-0.8-0.9-1.9-1.3-3.2-1.3c-1.4,0-2.6,0.5-3.5,1.4c-0.9,0.9-1.4,2.1-1.4,3.6c0,0.8,0.1,1.4,0.4,2c0.3,0.6,0.7,1.1,1.3,1.5
					c0.6,0.4,1.8,1,3.5,1.5c1,0.3,1.8,0.6,2.3,0.8c1.9,0.7,3.3,1.7,4.1,2.8c0.8,1.1,1.3,2.6,1.3,4.5c0,2.8-0.8,5.1-2.3,6.8
					c-1.5,1.7-3.6,2.6-6.1,2.6c-2.4,0-4.3-0.8-5.8-2.4C-1744.1,437.4-1744.8,435.3-1744.9,432.6 M-1768.9,424.9h12.3v2.9h-12.3v10.4
					h12.3v2.8h-15.1v-29.1h15.1v2.9h-12.3V424.9z M-1783.4,440.9h-13.1v-29.1h2.9v26.3h10.2V440.9z M-1814.1,429.2l-5.5-14.6
					l-5.4,14.6H-1814.1z M-1829.5,440.9h-3l11.3-29.1h3.4l11.3,29.1h-3.1l-3.5-9.1h-13L-1829.5,440.9z M-1857.2,432.6h2.7
					c0.1,1.8,0.6,3.2,1.5,4.3c1,1.1,2.2,1.6,3.8,1.6c1.7,0,3-0.5,4-1.6c1-1.1,1.5-2.5,1.5-4.3c0-2.6-2-4.6-6.1-6
					c-0.3-0.1-0.6-0.2-0.7-0.2c-2.1-0.7-3.7-1.7-4.6-2.8c-0.9-1.1-1.4-2.6-1.4-4.4c0-2.3,0.7-4.2,2.2-5.7c1.4-1.5,3.3-2.2,5.6-2.2
					c2.2,0,3.9,0.7,5.2,2c1.3,1.3,2,3.2,2.1,5.7h-2.7c-0.1-1.6-0.6-2.8-1.4-3.7c-0.8-0.9-1.9-1.3-3.2-1.3c-1.4,0-2.6,0.5-3.5,1.4
					c-0.9,0.9-1.4,2.1-1.4,3.6c0,0.8,0.1,1.4,0.4,2c0.3,0.6,0.7,1.1,1.3,1.5c0.6,0.4,1.8,1,3.5,1.5c1,0.3,1.8,0.6,2.3,0.8
					c1.9,0.7,3.3,1.7,4.1,2.8c0.8,1.1,1.3,2.6,1.3,4.5c0,2.8-0.8,5.1-2.3,6.8c-1.5,1.7-3.6,2.6-6.1,2.6c-2.4,0-4.3-0.8-5.8-2.4
					C-1856.4,437.4-1857.2,435.3-1857.2,432.6"/>
			</g>
		</g>
	</g>
</g>
<g>
	<path d="M151,304.3C68,306.6-2.7,234.2,0.1,146c1.2-39.1,16.1-73,43.8-100.5C74.3,15.5,111.8,0.2,154.5,0
		c40.9-0.1,76.1,15.9,104.7,44.7c31.7,31.9,46.8,70.8,44.7,116.1C300.5,236.9,237.1,305.3,151,304.3z M211.6,263.2
		c34.3-15.3,75.7-63.1,65.3-131.4c-7.2-47.5-43.1-87.1-85-99c0,1.4-0.1,2.7,0,4c1.5,13.4-4,24.6-11.1,35.3
		c-6.9,10.5-13.3,21.3-16.5,33.6c-1.9,7.4-3.3,14.9-5.3,22.3c-1.7,6.3-6.5,8.6-12.4,6.3c-3.5-1.3-6.8-3.2-10.1-5
		c-5.9-3.1-11.5-6.8-17.6-9.4c-4.9-2.1-10.3-0.4-13,3.2c-3.1,4.1-2.8,8.4-0.1,12.6c1.6,2.5,3,5.3,5.2,7c6.7,5.2,13.7,10.1,20.7,14.8
		c11.2,7.5,22.9,13.8,37,11.8c6.6-0.9,13.1-2.5,19.7-3.6c11.1-1.9,22.2-3.7,33.4-5.3c11.4-1.6,16.4,6.5,16.1,16.1
		c-0.2,7-0.8,14.1-2,21C231.8,220.7,223.7,242.3,211.6,263.2z M47.7,81c-2.1,3.8-3.4,6.5-5,9c-12,19.3-16.7,40.7-17.6,62.9
		c-0.3,8.1,1.5,16.3,2.8,24.3c4,23.4,15.3,43.2,31,60.6c13.4,14.9,29.8,25.6,48.5,32.7c18.6,7.1,37.8,10.7,57.8,7.7
		c1.3-0.2,2.9-1.6,3.6-2.8c1.9-3.4,0.3-8.6-3.2-10.8c-5.9-3.8-12-7.3-17.7-11.4c-8.8-6.3-14.6-14.5-12.9-25.9
		c1.2-8.1,4.5-15.5,9.5-22.2c8.7-11.6,10.1-16.3-4-26.7c-8.9-6.6-18.6-12.1-28.1-17.8c-17.1-10.2-33.9-20.6-46.5-36.5
		C56.3,111.8,48.6,98.6,47.7,81z"/>
</g>
</svg>
