<?xml version="1.0" encoding="utf-8"?>
<!-- Generator: Adobe Illustrator 24.2.1, SVG Export Plug-In . SVG Version: 6.00 Build 0)  -->
<svg version="1.1" id="Layer_1" xmlns="http://www.w3.org/2000/svg" xmlns:xlink="http://www.w3.org/1999/xlink" x="0px" y="0px"
	 viewBox="0 0 1512 361.6" style="enable-background:new 0 0 1512 361.6;" xml:space="preserve">
<g>
	<path d="M461.3,44.7c0,57.2,0,114.5,0,172.4c-9.3,0-19.2,0-29.6,0c0-70.8,0-141.6,0-213.6c14.4,0,29-0.3,43.6,0.3
		c1.8,0.1,4.2,4.2,5.2,6.8c7.9,20.5,15.5,41.1,23.2,61.7c10.7,28.8,21.3,57.6,32,86.4c0.5,1.3,1.4,2.4,3.1,5
		c3.7-9.8,7-18.5,10.3-27.2c16.1-43,32.2-86,48.6-129c0.7-1.9,4-4,6.2-4c13.5-0.4,27.1-0.2,41.3-0.2c0,71.3,0,142.3,0,213.8
		c-9.7,0-19.4,0-29.5,0c0-57.4,0-115,0-175.1c-22.5,59.8-44.1,117.4-65.7,175c-0.6,0.2-1.1,0.5-1.7,0.5c-7.2-0.5-16.4,1.5-21.2-2.2
		c-4.9-3.8-5.7-13-8.3-19.9c-17.5-46.4-35-92.8-52.5-139.2c-1.5-3.9-2.6-7.8-3.9-11.8C462,44.5,461.7,44.6,461.3,44.7z"/>
	<path d="M1479,92.7c0-29.8,0-59.1,0-88.8c10.9,0,21.2,0,32,0c0,71,0,142,0,213.4c-10.5,0-20.7,0-31.9,0c0-30.1,0-60.2,0-90.7
		c-28.8,0-56.6,0-85,0c0,30.2,0,60.1,0,90.6c-10.5,0-20.4,0-30.8,0c0-71,0-141.7,0-213.1c9.9,0,19.8,0,30.4,0c0,29.5,0,58.8,0,88.7
		C1422.1,92.7,1449.9,92.7,1479,92.7z"/>
	<path d="M901.1,217.5c-12.9,0-24.1,0-35.8,0c-7.2-18.7-14.8-37.4-21.5-56.4c-1.6-4.6-3.6-5.7-7.8-5.7c-24.8,0.1-49.6,0-75,0
		c-7.3,18.9-14.6,37.8-21.6,56.7c-1.5,4-3.4,5.9-7.9,5.7c-9.2-0.4-18.4-0.1-28.9-0.1c2.7-7.6,5-14.4,7.6-21
		C734.9,134,759.6,71.3,784.5,8.8c0.9-2.3,4.5-3.6,6.8-5.4c0.2-0.1,0.6,0,0.9,0c8.1,0.1,17.7-2.4,23.7,1.2c5.2,3.1,6.6,13,9.3,20
		c20.5,52.2,40.9,104.4,61.3,156.6C891.2,192.9,895.9,204.6,901.1,217.5z M772.7,123.8c19.3,0,37.8,0,57.1,0
		c-9.3-25.2-18.3-49.5-28.3-76.3C791.4,74.5,782.1,99.1,772.7,123.8z"/>
	<path d="M372.1,217.7c-11,0-21.1,0.3-31.1-0.2c-2.3-0.1-5.7-2.6-6.5-4.7c-6.7-17-13.2-34.1-19.2-51.4c-1.6-4.6-3.9-6-8.6-6
		c-22.5,0.2-45,0.3-67.5-0.1c-5.7-0.1-8.1,2.2-9.9,6.9c-6,16.1-12.4,32-18.2,48.2c-1.9,5.3-4.5,7.8-10.5,7.4
		c-8.3-0.5-16.7-0.1-27.2-0.1c28.2-72.1,55.9-142.9,83.8-214.3c5.5,0,11.2,0,17,0c14.8,0,14.7,0.1,19.9,13.3
		c20.5,52.7,41.2,105.4,61.8,158.2C361.3,188.7,366.5,202.7,372.1,217.7z M243.8,124.2c19.4,0,37.8,0,57.4,0
		c-9.4-25.4-18.6-50.4-28.4-76.8C262.9,73.7,253.5,98.4,243.8,124.2z"/>
	<path d="M991.9,115.9c0,33.6,0,67.3,0,101.4c-10.7,0-21,0-31.9,0c0-71,0-141.9,0-213.4c10.4,0,20.6,0,31.9,0c0,34,0,68,0,102
		c0.6,0.2,1.3,0.4,1.9,0.7c8.1-10.6,16.3-21.2,24.4-31.9c17-22.6,34-45.2,51.1-67.8c1.1-1.4,2.7-3.3,4.1-3.3c12-0.3,24-0.2,37.9-0.2
		c-28.6,36.6-56,71.7-83.1,106.3c27.2,36.2,53.6,71.3,81.2,108c-14.3,0-26.9,0.5-39.3-0.4c-3-0.2-6.1-5.1-8.5-8.3
		c-22.8-31.2-45.4-62.5-68.1-93.8C993,115.4,992.4,115.6,991.9,115.9z"/>
	<path d="M0.2,154.2c10.1,0,19.2,0,28.6,0c0.5,11.4,4,21.6,12.5,28.8c13.5,11.4,30.4,8.8,42.4-0.1c10.4-7.6,14.5-28,8.9-41.5
		c-6.3-15.2-20.5-18.5-34-22.3c-19.6-5.6-38.2-13.2-47-32.9C-0.9,58.5,6.8,8.8,51.3,1.5c18.1-3,34.9-2.2,49.8,10.1
		c14.6,12.1,19.9,27.8,20,46.6c-10,0-19.1,0-28.7,0c-0.8-2.8-1.6-5.7-2.3-8.7c-2.6-10.7-14.1-19.8-25.4-20.3
		c-8.7-0.4-21.5,8-25.3,18.2c-8.4,22.3,4.2,34.8,27.3,40.6c15,3.7,29.3,8.5,41,18.8c16.7,14.7,20.4,34.3,18.5,55.1
		c-2.2,24.3-14.7,48.6-42.8,56.4c-28.1,7.7-52.7,2.7-70.7-20.2C3,185.8-0.8,170.9,0.2,154.2z"/>
	<path d="M1281.6,58.6c-5.4,0-9.5,0-13.5,0c-4.9-0.1-10.9,1.5-14.4-0.8c-3.2-2-3.5-8.3-5.3-12.6c-3.5-8.6-15.8-16.4-25-16
		c-10.9,0.5-22.5,9.5-25.2,19.6c-6.2,22.5,5.6,32.6,29,39.6c11.7,3.5,23.6,7.8,34.1,14c22.4,13,28.5,41.5,24.2,62.9
		c-2.3,11.5-7.8,22.7-13.7,33.1c-8.1,14.4-22.9,20.2-38.1,22.5c-13.2,2-26.7,1-39.4-4.8c-21.3-9.8-37.6-38.2-33.5-61.5
		c9.2,0,18.6,0,28.2,0c1.2,14,4.4,26.3,18.8,32.7c11.4,5.1,22.5,4.9,32.3-2c12.1-8.5,17-21,14.9-35.9c-3-20.7-20.1-25.2-35.9-29.9
		c-18.2-5.4-34.7-12.2-45.3-29.1c-18.9-29.8-3.1-83.3,37.6-89c22.1-3.1,41.1-0.4,56.6,17C1278,29.7,1280.7,43.1,1281.6,58.6z"/>
	<path d="M722,312.4c1.7,26.5-22.8,49.4-48.5,49.2c-26.4-0.2-48.2-22.2-48.2-49.1c0-26.1,19.2-49.5,48.4-49.6
		C700.6,262.7,723.8,285.5,722,312.4z M673.2,345.8c18.7,2.2,33.8-18.7,33.4-33.6c-0.5-18.5-15.3-34.6-33.3-33.8
		c-20.8,0.9-32,15.6-32.3,33.7C640.8,330.1,653.7,345.5,673.2,345.8z"/>
	<path d="M1351.8,358.7c-14.5,2-14.2,1.7-21.2-9.7c-12-19.4-24.7-38.4-38-59.1c0,23.9,0,46.4,0,69.2c-4.5,0-9,0-14,0
		c0-31.4,0-62.6,0-93.8c15-2.1,14.8-1.6,22.6,10.8c11.1,17.9,22.9,35.3,35.9,52.5c0-21.1,0-42.2,0-63.7c5.3,0,9.8,0,14.8,0
		C1351.8,296.3,1351.8,327.5,1351.8,358.7z"/>
	<path d="M769.2,359.3c-5.4,0-9.1,0-13.5,0c0-31.3,0-62.5,0-94.2c7.6-0.7,13.8-2.3,19.3,7.5c11.3,20,25,38.7,38.7,59.4
		c0-23.2,0-44.8,0-66.9c4.7,0,8.7,0,13.2,0c0,31,0,62.2,0,93.7c-8.3,2.6-14.2,0.5-19-7.4c-12-19.7-24.7-39-38.8-58.2
		C769.2,314.9,769.2,336.7,769.2,359.3z"/>
	<path d="M275.7,359.5c0-32,0-62.9,0-94.9c18.2,0.8,36.7-3.7,53.8,5.3c22.3,11.7,26.9,31.2,23,53.5c-4,22.6-22.3,35.4-43.9,36
		C297.9,359.8,287.3,359.5,275.7,359.5z M289.6,280.4c0,22.2,0,43.6,0,65.3c17.6,0.6,34.8,1.6,44.5-16.4c6.2-11.5,5.6-24-0.8-34.9
		C323.5,277.5,306.5,279.3,289.6,280.4z"/>
	<path d="M80.2,263.7c13.3,0.9,25.9,1.1,38.3,2.7c15.6,2,23.3,11.3,23.3,26.2c0,18.9-6.8,28.1-23.9,31.1
		c8.2,11.6,16.2,22.8,24.5,34.4c-16.2,3.4-18.1,2.4-28-12c-5.8-8.5-11.8-16.9-19.3-27.4c0,15.1,0,27.5,0,40.4c-5.3,0-9.8,0-14.9,0
		C80.2,327.9,80.2,296.7,80.2,263.7z M95.5,313c4.8,0,9.1,0.3,13.3-0.1c10.5-0.9,18.6-7.5,19.1-16.1c0.4-7.5-3.2-13.7-10.4-15.8
		c-6.9-2-14.3-2.2-22-3.2C95.5,289.9,95.5,300.8,95.5,313z"/>
	<path d="M595.4,290.1c-8.4,0-15.3,1-22.7-5.5c-12.9-11.3-32-7.8-44.1,6c-10.7,12.1-9.3,31.8,1.2,44.4c11.2,13.5,33.5,14.3,46.5,2.2
		c4-3.7,11.8-3.4,18.4-5c-0.3,13.6-18.2,27.7-34.5,29c-27,2.1-50.2-14.1-54.2-39.8c-4.1-26.2,9.1-48.5,33.4-56.4
		C562,257.7,589.7,268.7,595.4,290.1z"/>
	<path d="M213.4,262.6c13.1,33.6,25.3,64.7,37.9,96.9c-4.5,0-8.3,0.6-11.7-0.2c-2.7-0.7-6.3-2.7-7.2-5c-9.1-22.5-9-22.5-33.2-22.5
		c-3.1,0-6.3,0-9.3,0c-1.9,4.8-3.7,9.2-5.4,13.6c-1.7,4.5-3.4,8.9-5.3,13.7c-5.1,0-10.5,0-16.4,0c11.9-30.6,23.3-60.9,35.8-90.6
		C199.9,265.3,207.7,264.7,213.4,262.6z M218.6,317.8c-4-10.7-7.6-20.3-11.8-31.7c-4.3,11.7-7.8,21.4-11.6,31.7
		C203.2,317.8,210.3,317.8,218.6,317.8z"/>
	<path d="M1192.3,331.9c-3.1,8-5.9,15.3-8.9,22.7c-3.7,9.1-11.3,3.5-18.5,5.3c6.6-17,12.7-32.9,18.9-48.8
		c4.9-12.6,9.7-25.2,14.7-37.8c1.8-4.5,2.9-9.2,10.2-9c6.6,0.2,8.9,2.5,11.1,8.4c9.9,26.7,20.5,53,30.9,79.5c0.9,2.2,1.3,4.6,2,7
		c-16.5,0.8-16.5,0.8-21.4-13.8c-4.5-13.5-4.5-13.5-18.7-13.5C1206,331.9,1199.4,331.9,1192.3,331.9z M1220.9,317.7
		c-3.8-10.4-7.4-20.1-11.5-31.2c-4.3,10.9-8.1,20.6-12.2,31.2C1205.7,317.7,1212.8,317.7,1220.9,317.7z"/>
	<path d="M994,264.9c4.9,0,8.8,0,13.7,0c0,20.3-0.2,40.4,0.1,60.5c0.1,10.4,0.3,20.4-8.6,28.3c-10.2,9-21.6,9.6-33.4,5.8
		c-11.3-3.6-17.9-12.5-18.2-24c-0.8-23.2-0.2-46.5-0.2-70.3c5.1,0,9.6,0,15.4,0c0,2.8,0,5.8,0,8.8c0,18.7-0.1,37.4,0,56.1
		c0,7.3,2.5,13.9,10.4,15.5c7.1,1.4,15.1,1.4,18.1-6.9c2.1-5.7,2.5-12.2,2.6-18.4C994.2,302.1,994,284,994,264.9z"/>
	<path d="M1455.3,330.5c4.3,0,8,0,11.8,0c1.4,3,2.3,6.6,4.5,8.8c3.1,3.2,7.7,8,10.9,7.5c4.8-0.8,11.1-4.7,12.8-8.8
		c1.7-4.2-0.2-11.2-3-15.4c-2.3-3.4-8-4.9-12.5-6.2c-22.1-6.4-26.6-24.9-18.1-41.2c5-9.6,14-13,24.4-12.3c9.4,0.6,16.9,4.5,20.5,14
		c1.3,3.4,2.5,6.8,4.1,11.1c-5.5,0-10.2,0-15.1,0c-2.6-5.4-5.3-11.3-13.5-10.4c-6.8,0.7-9.6,6-9.6,11.1c0.1,3.6,3.7,8.1,7,10.4
		c4,2.8,9.3,3.7,14.1,5.4c12.6,4.4,20.4,18.2,18,32.2c-2.5,14.9-13,23.5-26.8,25C1469.1,363.1,1452.9,349,1455.3,330.5z"/>
	<path d="M859.6,331c7.5-1.8,13.3-1.8,16.1,7.9c1,3.6,7.3,7.9,11.3,7.9c4,0,10.1-3.9,11.6-7.6c1.8-4.5,1.4-11.6-1.2-15.5
		c-2.5-3.8-8.8-5.8-13.8-7.2c-15.8-4.6-23.8-16.3-21.3-32.1c2.2-13.7,13.8-22.4,28.3-21.5c13.1,0.9,19.9,8.1,23.3,25.2
		c-4.8,0-9.5,0-14.3,0c0.4-0.6,0.8-1.2,1.3-1.8c-4.4-3.2-8.4-8.1-13.2-9.1c-5-1-8.7,3.8-10.5,9.1c-2.1,6,1.4,11.3,9.1,14.6
		c7.4,3.1,15.5,5.8,21.6,10.7c9.5,7.8,10.7,22.2,5,34.5c-5,10.6-17,16.7-30,15.1c-11.6-1.4-19.2-8.9-22.4-22.2
		c-0.5-2.2-1.1-4.3-1.5-6.5C859,332.1,859.4,331.5,859.6,331z"/>
	<path d="M402.2,304.5c11.5,0,22.3,0,33.6,0c0,4.6,0,8.5,0,13.4c-11.1,0-22.2,0-33.7,0c0,9.5,0,18,0,27.5c10.8,0,21.9,0,33.6,0
		c0,5.1,0,9.2,0,13.7c-16.2,0-32.3,0-48.9,0c0-31.3,0-62.5,0-94.1c16.3,0,32.3,0,48.9,0c0,4.2,0,8.3,0,13.1c-11.1,0-22,0-33.4,0
		C402.2,286.9,402.2,295.1,402.2,304.5z"/>
	<path d="M1124.2,278.1c-6.6,0-11.7,0-17.2,0c0-4.5,0-8.5,0-13c16.2,0,32.5,0,49.2,0c0,4.1,0,8,0,12.8c-5.2,0-10.5,0-16.7,0
		c0,27.5,0,54.1,0,81.1c-5.4,0-9.9,0-15.3,0C1124.2,332.5,1124.2,305.9,1124.2,278.1z"/>
	<path d="M1044.7,359c0-31.8,0-62.7,0-94c4.9,0,9.4,0,14.8,0c0,26.7,0,53.3,0,80.8c10.2,0,19.5,0,29.2,0c0,4.8,0,8.8,0,13.2
		C1074.2,359,1059.7,359,1044.7,359z"/>
	<path d="M32.7,359.2c-4.8,0-8.7,0-13.6,0c0-26.8,0-53.4,0-80.7c-5.9,0-11,0-16.8,0c0-4.7,0-8.8,0-13.5c15.6,0,31.3,0,47.3,0
		c0,4.3,0,8.2,0,13.1c-5.5,0-10.8,0-17,0C32.7,305.6,32.7,332.2,32.7,359.2z"/>
	<path d="M1413.2,359.3c-5.2,0-8.9,0-13.5,0c0-26.7,0-53.3,0-80.8c-6.2,0-11.5,0-17.2,0c0-4.9,0-8.8,0-13.3c15.4,0,31.1,0,47.3,0
		c0,3.9,0,7.8,0,12.6c-5,0-10.3,0-16.5,0C1413.2,305.3,1413.2,331.9,1413.2,359.3z"/>
</g>
</svg>
