<?xml version="1.0" encoding="utf-8"?>
<!-- Generator: Adobe Illustrator 24.2.1, SVG Export Plug-In . SVG Version: 6.00 Build 0)  -->
<svg version="1.1" id="Layer_1" xmlns="http://www.w3.org/2000/svg" xmlns:xlink="http://www.w3.org/1999/xlink" x="0px" y="0px"
	 viewBox="0 0 806.4 806.4" style="enable-background:new 0 0 806.4 806.4;" xml:space="preserve">
<style type="text/css">
	.st0{fill:#D90A2C;}
	.st1{fill:none;}
</style>
<g>
	<path d="M493.7,672.3c0,18.2,0,35.1,0,53.5c14.8,0,29-0.3,43.2,0.1c9.3,0.2,17.2,5,17.7,14.3c0.3,6-3.4,13.6-7.8,18.1
		c-3.1,3.2-10.3,3.2-15.7,3.2c-33.4,0.3-66.7,0.1-100.1,0.1c-50,0-100.1,0-150.1,0c-3.6,0-7.2,0.1-10.7-0.1
		c-11.4-0.6-18.9-7.2-19.3-17c-0.5-10,7.2-18,19-18.7c9.5-0.6,19.1-0.2,28.6-0.2c4.3,0,8.7,0,14,0c0-17.6,0-34.4,0-53.3
		c-4.1,0-8.7,0-13.2,0c-79.4,0-158.9,0-238.3,0C21.3,672.3,0,650.9,0,611.1c0-168.4,0-336.8,0-505.2c0-40.2,20.7-61,60.7-61
		c228.4,0,456.8,0,685.2,0c39.4,0,60.5,21,60.5,60.1c0,169.2,0,338.4,0,507.6c0,38.1-21.7,59.7-59.9,59.8c-79.4,0.1-158.9,0-238.3,0
		C503.5,672.3,498.8,672.3,493.7,672.3z M770.6,492.5c0-5.2,0-9.1,0-13c0-124.3,0-248.7,0-373c0-21-4.8-25.7-26-25.7
		c-227.6,0-455.2,0-682.8,0c-21.2,0-25.9,4.7-25.9,25.7c0,124.3,0,248.7,0,373c0,4.2,0.4,8.4,0.6,13
		C281.3,492.5,525.1,492.5,770.6,492.5z M35.8,529.6c0,26.3,0,52,0,77.7c0,25,4,29.1,28.9,29.1c225.6,0,451.3,0,676.9,0
		c4.4,0,8.8,0.3,13.1-0.4c8.7-1.5,15.3-6.5,15.5-15.5c0.5-30.1,0.2-60.1,0.2-90.9C525.2,529.6,281.2,529.6,35.8,529.6z M456.5,672.7
		c-36.1,0-70.9,0-106.3,0c0,17.6,0,34.8,0,51.8c35.9,0,70.9,0,106.3,0C456.5,707,456.5,690.5,456.5,672.7z"/>
	<path class="st0" d="M484,224.1c0-23.2,0-44.6,0-66c0.1-18.2,5.8-23.9,24.4-24c23-0.1,46.1,0,69.1,0c28.7,0,31.8,3.1,31.8,32.3
		c0,44.1,0,88.2,0,132.3c0,4.3,0,8.6,0,14.7c18.8,0,36.5,0,54.2,0c6.3,0,12.8-0.3,19,0.5c9.9,1.3,16.1,7.2,16.2,17.4
		c0.3,29.8,0.4,59.6,0,89.4c-0.1,11.9-7.4,18.2-20.3,18.3c-25,0.2-50,0.1-75.1,0.1c-61.6,0-123.1,0-184.7,0
		c-18.9,0-24.7-5.8-24.7-25.1c0-55.2-0.1-110.4,0-165.6c0-18.5,5.8-24.2,24.2-24.2C439.6,224,461,224.1,484,224.1z M520.5,170.5
		c0,78,0,154.8,0,231.8c17.9,0,35,0,51.8,0c0-77.7,0-154.5,0-231.8C554.8,170.5,538.2,170.5,520.5,170.5z M483.7,260.7
		c-18.3,0-35.5,0-52.9,0c0,47.8,0,94.8,0,141.5c18.2,0,35.4,0,52.9,0C483.7,354.9,483.7,308.4,483.7,260.7z M662.3,402.6
		c0-17.8,0-35,0-52.2c-17.9,0-35,0-52.4,0c0,17.9,0,34.7,0,52.2C627.5,402.6,644.3,402.6,662.3,402.6z"/>
	<path d="M213.6,439c-27.8,0-55.6,0.1-83.3,0c-14.7,0-23-6.9-22.7-18.3c0.3-11,8.3-17.4,22.4-17.5c56.8-0.1,113.5-0.1,170.3,0
		c14.1,0,22,6.5,22.1,17.7c0.1,11.2-7.8,18-21.7,18.1C271.6,439.1,242.6,439,213.6,439z"/>
	<path class="st0" d="M404.2,564.9c9.7,0.5,16.9,8.1,16.7,17.9c-0.2,9.9-8.9,18.1-18.6,17.5c-9.3-0.6-16.8-8.8-16.6-18.3
		C385.8,571.8,393.8,564.4,404.2,564.9z"/>
	<path class="st1" d="M196.3,173.9c-25.6,6.2-45.8,27.2-48.6,49.5c16,0,32,0,48.6,0C196.3,206.9,196.3,190.9,196.3,173.9z"/>
	<path class="st1" d="M233,175.2c0,20.6,0.2,41.1-0.1,61.7c-0.2,16.7-6.5,22.9-23.2,23c-20.6,0.1-41.2,0-62.7,0
		c8.3,35.6,42.7,57.7,79.4,52.6c35.5-5,61.8-38.2,59.9-75.6C284.9,207.1,258.8,176.4,233,175.2z"/>
	<path d="M214.5,134.2c-58.6,0.3-106.9,48.7-107,107.2c-0.1,59.5,47.8,107.7,107.2,107.8c59,0.1,107.2-47.5,107.5-106.3
		C322.7,182.9,274.1,133.9,214.5,134.2z M226.5,312.5c-36.7,5.2-71.1-17-79.4-52.6c0-20.2,0.3-36.5,0.6-36.5
		c2.8-22.3,23-43.3,48.6-49.5c20.2,0,36.6,0.6,36.6,1.3c25.9,1.2,51.9,31.9,53.4,61.8C288.3,274.4,262,307.5,226.5,312.5z"/>
	<path class="st0" d="M209.7,259.9c16.7-0.1,23-6.4,23.2-23c0.2-20.5,0.1-41.1,0.1-61.7c0-0.7-16.4-1.3-36.6-1.3c0,17,0,33,0,49.5
		c-16.7,0-32.6,0-48.6,0c-0.4,0-0.6,16.3-0.6,36.5C168.6,260,189.2,260.1,209.7,259.9z"/>
</g>
</svg>
