<?xml version="1.0" encoding="utf-8"?>
<!-- Generator: Adobe Illustrator 24.2.1, SVG Export Plug-In . SVG Version: 6.00 Build 0)  -->
<svg version="1.1" xmlns="http://www.w3.org/2000/svg" xmlns:xlink="http://www.w3.org/1999/xlink" x="0px" y="0px"
	 viewBox="0 0 304.5 243.1" style="enable-background:new 0 0 304.5 243.1;" xml:space="preserve">
<style type="text/css">
	.st0{opacity:0.5;}
	.st1{fill:#D90A2C;}
	.st2{fill:#25353A;}
	.st3{fill:#FFFFFF;}
	.st4{fill:#1C282B;}
	.st5{fill:#FF486B;}
	.st6{fill:#D87448;}
	.st7{fill:none;stroke:#FFFFFF;stroke-width:2;stroke-linecap:round;stroke-linejoin:round;stroke-miterlimit:10;}
	.st8{fill:#F8E6DA;}
	.st9{fill:#F5F5F5;}
	.st10{fill:none;stroke:#F5F5F5;stroke-width:3.2954;stroke-linecap:round;stroke-linejoin:round;stroke-miterlimit:10;}
	.st11{opacity:0.39;fill:#FFFFFF;}
	.st12{fill:#D7A46E;}
	.st13{fill:none;stroke:#DEF1FA;stroke-width:1.7398;stroke-linecap:round;stroke-linejoin:round;stroke-miterlimit:10;}
	.st14{fill:none;stroke:#FFFFFF;stroke-width:1.1598;stroke-linecap:round;stroke-linejoin:round;stroke-miterlimit:10;}
	.st15{fill:none;stroke:#8DB0BD;stroke-width:1.1598;stroke-linecap:round;stroke-linejoin:round;stroke-miterlimit:10;}
	.st16{fill:none;stroke:#E89B71;stroke-width:1.1598;stroke-linecap:round;stroke-linejoin:round;stroke-miterlimit:10;}
	.st17{fill:none;stroke:#D7A56C;stroke-width:1.1598;stroke-linecap:round;stroke-linejoin:round;stroke-miterlimit:10;}
	.st18{fill:none;stroke:#265559;stroke-width:1.1598;stroke-linecap:round;stroke-linejoin:round;stroke-miterlimit:10;}
	.st19{fill:none;stroke:#F8E6DA;stroke-width:1.1598;stroke-linecap:round;stroke-linejoin:round;stroke-miterlimit:10;}
	.st20{font-family:'Metropolis-Bold';}
	.st21{font-size:15.9942px;}
	.st22{fill:none;stroke:#FFFFFF;stroke-linecap:round;stroke-linejoin:round;stroke-miterlimit:10;}
	.st23{fill:#F7E5D9;}
	.st24{fill:#E89871;}
	.st25{fill:none;stroke:#D87448;stroke-width:2;stroke-linecap:round;stroke-linejoin:round;stroke-miterlimit:10;}
	.st26{fill:none;stroke:#D87448;stroke-width:2.2229;stroke-linecap:round;stroke-linejoin:round;stroke-miterlimit:10;}
	.st27{fill:none;stroke:#D87448;stroke-width:2;stroke-miterlimit:10;}
</style>
<g id="BACKGROUND">
</g>
<g id="OBJECTS">
	<g>
		<g class="st0">
			<path class="st1" d="M248.4,196.7l1.3-1.3c0.3-0.3,0.7-0.3,1-0.1c0.3,0.2,0.6,0.4,1,0.6c0.3,0.2,0.5,0.5,0.4,0.9l-0.5,1.8
				c-0.1,0.4,0.1,0.9,0.6,1l3.2,0.9c0.4,0.1,0.9-0.1,1-0.6l0.5-1.8c0.1-0.4,0.4-0.6,0.8-0.6c0.4,0,0.7,0,1.1,0
				c0.4,0,0.7,0.2,0.8,0.6l0.5,1.8c0.1,0.4,0.5,0.7,1,0.6l3.2-0.9c0.4-0.1,0.7-0.5,0.6-1l-0.5-1.8c-0.1-0.4,0.1-0.7,0.4-0.9
				c0.3-0.2,0.7-0.4,1-0.6c0.3-0.2,0.7-0.1,1,0.1l1.3,1.3c0.3,0.3,0.8,0.3,1.1,0l2.4-2.4c0.3-0.3,0.3-0.8,0-1.1l-1.3-1.3
				c-0.3-0.3-0.3-0.7-0.1-1c0.2-0.3,0.4-0.6,0.6-1c0.2-0.3,0.5-0.5,0.9-0.4l1.8,0.5c0.4,0.1,0.9-0.1,1-0.6l0.9-3.2
				c0.1-0.4-0.1-0.9-0.6-1l-1.8-0.5c-0.4-0.1-0.6-0.4-0.6-0.8c0-0.4,0-0.7,0-1.1c0-0.4,0.2-0.7,0.6-0.8l1.8-0.5
				c0.4-0.1,0.7-0.5,0.6-1l-0.9-3.2c-0.1-0.4-0.5-0.7-1-0.6l-1.8,0.5c-0.4,0.1-0.7-0.1-0.9-0.4c-0.2-0.3-0.4-0.7-0.6-1
				c-0.2-0.3-0.1-0.7,0.1-1l1.3-1.3c0.3-0.3,0.3-0.8,0-1.1l-2.4-2.4c-0.3-0.3-0.8-0.3-1.1,0l-1.3,1.3c-0.3,0.3-0.7,0.3-1,0.1
				c-0.3-0.2-0.6-0.4-1-0.6c-0.3-0.2-0.5-0.5-0.4-0.9l0.5-1.8c0.1-0.4-0.1-0.9-0.6-1l-3.2-0.9c-0.4-0.1-0.9,0.1-1,0.6l-0.5,1.8
				c-0.1,0.4-0.4,0.6-0.8,0.6c-0.4,0-0.7,0-1.1,0c-0.4,0-0.7-0.2-0.8-0.6l-0.5-1.8c-0.1-0.4-0.5-0.7-1-0.6l-3.2,0.9
				c-0.4,0.1-0.7,0.5-0.6,1l0.5,1.8c0.1,0.4-0.1,0.7-0.4,0.9c-0.3,0.2-0.7,0.4-1,0.6c-0.3,0.2-0.7,0.1-1-0.1l-1.3-1.3
				c-0.3-0.3-0.8-0.3-1.1,0l-2.4,2.4c-0.3,0.3-0.3,0.8,0,1.1l1.3,1.3c0.3,0.3,0.3,0.7,0.1,1c-0.2,0.3-0.4,0.6-0.6,1
				c-0.2,0.3-0.5,0.5-0.9,0.4l-1.8-0.5c-0.4-0.1-0.9,0.1-1,0.6l-0.9,3.2c-0.1,0.4,0.1,0.9,0.6,1l1.8,0.5c0.4,0.1,0.6,0.4,0.6,0.8
				c0,0.4,0,0.7,0,1.1c0,0.4-0.2,0.7-0.6,0.8l-1.8,0.5c-0.4,0.1-0.7,0.5-0.6,1l0.9,3.2c0.1,0.4,0.5,0.7,1,0.6l1.8-0.5
				c0.4-0.1,0.7,0.1,0.9,0.4c0.2,0.3,0.4,0.6,0.6,1c0.2,0.3,0.1,0.7-0.1,1l-1.3,1.3c-0.3,0.3-0.3,0.8,0,1.1l2.4,2.4
				C247.6,197,248.1,197,248.4,196.7z M250.8,176.1c4-4,10.6-4,14.6,0c4,4,4,10.6,0,14.6c-4,4-10.6,4-14.6,0
				C246.8,186.7,246.8,180.2,250.8,176.1z"/>
			<path class="st1" d="M63.9,117.4h-3.1c-0.6,0-1.2-0.4-1.3-1c-0.1-0.6-0.3-1.2-0.5-1.9c-0.2-0.6,0.1-1.2,0.6-1.6l2.7-1.6
				c0.7-0.4,0.9-1.2,0.5-1.9l-2.9-5c-0.4-0.7-1.2-0.9-1.9-0.5l-2.7,1.6c-0.5,0.3-1.2,0.2-1.7-0.2c-0.4-0.5-0.9-0.9-1.4-1.4
				c-0.5-0.4-0.6-1.1-0.2-1.7l1.6-2.7c0.4-0.7,0.2-1.5-0.5-1.9l-5-2.9c-0.7-0.4-1.5-0.2-1.9,0.5l-1.6,2.7c-0.3,0.5-1,0.8-1.6,0.6
				c-0.6-0.2-1.2-0.4-1.9-0.5c-0.6-0.1-1-0.7-1-1.3v-3.1c0-0.8-0.6-1.4-1.4-1.4h-5.8c-0.8,0-1.4,0.6-1.4,1.4v3.1
				c0,0.6-0.4,1.2-1,1.3c-0.6,0.1-1.2,0.3-1.9,0.5c-0.6,0.2-1.2-0.1-1.6-0.6l-1.6-2.7c-0.4-0.7-1.2-0.9-1.9-0.5l-5,2.9
				c-0.7,0.4-0.9,1.2-0.5,1.9l1.6,2.7c0.3,0.5,0.2,1.2-0.2,1.7c-0.5,0.4-0.9,0.9-1.4,1.4c-0.4,0.5-1.1,0.6-1.7,0.2l-2.7-1.6
				c-0.7-0.4-1.5-0.2-1.9,0.5l-2.9,5c-0.4,0.7-0.2,1.5,0.5,1.9l2.7,1.6c0.5,0.3,0.8,1,0.6,1.6c-0.2,0.6-0.4,1.2-0.5,1.9
				c-0.1,0.6-0.7,1-1.3,1H8.2c-0.8,0-1.4,0.6-1.4,1.4v5.8c0,0.8,0.6,1.4,1.4,1.4h3.1c0.6,0,1.2,0.4,1.3,1c0.1,0.6,0.3,1.2,0.5,1.9
				c0.2,0.6-0.1,1.2-0.6,1.6l-2.7,1.6c-0.7,0.4-0.9,1.2-0.5,1.9l2.9,5c0.4,0.7,1.2,0.9,1.9,0.5l2.7-1.6c0.5-0.3,1.2-0.2,1.7,0.2
				c0.4,0.5,0.9,0.9,1.4,1.4c0.5,0.4,0.6,1.1,0.2,1.7l-1.6,2.7c-0.4,0.7-0.2,1.5,0.5,1.9l5,2.9c0.7,0.4,1.5,0.2,1.9-0.5l1.6-2.7
				c0.3-0.5,1-0.8,1.6-0.6c0.6,0.2,1.2,0.4,1.9,0.5c0.6,0.1,1,0.7,1,1.3v3.1c0,0.8,0.6,1.4,1.4,1.4h5.8c0.8,0,1.4-0.6,1.4-1.4v-3.1
				c0-0.6,0.4-1.2,1-1.3c0.6-0.1,1.2-0.3,1.9-0.5c0.6-0.2,1.2,0.1,1.6,0.6l1.6,2.7c0.4,0.7,1.2,0.9,1.9,0.5l5-2.9
				c0.7-0.4,0.9-1.2,0.5-1.9l-1.6-2.7c-0.3-0.5-0.2-1.2,0.2-1.7c0.5-0.4,0.9-0.9,1.4-1.4c0.4-0.5,1.1-0.6,1.7-0.2l2.7,1.6
				c0.7,0.4,1.5,0.2,1.9-0.5l2.9-5c0.4-0.7,0.2-1.5-0.5-1.9l-2.7-1.6c-0.5-0.3-0.8-1-0.6-1.6c0.2-0.6,0.4-1.2,0.5-1.9
				c0.1-0.6,0.7-1,1.3-1h3.1c0.8,0,1.4-0.6,1.4-1.4v-5.8C65.3,118,64.7,117.4,63.9,117.4z M36.1,139.4c-9.8,0-17.7-7.9-17.7-17.7
				c0-9.8,7.9-17.7,17.7-17.7s17.7,7.9,17.7,17.7C53.8,131.4,45.8,139.4,36.1,139.4z"/>
			<path class="st1" d="M274.8,103l1.1-1.1c0.2-0.2,0.6-0.3,0.8-0.1c0.3,0.2,0.5,0.3,0.8,0.5c0.3,0.1,0.4,0.5,0.3,0.8l-0.4,1.5
				c-0.1,0.4,0.1,0.7,0.5,0.8l2.8,0.7c0.4,0.1,0.7-0.1,0.8-0.5l0.4-1.5c0.1-0.3,0.4-0.5,0.7-0.5c0.3,0,0.6,0,1,0
				c0.3,0,0.6,0.2,0.7,0.5l0.4,1.5c0.1,0.4,0.5,0.6,0.8,0.5l2.8-0.7c0.4-0.1,0.6-0.5,0.5-0.8l-0.4-1.5c-0.1-0.3,0.1-0.6,0.3-0.8
				c0.3-0.1,0.6-0.3,0.8-0.5c0.3-0.2,0.6-0.1,0.8,0.1l1.1,1.1c0.3,0.3,0.7,0.3,1,0l2-2c0.3-0.3,0.3-0.7,0-1l-1.1-1.1
				c-0.2-0.2-0.3-0.6-0.1-0.8c0.2-0.3,0.3-0.5,0.5-0.8c0.1-0.3,0.5-0.4,0.8-0.3l1.5,0.4c0.4,0.1,0.7-0.1,0.8-0.5l0.7-2.8
				c0.1-0.4-0.1-0.7-0.5-0.8l-1.5-0.4c-0.3-0.1-0.5-0.4-0.5-0.7c0-0.3,0-0.6,0-1c0-0.3,0.2-0.6,0.5-0.7l1.5-0.4
				c0.4-0.1,0.6-0.5,0.5-0.8l-0.7-2.8c-0.1-0.4-0.5-0.6-0.8-0.5l-1.5,0.4c-0.3,0.1-0.6-0.1-0.8-0.3c-0.1-0.3-0.3-0.6-0.5-0.8
				c-0.2-0.3-0.1-0.6,0.1-0.8l1.1-1.1c0.3-0.3,0.3-0.7,0-1l-2-2c-0.3-0.3-0.7-0.3-1,0l-1.1,1.1c-0.2,0.2-0.6,0.3-0.8,0.1
				c-0.3-0.2-0.5-0.3-0.8-0.5c-0.3-0.1-0.4-0.5-0.3-0.8l0.4-1.5c0.1-0.4-0.1-0.7-0.5-0.8l-2.8-0.7c-0.4-0.1-0.7,0.1-0.8,0.5
				l-0.4,1.5c-0.1,0.3-0.4,0.5-0.7,0.5c-0.3,0-0.6,0-1,0c-0.3,0-0.6-0.2-0.7-0.5l-0.4-1.5c-0.1-0.4-0.5-0.6-0.8-0.5l-2.8,0.7
				c-0.4,0.1-0.6,0.5-0.5,0.8l0.4,1.5c0.1,0.3-0.1,0.6-0.3,0.8c-0.3,0.1-0.6,0.3-0.8,0.5c-0.3,0.2-0.6,0.1-0.8-0.1l-1.1-1.1
				c-0.3-0.3-0.7-0.3-1,0l-2,2c-0.3,0.3-0.3,0.7,0,1l1.1,1.1c0.2,0.2,0.3,0.6,0.1,0.8c-0.2,0.3-0.3,0.5-0.5,0.8
				c-0.1,0.3-0.5,0.4-0.8,0.3l-1.5-0.4c-0.4-0.1-0.7,0.1-0.8,0.5l-0.7,2.8c-0.1,0.4,0.1,0.7,0.5,0.8l1.5,0.4
				c0.3,0.1,0.5,0.4,0.5,0.7c0,0.3,0,0.6,0,1c0,0.3-0.2,0.6-0.5,0.7l-1.5,0.4c-0.4,0.1-0.6,0.5-0.5,0.8l0.7,2.8
				c0.1,0.4,0.5,0.6,0.8,0.5l1.5-0.4c0.3-0.1,0.6,0.1,0.8,0.3c0.1,0.3,0.3,0.6,0.5,0.8c0.2,0.3,0.1,0.6-0.1,0.8l-1.1,1.1
				c-0.3,0.3-0.3,0.7,0,1l2,2C274.1,103.3,274.5,103.3,274.8,103z M276.9,85.4c3.5-3.5,9.1-3.5,12.5,0c3.5,3.5,3.5,9.1,0,12.5
				c-3.5,3.5-9.1,3.5-12.5,0C273.4,94.4,273.4,88.8,276.9,85.4z"/>
		</g>
		<g>
			<path class="st2" d="M256.7,187.2H48.9c-3.3,0-6-2.7-6-6V47.7c0-3.3,2.7-6,6-6h207.7c3.3,0,6,2.7,6,6v133.4
				C262.7,184.5,260,187.2,256.7,187.2z"/>
			<path class="st3" d="M47.5,176.4V49.3c0-1.7,1.3-3,3-3h204.6c1.7,0,3,1.3,3,3v127.1c0,1.7-1.3,3-3,3H50.5
				C48.8,179.4,47.5,178.1,47.5,176.4z"/>
			<rect x="126.1" y="187.2" class="st4" width="53.3" height="18.1"/>
			<path class="st2" d="M188.2,214.3h-70.9c-2.5,0-4.5-2-4.5-4.5l0,0c0-2.5,2-4.5,4.5-4.5h70.9c2.5,0,4.5,2,4.5,4.5l0,0
				C192.8,212.2,190.7,214.3,188.2,214.3z"/>
		</g>
		<g>
			<path class="st5" d="M149.9,134.5H63c-2.8,0-5-2.2-5-5V73.2c0-2.8,2.2-5,5-5h86.9c2.8,0,5,2.2,5,5v56.4
				C154.9,132.3,152.6,134.5,149.9,134.5z"/>
			<path class="st6" d="M154.9,80H58v-6.8c0-2.8,2.2-5,5-5h86.9c2.8,0,5,2.2,5,5V80z"/>
			<g>
				<g>
					<g>
						<line class="st7" x1="66.4" y1="86" x2="72.6" y2="86"/>
						<line class="st7" x1="66.4" y1="89.8" x2="90.8" y2="89.8"/>
						<line class="st7" x1="94.2" y1="89.8" x2="112.8" y2="89.8"/>
						<line class="st7" x1="117.7" y1="89.8" x2="129.9" y2="89.8"/>
					</g>
					<g>
						<line class="st7" x1="66.4" y1="96.6" x2="72.6" y2="96.6"/>
						<line class="st7" x1="66.4" y1="100.4" x2="93.6" y2="100.4"/>
						<line class="st7" x1="97.5" y1="100.4" x2="118.2" y2="100.4"/>
						<line class="st7" x1="123.8" y1="100.4" x2="150.4" y2="100.4"/>
					</g>
					<g>
						<line class="st7" x1="66.4" y1="107.3" x2="72.6" y2="107.3"/>
						<line class="st7" x1="66.4" y1="111" x2="90.8" y2="111"/>
						<line class="st7" x1="94.2" y1="111" x2="105.4" y2="111"/>
						<line class="st7" x1="110.4" y1="111" x2="139.7" y2="111"/>
					</g>
					<g>
						<line class="st7" x1="66.4" y1="117.9" x2="72.6" y2="117.9"/>
						<line class="st7" x1="66.4" y1="121.7" x2="90.8" y2="121.7"/>
						<line class="st7" x1="94.2" y1="121.7" x2="112.8" y2="121.7"/>
					</g>
				</g>
			</g>
		</g>
		<g>
			<path class="st8" d="M246.4,170.4h-91.5c-3,0-5.5-2.5-5.5-5.5V95c0-3,2.5-5.5,5.5-5.5h91.5c3,0,5.5,2.5,5.5,5.5v69.9
				C251.9,168,249.5,170.4,246.4,170.4z"/>
			<g>
				
					<ellipse transform="matrix(0.7071 -0.7071 0.7071 0.7071 -25.111 176.9434)" class="st1" cx="201" cy="118.8" rx="16.8" ry="16.8"/>
				<path class="st9" d="M205.8,117.8l-9.2-6.1c-0.8-0.5-1.8,0-1.8,1v12.2c0,0.9,1.1,1.5,1.8,1l9.2-6.1
					C206.5,119.3,206.5,118.3,205.8,117.8z"/>
			</g>
			<path class="st1" d="M246.4,170.4h-91.5c-3,0-5.5-2.5-5.5-5.5v-16.8h102.5v16.8C251.9,168,249.5,170.4,246.4,170.4z"/>
			<g>
				<line class="st10" x1="157.5" y1="153.9" x2="184.2" y2="153.9"/>
				<line class="st10" x1="193" y1="153.9" x2="238" y2="153.9"/>
				<line class="st10" x1="157.5" y1="162.7" x2="170.8" y2="162.7"/>
				<line class="st10" x1="178" y1="162.7" x2="203.6" y2="162.7"/>
			</g>
		</g>
		<g>
			<path class="st1" d="M290.3,68.2h-66.5c-2.5,0-4.6-2-4.6-4.6V41.9c0-2.5,2-4.6,4.6-4.6h66.5c2.5,0,4.6,2,4.6,4.6v21.7
				C294.8,66.1,292.8,68.2,290.3,68.2z"/>
			<g>
				
					<ellipse transform="matrix(0.7071 -0.7071 0.7071 0.7071 31.4031 181.4877)" class="st11" cx="234.8" cy="52.8" rx="7.8" ry="7.8"/>
				<g>
					<path class="st12" d="M253,57.6l0.6,1.2c0,0.1,0.1,0.2,0.3,0.2l1.3,0.2c0.3,0,0.4,0.4,0.2,0.6l-1,1c-0.1,0.1-0.1,0.2-0.1,0.3
						l0.2,1.3c0,0.3-0.2,0.5-0.5,0.4l-1.2-0.6c-0.1-0.1-0.2-0.1-0.3,0l-1.2,0.6c-0.2,0.1-0.5-0.1-0.5-0.4l0.2-1.3
						c0-0.1,0-0.2-0.1-0.3l-1-1c-0.2-0.2-0.1-0.5,0.2-0.6l1.3-0.2c0.1,0,0.2-0.1,0.3-0.2l0.6-1.2C252.5,57.3,252.9,57.3,253,57.6z"
						/>
					<path class="st12" d="M260.8,57.6l0.6,1.2c0,0.1,0.1,0.2,0.3,0.2l1.3,0.2c0.3,0,0.4,0.4,0.2,0.6l-1,1c-0.1,0.1-0.1,0.2-0.1,0.3
						l0.2,1.3c0,0.3-0.2,0.5-0.5,0.4l-1.2-0.6c-0.1-0.1-0.2-0.1-0.3,0l-1.2,0.6c-0.2,0.1-0.5-0.1-0.5-0.4l0.2-1.3
						c0-0.1,0-0.2-0.1-0.3l-1-1c-0.2-0.2-0.1-0.5,0.2-0.6l1.3-0.2c0.1,0,0.2-0.1,0.3-0.2l0.6-1.2C260.3,57.3,260.7,57.3,260.8,57.6z
						"/>
					<path class="st12" d="M268.6,57.6l0.6,1.2c0,0.1,0.1,0.2,0.3,0.2l1.3,0.2c0.3,0,0.4,0.4,0.2,0.6l-1,1c-0.1,0.1-0.1,0.2-0.1,0.3
						l0.2,1.3c0,0.3-0.2,0.5-0.5,0.4l-1.2-0.6c-0.1-0.1-0.2-0.1-0.3,0l-1.2,0.6c-0.2,0.1-0.5-0.1-0.5-0.4l0.2-1.3
						c0-0.1,0-0.2-0.1-0.3l-1-1c-0.2-0.2-0.1-0.5,0.2-0.6l1.3-0.2c0.1,0,0.2-0.1,0.3-0.2l0.6-1.2C268.1,57.3,268.5,57.3,268.6,57.6z
						"/>
					<path class="st12" d="M276.4,57.6l0.6,1.2c0,0.1,0.1,0.2,0.3,0.2l1.3,0.2c0.3,0,0.4,0.4,0.2,0.6l-1,1c-0.1,0.1-0.1,0.2-0.1,0.3
						l0.2,1.3c0,0.3-0.2,0.5-0.5,0.4l-1.2-0.6c-0.1-0.1-0.2-0.1-0.3,0l-1.2,0.6c-0.2,0.1-0.5-0.1-0.5-0.4l0.2-1.3
						c0-0.1,0-0.2-0.1-0.3l-1-1c-0.2-0.2-0.1-0.5,0.2-0.6l1.3-0.2c0.1,0,0.2-0.1,0.3-0.2l0.6-1.2C275.9,57.3,276.3,57.3,276.4,57.6z
						"/>
					<path class="st12" d="M284.2,57.6l0.6,1.2c0,0.1,0.1,0.2,0.3,0.2l1.3,0.2c0.3,0,0.4,0.4,0.2,0.6l-1,1c-0.1,0.1-0.1,0.2-0.1,0.3
						l0.2,1.3c0,0.3-0.2,0.5-0.5,0.4l-1.2-0.6c-0.1-0.1-0.2-0.1-0.3,0l-1.2,0.6c-0.2,0.1-0.5-0.1-0.5-0.4l0.2-1.3
						c0-0.1,0-0.2-0.1-0.3l-1-1c-0.2-0.2-0.1-0.5,0.2-0.6l1.3-0.2c0.1,0,0.2-0.1,0.3-0.2l0.6-1.2C283.7,57.3,284.1,57.3,284.2,57.6z
						"/>
				</g>
				<g>
					<line class="st13" x1="250.3" y1="42.8" x2="287" y2="42.8"/>
					<line class="st13" x1="250.3" y1="47.7" x2="283.1" y2="47.7"/>
					<line class="st13" x1="250.3" y1="52.6" x2="265" y2="52.6"/>
				</g>
			</g>
			<path class="st1" d="M227.4,77.1v-8.9h12.2l-9.9,9.9C228.9,78.9,227.4,78.3,227.4,77.1z"/>
		</g>
		<g>
			<path class="st2" d="M84,198.9H38.8c-3.2,0-5.8-2.6-5.8-5.8v-59.2c0-3.2,2.6-5.8,5.8-5.8H84c3.2,0,5.8,2.6,5.8,5.8v59.2
				C89.8,196.3,87.2,198.9,84,198.9z"/>
			<g>
				<line class="st14" x1="43.2" y1="138.3" x2="61" y2="138.3"/>
				<line class="st14" x1="43.2" y1="142.1" x2="55.4" y2="142.1"/>
				<line class="st15" x1="58.2" y1="142.1" x2="63.7" y2="142.1"/>
				<line class="st14" x1="66.2" y1="142.1" x2="69.8" y2="142.1"/>
				<line class="st14" x1="71.1" y1="145.8" x2="78.8" y2="145.8"/>
				<line class="st14" x1="59.8" y1="145.8" x2="68.5" y2="145.8"/>
				<line class="st16" x1="43.2" y1="145.8" x2="57.7" y2="145.8"/>
				<line class="st14" x1="51.1" y1="149.6" x2="65" y2="149.6"/>
				<line class="st14" x1="43.2" y1="149.6" x2="48.7" y2="149.6"/>
			</g>
			<g>
				<line class="st17" x1="48.1" y1="157.9" x2="61" y2="157.9"/>
				<line class="st14" x1="43.2" y1="161.6" x2="55.4" y2="161.6"/>
				<line class="st18" x1="58.2" y1="161.6" x2="60.9" y2="161.6"/>
				<line class="st14" x1="72.6" y1="165.4" x2="78.8" y2="165.4"/>
				<line class="st19" x1="43.2" y1="165.4" x2="69.8" y2="165.4"/>
				<line class="st15" x1="56.5" y1="169.2" x2="67.3" y2="169.2"/>
				<line class="st14" x1="43.2" y1="169.2" x2="52.9" y2="169.2"/>
			</g>
			<g>
				<line class="st14" x1="43.2" y1="177.4" x2="61" y2="177.4"/>
				<line class="st17" x1="43.2" y1="181.2" x2="55.4" y2="181.2"/>
				<line class="st15" x1="58.2" y1="181.2" x2="71.1" y2="181.2"/>
				<line class="st14" x1="74.3" y1="181.2" x2="79.6" y2="181.2"/>
				<line class="st14" x1="43.2" y1="185" x2="50.4" y2="185"/>
			</g>
		</g>
		<g>
			<path class="st5" d="M153.9,182.9h-48c-1.7,0-3-1.3-3-3v-29.8h54v29.8C156.9,181.5,155.6,182.9,153.9,182.9z"/>
			<path class="st2" d="M156.9,150.1h-54v-3c0-1.7,1.3-3,3-3h48c1.7,0,3,1.3,3,3V150.1z"/>
			<g>
				<text transform="matrix(1 0 0 1 112.264 170.9304)" class="st3 st20 st21">&lt; / &gt;</text>
			</g>
			<g>
				<line class="st22" x1="109.3" y1="147.1" x2="115.1" y2="147.1"/>
				<line class="st22" x1="116.5" y1="147.1" x2="119" y2="147.1"/>
			</g>
		</g>
		<g>
			<path class="st1" d="M185.9,82.5h-58c-3.9,0-7-3.1-7-7v-51c0-3.9,3.1-7,7-7h58c3.9,0,7,3.1,7,7v51
				C192.9,79.4,189.8,82.5,185.9,82.5z"/>
			<g>
				<path class="st23" d="M181.9,59.1h-50.3c-2.8,0-5-2.2-5-5V28.6c0-2.8,2.2-5,5-5h50.3c2.8,0,5,2.2,5,5v25.5
					C186.9,56.9,184.7,59.1,181.9,59.1z"/>
				<path class="st24" d="M126.7,46.4l9-9l22.1,22.1h-26.1c-2.8,0-5-2.2-5-5V46.4z"/>
				<path class="st24" d="M140.4,59.5l28.2-28.2l18.6,18.6v4.3c0,2.7-2.2,5-5,5L140.4,59.5z"/>
				<path class="st12" d="M150,32.5c0,1.7-1.4,3.2-3.2,3.2s-3.2-1.4-3.2-3.2c0-1.7,1.4-3.2,3.2-3.2S150,30.7,150,32.5z"/>
			</g>
		</g>
		<g>
			<g>
				<circle class="st1" cx="240.9" cy="217.5" r="3.3"/>
				<circle class="st1" cx="65.9" cy="230.5" r="3.3"/>
				<path class="st1" d="M247.6,227.3h-24.2c-1.8,0-3.3-1.5-3.3-3.3c0-1.8,1.5-3.3,3.3-3.3h7c1.8,0,3.3-1.5,3.3-3.3
					c0-1.8-1.5-3.3-3.3-3.3H58c-1.8,0-3.3,1.5-3.3,3.3c0,1.8,1.5,3.3,3.3,3.3h24.2c1.8,0,3.3,1.5,3.3,3.3c0,1.8-1.5,3.3-3.3,3.3
					h-5.9c-1.8,0-3.3,1.5-3.3,3.3c0,1.8,1.5,3.3,3.3,3.3h171.3c1.8,0,3.3-1.5,3.3-3.3C250.9,228.7,249.4,227.3,247.6,227.3z
					 M130.7,227.3h-24.2c-1.8,0-3.3-1.5-3.3-3.3c0-1.8,1.5-3.3,3.3-3.3h24.2c1.8,0,3.3,1.5,3.3,3.3
					C133.9,225.8,132.5,227.3,130.7,227.3z M142.1,227.3c-1.8,0-3.3-1.5-3.3-3.3c0-1.8,1.5-3.3,3.3-3.3c1.8,0,3.3,1.5,3.3,3.3
					C145.4,225.8,143.9,227.3,142.1,227.3z M209.1,227.3c-1.8,0-3.3-1.5-3.3-3.3c0-1.8,1.5-3.3,3.3-3.3c1.8,0,3.3,1.5,3.3,3.3
					C212.3,225.8,210.9,227.3,209.1,227.3z"/>
			</g>
		</g>
		<g>
			<g>
				<rect x="205.7" y="9.3" class="st25" width="27" height="17"/>
				<polygon class="st26" points="205.7,9.3 219.2,19.8 232.7,9.3 				"/>
				<line class="st26" x1="205.7" y1="25.3" x2="214.5" y2="16.2"/>
				<line class="st26" x1="223.8" y1="16.2" x2="232.7" y2="25.3"/>
			</g>
			<g>
				<g>
					<circle class="st25" cx="83.9" cy="23.6" r="9.6"/>
					<polyline class="st25" points="79.6,24.6 81.8,26.8 88.3,20.4 					"/>
				</g>
			</g>
			<g>
				<path class="st6" d="M26.4,69.9L26.5,80c0,0,6.7-2.8,7-7.7C33.7,67.8,28.4,67,26.4,69.9z"/>
				<path class="st6" d="M26.4,69.9L26.5,80c0,0-6.7-2.7-7.1-7.6C19.1,67.9,24.4,67,26.4,69.9z"/>
			</g>
			<g>
				<circle class="st27" cx="46.8" cy="24.8" r="2.3"/>
				<path class="st27" d="M257.1,20.4c0,1.3-1,2.3-2.3,2.3c-1.3,0-2.3-1-2.3-2.3c0-1.3,1-2.3,2.3-2.3
					C256,18.1,257.1,19.1,257.1,20.4z"/>
				<path class="st25" d="M277,153.9c0,1.3-1,2.3-2.3,2.3c-1.3,0-2.3-1-2.3-2.3c0-1.3,1-2.3,2.3-2.3C276,151.6,277,152.7,277,153.9z
					"/>
				<g>
					<line class="st25" x1="111.3" y1="27.9" x2="111.3" y2="32.5"/>
					<line class="st25" x1="113.6" y1="30.2" x2="109" y2="30.2"/>
				</g>
				<g>
					<line class="st25" x1="283.1" y1="115.6" x2="283.1" y2="120.2"/>
					<line class="st25" x1="285.4" y1="117.9" x2="280.8" y2="117.9"/>
				</g>
				<g>
					<line class="st25" x1="21.7" y1="163.1" x2="21.7" y2="167.7"/>
					<line class="st25" x1="24" y1="165.4" x2="19.4" y2="165.4"/>
				</g>
			</g>
		</g>
	</g>
</g>
</svg>
