<?xml version="1.0" encoding="utf-8"?>
<!-- Generator: Adobe Illustrator 24.2.1, SVG Export Plug-In . SVG Version: 6.00 Build 0)  -->
<svg version="1.1" id="Layer_1" xmlns="http://www.w3.org/2000/svg" xmlns:xlink="http://www.w3.org/1999/xlink" x="0px" y="0px"
	 viewBox="0 0 177 176.9" style="enable-background:new 0 0 177 176.9;" xml:space="preserve">
<g>
	<path d="M0,88.3c0-21.7,0-43.3,0-65C0,8.2,8.3,0,23.5,0c42.4,0,84.8,0,127.2,0c19,0,26.2,7.1,26.2,26c0,42.6,0,85.3,0,127.9
		c0,14.7-8.4,23-23.1,23c-42.6,0-85.3,0-127.9,0C7.3,176.9,0,169.7,0,151.3C0,130.3,0,109.3,0,88.3C0,88.3,0,88.3,0,88.3z
		 M13.9,135.9c54.5,33.9,125.6,0.5,133.4-60.9c1.3-10.5,1.6-20.9,11.9-27.3c1.5-0.9,2.2-3,3.8-5.3c-5.2,1.4-9.4,2.5-14,3.7
		c3.9-5.5,7.3-10.2,10.6-14.9c-2.7-0.3-4.2,0.4-5.6,1c-7.3,3.2-13.2,4.9-21.5-0.8c-16.5-11.3-39.3-1.3-44.7,18.2
		c-1.3,4.7-1.2,9.7-1.9,15.2c-25.1-1.7-45.5-12.9-62.5-32c-7.4,16.1-4,29.1,8.8,41.5c-5.4-1.4-9-2.3-13.1-3.4
		C20,85.8,28,95,40.4,101.5c-3.1,0-6.2,0-10.3,0c4.9,13.3,14.3,19.6,27.8,21.8C45.1,133.4,30.9,136.5,13.9,135.9z"/>
</g>
</svg>
