<?xml version="1.0" encoding="utf-8"?>
<!-- Generator: Adobe Illustrator 24.2.1, SVG Export Plug-In . SVG Version: 6.00 Build 0)  -->
<svg version="1.1" id="Layer_1" xmlns="http://www.w3.org/2000/svg" xmlns:xlink="http://www.w3.org/1999/xlink" x="0px" y="0px"
	 viewBox="0 0 750 500" style="enable-background:new 0 0 750 500;" xml:space="preserve">
<style type="text/css">
	.st0{fill:#EBEBEB;}
	.st1{fill:#D90A2C;}
	.st2{fill:#263238;}
	.st3{fill:#455A64;}
	.st4{fill:#DBDBDB;}
	.st5{fill:#C7C7C7;}
	.st6{fill:#FFFFFF;}
	.st7{opacity:0.6;fill:#FFFFFF;enable-background:new    ;}
	.st8{opacity:0.2;enable-background:new    ;}
	.st9{opacity:0.1;enable-background:new    ;}
	.st10{opacity:0.8;}
	.st11{fill:#A6A6A6;}
	.st12{opacity:0.4;}
	.st13{fill:#EBEBF2;}
	.st14{fill:url(#SVGID_1_);}
	.st15{fill:url(#SVGID_2_);}
	.st16{opacity:0.15;fill:#FFFFFF;}
</style>
<g id="freepik--background-complete--inject-16">
	<path class="st0" d="M685.4,125.4l5.9-9.5l-2.9-1.8c-0.8-0.5-1.3-1.5-1.2-2.5c0-0.6,0-1.1,0-1.7c0-1,0.5-1.9,1.4-2.4l3-1.6
		l-5.2-9.9l-3,1.6c-0.9,0.5-2,0.4-2.8-0.2c-0.5-0.3-0.9-0.6-1.4-0.9c-0.9-0.5-1.4-1.4-1.4-2.4l0.1-3.4l-11.2-0.3l-0.1,3.4
		c0,1-0.7,1.9-1.6,2.3l-0.7,0.4c-0.3,0.1-0.5,0.3-0.7,0.4c-0.8,0.5-1.9,0.5-2.8,0l-2.9-1.8l-5.9,9.5l2.9,1.8
		c0.8,0.5,1.3,1.5,1.2,2.5c-0.1,0.6-0.1,1.1-0.1,1.7c0,1-0.5,1.9-1.4,2.4l-3,1.6l5.3,9.8l3-1.6c0.9-0.5,2-0.4,2.8,0.2
		c0.5,0.3,0.9,0.6,1.4,0.9c0.9,0.5,1.4,1.4,1.4,2.4l-0.1,3.4l11.2,0.3l0.1-3.4c0-1,0.6-1.9,1.5-2.3c0.3-0.1,0.5-0.2,0.7-0.4
		s0.5-0.3,0.7-0.4c0.9-0.5,1.9-0.5,2.8,0L685.4,125.4z M676,118.4c-4.5,2.4-10,0.7-12.4-3.7c-2.4-4.5-0.7-10,3.7-12.4
		s10-0.7,12.4,3.7c0,0,0,0,0,0C682.1,110.4,680.4,115.9,676,118.4L676,118.4z"/>
	<path class="st0" d="M127.9,358.9l-3.9-6.8l-2.1,1.2c-0.6,0.4-1.4,0.3-2-0.1c-0.3-0.2-0.7-0.4-1-0.6c-0.6-0.3-1-1-1-1.7v-2.4h-7.8
		v2.4c0,0.7-0.4,1.3-1,1.7c-0.3,0.2-0.7,0.4-1,0.6c-0.6,0.4-1.4,0.4-2,0.1l-2.1-1.2l-3.9,6.8l2.1,1.2c0.6,0.4,1,1,0.9,1.7
		c0,0.2,0,0.4,0,0.6s0,0.4,0,0.6c0,0.7-0.3,1.4-0.9,1.7l-2.1,1.2l3.9,6.8l2.1-1.2c0.6-0.4,1.4-0.3,2,0.1c0.3,0.2,0.7,0.4,1,0.6
		c0.6,0.3,1,1,1,1.6v2.4h7.8v-2.4c0-0.7,0.4-1.3,1-1.6c0.3-0.2,0.7-0.4,1-0.6c0.6-0.4,1.4-0.4,2-0.1l2.1,1.2l3.9-6.8l-2.1-1.2
		c-0.6-0.4-1-1-0.9-1.7c0-0.2,0-0.4,0-0.6s0-0.4,0-0.6c0-0.7,0.3-1.4,0.9-1.7L127.9,358.9z M120.4,362.4c0,3.5-2.9,6.4-6.4,6.4
		s-6.4-2.9-6.4-6.4c0-3.5,2.9-6.4,6.4-6.4c0,0,0,0,0,0C117.5,356,120.4,358.9,120.4,362.4z"/>
	<path class="st0" d="M96.1,259.2c-16.8,0-30.5,13.6-30.5,30.5s13.6,30.5,30.5,30.5s30.5-13.6,30.5-30.5
		C126.6,272.9,112.9,259.2,96.1,259.2C96.1,259.2,96.1,259.2,96.1,259.2z M96.1,303.9c-7.9,0-14.2-6.4-14.2-14.2s6.4-14.2,14.2-14.2
		s14.2,6.4,14.2,14.2c0,0,0,0,0,0C110.3,297.5,103.9,303.9,96.1,303.9z"/>
	<polygon class="st0" points="101.9,260.5 90.2,260.5 90.9,252.2 101.3,252.2 	"/>
	<polygon class="st0" points="79.6,264.4 71.3,272.7 65.9,266.4 73.3,259 	"/>
	<polygon class="st0" points="66.7,283 66.7,294.7 58.4,294 58.4,283.6 	"/>
	<polygon class="st0" points="70.6,305.3 78.9,313.6 72.6,319 65.2,311.6 	"/>
	<polygon class="st0" points="89.2,318.3 100.9,318.3 100.2,326.5 89.8,326.5 	"/>
	<polygon class="st0" points="111.5,314.3 119.8,306 125.2,312.3 117.8,319.7 	"/>
	<polygon class="st0" points="124.4,295.7 124.4,284 132.7,284.7 132.7,295.1 	"/>
	<polygon class="st0" points="120.5,273.4 112.2,265.1 118.5,259.8 125.9,267.1 	"/>
	<path class="st0" d="M637.1,154.8c-16.8,0-30.5,13.6-30.5,30.5c0,16.8,13.6,30.5,30.5,30.5c16.8,0,30.5-13.6,30.5-30.5c0,0,0,0,0,0
		C667.6,168.5,653.9,154.8,637.1,154.8C637.1,154.8,637.1,154.8,637.1,154.8z M637.1,199.5c-7.9,0-14.2-6.4-14.2-14.2
		c0-7.9,6.4-14.2,14.2-14.2c7.9,0,14.2,6.4,14.2,14.2c0,0,0,0,0,0C651.3,193.2,645,199.5,637.1,199.5
		C637.1,199.5,637.1,199.5,637.1,199.5z"/>
	<polygon class="st0" points="643,156.1 631.2,156.1 631.9,147.8 642.3,147.8 	"/>
	<polygon class="st0" points="620.7,160 612.4,168.3 607,162 614.3,154.6 	"/>
	<polygon class="st0" points="607.7,178.6 607.7,190.3 599.4,189.7 599.4,179.3 	"/>
	<polygon class="st0" points="611.6,200.9 619.9,209.2 613.6,214.6 606.2,207.2 	"/>
	<polygon class="st0" points="630.2,213.9 641.9,213.9 641.3,222.2 630.8,222.2 	"/>
	<polygon class="st0" points="652.5,209.9 660.8,201.6 666.2,208 658.8,215.3 	"/>
	<polygon class="st0" points="665.5,191.4 665.5,179.6 673.8,180.3 673.8,190.7 	"/>
	<polygon class="st0" points="661.5,169.1 653.2,160.8 659.6,155.4 666.9,162.7 	"/>
</g>
<g id="freepik--Plant--inject-16">
	<path class="st1" d="M109.1,328.6c-9.2,12.4-18.8,26.9-21.1,42.5c0,0.2,0.3,0.3,0.4,0.1c1.1-4.2,2.4-8.4,4.1-12.5
		c6-1.7,12-3,15.1-9c3.2-6.2,2.8-14.2,2.2-20.9C109.7,328.4,109.3,328.4,109.1,328.6z"/>
	<path class="st2" d="M92.5,358.6c4.1-9.3,9.4-18.5,16.2-26.2c0,0,0.1,0,0.1,0.1c-4.2,5.4-7.9,11.2-11,17.3c3-3.1,6.4-5.9,9.3-9.1
		c0.1-0.1,0.2,0,0.1,0.1c-2.9,3.4-6,7.2-9.7,9.7c-1,1.8-2,3.7-3,5.5c0.3-0.1,0.5-0.3,0.8-0.4 M95.2,355.7c-0.3,0.1-0.6,0.3-0.9,0.4
		c-0.5,0.9-1,1.8-1.5,2.6c-0.1,0.2-0.4,0-0.3-0.2L95.2,355.7z"/>
	<path class="st2" d="M95.6,355.3c2.5-1.4,4.8-3,7.1-4.7c0.1,0,0.2,0,0.1,0.1c-2.1,1.9-4.5,3.5-7,4.8
		C95.6,355.6,95.5,355.4,95.6,355.3z"/>
	<path class="st1" d="M86.9,368.8c0,0.2,0.3,0.2,0.3,0c0-5.1,0-10.3,0.1-15.5c1.3-2.7,4.1-4.1,6.1-6.3c1.4-1.5,2.6-3.2,3.7-5.1
		c2.4-4.4,3.8-9.2,4.3-14.2c0.5-5.5-1.5-23.6-3.9-23c-1.2,0.3-5.1,9.3-6.1,12.3c-1.7,4.9-2.9,9.9-3.7,15
		C85.8,344.2,86,356.6,86.9,368.8z"/>
	<path class="st2" d="M86.9,346.6L86.9,346.6c0.3-6.5,1.8-13.1,3.1-19.4c1.5-6.8,3.2-13.2,6.7-19.2c0.1-0.1,0.2,0,0.2,0.1
		c-2.3,4.7-4.1,9.7-5.4,14.8c0.2-0.4,0.5-0.7,0.8-1.1c0.1-0.1,0.3,0,0.2,0.1c-0.3,0.5-0.7,1.1-1.1,1.5l0,0
		c-1.2,4.9-2.1,9.8-2.8,14.8l0.2-0.2 M88.8,338.1l-0.3,0.5c-0.4,2.5-0.7,5-1.1,7.5c4.5-3.8,8.3-8.3,10.4-13.9l0,0
		c-2.1,5.8-5.4,10.9-10.6,14.4c-0.1,0.7-0.2,1.3-0.3,2c0,0.1-0.2,0.1-0.2,0c0-0.6,0-1.2,0.1-1.8c-0.1-0.1-0.1-0.2,0-0.2L88.8,338.1z
		"/>
	<path class="st2" d="M89,337.2c3.5-5,6.5-10.2,9.1-15.7c0-0.1,0.1,0,0.1,0c-2.1,5.8-5.1,11.1-9.1,15.8
		C89.1,337.4,88.9,337.3,89,337.2z"/>
	<path class="st2" d="M93.5,320.2c1.4-2.5,2.9-5,4.3-7.5c0-0.1,0.1,0,0.1,0.1c-1.1,2.7-2.5,5.2-4.1,7.6
		C93.7,320.5,93.4,320.4,93.5,320.2z"/>
	<path class="st2" d="M93,321.3L93,321.3L93,321.3z"/>
	<path class="st1" d="M83.4,353.9c-0.1,3.4-0.5,6.8-1.2,10.1c0.1,0.4,0.1,0.7,0.2,1.1c1-3.7,1.7-7.5,1.8-11.3c0.1-0.1,0.1-0.2,0-0.4
		l0,0c0.2-5.1-0.2-10.2-1.1-15.3c-1.6-9.4-5.1-18.5-11.7-25.6c-0.2-0.2-0.5-0.1-0.7,0.1c0,0,0,0.1-0.1,0.1
		c-2.7,6.8-1.7,14.8,0.5,21.6c1.2,3.6,3,7.1,5.2,10.2C78.7,347.8,81.6,350.5,83.4,353.9z"/>
	<path class="st2" d="M72.2,315.8c6.2,10.1,10.6,22.1,11.1,34.1c0,0.2-0.3,0.3-0.4,0c-0.1-1.1-0.3-2.1-0.5-3.2l0,0
		c-2.7-2.4-5.1-5.1-7.1-8.2c0,0,0.1-0.1,0.1-0.1c2.1,2.6,4.4,5.1,6.9,7.5c-0.4-2.7-1-5.3-1.6-7.8c-0.2-0.2-0.3-0.4-0.5-0.6
		s0.1-0.3,0.2-0.2l0.2,0.2c-0.9-3.5-2-7-3.3-10.4c-1.6-1.9-3.4-3.5-4.5-5.8 M72.9,321.4c0.9,1.3,1.8,2.6,2.9,3.8
		c0.4,0.5,0.9,0.9,1.3,1.4c-1.4-3.7-3.1-7.2-5.1-10.6c-0.1-0.2,0.1-0.3,0.2-0.2L72.9,321.4z"/>
	<path class="st2" d="M73.5,328.3c2,2.7,4.3,5.3,6.2,8.1c0,0,0,0.1,0,0.1c0,0-0.1,0-0.1,0c-2.4-2.4-4.5-5.2-6.2-8.1
		C73.3,328.3,73.4,328.2,73.5,328.3z"/>
	<path class="st2" d="M80,337L80,337c0.1,0.1,0.1,0.2,0.1,0.2s-0.1,0-0.1,0l0,0l-0.1-0.1C79.8,337.1,79.9,337,80,337z"/>
	<path class="st1" d="M62.4,335.3c0.7,5.7,3,11,6.6,15.5c1.5,1.7,3.3,3.2,5.3,4.2c2.3,1.1,4.7,2.5,7.1,3.4c1.1,2.9,2,5.9,2.5,9
		c0.1-0.3,0.2-0.5,0.2-0.8c-1.5-13.2-10.1-24.5-21-31.7c-0.3-0.1-0.6,0-0.7,0.2C62.5,335.1,62.4,335.2,62.4,335.3z"/>
	<path class="st2" d="M66.2,339.2c-0.1-0.1,0-0.2,0.1-0.1c6,4.5,10.8,10.4,13.9,17.1c0.1,0.2-0.2,0.3-0.3,0.2
		c-0.5-0.9-1-1.8-1.6-2.6l0,0c-2.5-0.5-4.8-2.2-6.7-3.9c0,0,0-0.1,0-0.1c0,0,0.1,0,0.1,0c1,0.9,2,1.6,3.1,2.2c1,0.5,2.1,0.8,3.2,1.3
		c-0.9-1.5-1.9-2.9-2.9-4.2c-2.7-1-5.2-2.4-7.5-4.2c-0.1-0.1,0-0.2,0.1-0.1c2.3,1.4,4.6,2.6,7,3.7c-1.5-2-3.2-3.9-4.9-5.7
		c-0.8-0.5-1.7-0.9-2.5-1.4c0,0-0.1-0.1,0-0.1c0,0,0,0,0,0c0.7,0.3,1.3,0.6,1.9,1C68.3,341.1,67.3,340.1,66.2,339.2z"/>
	<path class="st2" d="M66.4,343.7c0.1,0.1,0.3,0.2,0.4,0.3 M66.8,344.1c-0.2-0.1-0.3-0.2-0.4-0.3c0,0-0.1-0.1,0-0.1s0.1-0.1,0.1,0
		c0,0,0,0,0,0L66.8,344.1z"/>
	<polygon class="st3" points="101.3,395.8 71.4,395.8 73.8,368.6 74.3,362.6 98.3,362.6 98.9,368.6 	"/>
	<polygon class="st2" points="98.9,368.6 73.8,368.6 74.3,362.6 98.3,362.6 	"/>
	<rect x="72.9" y="358.4" class="st3" width="26.9" height="6"/>
</g>
<g id="freepik--Floor--inject-16">
	<polygon class="st2" points="56.8,395.8 136.3,395.6 215.9,395.5 375,395.3 534.1,395.5 613.7,395.6 693.2,395.8 613.7,396.1 
		534.1,396.1 375,396.3 215.9,396.1 136.3,396.1 	"/>
</g>
<g id="freepik--Device--inject-16">
	<rect x="154.3" y="96.2" class="st4" width="441.4" height="295.3"/>
	<rect x="157.5" y="99.8" class="st2" width="435" height="288.1"/>
	<rect x="96.8" y="413.6" class="st5" width="556.4" height="20.3"/>
	<polygon class="st4" points="96.8,413.6 154.3,391.4 595.7,391.4 653.2,413.6 	"/>
	<polygon class="st2" points="159.4,405.7 196.5,391.4 553.5,391.4 590.6,405.7 	"/>
	<rect x="181.7" y="121.5" class="st6" width="386.5" height="244.5"/>
	<rect x="181.7" y="121.5" class="st3" width="386.5" height="9.4"/>
	<path class="st1" d="M189.2,126.2c0,1.3-1,2.3-2.3,2.3s-2.3-1-2.3-2.3c0-1.3,1-2.3,2.3-2.3S189.2,125,189.2,126.2L189.2,126.2z"/>
	<path class="st0" d="M198.8,126.2c0,1.3-1,2.3-2.3,2.3s-2.3-1-2.3-2.3c0-1.3,1-2.3,2.3-2.3c0,0,0,0,0,0
		C197.7,123.9,198.8,125,198.8,126.2L198.8,126.2z"/>
	<path class="st6" d="M208.3,126.2c0,1.3-1,2.3-2.3,2.3s-2.3-1-2.3-2.3c0-1.3,1-2.3,2.3-2.3c0,0,0,0,0,0
		C207.2,123.9,208.3,125,208.3,126.2L208.3,126.2z"/>
	<rect x="366.6" y="236.2" class="st1" width="70.4" height="54"/>
	<path class="st7" d="M373.6,248c-0.7,3.5,1.5,6.8,5,7.5s6.8-1.5,7.5-5c0.7-3.5-1.5-6.8-5-7.5c-0.8-0.2-1.7-0.2-2.5,0
		C376.1,243.5,374.1,245.5,373.6,248z"/>
	<polygon class="st1" points="389.8,278.6 437,278.6 413.4,249.5 	"/>
	<polygon class="st8" points="389.8,278.6 437,278.6 413.4,249.5 	"/>
	<polygon class="st1" points="366.6,278.6 408.4,278.6 387.5,259.7 	"/>
	<polygon class="st9" points="366.6,278.6 408.4,278.6 387.5,259.7 	"/>
	<rect x="366.6" y="278.6" class="st1" width="70.4" height="11.6"/>
	<rect x="366.6" y="278.6" class="st9" width="70.4" height="11.6"/>
	<rect x="200.8" y="236.2" class="st4" width="52.9" height="4.4"/>
	<rect x="200.8" y="246.5" class="st4" width="153.1" height="4.4"/>
	<rect x="200.8" y="256.3" class="st4" width="153.1" height="4.5"/>
	<rect x="200.8" y="266.1" class="st4" width="153.1" height="4.5"/>
	<rect x="200.8" y="275.9" class="st4" width="153.1" height="4.5"/>
	<rect x="200.8" y="285.7" class="st4" width="153.1" height="4.5"/>
	<rect x="328.3" y="148.8" class="st4" width="52.9" height="11.9"/>
	<rect x="328.3" y="168.9" class="st4" width="108.7" height="4.4"/>
	<rect x="328.3" y="178.7" class="st4" width="108.7" height="4.4"/>
	<rect x="328.3" y="188.5" class="st4" width="108.7" height="4.4"/>
	<rect x="328.3" y="198.3" class="st4" width="108.7" height="4.4"/>
	<rect x="328.3" y="211.3" class="st4" width="108.7" height="4.4"/>
	<rect x="328.3" y="221.1" class="st4" width="108.7" height="4.4"/>
	<rect x="452.4" y="148.8" class="st1" width="96.7" height="12.1"/>
	<rect x="452.7" y="160.9" class="st6" width="96.2" height="129.1"/>
	<path class="st4" d="M549.2,290.2h-96.7V160.7h96.8L549.2,290.2z M453,289.8h95.7V161.2H453V289.8z"/>
	<polygon class="st4" points="452.9,290.1 452.4,289.9 548.7,160.9 549.2,161 	"/>
	<polygon class="st4" points="548.7,290.1 452.4,161 452.9,160.9 549.2,289.9 	"/>
	<rect x="201" y="149" class="st6" width="115.3" height="76.3"/>
	<path class="st4" d="M200.9,225.6v-0.2v-76.5h0.1h115.5v76.7h-0.2L200.9,225.6z M201.2,149.2v75.9h114.9v-75.9H201.2z"/>
	<path class="st4" d="M201.2,149.2c9.7,6.1,19.3,12.4,28.9,18.6l28.8,18.9l28.7,19.1l14.3,9.6l14.2,9.7l-14.5-9.3l-14.5-9.4
		l-28.8-18.9l-28.7-19.1C220.2,162.2,210.7,155.8,201.2,149.2z"/>
	<path class="st4" d="M316.1,149.2c-9.5,6.5-19,12.9-28.5,19.3L259,187.6l-28.8,18.9l-14.4,9.4l-14.5,9.3l14.2-9.7l14.3-9.6
		l28.7-19.1l28.8-18.9C296.8,161.6,306.4,155.4,316.1,149.2z"/>
</g>
<g id="freepik--Screens--inject-16">
	<rect x="533.8" y="60.5" class="st6" width="93.6" height="59.7"/>
	<path class="st0" d="M628.1,120.9h-94.8V60h94.8V120.9z M534.4,119.7h92.5V61.1h-92.5V119.7z"/>
	<rect x="533.8" y="60.5" class="st3" width="93.6" height="11.3"/>
	<path class="st1" d="M544.5,66.3c0,1.6-1.3,2.8-2.9,2.8c-1.6,0-2.8-1.3-2.8-2.9s1.3-2.8,2.9-2.8c0,0,0,0,0,0
		C543.2,63.4,544.5,64.7,544.5,66.3C544.5,66.3,544.5,66.3,544.5,66.3z"/>
	<path class="st0" d="M556.1,66.3c0,1.6-1.3,2.8-2.9,2.8c-1.6,0-2.8-1.3-2.8-2.9s1.3-2.8,2.9-2.8c0,0,0,0,0,0
		C554.8,63.4,556.1,64.7,556.1,66.3C556.1,66.3,556.1,66.3,556.1,66.3z"/>
	<path class="st6" d="M567.7,66.3c0,1.6-1.3,2.8-2.9,2.8c-1.6,0-2.8-1.3-2.8-2.9s1.3-2.8,2.9-2.8c0,0,0,0,0,0
		C566.4,63.4,567.7,64.7,567.7,66.3C567.7,66.3,567.7,66.3,567.7,66.3z"/>
	<path class="st0" d="M550,94.2c0.1-6.3,5.2-11.3,11.5-11.3c2.6,0,5.2,0.9,7.3,2.5c0.8,0.6,0.9,1.7,0.3,2.5
		c-0.6,0.8-1.7,0.9-2.5,0.3c-1.4-1.2-3.2-1.8-5.1-1.7c-2.1,0-4.1,0.8-5.7,2.3c-1.5,1.4-2.3,3.4-2.3,5.5c0,2.1,0.8,4,2.3,5.5
		c1.5,1.4,3.6,2.3,5.7,2.3c1.8,0,3.6-0.6,5.1-1.7c0.8-0.5,1.9-0.4,2.5,0.3c0.6,0.8,0.4,1.9-0.3,2.5c-2.1,1.6-4.6,2.5-7.3,2.5
		C555.2,105.5,550.1,100.5,550,94.2z"/>
	<path class="st0" d="M574.5,100c0.6-0.7,1.6-0.8,2.3-0.2c1.7,1.4,3.8,2.3,6,2.4c1.4,0,2.8-0.4,3.9-1.2c0.8-0.5,1.3-1.3,1.4-2.3
		c0-0.4-0.1-0.7-0.3-1c-0.2-0.4-0.6-0.7-0.9-1c-1.3-0.7-2.8-1.2-4.3-1.5h-0.1c-1.4-0.2-2.8-0.6-4.1-1.2c-1.2-0.5-2.2-1.4-2.9-2.5
		c-0.5-0.8-0.7-1.7-0.7-2.6c0.1-1.8,1-3.5,2.5-4.6c1.6-1.1,3.5-1.7,5.4-1.7c2.5,0.1,4.9,1,6.9,2.5c0.7,0.5,0.9,1.5,0.4,2.2
		c-0.5,0.7-1.5,1-2.2,0.5c0,0,0,0,0,0c-1.6-1.1-3.1-2-5.1-2c-1.3,0-2.5,0.4-3.5,1.1c-0.7,0.4-1.1,1.2-1.2,2c0,0.3,0.1,0.6,0.2,0.9
		c0.2,0.3,0.5,0.6,0.8,0.8c1.2,0.7,2.5,1.2,3.9,1.4h0.1c1.5,0.3,3,0.7,4.3,1.3c1.3,0.6,2.4,1.5,3.1,2.6c0.5,0.8,0.8,1.7,0.8,2.7
		c-0.1,2-1.1,3.8-2.7,4.9c-1.7,1.2-3.7,1.8-5.8,1.8c-3-0.1-5.8-1.2-8-3.1C574.1,101.7,574,100.7,574.5,100z"/>
	<path class="st0" d="M595.2,100c0.6-0.7,1.6-0.8,2.3-0.2c1.7,1.4,3.8,2.3,6,2.4c1.4,0,2.8-0.4,3.9-1.2c0.8-0.5,1.3-1.3,1.4-2.3
		c0-0.4-0.1-0.7-0.3-1c-0.2-0.4-0.6-0.7-0.9-1c-1.3-0.7-2.8-1.2-4.3-1.5h-0.1c-1.4-0.2-2.8-0.6-4.1-1.2c-1.2-0.5-2.2-1.4-2.9-2.5
		c-0.5-0.8-0.7-1.7-0.7-2.6c0.1-1.8,1-3.5,2.5-4.5c1.6-1.1,3.5-1.7,5.4-1.7c2.5,0.1,4.9,1,6.9,2.5c0.7,0.5,0.9,1.5,0.4,2.2
		c-0.5,0.7-1.5,1-2.2,0.5c0,0,0,0,0,0c-1.6-1.1-3.1-2-5.1-2c-1.3,0-2.5,0.4-3.5,1.1c-0.7,0.4-1.1,1.2-1.2,2c0,0.3,0.1,0.6,0.3,0.8
		c0.2,0.3,0.5,0.6,0.8,0.8c1.2,0.7,2.5,1.2,3.9,1.4h0.1c1.5,0.3,3,0.7,4.3,1.3c1.3,0.6,2.4,1.5,3.1,2.6c0.5,0.8,0.8,1.7,0.8,2.7
		c-0.1,2-1.1,3.8-2.7,4.9c-1.7,1.2-3.7,1.8-5.8,1.8c-2.9-0.2-5.7-1.3-8-3.1C594.8,101.8,594.7,100.7,595.2,100z"/>
	<rect x="589.7" y="142.8" class="st3" width="52.6" height="23.6"/>
	<path class="st6" d="M605.3,155.7h-2.2v3.9c0,0.6-0.4,1-1,1s-1-0.4-1-1v-10.5c0-0.6,0.4-1,1-1h3.2c2.1,0,3.8,1.7,3.8,3.8
		S607.4,155.7,605.3,155.7L605.3,155.7z M603.1,153.7h2.2c1,0,1.8-0.8,1.8-1.8s-0.8-1.8-1.8-1.8h-2.2V153.7z"/>
	<path class="st6" d="M611.5,159.5v-10.5c0-0.6,0.4-1,1-1s1,0.4,1,1v4.3h4.6v-4.3c0-0.6,0.4-1,1-1s1,0.4,1,1v10.5c0,0.6-0.4,1-1,1
		s-1-0.4-1-1v-4.3h-4.6v4.3c0,0.6-0.4,1-1,1S611.5,160.1,611.5,159.5z"/>
	<path class="st6" d="M628.2,155.7H626v3.9c0,0.6-0.4,1-1,1s-1-0.4-1-1v-10.5c0-0.6,0.4-1,1-1h3.2c2.1,0,3.8,1.7,3.8,3.8
		S630.3,155.7,628.2,155.7L628.2,155.7z M626,153.7h2.2c1,0,1.8-0.8,1.8-1.8s-0.8-1.8-1.8-1.8H626V153.7z"/>
	<g class="st10">
		<rect x="398.5" y="247.8" class="st6" width="156.2" height="109.4"/>
		<path class="st0" d="M555.2,357.8H397.9V247.2h157.3V357.8z M399.1,356.6h155V248.4h-155L399.1,356.6z"/>
		<rect x="398.5" y="247.8" class="st3" width="156.2" height="11.3"/>
		<path class="st0" d="M555.2,259.7H397.9v-12.5h157.3V259.7z M399.1,258.5h155v-10.1h-155L399.1,258.5z"/>
		<path class="st1" d="M409.1,253.6c0,1.6-1.3,2.9-2.8,2.9c-1.6,0-2.9-1.3-2.9-2.8s1.3-2.9,2.8-2.9c0,0,0,0,0,0
			C407.8,250.7,409.1,252,409.1,253.6z"/>
		<path class="st0" d="M420.7,253.6c0,1.6-1.3,2.9-2.8,2.9c-1.6,0-2.9-1.3-2.9-2.8s1.3-2.9,2.8-2.9c0,0,0,0,0,0
			C419.4,250.7,420.7,252,420.7,253.6z"/>
		<path class="st6" d="M432.3,253.6c0,1.6-1.3,2.9-2.8,2.9c-1.6,0-2.9-1.3-2.9-2.8s1.3-2.9,2.8-2.9c0,0,0,0,0,0
			C431,250.7,432.3,252,432.3,253.6z"/>
		<rect x="410.6" y="281.6" class="st0" width="6" height="2.2"/>
		<rect x="421" y="281.6" class="st0" width="69.3" height="2.2"/>
		<rect x="494" y="281.6" class="st1" width="11.5" height="2.2"/>
		<rect x="508" y="281.6" class="st11" width="19.8" height="2.2"/>
		<rect x="416.6" y="287.5" class="st0" width="6" height="2.2"/>
		<rect x="426.9" y="287.5" class="st11" width="45.5" height="2.2"/>
		<rect x="421" y="305.2" class="st11" width="43.4" height="2.2"/>
		<rect x="426.9" y="293.4" class="st1" width="30.5" height="2.2"/>
		<rect x="501.7" y="299.3" class="st11" width="11.6" height="2.2"/>
		<rect x="460.8" y="293.4" class="st11" width="48.6" height="2.2"/>
		<rect x="421" y="311.1" class="st1" width="58.1" height="2.2"/>
		<rect x="506.7" y="287.5" class="st1" width="31.5" height="2.2"/>
		<rect x="475.2" y="287.5" class="st0" width="29" height="2.2"/>
		<rect x="511.7" y="293.4" class="st0" width="19.5" height="2.2"/>
		<rect x="416.6" y="293.4" class="st0" width="6" height="2.2"/>
		<rect x="410.6" y="299.3" class="st11" width="6" height="2.2"/>
		<rect x="421" y="299.3" class="st0" width="35.7" height="2.2"/>
		<rect x="466.9" y="305.2" class="st0" width="38.6" height="2.2"/>
		<rect x="508" y="305.2" class="st1" width="24.5" height="2.2"/>
		<rect x="460.4" y="299.3" class="st1" width="38.5" height="2.2"/>
		<rect x="410.6" y="305.2" class="st0" width="6" height="2.2"/>
		<rect x="410.6" y="311.1" class="st0" width="6" height="2.2"/>
		<path class="st1" d="M414.3,275.8c0.2,0.2,0.2,0.5,0,0.7c0,0,0,0,0,0c-0.1,0.1-0.2,0.1-0.4,0.1c-0.1,0-0.3-0.1-0.4-0.1l-2.3-2.4
			c0,0,0,0,0,0l0,0c0,0,0,0,0-0.1l0,0c0,0,0,0,0,0s0,0,0,0V274c0,0,0,0,0,0v-0.1l0,0v-0.1l0,0c0,0,0,0,0-0.1l0,0c0,0,0,0,0,0
			l2.3-2.4c0.2-0.2,0.5-0.2,0.7,0c0.2,0.2,0.2,0.5,0,0.7c0,0,0,0,0,0l-2,2L414.3,275.8z"/>
		<path class="st1" d="M416.4,276.1l2-4.8c0.1-0.2,0.4-0.3,0.6-0.2s0.3,0.4,0.2,0.6l0,0l-2,4.8c-0.1,0.2-0.2,0.3-0.4,0.3
			c-0.1,0-0.1,0-0.2,0C416.4,276.6,416.3,276.4,416.4,276.1C416.4,276.1,416.4,276.1,416.4,276.1z"/>
		<path class="st1" d="M423.3,274.1L423.3,274.1L423.3,274.1l-2.4,2.4c-0.1,0.1-0.2,0.2-0.4,0.1c-0.1,0-0.3-0.1-0.4-0.1
			c-0.2-0.2-0.2-0.5,0-0.7c0,0,0,0,0,0l2-2l-2-2c-0.2-0.2-0.2-0.5,0-0.7c0,0,0,0,0,0c0.2-0.2,0.5-0.2,0.8,0l2.3,2.4l0,0l0,0
			c0,0,0,0,0,0.1s0,0,0,0c0,0,0,0.1,0,0.1l0,0v0.2l0,0c0,0,0,0.1,0,0.1l0,0C423.4,274,423.4,274,423.3,274.1z"/>
	</g>
	<rect x="148.4" y="252.2" class="st1" width="63.8" height="23.6"/>
	<path class="st6" d="M157.6,268.9v-10.5c0-0.6,0.4-1,1-1s1,0.4,1,1v4.3h4.6v-4.3c0-0.6,0.4-1,1-1s1,0.4,1,1v10.5c0,0.6-0.4,1-1,1
		s-1-0.4-1-1v-4.3h-4.6v4.3c0,0.6-0.4,1-1,1S157.6,269.5,157.6,268.9z"/>
	<path class="st6" d="M177.8,259.5H175v9.5c0,0.6-0.4,1-1,1s-1-0.4-1-1v-9.5h-2.8c-0.6,0-1-0.4-1-1s0.4-1,1-1h7.6c0.6,0,1,0.4,1,1
		S178.3,259.5,177.8,259.5z"/>
	<path class="st6" d="M192.4,258.5v10.5c0,0.6-0.4,1-1,1s-1-0.4-1-1v-7.5l-2.5,3.5c-0.2,0.3-0.5,0.4-0.8,0.4l0,0
		c-0.3,0-0.6-0.1-0.8-0.4l-2.5-3.5v7.5c0,0.6-0.4,1-1,1s-1-0.4-1-1v-10.5c0-0.6,0.4-1,1-1h0.1c0.3,0,0.6,0.2,0.8,0.4l3.5,4.9
		l3.5-4.9c0.2-0.3,0.5-0.4,0.8-0.4l0,0C191.9,257.5,192.4,257.9,192.4,258.5z"/>
	<path class="st6" d="M196.7,268.9v-10.5c0-0.6,0.4-1,1-1s1,0.4,1,1v9.5h4.8c0.6,0,1,0.4,1,1s-0.4,1-1,1h-5.8
		C197.1,270,196.7,269.6,196.7,268.9C196.7,269,196.7,269,196.7,268.9z"/>
	<rect x="622.7" y="224.4" class="st1" width="35.6" height="23.6"/>
	<path class="st6" d="M632.3,238.5c0.4,1.2,1.8,1.9,3,1.5c1-0.3,1.6-1.2,1.6-2.2v-6.8c0.2-0.5,0.7-0.8,1.3-0.7
		c0.3,0.1,0.6,0.3,0.7,0.7v6.8c0,2.4-1.9,4.3-4.3,4.3c-1.9,0-3.5-1.2-4.1-3c-0.2-0.5,0.1-1,0.6-1.2c0,0,0,0,0,0
		C631.6,237.7,632.2,238,632.3,238.5C632.3,238.5,632.3,238.5,632.3,238.5z"/>
	<path class="st6" d="M641.3,239c0.3-0.4,0.9-0.4,1.3-0.1c0.9,0.8,2.1,1.2,3.3,1.3c0.8,0,1.5-0.2,2.2-0.6c0.4-0.3,0.7-0.7,0.7-1.2
		c0-0.2,0-0.4-0.2-0.6c-0.1-0.2-0.3-0.4-0.5-0.5c-0.7-0.4-1.5-0.7-2.4-0.8l0,0c-0.8-0.1-1.5-0.4-2.2-0.7c-0.7-0.3-1.2-0.7-1.6-1.3
		c-0.3-0.4-0.4-0.9-0.4-1.4c0-1,0.5-1.9,1.4-2.5c0.9-0.6,1.9-0.9,3-0.9c1.4,0.1,2.7,0.5,3.8,1.4c0.4,0.3,0.5,0.8,0.2,1.2
		c-0.2,0.4-0.8,0.5-1.2,0.3c0,0,0,0,0,0c-0.8-0.6-1.8-1-2.8-1.1c-0.7,0-1.4,0.2-1.9,0.6c-0.4,0.2-0.6,0.6-0.7,1.1
		c0,0.2,0,0.3,0.1,0.5c0.1,0.2,0.3,0.3,0.5,0.4c0.7,0.4,1.4,0.6,2.2,0.8l0,0c0.8,0.1,1.6,0.4,2.4,0.7c0.7,0.3,1.3,0.8,1.7,1.4
		c0.3,0.4,0.4,1,0.4,1.5c0,1.1-0.6,2.1-1.5,2.7c-0.9,0.7-2,1-3.2,1c-1.6-0.1-3.2-0.7-4.4-1.7C641,240,640.9,239.4,641.3,239
		C641.3,239,641.3,239,641.3,239z"/>
	<rect x="81" y="84.3" class="st6" width="93.6" height="59.7"/>
	<path class="st0" d="M175.2,144.7H80.4V83.8h94.8L175.2,144.7z M81.6,143.5H174V84.9H81.6V143.5z"/>
	<rect x="81" y="84.3" class="st3" width="93.6" height="11.3"/>
	<path class="st0" d="M175.2,96.2H80.4V83.8h94.8L175.2,96.2z M81.6,95.1H174V84.9H81.6V95.1z"/>
	<path class="st1" d="M91.6,90.1c0,1.6-1.3,2.8-2.8,2.8s-2.8-1.3-2.8-2.8s1.3-2.8,2.8-2.8h0C90.3,87.2,91.6,88.5,91.6,90.1z"/>
	<path class="st0" d="M103.2,90.1c0,1.6-1.3,2.8-2.8,2.8s-2.8-1.3-2.8-2.8s1.3-2.8,2.8-2.8h0C101.9,87.2,103.2,88.5,103.2,90.1z"/>
	<path class="st6" d="M114.8,90.1c0,1.6-1.3,2.9-2.8,2.9c-1.6,0-2.9-1.3-2.9-2.8s1.3-2.9,2.8-2.9c0,0,0,0,0,0
		C113.6,87.2,114.8,88.5,114.8,90.1z"/>
	<path class="st0" d="M98.5,118c0.1-6.3,5.2-11.3,11.5-11.3c2.6,0,5.2,0.8,7.3,2.4c0.8,0.6,0.9,1.7,0.3,2.5s-1.7,0.9-2.5,0.3l0,0
		c-1.4-1.2-3.2-1.8-5.1-1.7c-2.1,0-4.1,0.8-5.7,2.3c-1.5,1.4-2.3,3.4-2.3,5.5c0,2.1,0.8,4,2.3,5.5c1.5,1.4,3.6,2.3,5.7,2.3
		c1.8,0,3.6-0.6,5.1-1.7c0.8-0.5,1.9-0.4,2.5,0.3c0.6,0.8,0.4,1.9-0.3,2.5c-2.1,1.6-4.6,2.5-7.3,2.5
		C103.7,129.3,98.6,124.3,98.5,118z"/>
	<path class="st0" d="M128.6,120h-4.5c-1,0-1.7-0.8-1.7-1.7c0-1,0.8-1.7,1.7-1.7h4.5v-4.4c0.1-1,0.9-1.7,1.9-1.7
		c0.9,0.1,1.6,0.8,1.7,1.7v4.4h4.5c1,0,1.7,0.8,1.7,1.7c0,1-0.8,1.7-1.7,1.7h-4.5v4.4c0.1,1-0.7,1.9-1.7,1.9s-1.9-0.7-1.9-1.7
		c0-0.1,0-0.2,0-0.3V120z"/>
	<path class="st0" d="M148.2,120h-4.5c-1,0-1.7-0.8-1.7-1.7c0-1,0.8-1.7,1.7-1.7c0,0,0,0,0,0h4.5v-4.4c0-1,0.8-1.8,1.7-1.8
		c0,0,0,0,0,0c1,0,1.8,0.8,1.8,1.8v4.4h4.5c1,0,1.7,0.8,1.7,1.7c0,1-0.8,1.7-1.7,1.7h-4.5v4.4c0,1-0.8,1.8-1.8,1.8c0,0,0,0,0,0
		c-1,0-1.8-0.8-1.8-1.7c0,0,0,0,0-0.1V120z"/>
</g>
<g id="freepik--Crane--inject-16">
	
		<rect x="124.4" y="200.3" transform="matrix(0.6861 -0.7275 0.7275 0.6861 -103.972 161.874)" class="st2" width="22.4" height="2.2"/>
	<rect x="127.9" y="209.1" class="st3" width="15.7" height="2.2"/>
	<rect x="127.9" y="192.2" class="st3" width="15.7" height="2.2"/>
	
		<rect x="134.5" y="190.2" transform="matrix(0.7277 -0.6859 0.6859 0.7277 -101.2217 147.8569)" class="st3" width="2.2" height="22.4"/>
	
		<rect x="124.4" y="217.3" transform="matrix(0.6861 -0.7275 0.7275 0.6861 -116.2951 167.1928)" class="st2" width="22.4" height="2.2"/>
	<rect x="127.9" y="226.1" class="st3" width="15.7" height="2.2"/>
	<rect x="127.9" y="209.1" class="st3" width="15.7" height="2.2"/>
	
		<rect x="134.5" y="207.2" transform="matrix(0.7277 -0.6859 0.6859 0.7277 -112.8423 152.4762)" class="st3" width="2.2" height="22.4"/>
	
		<rect x="124.4" y="234.2" transform="matrix(0.6861 -0.7275 0.7275 0.6861 -128.6386 172.5181)" class="st2" width="22.4" height="2.2"/>
	<rect x="127.9" y="243.1" class="st3" width="15.7" height="2.2"/>
	<rect x="127.9" y="226.1" class="st3" width="15.7" height="2.2"/>
	
		<rect x="134.5" y="224.1" transform="matrix(0.7277 -0.6859 0.6859 0.7277 -124.4757 157.0979)" class="st3" width="2.2" height="22.4"/>
	
		<rect x="124.4" y="251.2" transform="matrix(0.6861 -0.7275 0.7275 0.6861 -140.969 177.8401)" class="st2" width="22.4" height="2.2"/>
	<rect x="127.9" y="260" class="st3" width="15.7" height="2.2"/>
	<rect x="127.9" y="243.1" class="st3" width="15.7" height="2.2"/>
	
		<rect x="134.5" y="241.1" transform="matrix(0.7277 -0.6859 0.6859 0.7277 -136.099 161.7103)" class="st3" width="2.2" height="22.4"/>
	
		<rect x="124.4" y="268.1" transform="matrix(0.6861 -0.7275 0.7275 0.6861 -153.3125 183.1654)" class="st2" width="22.4" height="2.2"/>
	<rect x="127.9" y="277" class="st3" width="15.7" height="2.2"/>
	<rect x="127.9" y="260" class="st3" width="15.7" height="2.2"/>
	
		<rect x="134.5" y="258" transform="matrix(0.7277 -0.6859 0.6859 0.7277 -147.7292 166.3254)" class="st3" width="2.2" height="22.4"/>
	
		<rect x="125.6" y="285.9" transform="matrix(0.6869 -0.7267 0.7267 0.6869 -165.7154 189.2852)" class="st2" width="22.5" height="2.2"/>
	<rect x="127.9" y="293.9" class="st3" width="15.7" height="2.2"/>
	<rect x="127.9" y="277" class="st3" width="15.7" height="2.2"/>
	
		<rect x="134.5" y="275" transform="matrix(0.7277 -0.6859 0.6859 0.7277 -159.3625 170.9471)" class="st3" width="2.2" height="22.4"/>
	
		<rect x="125.6" y="302.9" transform="matrix(0.6869 -0.7267 0.7267 0.6869 -178.0707 194.6368)" class="st2" width="22.5" height="2.2"/>
	<rect x="127.9" y="310.9" class="st3" width="15.7" height="2.2"/>
	<rect x="127.9" y="293.9" class="st3" width="15.7" height="2.2"/>
	
		<rect x="134.5" y="291.9" transform="matrix(0.7277 -0.6859 0.6859 0.7277 -170.9859 175.5595)" class="st3" width="2.2" height="22.4"/>
	
		<rect x="124.4" y="319" transform="matrix(0.6861 -0.7275 0.7275 0.6861 -190.3095 199.1314)" class="st2" width="22.4" height="2.2"/>
	<rect x="127.9" y="327.8" class="st3" width="15.7" height="2.2"/>
	<rect x="127.9" y="310.9" class="st3" width="15.7" height="2.2"/>
	
		<rect x="134.5" y="308.9" transform="matrix(0.7277 -0.6859 0.6859 0.7277 -182.6192 180.1813)" class="st3" width="2.2" height="22.4"/>
	
		<rect x="124.4" y="335.9" transform="matrix(0.6861 -0.7275 0.7275 0.6861 -202.6326 204.4503)" class="st2" width="22.4" height="2.2"/>
	<rect x="127.9" y="344.8" class="st3" width="15.7" height="2.2"/>
	<rect x="127.9" y="327.8" class="st3" width="15.7" height="2.2"/>
	
		<rect x="134.5" y="325.8" transform="matrix(0.7277 -0.6859 0.6859 0.7277 -194.2467 184.8032)" class="st3" width="2.2" height="22.4"/>
	
		<rect x="124.4" y="352.9" transform="matrix(0.6858 -0.7278 0.7278 0.6858 -215.0318 209.9005)" class="st2" width="22.4" height="2.2"/>
	<rect x="127.9" y="361.7" class="st3" width="15.7" height="2.2"/>
	<rect x="127.9" y="344.8" class="st3" width="15.7" height="2.2"/>
	
		<rect x="134.5" y="342.8" transform="matrix(0.7277 -0.6859 0.6859 0.7277 -205.8796 189.4114)" class="st3" width="2.2" height="22.4"/>
	
		<rect x="124.4" y="369.9" transform="matrix(0.6858 -0.7278 0.7278 0.6858 -227.3723 215.2243)" class="st2" width="22.4" height="2.2"/>
	<rect x="127.9" y="378.7" class="st3" width="15.7" height="2.2"/>
	<rect x="127.9" y="361.7" class="st3" width="15.7" height="2.2"/>
	
		<rect x="134.5" y="359.7" transform="matrix(0.7277 -0.6859 0.6859 0.7277 -217.5034 194.0373)" class="st3" width="2.2" height="22.4"/>
	<rect x="124.1" y="378.5" class="st3" width="22.7" height="9.9"/>
	<rect x="124.1" y="193.1" class="st3" width="5.7" height="186"/>
	<rect x="141.1" y="193.1" class="st3" width="5.7" height="186"/>
	<polygon class="st3" points="296.1,191.7 279.1,175 135.8,148.3 92.3,175.1 91.1,173.3 135.4,146 280.1,173 297.6,190.2 	"/>
	<polygon class="st2" points="153.1,177.4 135.6,153.1 118.9,177.3 115.3,174.9 135.6,145.5 156.6,174.8 	"/>
	
		<rect x="269.4" y="174.2" transform="matrix(0.6859 -0.7277 0.7277 0.6859 -49.9638 255.064)" class="st2" width="2.2" height="22.4"/>
	<rect x="278.2" y="177.4" class="st3" width="2.2" height="15.7"/>
	<rect x="261.3" y="177.4" class="st3" width="2.2" height="15.7"/>
	
		<rect x="259.3" y="184.3" transform="matrix(0.7275 -0.6861 0.6861 0.7275 -53.4912 236.0869)" class="st3" width="22.4" height="2.2"/>
	
		<rect x="252.5" y="174.2" transform="matrix(0.6859 -0.7277 0.7277 0.6859 -55.292 242.7207)" class="st2" width="2.2" height="22.4"/>
	<rect x="261.3" y="177.4" class="st3" width="2.2" height="15.7"/>
	<rect x="244.3" y="177.4" class="st3" width="2.2" height="15.7"/>
	
		<rect x="242.4" y="184.3" transform="matrix(0.7275 -0.6861 0.6861 0.7275 -58.1092 224.4565)" class="st3" width="22.4" height="2.2"/>
	
		<rect x="235.5" y="174.2" transform="matrix(0.6859 -0.7277 0.7277 0.6859 -60.6169 230.3905)" class="st2" width="2.2" height="22.4"/>
	<rect x="244.3" y="177.4" class="st3" width="2.2" height="15.7"/>
	<rect x="227.4" y="177.4" class="st3" width="2.2" height="15.7"/>
	
		<rect x="225.4" y="184.3" transform="matrix(0.7275 -0.6861 0.6861 0.7275 -62.7273 212.8261)" class="st3" width="22.4" height="2.2"/>
	
		<rect x="218.5" y="174.2" transform="matrix(0.6859 -0.7277 0.7277 0.6859 -65.9377 218.0499)" class="st2" width="2.2" height="22.4"/>
	<rect x="227.4" y="177.4" class="st3" width="2.2" height="15.7"/>
	<rect x="210.4" y="177.4" class="st3" width="2.2" height="15.7"/>
	
		<rect x="208.4" y="184.3" transform="matrix(0.7275 -0.6861 0.6861 0.7275 -67.352 201.1926)" class="st3" width="22.4" height="2.2"/>
	
		<rect x="201.6" y="174.2" transform="matrix(0.6859 -0.7277 0.7277 0.6859 -71.2628 205.7138)" class="st2" width="2.2" height="22.4"/>
	<rect x="210.4" y="177.4" class="st3" width="2.2" height="15.7"/>
	<rect x="193.4" y="177.4" class="st3" width="2.2" height="15.7"/>
	
		<rect x="191.5" y="184.3" transform="matrix(0.7275 -0.6861 0.6861 0.7275 -71.97 189.5622)" class="st3" width="22.4" height="2.2"/>
	
		<rect x="184.6" y="174.2" transform="matrix(0.6859 -0.7277 0.7277 0.6859 -76.5909 193.3763)" class="st2" width="2.2" height="22.4"/>
	<rect x="193.4" y="177.4" class="st3" width="2.2" height="15.7"/>
	<rect x="176.5" y="177.4" class="st3" width="2.2" height="15.7"/>
	
		<rect x="174.6" y="184.3" transform="matrix(0.7275 -0.6861 0.6861 0.7275 -76.5785 177.936)" class="st3" width="22.4" height="2.2"/>
	
		<rect x="167.7" y="174.2" transform="matrix(0.6859 -0.7277 0.7277 0.6859 -81.9191 181.033)" class="st2" width="2.2" height="22.4"/>
	<rect x="176.5" y="177.4" class="st3" width="2.2" height="15.7"/>
	<rect x="159.6" y="177.4" class="st3" width="2.2" height="15.7"/>
	
		<rect x="157.6" y="184.3" transform="matrix(0.7275 -0.6861 0.6861 0.7275 -81.2101 166.3052)" class="st3" width="22.4" height="2.2"/>
	
		<rect x="150.7" y="174.2" transform="matrix(0.6859 -0.7277 0.7277 0.6859 -87.2367 168.6997)" class="st2" width="2.2" height="22.4"/>
	<rect x="159.6" y="177.4" class="st3" width="2.2" height="15.7"/>
	<rect x="142.6" y="177.4" class="st3" width="2.2" height="15.7"/>
	
		<rect x="140.6" y="184.3" transform="matrix(0.7275 -0.6861 0.6861 0.7275 -85.8212 154.6721)" class="st3" width="22.4" height="2.2"/>
	
		<rect x="133.8" y="174.2" transform="matrix(0.6859 -0.7277 0.7277 0.6859 -92.5575 156.359)" class="st2" width="2.2" height="22.4"/>
	<rect x="142.6" y="177.4" class="st3" width="2.2" height="15.7"/>
	<rect x="125.6" y="177.4" class="st3" width="2.2" height="15.7"/>
	
		<rect x="123.7" y="184.3" transform="matrix(0.7275 -0.6861 0.6861 0.7275 -90.4459 143.0386)" class="st3" width="22.4" height="2.2"/>
	
		<rect x="116.8" y="174.2" transform="matrix(0.6859 -0.7277 0.7277 0.6859 -97.8899 144.0261)" class="st2" width="2.2" height="22.4"/>
	<rect x="125.6" y="177.4" class="st3" width="2.2" height="15.7"/>
	<rect x="108.7" y="177.4" class="st3" width="2.2" height="15.7"/>
	
		<rect x="106.7" y="184.3" transform="matrix(0.7275 -0.6861 0.6861 0.7275 -95.064 131.4082)" class="st3" width="22.4" height="2.2"/>
	
		<rect x="99.9" y="174.2" transform="matrix(0.6859 -0.7277 0.7277 0.6859 -103.2107 131.6855)" class="st2" width="2.2" height="22.4"/>
	<rect x="108.7" y="177.4" class="st3" width="2.2" height="15.7"/>
	<rect x="91.7" y="177.4" class="st3" width="2.2" height="15.7"/>
	
		<rect x="89.8" y="184.3" transform="matrix(0.7275 -0.6861 0.6861 0.7275 -99.6889 119.7806)" class="st3" width="22.4" height="2.2"/>
	<rect x="81.2" y="173.3" class="st2" width="9.9" height="22.7"/>
	<rect x="91.1" y="173.3" class="st3" width="9.9" height="22.7"/>
	<rect x="95.1" y="195.9" class="st3" width="18.9" height="11.3"/>
	<rect x="91.1" y="190.2" class="st3" width="206.5" height="5.7"/>
	<polygon class="st3" points="285.8,178.9 91.1,178.9 91.1,173.3 280.3,173.3 	"/>
	<rect x="281.9" y="177.4" class="st3" width="2.2" height="15.7"/>
	<path class="st2" d="M250.4,295.7c1.3-1.8,2.7-3.6,4.1-5.3s2.8-3.5,4.3-5.1l0.4-0.5l0.4,0.5c2.2,2.7,4.3,5.4,6.4,8.1l3.1,4.1
		c1,1.4,2,2.8,3,4.2c-1.2-1.3-2.3-2.6-3.4-3.9l-3.4-3.9c-2.2-2.6-4.4-5.3-6.6-8h0.8c-1.5,1.7-3,3.4-4.5,5S252.1,294.1,250.4,295.7z"
		/>
	<rect x="248.7" y="198.2" class="st2" width="2.2" height="68.1"/>
	<rect x="267.1" y="198.9" class="st2" width="2.2" height="68.1"/>
	<rect x="244.8" y="195.9" class="st3" width="28.7" height="4.6"/>
	<path class="st2" d="M260.3,271.7l-0.2,4.8l-0.7-0.8c0.8,0.2,1.5,0.5,2.2,0.9c0.7,0.4,1.3,1,1.7,1.7c0.8,1.4,0.8,3.2-0.1,4.6
		c-0.9,1.3-2.3,2-3.9,2c-1.5-0.1-2.8-0.9-3.6-2.2c0.9,1.1,2.2,1.7,3.6,1.7c1.3-0.1,2.5-0.8,3.2-2c0.6-1.1,0.5-2.4-0.2-3.5
		c-0.8-0.9-1.9-1.5-3.2-1.7l-0.7-0.1v-0.7l-0.2-4.8L260.3,271.7z"/>
	<polygon class="st3" points="273.5,261.8 273.5,269.7 259.2,273.1 244.8,269.7 244.8,261.8 	"/>
	<path class="st2" d="M251.4,266.4c0,0.9-0.7,1.7-1.7,1.7s-1.7-0.7-1.7-1.7c0-0.9,0.7-1.7,1.7-1.7c0,0,0,0,0,0
		C250.6,264.8,251.4,265.5,251.4,266.4C251.4,266.4,251.4,266.4,251.4,266.4z"/>
	<path class="st2" d="M270.3,266.4c0,0.9-0.7,1.7-1.7,1.7s-1.7-0.7-1.7-1.7c0-0.9,0.7-1.7,1.7-1.7S270.3,265.5,270.3,266.4
		L270.3,266.4z"/>
	<path class="st11" d="M139.3,147.2c0,2-1.6,3.7-3.7,3.7c-2,0-3.7-1.6-3.7-3.7s1.6-3.7,3.7-3.7c0,0,0,0,0,0
		C137.6,143.5,139.3,145.1,139.3,147.2z"/>
	<path class="st3" d="M137.3,147.2c0,0.9-0.8,1.7-1.7,1.7s-1.7-0.8-1.7-1.7c0-0.9,0.8-1.7,1.7-1.7S137.3,146.2,137.3,147.2
		L137.3,147.2z"/>
	<rect x="119.6" y="388.3" class="st2" width="31.7" height="7.5"/>
	<rect x="112.7" y="395.8" class="st3" width="45.5" height="14.7"/>
	<path class="st1" d="M153.9,209h-34v-37.6h22.2c3.9,0,7.2,2.9,7.7,6.7L153.9,209z"/>
	<path class="st2" d="M144.7,197.6h-15.9c-0.2,0-0.3,0-0.5-0.1c-0.8-0.2-1.3-0.9-1.3-1.7v-20.1h11.3c0.4,0,0.8,0,1.1,0.1
		c0.8,0.1,1.7,0.5,2.4,0.9c0.5,0.3,0.9,0.7,1.3,1.2c0.8,0.9,1.3,2,1.4,3.2l1.9,14.4c0.1,1-0.6,1.9-1.5,2
		C144.8,197.6,144.7,197.6,144.7,197.6z"/>
	<g class="st12">
		<path class="st6" d="M143,187.1c0,0.5-0.2,0.9-0.5,1.3l-9.2,9.2h-4.5c-0.2,0-0.3,0-0.5-0.1l11.7-11.7c0.7-0.7,1.9-0.6,2.5,0.1
			C142.8,186.3,142.9,186.7,143,187.1L143,187.1z"/>
		<path class="st6" d="M143.1,178L127,194.1v-2.5l14.8-14.8C142.3,177.1,142.7,177.5,143.1,178z"/>
		<path class="st6" d="M139.4,175.8l-9.2,9.2c-0.6,0.5-1.4,0.4-1.9-0.1c-0.4-0.5-0.4-1.2,0-1.8l7.4-7.4h2.5
			C138.7,175.7,139,175.8,139.4,175.8z"/>
	</g>
	
		<rect x="224.2" y="282.2" transform="matrix(0.2798 -0.96 0.96 0.2798 -132.4696 483.1088)" class="st6" width="63.1" height="95.2"/>
	<path class="st4" d="M201,346.9v-0.1l17.7-60.7l0.2,0l91.6,26.7l-17.7,60.9l-0.1,0L201,346.9z M219,286.5l-17.6,60.2l91.1,26.6
		l17.6-60.3L219,286.5z"/>
	<path class="st1" d="M266.1,332.9c-1.7,5.7-7.7,9-13.4,7.3c-5.7-1.7-9-7.7-7.3-13.4c1.7-5.7,7.7-9,13.4-7.3
		C264.5,321.2,267.8,327.2,266.1,332.9C266.1,332.9,266.1,332.9,266.1,332.9z"/>
	<polygon class="st6" points="250.1,333 252.7,324.2 262.4,331.8 	"/>
	
		<rect x="245.2" y="310.1" transform="matrix(0.2798 -0.96 0.96 0.2798 -165.1218 495.4102)" class="st0" width="4.9" height="95.2"/>
	
		<rect x="245.2" y="317.2" transform="matrix(0.2798 -0.96 0.96 0.2798 -165.8661 493.417)" class="st5" width="1.5" height="80.2"/>
	
		<rect x="202.7" y="343.6" transform="matrix(0.2798 -0.96 0.96 0.2798 -184.2246 444.6298)" class="st5" width="3.1" height="3.1"/>
	<rect x="202.7" y="344.7" transform="matrix(0.2798 -0.96 0.96 0.2798 -184.4549 444.0388)" class="st11" width="2" height="0.6"/>
	<rect x="203.8" y="345" transform="matrix(0.28 -0.96 0.96 0.28 -184.0285 445.1645)" class="st11" width="2" height="0.6"/>
	
		<rect x="285.6" y="367.7" transform="matrix(0.2798 -0.96 0.96 0.2798 -147.7298 541.6193)" class="st5" width="3.1" height="3.1"/>
	<rect x="286" y="368.8" transform="matrix(0.2798 -0.96 0.96 0.2798 -148.055 540.7532)" class="st11" width="0.8" height="0.6"/>
	<polygon class="st11" points="287.1,370.2 286.3,369.4 286.5,368.7 287.6,368.5 	"/>
	<g id="freepik--u5Zjqx--inject-16">
		<path class="st11" d="M287.9,368.9l0.2-0.1c0.3,0.5,0.1,1.1-0.4,1.4c0,0,0,0,0,0l-0.1-0.2C288,369.8,288.1,369.3,287.9,368.9
			L287.9,368.9z"/>
		<path class="st11" d="M287.5,369.8l-0.1-0.2c0.1-0.1,0.2-0.1,0.2-0.3c0-0.1,0-0.2,0-0.3l0.2-0.1
			C287.9,369.3,287.8,369.7,287.5,369.8C287.5,369.8,287.5,369.8,287.5,369.8z"/>
	</g>
	
		<rect x="289.2" y="368.8" transform="matrix(0.2798 -0.96 0.96 0.2798 -146.1574 545.7903)" class="st5" width="3.1" height="3.1"/>
	
		<rect x="289.8" y="369.2" transform="matrix(0.2798 -0.96 0.96 0.2798 -145.8758 545.1498)" class="st11" width="1.3" height="1.3"/>
	
		<rect x="290.3" y="370.3" transform="matrix(0.2798 -0.96 0.96 0.2798 -146.5273 546.4676)" class="st6" width="1.3" height="1.3"/>
	<path class="st11" d="M221.9,350.3c-0.1,0.2-0.1,0.5-0.1,0.8l-14.6-4.3l0.4-1.4l14.6,4.3C222.1,349.8,221.9,350,221.9,350.3z"/>
	<path class="st11" d="M225.1,351.2c-0.1,0.2-0.2,0.5-0.4,0.7c-0.6,0.7-1.7,0.7-2.4,0.1c-0.3-0.2-0.5-0.6-0.5-0.9
		c0-0.3,0-0.5,0.1-0.8c0.1-0.2,0.2-0.5,0.4-0.7c0.4-0.5,1.1-0.7,1.7-0.5c0.6,0.2,1.1,0.7,1.2,1.3
		C225.2,350.7,225.1,350.9,225.1,351.2z"/>
</g>
<g>
	<ellipse class="st13" cx="622.4" cy="435.2" rx="76.8" ry="11"/>
	<g>
		<g>
			<path class="st2" d="M662.9,431h-81c-4.9,0-8.9-4-8.9-8.9V270.4c0-4.9,4-8.9,8.9-8.9h81c4.9,0,8.9,4,8.9,8.9v151.7
				C671.8,427,667.8,431,662.9,431z"/>
			<linearGradient id="SVGID_1_" gradientUnits="userSpaceOnUse" x1="561.3974" y1="284.9141" x2="683.3807" y2="406.8973">
				<stop  offset="1.118836e-07" style="stop-color:#D90A2C"/>
				<stop  offset="1" style="stop-color:#FF3C2C"/>
			</linearGradient>
			<rect x="573" y="273.3" class="st14" width="98.8" height="145.2"/>
			<g>
				
					<image style="overflow:visible;opacity:0.4;" width="104" height="104" xlink:href="B312BAD7.png"  transform="matrix(1 0 0 1 570.0016 303.0016)">
				</image>
				<g>
					<linearGradient id="SVGID_2_" gradientUnits="userSpaceOnUse" x1="589.4354" y1="313.2918" x2="655.3428" y2="379.1992">
						<stop  offset="0" style="stop-color:#FF0A2C"/>
						<stop  offset="1" style="stop-color:#D90A2C"/>
					</linearGradient>
					<path class="st15" d="M649.1,381.8h-53.3c-4.9,0-8.9-4-8.9-8.9v-53.3c0-4.9,4-8.9,8.9-8.9h53.3c4.9,0,8.9,4,8.9,8.9v53.3
						C657.9,377.8,654,381.8,649.1,381.8z"/>
				</g>
			</g>
			<g>
				
					<image style="overflow:visible;opacity:0.4;" width="79" height="78" xlink:href="B312BAD5.png"  transform="matrix(1 0 0 1 583.0933 311.251)">
				</image>
				<g>
					<g>
						<path class="st6" d="M622.4,373.5c-15,0-27.2-12.2-27.2-27.2c0-15,12.2-27.2,27.2-27.2s27.2,12.2,27.2,27.2
							C649.6,361.3,637.4,373.5,622.4,373.5z M622.4,324.1c-12.2,0-22.2,10-22.2,22.2c0,12.2,10,22.2,22.2,22.2s22.2-10,22.2-22.2
							C644.6,334,634.6,324.1,622.4,324.1z"/>
						<polygon class="st6" points="620.4,356.6 610.9,348.2 614.9,343.7 619.9,348.1 629.3,337.2 633.9,341.2 						"/>
					</g>
				</g>
			</g>
		</g>
		<path class="st2" d="M634.8,279.1H610c-3.8,0-6.9-3.1-6.9-6.9l0,0h38.6l0,0C641.7,276,638.6,279.1,634.8,279.1z"/>
		<path class="st16" d="M631.3,273.3h-17.9c-0.6,0-1.2-0.5-1.2-1.2l0,0c0-0.6,0.5-1.2,1.2-1.2h17.9c0.6,0,1.2,0.5,1.2,1.2l0,0
			C632.5,272.8,632,273.3,631.3,273.3z"/>
	</g>
</g>
</svg>
