<?xml version="1.0" encoding="utf-8"?>
<!-- Generator: Adobe Illustrator 24.2.1, SVG Export Plug-In . SVG Version: 6.00 Build 0)  -->
<svg version="1.1" id="Layer_1" xmlns="http://www.w3.org/2000/svg" xmlns:xlink="http://www.w3.org/1999/xlink" x="0px" y="0px"
	 viewBox="0 0 806.4 806.4" style="enable-background:new 0 0 806.4 806.4;" xml:space="preserve">
<style type="text/css">
	.st0{fill:#D90A2C;}
	.st1{fill:none;}
	.st2{fill:#210038;}
</style>
<g>
	<path class="st0" d="M774.7,19c6.5,0.5,13.1,1.2,19.6,1.7c12.3,9.7,13.9,23,10.6,37.3c-7.7,33.8-21,65.6-36.7,96.4
		c-20.9,41.2-46,79.9-70.5,118.8c-3.3,5.3-6.9,7-13.8,4.4c-12.7-4.9-25.6-9.8-37.7-16.3c-20.3-10.9-36.3-27-50.6-44.9
		c-3.6-4.6-3.9-8.1-0.3-13.1c28.4-38.8,57.2-77.1,90-112.2c19.1-20.5,38.2-41.1,61.6-56.9C755.7,28.4,765.5,24.1,774.7,19z"/>
	<path class="st1" d="M33.4,177.5c0,115.7,0,231.5,0,347.2c0,3.9,0.3,7.8,0.5,12.1c228,0,454.9,0,683.4,0c0-4.8,0-8.5,0-12.1
		c0-85.1,0-170.2,0-255.4c-6.7,10.6-13.4,21.1-20,31.7c-4,6.5-8.5,8.6-16.8,5.3c-15.5-6-31.3-12-46-20c-24.8-13.3-44.3-33-61.8-54.9
		c-4.4-5.6-4.8-9.9-0.4-16c15.2-20.8,30.6-41.6,46.4-61.9c-187,0-374,0-561,0C37.8,153.6,33.4,158,33.4,177.5z"/>
	<path class="st1" d="M326,752.9c33.4,0,66,0,99,0c0-16.3,0-31.7,0-48.3c-33.6,0-66,0-99,0C326,721.1,326,737,326,752.9z"/>
	<path class="st1" d="M33.4,571.4c0,24.5,0,48.4,0,72.3c0,23.3,3.8,27.1,26.9,27.1c210,0,420.1,0,630.1,0c4.1,0,8.2,0.3,12.2-0.3
		c8.1-1.4,14.3-6,14.4-14.5c0.5-28,0.2-56,0.2-84.6C488.9,571.4,261.7,571.4,33.4,571.4z M374.4,637.3c-8.7-0.5-15.7-8.2-15.5-17
		c0.2-9.6,7.6-16.5,17.3-16c9.1,0.4,15.7,7.6,15.5,16.7C391.5,630.2,383.4,637.8,374.4,637.3z"/>
	<path d="M717.3,524.7c0,3.7,0,7.3,0,12.1c-228.5,0-455.4,0-683.4,0c-0.2-4.3-0.5-8.2-0.5-12.1c0-115.7,0-231.5,0-347.2
		c0-19.6,4.4-23.9,24.2-23.9c187,0,374,0,561,0c8.8-11.3,17.7-22.5,26.9-33.5c-196.3,0-392.6,0-588.9,0C19.3,120.1,0,139.5,0,176.9
		c0,156.8,0,313.5,0,470.3c0,37.1,19.8,57,56.6,57c73.9,0,147.9,0,221.8,0c4.2,0,8.5,0,12.3,0c0,17.6,0,33.3,0,49.7c-5,0-9,0-13,0
		c-8.9,0-17.8-0.3-26.6,0.2c-10.9,0.6-18.1,8.1-17.7,17.4c0.4,9,7.4,15.2,18,15.8c3.3,0.2,6.7,0.1,10,0.1c46.6,0,93.2,0,139.8,0
		c31.1,0,62.1,0.1,93.2-0.1c5,0,11.7-0.1,14.6-3c4.1-4.2,7.6-11.2,7.2-16.8c-0.5-8.7-7.9-13.1-16.5-13.3
		c-13.2-0.3-26.4-0.1-40.2-0.1c0-17.1,0-32.8,0-49.8c4.8,0,9.1,0,13.5,0c73.9,0,147.9,0,221.8,0c35.6,0,55.8-20.2,55.8-55.6
		c0-144.5,0-289,0-433.5c-10.8,18.3-22,36.3-33.3,54.3C717.3,354.5,717.3,439.6,717.3,524.7z M425,752.9c-33,0-65.5,0-99,0
		c0-15.9,0-31.9,0-48.3c33,0,65.4,0,99,0C425,721.2,425,736.6,425,752.9z M716.9,656c-0.1,8.4-6.3,13.1-14.4,14.5
		c-4,0.7-8.1,0.3-12.2,0.3c-210,0-420.1,0-630.1,0c-23.1,0-26.9-3.8-26.9-27.1c0-23.9,0-47.9,0-72.3c228.4,0,455.6,0,683.7,0
		C717.1,600,717.4,628,716.9,656z"/>
	<path class="st0" d="M376.2,604.3c-9.7-0.5-17.1,6.4-17.3,16c-0.2,8.8,6.8,16.5,15.5,17c9,0.6,17.1-7.1,17.3-16.3
		C391.9,611.8,385.3,604.7,376.2,604.3z"/>
	<g>
		<path d="M176.9,221.4c20.4,0,40.8,0,61.1,0c40.8,0,82.9,0.1,124.4,0.1h0.1c41.9,0,84.6,0,125.8-0.1c10.1,0,20.3,0,30.4,0
			c-8.7,18.4-14.1,37.1-18.8,55.1c0,0.2-0.1,0.3-0.1,0.4c-0.3,0.1-0.9,0.4-1.6,0.6c-12.4,4.4-26.5,4.5-41.4,4.5c-1.4,0-2.8,0-4.2,0
			c-8.4,0-17.4,0.1-27.3,0.1c-15.3,0-30.8,0-46-0.1c-12.7,0-25.8-0.1-38.7-0.1c-34.4,0-68.7,0-103-0.1c-20.1,0-40.2,0-60.3,0
			c-0.3-7.4-0.3-14.8-0.4-22.6v-4.5C176.8,243.5,176.8,232.2,176.9,221.4 M547.9,200.1c-1.2,0-2.3,0-3.4,0
			c-60.6,0-121.2,0.1-181.9,0.1c-0.1,0-0.1,0-0.1,0c-63.1,0-126.1-0.1-189.2-0.1l0,0c-13.8,0-17.6,3.8-17.7,17.7
			c-0.1,12.4-0.1,24.8,0,37.1c0.1,12.6,0.2,25.2,1,37.7c0.4,6.9,4.3,9.8,11.4,10.3c1.9,0.1,3.8,0.2,5.8,0.2c55.7,0,111.3,0,167,0.1
			c28.3,0,56.4,0.2,84.7,0.2c9.1,0,18.2,0,27.4-0.1c17.7-0.1,35.4,0.3,52.6-5.8c8-2.9,12.9-7,15.3-15.8c5.4-20.6,11.4-41.1,21.9-60
			c3.8-6.9,7.8-13.9,12.4-21.9C552.2,200.1,549.9,200.1,547.9,200.1L547.9,200.1z"/>
	</g>
	<path class="st0" d="M572.5,240.6c24.5,34.4,56.9,56.4,97.6,67.3c-20.6,22.6-44.2,39-72.3,49.2c0.2,1.4,0.1,2.7,0.5,3.5
		c14.9,27.6,10.1,54.5-4.7,80c-22.7,39.2-56.4,63.3-101.8,69.9c-14.3,2.1-28.1-1.1-41.7-4.9c-4.9-1.4-9.9-2.9-14.6-4.8
		c-8-3.3-8.7-9.8-2.1-15.4c4.4-3.6,9.1-7,12.9-11.2c13.7-14.6,15.6-32.4,13.1-51.3c-3.6-27.8,2.7-52.7,22.4-73.3
		c16.1-16.7,36.8-23.2,59.3-24.6c10.1-0.6,10.3-0.5,10.3-10.5c0-22.9,5.9-44.5,15.9-65C568.8,246.8,570.6,244,572.5,240.6z"/>
	<path class="st0" d="M285,420.2c0,24.2,0,48.4,0,72.7c0,2.2-0.1,4.6-0.4,6.8c-0.9,7.3-4.2,10.8-11.4,11.1
		c-8.3,0.4-16.7,0.4-25.2,0.4c-26.4,0-52.6,0.1-78.9-0.2c-8.9-0.1-12.4-3.3-12.8-12.1c-0.7-13.4-0.6-27-0.6-40.5
		c-0.1-36.9,0-73.9,0-110.8c0-1.6,0.1-3.3,0.3-4.9c1.4-9.3,5-12.6,14.8-12.6c33.2-0.1,66.4-0.1,99.5,0c10.6,0,14.5,4.2,14.6,15.4
		c0.1,16.5-0.1,33.2-0.1,49.7c0,8.4,0,16.7,0,25.2C284.9,420.2,284.9,420.2,285,420.2z"/>
	<path class="st2" d="M451.7,330.2c-5.5,8.3-10.1,15.7-15.4,22.6c-1.3,1.7-4.7,2.5-7.3,2.5c-36.1,0.2-72.1,0.2-108.1,0.2
		c-6.8,0-8.6-1.9-8.7-9c-0.4-16.1-0.4-16.1,15.7-16.1c38-0.1,75.9-0.1,113.8-0.1C444.5,330.2,447.4,330.2,451.7,330.2z"/>
	<path class="st2" d="M422.9,407.6c-5.2,0-9.9,0-14.6,0c-28.9-0.1-57.9-0.1-86.8-0.2c-7.6,0-9.3-1.8-9.4-9.5
		c-0.2-15.6-0.2-15.6,15.3-15.6c31,0,62.1,0.1,93.1,0c4.2,0,6,1.2,5.1,5.7C424.5,394,423.8,400.2,422.9,407.6z"/>
	<path class="st2" d="M423.8,434.9c1.9,13.8-6.1,24.1-19.4,24.4c-17.3,0.4-34.7,0.2-52,0.2c-10.2,0-20.6,0-30.8,0
		c-7.8,0-9-1.2-9.3-8.7c-0.7-17.5-0.5-16.2,15.8-16.2c28.8,0,57.5-0.1,86.3-0.1C417.5,434.6,420.7,434.8,423.8,434.9z"/>
	<path class="st2" d="M397.5,511.7c-5.2,0-9.5,0-13.9,0c-21.1-0.1-42.2-0.1-63.5-0.2c-6.6,0-7.9-1.5-8.2-8.2c-0.1-2.1-0.1-4.2,0-6.3
		c0.2-8.6,1.8-10.6,10.2-10.6c22.3-0.2,44.6,0,66.9-0.1c3.1,0,4.5,1,4.9,4.1C395,497,396.2,503.8,397.5,511.7z"/>
</g>
</svg>
