<?xml version="1.0" encoding="utf-8"?>
<!-- Generator: Adobe Illustrator 24.2.1, SVG Export Plug-In . SVG Version: 6.00 Build 0)  -->
<svg version="1.1" id="Layer_1" xmlns="http://www.w3.org/2000/svg" xmlns:xlink="http://www.w3.org/1999/xlink" x="0px" y="0px"
	 viewBox="0 0 216 67.5" style="enable-background:new 0 0 216 67.5;" xml:space="preserve">
<style type="text/css">
	.st0{fill:#141414;}
</style>
<g>
	<path class="st0" d="M27.4,6.7C41.1,6.5,54.7,19,53.9,35c-0.6,13.8-11.8,26-27.7,25.8C12.1,60.6-0.6,48.7,0,32.2
		C0.5,18.6,12,6.8,27.4,6.7z M37.7,53.2c6.7-3.1,13-11.7,11.4-23c-1.2-8.6-8-15.7-15.1-17.7c0.4,2.5-0.4,4.6-1.7,6.6
		c-1.7,2.6-3.1,5.4-3.6,8.6c-0.5,2.7-0.8,4.2-4.5,1.9c-1-0.6-2.1-1.2-3.2-1.6c-0.8-0.4-1.8-0.1-2.3,0.5c-0.5,0.6-0.5,1.6,0.1,2.4
		c0.9,1.3,2.1,2.4,3.6,3.1c1.5,0.8,3,1.8,4.6,2.4c1.9,0.8,3.9,0.1,5.9-0.2c2.1-0.4,4.2-0.8,6.3-1.1c1.8-0.3,3.1,1,3,3
		c-0.1,3.7-1.1,7.3-2.5,10.7C39.1,50.3,38.4,51.7,37.7,53.2z M8.5,21.4c-0.1,0-0.2,0-0.2-0.1c-0.6,1.2-1.2,2.3-1.8,3.5
		C4.6,28.9,4,33.2,4.8,37.7c1.1,5.6,3.9,10.2,8.4,13.7c4.6,3.6,9.8,5.1,15.6,4.8c0.4,0,1.1-0.3,1.1-0.6c0.1-0.6,0.4-1.4-0.4-1.9
		c-1-0.6-2.1-1.3-3.1-2c-2.3-1.6-3-3.4-2.1-6.1c0.4-1.1,1.1-2.2,1.8-3.2c1.1-1.6,0.8-2.5-0.6-3.6c-1.6-1.2-3.3-2.3-5-3.3
		c-2.9-1.7-5.8-3.4-8.1-6C10.3,27.2,8.7,24.7,8.5,21.4z"/>
	<path class="st0" d="M108.3,19.3c0,0.6,0.1,1.2,0.1,1.8c0,4.4,0,8.9,0,13.3c0,1,0.1,2,0.2,3c-1.1,0-2.1,0-3.2,0
		c0-7.2,0-14.4,0-21.7c1.4,0,2.9,0,4.3,0c0.2,0,0.5,0.2,0.5,0.4c1.5,3.9,3,7.8,4.4,11.8c0.5,1.4,1,2.7,1.6,4.3
		c2.1-5.6,4.1-11,6.2-16.5c1.6,0,3.2,0,4.8,0c0,7.2,0,14.4,0,21.7c-1,0-2,0-3,0c0-5.9,0-11.8,0-17.9c-2.3,6.1-4.5,12-6.7,17.9
		c-0.1,0-0.2,0-0.2,0c-2.2,0.1-2.2,0.1-2.9-2c-1.9-5.3-3.9-10.6-5.9-15.8C108.4,19.4,108.3,19.3,108.3,19.3z"/>
	<path class="st0" d="M212.6,37.3c0-3.1,0-6.2,0-9.3c-2.9,0-5.7,0-8.7,0c0,3.1,0,6.1,0,9.3c-1.1,0-2.2,0-3.3,0c0-7.2,0-14.4,0-21.7
		c1.1,0,2.1,0,3.3,0c0,3,0,6,0,9.1c2.9,0,5.8,0,8.7,0c0-3,0-6,0-9.1c1.1,0,2.2,0,3.3,0c0,7.2,0,14.4,0,21.7
		C214.9,37.3,213.8,37.3,212.6,37.3z"/>
	<path class="st0" d="M141.6,15.6c0.9,0,1.8,0,2.7,0c0.3,0,0.7,0.3,0.8,0.6c2.6,6.8,5.3,13.6,7.9,20.3c0.1,0.2,0.2,0.5,0.4,0.8
		c-1.2,0-2.3,0-3.4,0c-0.2,0-0.4-0.3-0.5-0.5c-0.6-1.6-1.2-3.3-1.8-5c-0.2-0.6-0.5-1-1.3-0.9c-2.4,0.1-4.8,0-7.3,0
		c-0.7,2-1.5,3.9-2.2,5.8c-0.1,0.2-0.4,0.5-0.6,0.5c-1,0.1-2,0-3.2,0C136,30.1,138.8,22.9,141.6,15.6z M143.3,20.2
		c-0.1,0-0.1,0-0.2,0c-0.9,2.5-1.9,5-2.8,7.5c2,0,3.9,0,5.8,0C145.2,25.2,144.3,22.7,143.3,20.2z"/>
	<path class="st0" d="M99.2,37.4c-1.3,0-2.4,0-3.6,0c-0.8-2.1-1.6-4.2-2.4-6.4c-2.6,0-5.2,0-7.8,0c-0.2,0-0.5,0.2-0.6,0.4
		c-0.8,2-1.5,3.9-2.3,5.9c-1.1,0-2.3,0-3.6,0c2.9-7.3,5.7-14.5,8.5-21.7c1,0,1.9-0.1,2.8,0c0.3,0,0.6,0.4,0.7,0.7
		c0.9,2.2,1.7,4.5,2.6,6.7c1.8,4.5,3.5,9,5.3,13.5C99,36.7,99.1,37,99.2,37.4z M89.1,20c-0.5,1.3-1,2.6-1.5,3.9
		c-0.5,1.3-0.9,2.6-1.4,3.9c2,0,3.9,0,5.8,0c0-0.2,0-0.3-0.1-0.4C91,25,90,22.5,89.1,20z"/>
	<path class="st0" d="M174.7,37.4c-1.4,0-2.5,0-3.7,0c-0.3,0-0.6-0.2-0.8-0.5c-2.4-3.3-4.8-6.6-7.4-10c0,3.6,0,7,0,10.5
		c-1.2,0-2.2,0-3.3,0c0-7.2,0-14.4,0-21.7c1.1,0,2.1,0,3.2,0c0,3.5,0,6.9,0,10.4c0.1,0,0.1,0,0.2,0.1c1.1-1.4,2.2-2.9,3.3-4.3
		c1.5-1.9,2.9-3.9,4.4-5.8c0.1-0.2,0.5-0.3,0.7-0.3c1.1,0,2.2,0,3.6,0c-2.9,3.7-5.6,7.2-8.4,10.8C169.2,30,171.9,33.6,174.7,37.4z"
		/>
	<path class="st0" d="M192.4,21.1c-0.5,0-0.9,0-1.2,0c-1,0-1.9,0.2-2.2-1.3c-0.3-1.2-1.6-1.7-3-1.5c-1.1,0.1-2.1,1.3-2.3,2.6
		c-0.2,1.1,0.4,2.2,1.5,2.7c1.2,0.5,2.5,0.8,3.8,1.3c2.9,1.2,4.4,4,3.8,7.1c-0.2,1.1-0.5,2.2-1,3.1c-1.1,1.8-2.8,2.6-4.9,2.7
		c-2,0.1-3.8-0.3-5.2-1.9c-1.2-1.4-1.7-3-1.6-4.8c1,0,1.9,0,2.6,0c0.5,1,0.8,1.9,1.4,2.6c0.8,1.1,2.1,1.1,3.2,0.8
		c1.2-0.3,2-1.2,2.3-2.4c0.5-2.2-0.3-3.6-2.4-4.4c-1.6-0.6-3.2-0.9-4.6-2c-1.6-1.3-2.1-3-2-5c0.1-1.4,0.5-2.8,1.6-3.9
		c2.3-2.3,6.7-2.5,8.8,0.2C192,18.1,192.4,19.5,192.4,21.1z"/>
	<path class="st0" d="M73.5,21.1c-0.8,0-1.7,0-2.5,0c-0.2,0-0.5-0.4-0.5-0.6c-0.4-1.6-1.3-2.2-2.9-2.2c-1.4,0-2.2,1-2.6,2.5
		c-0.2,0.9,0.2,2.4,1.6,2.9c0.9,0.3,1.7,0.6,2.6,0.9c3.7,1.1,5.4,3.9,4.8,7.7c-0.3,2-1.1,3.7-2.8,4.7c-3.3,2-8.7,1.2-9.8-3.8
		c-0.1-0.6-0.2-1.2-0.2-1.9c1.1,0,2,0,3,0c0,1.3,0.5,2.4,1.6,3.1c1.1,0.7,2.7,0.5,3.9-0.3c0.9-0.6,1.4-2.4,1.2-3.6
		c-0.4-2.1-2.2-2.6-3.9-3.1c-2.3-0.7-4.3-1.7-5-4.2c-0.8-3.1,0.4-6.8,3.9-7.7c2.6-0.7,5.3-0.1,6.8,2.3
		C73.2,18.4,73.6,20.1,73.5,21.1z"/>
	<path class="st0" d="M130.1,52.1c-2.9,0.2-4.9-2.3-4.9-4.9c0-3.1,2-5,4.9-5.1c2.5,0,5,1.7,5,5.1C135.1,49.7,133.1,52.4,130.1,52.1z
		 M133.5,47.1c0-2-1.6-3.5-3.4-3.5c-1.9,0-3.3,1.5-3.3,3.5c0,2.1,1.6,3.5,3.4,3.5C131.9,50.7,133.6,48.9,133.5,47.1z"/>
	<path class="st0" d="M199.6,51.9c-1,0.2-1.6,0-2.2-1c-1.1-2-2.5-3.9-3.9-6c0,2.4,0,4.6,0,7c-0.4,0-0.9,0-1.4,0c0-3.1,0-6.3,0-9.4
		c1.5-0.3,1.6-0.2,2.4,1.2c1.1,1.7,2.2,3.4,3.5,5.4c0-2.4,0-4.5,0-6.7c0.6,0,1,0,1.6,0C199.6,45.5,199.6,48.7,199.6,51.9z"/>
	<path class="st0" d="M145.9,51.8c-1.3,0.5-1.7-0.4-2.3-1.2c-1.1-1.8-2.4-3.6-3.7-5.7c0,2.4,0,4.6,0,6.9c-0.5,0-0.9,0-1.4,0
		c0-3.1,0-6.3,0-9.4c0.9-0.2,1.6-0.1,2.1,0.9c1.1,1.9,2.5,3.8,3.8,5.8c0-2.4,0-4.5,0-6.7c0.5,0,0.9,0,1.4,0
		C145.9,45.5,145.9,48.7,145.9,51.8z"/>
	<path class="st0" d="M89.4,51.9c0-3.2,0-6.4,0-9.5c1.5,0,3.1-0.2,4.5,0c1.8,0.3,3,1.6,3.3,3.5c0.4,2,0,4.1-2,5.3
		c-0.5,0.3-1.2,0.6-1.8,0.6C92.1,52,90.8,51.9,89.4,51.9z M90.8,50.5c1.8,0.1,3.5,0.2,4.6-1.5c0.7-1.3,0.6-2.7-0.2-3.9
		c-1.1-1.5-2.7-1.4-4.3-1.2C90.8,46,90.8,48.2,90.8,50.5z"/>
	<path class="st0" d="M73.2,48.4c0.9,1.2,1.7,2.3,2.5,3.4c-1.6,0.4-1.9,0.3-2.7-1c-0.6-0.9-1.3-1.8-2.1-2.9c0,1.5,0,2.7,0,4
		c-0.6,0-1,0-1.6,0c0-3.1,0-6.3,0-9.5c1.7,0.2,3.4-0.4,5,0.4c1.1,0.5,1.5,1.6,1.3,3.3c-0.1,0.9-1,1.9-2,2.1
		C73.5,48.2,73.4,48.3,73.2,48.4z M71,47.1c1.2,0.1,2.3,0.2,3.1-0.9c0.4-0.6,0.4-1.3-0.1-1.8c-0.8-0.9-1.9-0.7-3-0.6
		C71,44.9,71,46,71,47.1z"/>
	<path class="st0" d="M122.1,44.8c-1,0.1-1.8,0-2.7-0.7c-1.1-0.9-2.5-0.6-3.6,0.3c-1,0.9-1.5,2-1.2,3.4c0.5,2.1,1.5,2.5,3.1,2.9
		c0.6,0.1,1.4-0.1,1.8-0.6c0.8-0.8,1.6-0.6,2.5-0.6c-0.9,2.3-2.7,2.8-5.3,2.6c-1.9-0.2-3.7-2.4-3.9-4.3c-0.2-3.3,1.6-5,3.7-5.6
		C119.1,41.6,121.6,42.8,122.1,44.8z"/>
	<path class="st0" d="M189.5,51.9c-2.1,0-1.6,0.4-2.3-1.5c-0.3-0.9-0.7-1.2-1.7-1.2c-2.5,0.1-2.5,0-3.4,2.7c-0.5,0-1,0-1.7,0
		c0.5-1.4,1.1-2.8,1.6-4.1c0.6-1.6,1.2-3.1,1.8-4.7c0.2-0.5,0.4-0.8,1-0.8c0.6,0,1,0.1,1.2,0.7C187.2,46,188.3,48.9,189.5,51.9z
		 M185,44.5c-0.5,1.2-0.8,2.2-1.2,3.2c0.8,0,1.6,0,2.4,0C185.8,46.6,185.5,45.7,185,44.5z"/>
	<path class="st0" d="M86.8,51.9c-1.7,0.1-1.7,0.1-2.2-1.5c-0.1-0.4-0.3-0.7-0.5-1.2c-1,0-2.1,0-3.2,0c-0.2,0-0.5,0.2-0.6,0.4
		c-0.3,0.7-0.6,1.4-0.9,2.2c-0.5,0-1.1,0-1.7,0c0.8-2.1,1.7-4.2,2.5-6.3c0.4-0.9,0.8-1.8,1-2.7c0.2-0.7,0.7-0.5,1.1-0.4
		c0.3,0,0.8,0.2,0.9,0.4c1.1,2.8,2.2,5.6,3.3,8.4C86.7,51.5,86.7,51.7,86.8,51.9z M83.5,47.6c-0.4-1.1-0.8-2.1-1.2-3.2
		c-0.4,1.1-0.8,2.1-1.2,3.2C82,47.6,82.7,47.6,83.5,47.6z"/>
	<path class="st0" d="M162.8,42.4c0.6,0,1,0,1.5,0c0,0.2,0.1,0.4,0.1,0.7c0,2.1,0,4.2,0,6.4c0,1.6-1.1,2.7-2.7,2.7
		c-2.5,0-3.5-0.9-3.5-3.5c0-2.1,0-4.1,0-6.2c0.5,0,1,0,1.6,0c0,0.8,0,1.5,0,2.3c0,1.5,0,2.9,0,4.4c0,0.9,0.7,1.6,1.6,1.6
		c0.9-0.1,1.5-0.5,1.5-1.6C162.8,46.9,162.8,44.7,162.8,42.4z"/>
	<path class="st0" d="M149.2,49.1c0.7,0,1.3-0.3,1.6,0.8c0.1,0.4,1,0.8,1.4,0.7c0.4-0.1,1-0.6,1.1-1.1c0.2-0.6,0.1-1.2-0.7-1.6
		c-0.9-0.4-1.9-0.8-2.6-1.4c-0.9-0.8-0.7-2-0.3-3c0.3-0.9,1.1-1.3,2.1-1.3c2.2-0.1,2.8,0.9,2.9,2.6c-0.5,0-0.9,0-1.2,0
		c-0.5-0.5-0.9-1-1.3-1.1c-0.3-0.1-0.9,0.3-1.2,0.6c-0.5,0.6-0.2,1.3,0.5,1.5c0.6,0.2,1.2,0.4,1.7,0.6c1.3,0.6,1.9,1.8,1.6,3.2
		c-0.4,1.7-1.2,2.4-2.8,2.5C150.2,52.1,149.2,51,149.2,49.1z"/>
	<path class="st0" d="M210.2,49.1c0.4,0,0.8,0,1.1,0c0.3,0.5,0.6,0.9,0.9,1.3c0.6,0.5,1.5,0.3,1.9-0.3c0.5-0.7,0.3-1.7-0.4-2.1
		c-0.4-0.2-0.9-0.4-1.4-0.5c-1.2-0.4-1.9-1.3-2-2.2c-0.1-1.3,0.1-2.5,1.5-2.9c1.5-0.5,3.4-0.3,3.6,2c0,0.1,0.1,0.3,0.2,0.5
		c-0.5,0-1,0-1.5,0c0-0.1,0-0.3-0.1-0.4c-0.4-0.3-0.7-0.7-1.1-0.8c-0.7-0.2-1.1,0.5-1.1,1c0,0.3,0.3,0.8,0.6,1.1
		c0.3,0.3,0.8,0.4,1.2,0.5c1.8,0.4,2.4,2,2.2,3.4c-0.2,1.6-1.5,2.6-3.1,2.6C211.4,52.1,210.1,50.9,210.2,49.1z"/>
	<path class="st0" d="M105.8,47.8c-1.2,0-2.4,0-3.6,0c0,0.9,0,1.7,0,2.7c1.2,0,2.4,0,3.6,0c0,0.5,0,0.9,0,1.4c-1.7,0-3.3,0-5,0
		c0-3.1,0-6.3,0-9.4c1.7,0,3.3,0,5,0c0,0.4,0,0.8,0,1.3c-1.2,0-2.4,0-3.6,0c0,0.9,0,1.7,0,2.6c1.2,0,2.4,0,3.6,0
		C105.8,46.9,105.8,47.3,105.8,47.8z"/>
	<path class="st0" d="M64.6,51.9c-0.6,0-1,0-1.6,0c0-2.7,0-5.3,0-8.1c-0.6,0-1.2,0-1.8,0c0-0.5,0-0.9,0-1.4c1.7,0,3.3,0,5,0
		c0,0.4,0,0.8,0,1.3c-0.5,0-1.1,0-1.7,0C64.6,46.5,64.6,49.2,64.6,51.9z"/>
	<path class="st0" d="M205.9,51.9c-0.5,0-0.9,0-1.4,0c0-2.7,0-5.3,0-8.1c-0.7,0-1.3,0-1.9,0c0-0.5,0-0.9,0-1.4c1.7,0,3.3,0,5,0
		c0,0.4,0,0.8,0,1.3c-0.5,0-1.1,0-1.7,0C205.9,46.5,205.9,49.2,205.9,51.9z"/>
	<path class="st0" d="M174.5,43.7c0-0.5,0-0.8,0-1.3c1.6,0,3.2,0,4.9,0c0,0.4,0,0.8,0,1.3c-0.5,0-1.1,0-1.7,0c0,2.8,0,5.4,0,8.1
		c-0.5,0-0.9,0-1.4,0c0-2.7,0-5.3,0-8.1C175.7,43.8,175.1,43.8,174.5,43.7z"/>
	<path class="st0" d="M169.5,50.5c1.1,0,2.1,0,3.2,0c0,0.5,0,0.9,0,1.4c-0.7,0-1.5,0-2.2,0c-0.7,0-1.5,0-2.3,0c0-3.2,0-6.3,0-9.5
		c0.4,0,0.8,0,1.3,0C169.5,45.1,169.5,47.7,169.5,50.5z"/>
</g>
</svg>
