<?xml version="1.0" encoding="utf-8"?>
<!-- Generator: Adobe Illustrator 24.2.1, SVG Export Plug-In . SVG Version: 6.00 Build 0)  -->
<svg version="1.1" id="Layer_1" xmlns="http://www.w3.org/2000/svg" xmlns:xlink="http://www.w3.org/1999/xlink" x="0px" y="0px"
	 viewBox="0 0 216 67.5" style="enable-background:new 0 0 216 67.5;" xml:space="preserve">
<style type="text/css">
	.st0{fill:#00A0E3;}
</style>
<g>
	<g>
		<path class="st0" d="M0.1,32.1C0.5,19,8.6,8,19.4,3.2c11.1-5,21.8-4.1,32.6,2.2c-6.6,6.9-13.2,13.2-21,18
			C21.5,29.1,11.1,31.5,0.1,32.1z"/>
		<path class="st0" d="M10.8,58.2c3.3,0,6.2-0.1,9.1,0c12.5,0.4,24.2-2.7,35.1-8.8c3.5-2,6.6-4.6,9.9-6.9c0.4-0.3,0.7-0.6,1.1-0.9
			c0.9,6.8-10.6,19.9-20.5,23.7C31.4,70.7,16.7,65.1,10.8,58.2z"/>
		<path class="st0" d="M62,15.3c1.1,2.3,2.1,4.3,3,6.4c0.2,0.5,0,1.5-0.4,1.9C51.1,37.2,35.9,47.3,15.8,47.4
			c-3.7,0-7.4,0.1-11.1,0.3c-1.5,0.1-2.4-0.3-2.6-1.9c-0.1-0.8-0.5-1.6-0.8-2.6C2.1,43.1,2.8,43,3.5,43c9.3-0.2,18.4-1.2,27.2-4.5
			c9.4-3.6,17-9.7,24.3-16.4C57.2,20,59.4,17.8,62,15.3z"/>
		<path class="st0" d="M0.4,39.9c-0.1-1.5-0.3-3-0.4-4.6c1.8-0.2,3.5-0.4,5.2-0.5c16.3-1.5,30-8.5,41.6-20c2.2-2.2,4.4-4.3,6.5-6.4
			c0.9-0.9,1.6-1,2.5,0.1c1.2,1.4,2.5,2.7,3.9,4.1c-10.9,11.4-22,22.3-38.4,25.5C14.4,39.5,7.5,39.9,0.4,39.9z"/>
		<path class="st0" d="M4.7,50.5c24.3,1.9,44.9-5.9,61.6-24.2c1,3.3,1.1,6.5,0.8,9.7c0,0.4-0.4,0.7-0.7,1
			C54.8,47.8,41.4,54.4,25.2,54.9c-5.2,0.1-10.3,0.3-15.5,0.4C7,55.3,5.4,53.7,4.7,50.5z"/>
	</g>
	<g>
		<path d="M79.1,35.1c0-0.6,0-1,0.1-1.6c45.2,0,90.3,0,135.5,0c0,0.5,0,1,0,1.6C169.6,35.1,124.5,35.1,79.1,35.1z"/>
		<g>
			<path d="M104.1,50.6c0.6,0.4,1.1,0.7,1.7,1.1c-1.2,3-4.4,4.6-8.1,4.1c-3.5-0.5-6.3-3.3-6.6-6.6c-0.4-3.9,1.6-7.3,5-8.6
				c3.7-1.4,7.2-0.3,9.4,2.9c-0.6,0.4-1.2,0.9-1.8,1.3c-0.5-0.6-0.9-1.2-1.5-1.8c-1.8-1.8-4.6-1.4-5.7,0.9c-1.2,2.5-1.2,5,0,7.4
				c1.4,2.8,4.5,3.1,6.5,0.7C103.3,51.6,103.7,51.1,104.1,50.6z"/>
			<path d="M112.3,55.7c-3.1,0-5.3-2.2-5.3-5.4c0-3.1,1.9-5.2,4.8-5.2c3.2,0,5.6,2.4,5.5,5.6C117.3,53.6,115.2,55.7,112.3,55.7z
				 M113.8,50.5c-0.2-1-0.3-2-0.6-3.1c-0.1-0.4-0.7-0.8-1.1-0.8c-0.4,0-1,0.5-1.1,0.9c-0.7,2-0.6,4,0.1,6c0.1,0.4,0.7,0.8,1.1,0.8
				c0.4,0,1-0.5,1.1-0.9C113.6,52.5,113.6,51.6,113.8,50.5z"/>
			<path d="M182.1,50.1c0-1.8,0-3.1,0-4.6c0.6-0.1,1-0.1,1.7-0.2c0,2,0,4,0,5.9c0,1,0.1,1.9,0,2.9c-0.1,0.6-0.4,1.4-0.8,1.5
				c-0.5,0.1-1.3-0.3-1.6-0.8c-0.8-1-1.4-2.1-2.1-3.2c-0.4-0.7-0.8-1.3-1.5-1.9c0,1.9,0,3.7,0,5.7c-0.6,0-1.1,0-1.7,0.1
				c0-3-0.1-6,0-8.9c0.1-1.5,1.8-2,2.9-1c0.8,0.7,1.3,1.7,1.9,2.6C181.3,48.7,181.6,49.2,182.1,50.1z"/>
			<path d="M125.4,49.7c0-1.4,0-2.7,0-4.2c0.6,0,1.1,0,1.7,0c0,3,0,6,0,9c0,0.4-0.5,1.2-0.8,1.2c-0.6,0-1.4-0.3-1.7-0.7
				c-1.2-1.7-2.3-3.6-3.6-5.7c0,2.2,0,4.1,0,6.1c-0.6,0-1.1,0.1-1.8,0.1c0-1.7,0-3.4,0-5c0-1-0.1-2.1,0-3.1c0.1-0.8,0.5-1.7,1.1-2.1
				c0.9-0.5,1.8,0.1,2.4,0.9c0.8,1.2,1.6,2.4,2.3,3.6C125.2,49.7,125.3,49.7,125.4,49.7z"/>
			<path d="M149.8,39.4c1.2,0,2.2,0,3.4,0c0,2.3,0,4.5,0,6.6c0,1.8,0,3.6,0,5.4c0,2.1,0,2.1,2.2,2.6c0,0.4,0,0.8,0.1,1.4
				c-1.3,0-2.4,0.1-3.5,0c-1.4-0.1-2.1-1.1-2.1-2.4C149.7,48.5,149.8,44,149.8,39.4z"/>
			<path d="M138.9,45.4c1.2,0,2.2,0,3.3,0c0,1.9,0,3.8,0,5.7c0,1.1-0.3,2.6,1.5,2.7c1.1,0.1,1.5-0.6,1.5-2.7c0-1.9,0-3.8,0-5.8
				c0.6,0,1.1,0,1.6,0c0,2.6,0.2,5.1-0.1,7.7c-0.2,1.9-2,2.8-4.7,2.6c-1.9-0.1-3.1-1.3-3.2-3.2C138.8,50.2,138.9,47.9,138.9,45.4z"
				/>
			<path d="M174.4,55.4c-1.1,0-1.9,0.1-2.7,0c-0.4-0.1-1-0.5-1.1-0.8c-0.4-1.5-1.5-0.8-2.3-1c-0.7-0.1-1.3,0-1.6,0.9
				c-0.1,0.5-1,0.7-1.5,1.1c-0.1-0.1-0.3-0.3-0.4-0.4c0.3-1,0.6-1.9,0.9-2.9c0.6-1.9,1.1-3.9,1.9-5.8c0.3-0.6,1.2-1.4,1.8-1.4
				c0.6,0,1.6,0.7,1.9,1.3C172.5,49.4,173.3,52.3,174.4,55.4z M168.7,48.1c-0.5,1.6-0.8,2.7-1.2,3.9c0.8,0,1.5,0,2.3,0
				C169.5,50.7,169.2,49.6,168.7,48.1z"/>
			<path d="M201.8,45.2c0,0.7,0,1.2,0,1.7c-0.9,0.1-1.7,0.1-2.5,0.2c-0.3,0-0.6,0.4-0.9,0.6c0.2,0.3,0.4,0.6,0.7,0.8
				c0.4,0.3,1,0.4,1.5,0.5c1.5,0.5,2.2,1.5,2.3,2.9c0,1.4-0.9,2.9-2.2,3.2c-1.6,0.3-3.3,0.3-4.9,0.4c-0.5-1.4-0.1-1.8,1.1-1.7
				c0.7,0,1.4,0,2.1-0.1c0.3-0.1,0.8-0.5,0.8-0.8c0-0.3-0.3-0.8-0.6-1c-0.7-0.3-1.4-0.5-2.1-0.8c-1.4-0.5-1.9-1.4-1.9-2.8
				c0-1.4,0.7-2.3,2-2.6C198.7,45.4,200.2,45.4,201.8,45.2z"/>
			<path d="M129.7,55.4c0-0.6,0-1,0-1.6c1,0,1.9,0.1,2.9,0c0.5-0.1,0.9-0.5,1.3-0.8c-0.3-0.4-0.6-0.9-1-1.1
				c-0.6-0.3-1.3-0.4-1.9-0.6c-1.2-0.4-1.8-1.4-1.8-2.6c0-1.3,0.5-2.4,1.9-2.7c1.5-0.3,3.1-0.4,4.7-0.6c0,0.7,0,1.2,0,1.8
				c-0.7,0-1.4-0.1-2,0c-0.4,0.1-0.8,0.5-1.2,0.7c0.3,0.3,0.6,0.6,1,0.9c0.2,0.2,0.5,0.2,0.8,0.3c1.9,0.6,2.8,1.7,2.6,3.4
				c-0.1,1.6-1.6,3-3.3,3.1C132.3,55.5,131.1,55.4,129.7,55.4z"/>
			<path d="M188.2,47.1c-1.1,0-1.8,0-2.6,0c0-0.6,0-1-0.1-1.6c2.9,0,5.6,0,8.6,0c0,0.5,0,0.9,0.1,1.6c-0.9,0-1.7,0.1-2.6,0.1
				c0,2.7,0,5.4,0,8.1c-1.1,0-2.2,0-3.4,0C188.2,52.7,188.2,50,188.2,47.1z"/>
			<path d="M164.2,47.1c-0.8,0-1.6,0.1-2.6,0.1c0,2.7,0,5.3,0,8.1c-1.2,0-2.2,0-3.3,0c0-2.7,0-5.3,0-8.1c-0.9,0-1.7-0.1-2.6-0.1
				c0-0.5,0-1,0-1.6c2.8,0,5.6,0,8.4,0C164.2,46,164.2,46.5,164.2,47.1z"/>
		</g>
		<g>
			<path d="M86.8,16.4c-0.8-0.7-1.4-1.3-2.1-1.8c-0.9-0.5-1.8-0.3-2.4,0.6c-0.6,0.9-0.3,1.8,0.6,2.3c0.7,0.5,1.5,0.9,2.2,1.3
				c3.2,1.6,4.2,3.5,3.2,6.2c-1,2.5-3.9,3.8-6.9,3c-1.5-0.4-2.8-1.2-3.5-2.8c0.7-0.4,1.3-0.8,1.9-1.2c0.5,0.6,0.9,1.3,1.5,1.7
				c0.9,0.7,2.2,0.6,2.8-0.2c0.7-0.8,0.5-1.9-0.6-2.7c-0.9-0.6-1.9-1.1-2.8-1.6c-2.1-1.3-2.9-3-2.3-5.2c0.5-2,2.4-3.5,4.6-3.7
				c1.8-0.2,4.7,1,5.2,3.1C87.6,15.8,87.1,16.2,86.8,16.4z"/>
			<path d="M202.8,17.7c0-1.5,0.1-3.1,0-4.6c-0.1-1.1,0.4-1.5,1.4-1.3c0.6,0.1,1.2,0,1.9,0c0,5.4,0,10.7,0,16.3
				c-2.4-0.2-4.7-0.2-7-0.6c-1.7-0.3-2.8-2.3-2.8-4.4c0-2.2,1-4,2.8-4.6C200.2,18.1,201.4,18,202.8,17.7z M202.8,19.4
				c-2.1,0.2-2.8,1-2.8,3.3c0,2.5,0.6,3.3,2.8,3.7C202.8,24.1,202.8,21.7,202.8,19.4z"/>
			<path d="M150.1,23.1c-0.8,0-1.5,0-2.3,0c0,1.6,0,3.1,0,4.7c-1.2,0-2.2,0-3.3,0c0-5.3,0-10.6,0-15.9c1,0,2,0,3.2,0
				c0,3,0,6.1,0,9.3c0.8,0,1.5,0,2.3,0c0-1.1,0-2.1,0-3.2c1.1,0,2.1,0,3.2,0c0,3.2,0,6.5,0,9.9c-1,0-2,0-3.1,0
				C150.1,26.2,150.1,24.7,150.1,23.1z"/>
			<path d="M174.3,12.8c0,0.7,0,1.3,0,2.1c-1.3,0-2.4,0-3.8,0c0,4.3,0,8.5,0,12.9c-1.5,0-2.8,0-4.3,0c0-4.2,0-8.4,0-12.8
				c-1.4,0-2.6,0-3.9,0c0-0.8,0-1.4,0-2.1C166.2,12.8,170.1,12.8,174.3,12.8z"/>
			<path d="M100.9,27.9c0-3.1-0.1-5.9,0.1-8.8c0-0.5,0.8-1.3,1.3-1.5c1-0.4,1.9,0.1,2.4,1.1c0.5,1.1,1,2.2,1.5,3.4
				c0.5-1.2,0.9-2.2,1.3-3.2c0.5-1.2,1.5-1.6,2.7-1.3c1.1,0.3,1.4,1.1,1.4,2.2c0,2.6,0,5.2,0,8c-1.1,0-2.1,0-3.2,0
				c0-2.1,0-4.1,0-6.2c-0.1,0-0.2-0.1-0.3-0.1c-0.8,2.1-1.7,4.2-2.6,6.6c-0.9-2.3-1.7-4.2-2.5-6.2c-0.1,0-0.2,0-0.3,0.1
				c0,1.9,0,3.9,0,5.9C102,27.8,101.5,27.9,100.9,27.9z"/>
			<path d="M182.7,23.4c1,1.5,1.8,2.8,2.9,4.5c-1.3,0-2.3,0-3.4,0c-0.3,0-0.7-0.3-0.8-0.6c-0.7-1.3-1.3-2.7-2-4.2
				c1.1-0.5,2.3-1.1,1.7-2.5c-0.2-0.6-1-1-1.5-1.5c-0.1,0.1-0.3,0.2-0.4,0.3c0,2.8,0,5.5,0,8.4c-1.1,0-2,0-3.1,0c0-3.3,0-6.5,0-10
				c1.9,0.1,3.9,0.1,5.8,0.3c1.3,0.1,2.4,0.8,2.6,2.2C184.7,21.7,184.2,22.8,182.7,23.4z"/>
			<path d="M124.6,11.8c1.1,0,2,0,3.1,0c0,5.3,0,10.6,0,16c-1.1,0-2.1,0-3.1,0C124.6,22.5,124.6,17.2,124.6,11.8z"/>
			<path d="M122.8,27.9c-1,0-1.9,0.1-2.7,0c-0.4-0.1-1-0.4-1.1-0.8c-0.3-1.5-1.4-0.9-2.3-1c-0.7-0.1-1.4-0.1-1.6,0.9
				c-0.2,1.2-1.1,0.8-2,0.8c1-3,1.9-5.8,2.9-8.7c0.3-0.9,0.9-1.6,2-1.6c1.1,0,1.6,0.7,1.9,1.6C120.8,22,121.7,24.8,122.8,27.9z
				 M117.3,21c-0.1,0-0.2,0-0.3-0.1c-0.3,1.1-0.7,2.3-1,3.5c0.8,0,1.5,0,2.2,0C117.9,23.3,117.6,22.1,117.3,21z"/>
			<path d="M195.4,27.9c-1,0-1.6,0-2.3,0c-0.8,0.1-1.4-0.1-1.5-1c-0.2-1.2-1.3-0.7-2-0.8c-0.6,0-1.5-0.4-1.7,0.7
				c-0.2,1.2-1,1.1-2.1,0.9c1-3.1,2-6.1,3.1-9c0.2-0.5,1.2-1.1,1.8-1.1c0.6,0,1.5,0.6,1.7,1.2C193.4,21.8,194.3,24.7,195.4,27.9z
				 M190.8,24.5c-0.3-1.3-0.7-2.4-1.1-4c-0.5,1.5-0.8,2.7-1.2,4C189.4,24.5,190.1,24.5,190.8,24.5z"/>
			<path d="M99.2,27.9c-1.1,0-1.9,0.1-2.7,0c-0.4-0.1-0.9-0.4-1-0.7c-0.3-1.4-1.4-1-2.2-1.1c-0.8-0.1-1.4,0-1.7,1
				c-0.1,0.4-1,0.7-1.5,1c-0.1-0.1-0.3-0.3-0.4-0.4c1-3,1.9-6,3.1-9c0.2-0.5,1.2-1.1,1.7-1.1c0.6,0,1.5,0.6,1.7,1.2
				C97.2,21.7,98.1,24.7,99.2,27.9z M93.7,21c-0.1,0-0.2,0-0.2,0c-0.3,1.1-0.7,2.3-1,3.5c0.8,0,1.5,0,2.2,0
				C94.3,23.2,94,22.1,93.7,21z"/>
			<path d="M135.2,27.9c-0.3-1.1-0.2-1.7,1-1.6c0.6,0.1,1.3,0.1,1.8,0c0.5-0.1,0.8-0.6,1.3-0.9c-0.3-0.4-0.5-0.9-0.9-1.1
				c-0.6-0.3-1.3-0.5-2-0.7c-1.2-0.5-1.8-1.4-1.8-2.6c0-1.3,0.6-2.3,1.8-2.6c1.5-0.4,3.1-0.5,4.7-0.7c0,0.7,0.1,1.2,0.1,1.6
				c-1.2,0.2-2.3,0.3-3.4,0.5c0,0.2-0.1,0.4-0.1,0.6c0.7,0.3,1.3,0.8,2,1c1.8,0.6,2.8,1.9,2.6,3.4c-0.2,1.7-1.6,3-3.4,3.1
				C137.8,28,136.6,27.9,135.2,27.9z"/>
			<path d="M215.7,17.9c0,0.5,0,0.9,0,1.3c-1.1,0.2-2.2,0.3-3.2,0.8c-0.3,0.1-0.2,1.2-0.2,2c1.1,0,2,0,3.1,0c0,0.6,0.1,1,0.1,1.6
				c-1,0-2,0.1-3,0.1c0,0.9-0.7,2,0.5,2.5c0.8,0.3,1.9,0.1,2.9,0.1c0,0.6,0.1,1,0.1,1.6c-1.9,0-3.6,0.1-5.4,0c-1,0-1.6-0.7-1.6-1.7
				c0-2.2,0-4.4,0-6.6c0-1,0.7-1.6,1.6-1.7C212.3,17.8,214,17.9,215.7,17.9z"/>
			<path d="M134,28c-1.3-0.4-2.8,0.8-3.8-0.9c-2.5-4.1-2.5-4.3,0.4-8.5c0.4-0.5,1.3-0.7,2-1c0.1,0.1,0.2,0.3,0.3,0.4
				c-0.5,0.9-1.1,1.9-1.5,2.8c-0.2,0.5-0.2,1.2,0,1.7c0.9,1.7,1.8,3.4,2.8,5.1C134.1,27.7,134,27.8,134,28z"/>
		</g>
	</g>
</g>
<image style="overflow:visible;" width="500" height="500" xlink:href="logo.png"  transform="matrix(1 0 0 1 -705.5745 -164.7879)">
</image>
</svg>
