<?xml version="1.0" encoding="utf-8"?>
<!-- Generator: Adobe Illustrator 24.2.1, SVG Export Plug-In . SVG Version: 6.00 Build 0)  -->
<svg version="1.1" id="Layer_1" xmlns="http://www.w3.org/2000/svg" xmlns:xlink="http://www.w3.org/1999/xlink" x="0px" y="0px"
	 viewBox="0 0 67.2 67.5" style="enable-background:new 0 0 67.2 67.5;" xml:space="preserve">
<g>
	<g>
		<path d="M0.1,32.1C0.5,19,8.6,8,19.4,3.2c11.1-5,21.8-4.1,32.6,2.2c-6.6,6.9-13.2,13.2-21,18C21.5,29.1,11.1,31.5,0.1,32.1z"/>
		<path d="M10.8,58.2c3.3,0,6.2-0.1,9.1,0c12.5,0.4,24.2-2.7,35.1-8.8c3.5-2,6.6-4.6,9.9-6.9c0.4-0.3,0.7-0.6,1.1-0.9
			c0.9,6.8-10.6,19.9-20.5,23.7C31.4,70.7,16.7,65.1,10.8,58.2z"/>
		<path d="M62,15.3c1.1,2.3,2.1,4.3,3,6.4c0.2,0.5,0,1.5-0.4,1.9C51.1,37.2,35.9,47.3,15.8,47.4c-3.7,0-7.4,0.1-11.1,0.3
			c-1.5,0.1-2.4-0.3-2.6-1.9C2,45,1.6,44.2,1.3,43.2C2.1,43.1,2.8,43,3.5,43c9.3-0.2,18.4-1.2,27.2-4.5c9.4-3.6,17-9.7,24.3-16.4
			C57.2,20,59.4,17.8,62,15.3z"/>
		<path d="M0.4,39.9c-0.1-1.5-0.3-3-0.4-4.6c1.8-0.2,3.5-0.4,5.2-0.5c16.3-1.5,30-8.5,41.6-20c2.2-2.2,4.4-4.3,6.5-6.4
			c0.9-0.9,1.6-1,2.5,0.1c1.2,1.4,2.5,2.7,3.9,4.1C48.8,24,37.7,34.9,21.3,38.1C14.4,39.5,7.5,39.9,0.4,39.9z"/>
		<path d="M4.7,50.5c24.3,1.9,44.9-5.9,61.6-24.2c1,3.3,1.1,6.5,0.8,9.7c0,0.4-0.4,0.7-0.7,1c-11.6,10.8-25,17.4-41.2,17.9
			C20,55,14.9,55.2,9.7,55.3C7,55.3,5.4,53.7,4.7,50.5z"/>
	</g>
</g>
</svg>
